<svg xmlns="http://www.w3.org/2000/svg" xmlns:xlink="http://www.w3.org/1999/xlink" viewBox="0 0 500 500"><defs><clipPath id="freepik--clip-path--inject-296"><path d="M343.28,340.7H220A29.88,29.88,0,0,1,190,309l10.55-201.17c.91-17.44,15.93-31.71,33.37-31.71H357.15a29.88,29.88,0,0,1,30.05,31.71L376.66,309C375.74,326.43,360.72,340.7,343.28,340.7Z" style="fill:none"></path></clipPath></defs><g id="freepik--background-complete--inject-296"><rect y="382.4" width="500" height="0.25" style="fill:#e0e0e0"></rect><rect x="52.46" y="398.08" width="27.37" height="0.25" style="fill:#e0e0e0"></rect><rect x="86.42" y="398.08" width="8.69" height="0.25" style="fill:#e0e0e0"></rect><rect x="230.64" y="394.63" width="19.36" height="0.25" style="fill:#e0e0e0"></rect><rect x="374.77" y="394.5" width="43.19" height="0.25" style="fill:#e0e0e0"></rect><rect x="426.87" y="394.5" width="6.33" height="0.25" style="fill:#e0e0e0"></rect><rect x="246.99" y="388.58" width="93.68" height="0.25" style="fill:#e0e0e0"></rect><path d="M237,337.8H43.91a5.71,5.71,0,0,1-5.7-5.71V60.66A5.71,5.71,0,0,1,43.91,55H237a5.71,5.71,0,0,1,5.71,5.71V332.09A5.71,5.71,0,0,1,237,337.8ZM43.91,55.2a5.46,5.46,0,0,0-5.45,5.46V332.09a5.46,5.46,0,0,0,5.45,5.46H237a5.47,5.47,0,0,0,5.46-5.46V60.66A5.47,5.47,0,0,0,237,55.2Z" style="fill:#e0e0e0"></path><path d="M453.31,337.8H260.21a5.72,5.72,0,0,1-5.71-5.71V60.66A5.72,5.72,0,0,1,260.21,55h193.1A5.71,5.71,0,0,1,459,60.66V332.09A5.71,5.71,0,0,1,453.31,337.8ZM260.21,55.2a5.47,5.47,0,0,0-5.46,5.46V332.09a5.47,5.47,0,0,0,5.46,5.46h193.1a5.47,5.47,0,0,0,5.46-5.46V60.66a5.47,5.47,0,0,0-5.46-5.46Z" style="fill:#e0e0e0"></path><path d="M312.22,51a4.13,4.13,0,0,1,4.12-4.12H444.67A4.13,4.13,0,0,1,448.79,51V64.23H312.22Z" style="fill:#e0e0e0"></path><path d="M342.41,55.54a3.12,3.12,0,1,0,3.12-3.11A3.12,3.12,0,0,0,342.41,55.54Z" style="fill:#fff"></path><path d="M331.37,55.54a3.12,3.12,0,1,0,3.12-3.11A3.12,3.12,0,0,0,331.37,55.54Z" style="fill:#fff"></path><path d="M320.33,55.54a3.12,3.12,0,1,0,3.12-3.11A3.12,3.12,0,0,0,320.33,55.54Z" style="fill:#fff"></path><path d="M444.67,153.55H316.34a4.13,4.13,0,0,1-4.12-4.12V64.23H448.79v85.2A4.13,4.13,0,0,1,444.67,153.55Z" style="fill:#f0f0f0"></path><path d="M303,64.76a4.13,4.13,0,0,1,4.12-4.12H435.48a4.13,4.13,0,0,1,4.12,4.12V78H303Z" style="fill:#f0f0f0"></path><path d="M333.22,69.33a3.12,3.12,0,1,0,3.11-3.11A3.12,3.12,0,0,0,333.22,69.33Z" style="fill:#e0e0e0"></path><path d="M322.18,69.33a3.12,3.12,0,1,0,3.12-3.11A3.12,3.12,0,0,0,322.18,69.33Z" style="fill:#e0e0e0"></path><path d="M311.14,69.33a3.12,3.12,0,1,0,3.12-3.11A3.12,3.12,0,0,0,311.14,69.33Z" style="fill:#e0e0e0"></path><path d="M435.48,167.34H307.14a4.13,4.13,0,0,1-4.12-4.12V78H439.6v85.2A4.13,4.13,0,0,1,435.48,167.34Z" style="fill:#fafafa"></path><path d="M293.83,78.55A4.13,4.13,0,0,1,298,74.43H426.29a4.13,4.13,0,0,1,4.12,4.12V91.81H293.83Z" style="fill:#fafafa"></path><path d="M324,83.12A3.12,3.12,0,1,0,327.14,80,3.12,3.12,0,0,0,324,83.12Z" style="fill:#f0f0f0"></path><path d="M313,83.12A3.12,3.12,0,1,0,316.1,80,3.12,3.12,0,0,0,313,83.12Z" style="fill:#f0f0f0"></path><circle cx="305.06" cy="83.12" r="3.12" style="fill:#f0f0f0"></circle><path d="M426.29,181.13H298a4.13,4.13,0,0,1-4.12-4.12V91.81H430.41V177A4.13,4.13,0,0,1,426.29,181.13Z" style="fill:#e0e0e0"></path><path d="M79.13,127.88A3.91,3.91,0,0,1,83,124H276.43a3.91,3.91,0,0,1,3.9,3.9v12.58H79.13Z" style="fill:#e0e0e0"></path><path d="M110.73,135.43a3.21,3.21,0,1,1,3.21-3.21A3.21,3.21,0,0,1,110.73,135.43Zm0-5.91a2.7,2.7,0,1,0,2.69,2.7A2.7,2.7,0,0,0,110.73,129.52Z" style="fill:#fff"></path><path d="M100.26,135.43a3.21,3.21,0,1,1,3.21-3.21A3.21,3.21,0,0,1,100.26,135.43Zm0-5.91a2.7,2.7,0,1,0,2.7,2.7A2.7,2.7,0,0,0,100.26,129.52Z" style="fill:#fff"></path><path d="M89.79,135.43A3.21,3.21,0,1,1,93,132.22,3.21,3.21,0,0,1,89.79,135.43Zm0-5.91a2.7,2.7,0,1,0,2.7,2.7A2.7,2.7,0,0,0,89.79,129.52Z" style="fill:#fff"></path><path d="M276.43,245H83a3.92,3.92,0,0,1-3.91-3.91V140.46h201.2V241.12A3.91,3.91,0,0,1,276.43,245Z" style="fill:#f0f0f0"></path><path d="M70.41,154.41a3.92,3.92,0,0,1,3.91-3.91H267.71a3.91,3.91,0,0,1,3.9,3.91V167H70.41Z" style="fill:#fafafa"></path><path d="M102,162a3.21,3.21,0,1,1,3.21-3.21A3.21,3.21,0,0,1,102,162Zm0-5.91a2.7,2.7,0,1,0,2.7,2.7A2.7,2.7,0,0,0,102,156Z" style="fill:#e0e0e0"></path><path d="M91.54,162a3.21,3.21,0,1,1,3.21-3.21A3.21,3.21,0,0,1,91.54,162Zm0-5.91a2.7,2.7,0,1,0,2.7,2.7A2.7,2.7,0,0,0,91.54,156Z" style="fill:#e0e0e0"></path><path d="M81.07,162a3.21,3.21,0,1,1,3.21-3.21A3.21,3.21,0,0,1,81.07,162Zm0-5.91a2.7,2.7,0,1,0,2.7,2.7A2.7,2.7,0,0,0,81.07,156Z" style="fill:#e0e0e0"></path><path d="M267.71,291.4H74.32a3.92,3.92,0,0,1-3.91-3.91V167h201.2V287.49A3.91,3.91,0,0,1,267.71,291.4Z" style="fill:#f0f0f0"></path><path d="M136.46,59.84H66a4.08,4.08,0,0,1-4.07-4.07h0A4.08,4.08,0,0,1,66,51.71h70.48a4.08,4.08,0,0,1,4.06,4.06h0A4.08,4.08,0,0,1,136.46,59.84Z" style="fill:#e0e0e0"></path><path d="M165.73,76.88l-99.53-.4a4.08,4.08,0,0,1-4-4.08h0a4.07,4.07,0,0,1,4.08-4.05l99.52.4a4.08,4.08,0,0,1,4.05,4.08h0A4.07,4.07,0,0,1,165.73,76.88Z" style="fill:#f0f0f0"></path><path d="M112.75,95.71H66a4.08,4.08,0,0,1-4.07-4.07h0A4.08,4.08,0,0,1,66,87.58h46.77a4.08,4.08,0,0,1,4.07,4.06h0A4.08,4.08,0,0,1,112.75,95.71Z" style="fill:#e6e6e6"></path><path d="M435.84,210.78H414.13a3.11,3.11,0,0,1-3.1-3.09h0a3.12,3.12,0,0,1,3.1-3.1h21.71a3.11,3.11,0,0,1,3.09,3.1h0A3.1,3.1,0,0,1,435.84,210.78Z" style="fill:#e0e0e0"></path><rect x="411.03" y="217.81" width="38.21" height="6.19" rx="3.09" style="fill:#f0f0f0"></rect><path d="M427.42,238.09H414.13A3.11,3.11,0,0,1,411,235h0a3.12,3.12,0,0,1,3.1-3.1h13.29a3.11,3.11,0,0,1,3.1,3.1h0A3.1,3.1,0,0,1,427.42,238.09Z" style="fill:#e6e6e6"></path><path d="M436.56,251.3H414.13a3.11,3.11,0,0,1-3.1-3.09h0a3.12,3.12,0,0,1,3.1-3.1h22.43a3.11,3.11,0,0,1,3.09,3.1h0A3.1,3.1,0,0,1,436.56,251.3Z" style="fill:#f0f0f0"></path><path d="M433,265.4H414.13a3.11,3.11,0,0,1-3.1-3.09h0a3.12,3.12,0,0,1,3.1-3.1H433a3.12,3.12,0,0,1,3.1,3.1h0A3.11,3.11,0,0,1,433,265.4Z" style="fill:#e6e6e6"></path><path d="M361.45,227.09H296.92a3.1,3.1,0,0,1-3.09-3.1h0a3.1,3.1,0,0,1,3.09-3.09h64.53a3.1,3.1,0,0,1,3.09,3.09h0A3.1,3.1,0,0,1,361.45,227.09Z" style="fill:#e0e0e0"></path><path d="M387.57,240.3H296.92a3.1,3.1,0,0,1-3.09-3.09h0a3.1,3.1,0,0,1,3.09-3.1h90.65a3.11,3.11,0,0,1,3.1,3.1h0A3.11,3.11,0,0,1,387.57,240.3Z" style="fill:#f0f0f0"></path><path d="M340.12,254.4h-43.2a3.1,3.1,0,0,1-3.09-3.1h0a3.1,3.1,0,0,1,3.09-3.09h43.2a3.11,3.11,0,0,1,3.1,3.09h0A3.11,3.11,0,0,1,340.12,254.4Z" style="fill:#e6e6e6"></path><path d="M363.27,267.61H296.92a3.1,3.1,0,0,1-3.09-3.1h0a3.1,3.1,0,0,1,3.09-3.09h66.35a3.1,3.1,0,0,1,3.1,3.09h0A3.1,3.1,0,0,1,363.27,267.61Z" style="fill:#f0f0f0"></path><path d="M354.13,281.71H296.92a3.1,3.1,0,0,1-3.09-3.1h0a3.1,3.1,0,0,1,3.09-3.09h57.21a3.1,3.1,0,0,1,3.09,3.09h0A3.1,3.1,0,0,1,354.13,281.71Z" style="fill:#e6e6e6"></path></g><g id="freepik--Shadow--inject-296"><ellipse cx="250" cy="416.24" rx="193.89" ry="11.32" style="fill:#f5f5f5"></ellipse></g><g id="freepik--Charts--inject-296"><path d="M350.37,347.78H227.13a29.88,29.88,0,0,1-30-31.71l10.54-201.16C208.54,97.47,223.55,83.2,241,83.2H364.24a29.88,29.88,0,0,1,30.05,31.71L383.74,316.07C382.83,333.51,367.81,347.78,350.37,347.78Z" style="fill:#415BB2;opacity:0.7000000000000001"></path><rect x="269.92" y="71.61" width="7.67" height="1" style="fill:#415BB2"></rect><rect x="236.7" y="71.61" width="26.67" height="1" style="fill:#415BB2"></rect><rect x="190.84" y="143.51" width="7.59" height="1" transform="translate(40.55 330.77) rotate(-86.97)" style="fill:#415BB2"></rect><path d="M343.28,340.7H220A29.88,29.88,0,0,1,190,309l10.55-201.17c.91-17.44,15.93-31.71,33.37-31.71H357.15a29.88,29.88,0,0,1,30.05,31.71L376.66,309C375.74,326.43,360.72,340.7,343.28,340.7Z" style="fill:#415BB2;opacity:0.6000000000000001"></path><g style="clip-path:url(#freepik--clip-path--inject-296)"><path d="M243.09,312.23c-29.3,0-56.26-11.41-75.92-32.12s-29.7-48.36-28.16-77.72a114.34,114.34,0,0,1,17.55-54.86,119.36,119.36,0,0,1,40.68-39.28.25.25,0,0,1,.19,0,.28.28,0,0,1,.16.12l10.09,19.25c.36-.2.72-.4,1.09-.59l.39-.22a.31.31,0,0,1,.19,0,.24.24,0,0,1,.15.13l2.76,5.25a.25.25,0,0,1-.1.33c-25.67,14.35-42.56,41.14-44.06,69.93-1.14,21.58,6.21,41.87,20.69,57.12a76,76,0,0,0,55.8,23.61.23.23,0,0,1,.18.08.22.22,0,0,1,.07.18l-1.5,28.6A.24.24,0,0,1,243.09,312.23ZM197.26,108.82c-33.63,19.7-55.76,55.54-57.76,93.59-1.53,29.23,8.43,56.7,28,77.35s46.25,31.91,75.33,32l1.47-28.09a76.53,76.53,0,0,1-55.9-23.76c-14.57-15.36-22-35.78-20.83-57.49,1.51-28.88,18.4-55.77,44.1-70.23l-2.52-4.81-.18.1c-.43.23-.87.46-1.29.71a.27.27,0,0,1-.2,0,.26.26,0,0,1-.15-.12Z" style="fill:#415BB2"></path><path d="M250.21,322.66a.27.27,0,0,1-.19-.08.26.26,0,0,1-.06-.19l1.6-30.59a.25.25,0,0,1,.25-.23c47.65,0,88.45-38.77,90.95-86.43a.25.25,0,0,1,.25-.23h7.28a.24.24,0,0,1,.25.24c.06,2.48,0,5-.09,7.45h22.49a.23.23,0,0,1,.18.08.31.31,0,0,1,.07.2,124.62,124.62,0,0,1-38.11,75.36C312.05,310.11,281.12,322.66,250.21,322.66Zm1.84-30.59-1.58,30.09c30.7-.07,61.4-12.56,84.26-34.29a124.05,124.05,0,0,0,37.93-74.77H350.19A.23.23,0,0,1,350,213a.21.21,0,0,1-.07-.18c.13-2.46.16-5,.11-7.43h-6.8C340.62,253.13,299.78,291.94,252.05,292.07Z" style="fill:#415BB2"></path><path d="M350.29,205.41a.26.26,0,0,1-.25-.25c-1.27-50.53-42-90.11-92.77-90.11a101.1,101.1,0,0,0-47.87,12.18.24.24,0,0,1-.34-.1.26.26,0,0,1,.1-.34,101.61,101.61,0,0,1,48.11-12.24,92.22,92.22,0,0,1,93.27,90.6.25.25,0,0,1-.24.26Z" style="fill:#415BB2"></path><path d="M384.8,213.1H372.94a.25.25,0,0,1,0-.5h11.62a128,128,0,0,0-14.27-65.94c-15.49-29.47-41.92-51-74.43-60.64-34.58-10.26-71.39-6-103.68,12l5.41,10.3a.26.26,0,0,1-.11.34.25.25,0,0,1-.34-.11l-5.51-10.51a.24.24,0,0,1,.1-.33A136.76,136.76,0,0,1,244,80.92a131.63,131.63,0,0,1,52,4.62c32.64,9.68,59.18,31.3,74.73,60.89a128.48,128.48,0,0,1,14.32,66.43A.25.25,0,0,1,384.8,213.1Z" style="fill:#415BB2"></path><path d="M207.58,128.19h-.07a.26.26,0,0,1-.15-.12l-10.22-19.48a.25.25,0,0,1,.45-.23l10.09,19.25c.36-.2.72-.4,1.09-.59l.39-.22a.25.25,0,0,1,.34.11.24.24,0,0,1-.1.33l-.4.22c-.43.23-.87.46-1.29.71A.28.28,0,0,1,207.58,128.19Z" style="fill:#415BB2"></path><g style="opacity:0.30000000000000004"><path d="M243.09,312.23c-29.3,0-56.26-11.41-75.92-32.12s-29.7-48.36-28.16-77.72a114.34,114.34,0,0,1,17.55-54.86,119.36,119.36,0,0,1,40.68-39.28.25.25,0,0,1,.19,0,.28.28,0,0,1,.16.12l10.09,19.25c.36-.2.72-.4,1.09-.59l.39-.22a.31.31,0,0,1,.19,0,.24.24,0,0,1,.15.13l2.76,5.25a.25.25,0,0,1-.1.33c-25.67,14.35-42.56,41.14-44.06,69.93-1.14,21.58,6.21,41.87,20.69,57.12a76,76,0,0,0,55.8,23.61.23.23,0,0,1,.18.08.22.22,0,0,1,.07.18l-1.5,28.6A.24.24,0,0,1,243.09,312.23ZM197.26,108.82c-33.63,19.7-55.76,55.54-57.76,93.59-1.53,29.23,8.43,56.7,28,77.35s46.25,31.91,75.33,32l1.47-28.09a76.53,76.53,0,0,1-55.9-23.76c-14.57-15.36-22-35.78-20.83-57.49,1.51-28.88,18.4-55.77,44.1-70.23l-2.52-4.81-.18.1c-.43.23-.87.46-1.29.71a.27.27,0,0,1-.2,0,.26.26,0,0,1-.15-.12Z" style="fill:#fff"></path><path d="M250.21,322.66a.27.27,0,0,1-.19-.08.26.26,0,0,1-.06-.19l1.6-30.59a.25.25,0,0,1,.25-.23c47.65,0,88.45-38.77,90.95-86.43a.25.25,0,0,1,.25-.23h7.28a.24.24,0,0,1,.25.24c.06,2.48,0,5-.09,7.45h22.49a.23.23,0,0,1,.18.08.31.31,0,0,1,.07.2,124.62,124.62,0,0,1-38.11,75.36C312.05,310.11,281.12,322.66,250.21,322.66Zm1.84-30.59-1.58,30.09c30.7-.07,61.4-12.56,84.26-34.29a124.05,124.05,0,0,0,37.93-74.77H350.19A.23.23,0,0,1,350,213a.21.21,0,0,1-.07-.18c.13-2.46.16-5,.11-7.43h-6.8C340.62,253.13,299.78,291.94,252.05,292.07Z" style="fill:#fff"></path><path d="M350.29,205.41a.26.26,0,0,1-.25-.25c-1.27-50.53-42-90.11-92.77-90.11a101.1,101.1,0,0,0-47.87,12.18.24.24,0,0,1-.34-.1.26.26,0,0,1,.1-.34,101.61,101.61,0,0,1,48.11-12.24,92.22,92.22,0,0,1,93.27,90.6.25.25,0,0,1-.24.26Z" style="fill:#fff"></path><path d="M384.8,213.1H372.94a.25.25,0,0,1,0-.5h11.62a128,128,0,0,0-14.27-65.94c-15.49-29.47-41.92-51-74.43-60.64-34.58-10.26-71.39-6-103.68,12l5.41,10.3a.26.26,0,0,1-.11.34.25.25,0,0,1-.34-.11l-5.51-10.51a.24.24,0,0,1,.1-.33A136.76,136.76,0,0,1,244,80.92a131.63,131.63,0,0,1,52,4.62c32.64,9.68,59.18,31.3,74.73,60.89a128.48,128.48,0,0,1,14.32,66.43A.25.25,0,0,1,384.8,213.1Z" style="fill:#fff"></path><path d="M207.58,128.19h-.07a.26.26,0,0,1-.15-.12l-10.22-19.48a.25.25,0,0,1,.45-.23l10.09,19.25c.36-.2.72-.4,1.09-.59l.39-.22a.25.25,0,0,1,.34.11.24.24,0,0,1-.1.33l-.4.22c-.43.23-.87.46-1.29.71A.28.28,0,0,1,207.58,128.19Z" style="fill:#fff"></path></g></g><path d="M250.83,270.69l-1,18.37c-38.89,0-68.78-31.54-66.74-70.42,1.37-26.06,16.73-48.83,38.42-61l8.36,15.91a55.34,55.34,0,0,0-28.4,45.08C200,247.38,222.09,270.69,250.83,270.69Z" style="fill:#415BB2"></path><path d="M250.83,270.69l-1,18.37c-38.89,0-68.78-31.54-66.74-70.42,1.37-26.06,16.73-48.83,38.42-61l8.36,15.91a55.34,55.34,0,0,0-28.4,45.08C200,247.38,222.09,270.69,250.83,270.69Z" style="opacity:0.6000000000000001"></path><path d="M333.74,220.41a80.34,80.34,0,0,1-79.3,75.35l1-19.66c30.75,0,57-24.94,58.61-55.69Z" style="fill:#415BB2"></path><path d="M333.74,220.41a80.34,80.34,0,0,1-79.3,75.35l1-19.66c30.75,0,57-24.94,58.61-55.69Z" style="opacity:0.30000000000000004"></path><path d="M340.93,225.36H318.69c1.82-34.83-24.92-63-59.71-63A64.79,64.79,0,0,0,227,170.79l-10.11-19.27c41.73-23.38,93.54-9.28,114.82,31.22A82.43,82.43,0,0,1,340.93,225.36Z" style="fill:#fafafa"></path><polygon points="338.5 280.84 318.02 280.84 315.81 323.02 336.29 323.02 338.5 280.84" style="fill:#fafafa"></polygon><polygon points="367.73 266.9 347.25 266.9 344.31 323.02 364.79 323.02 367.73 266.9" style="fill:#415BB2"></polygon><polygon points="367.73 266.9 347.25 266.9 344.31 323.02 364.79 323.02 367.73 266.9" style="opacity:0.6000000000000001"></polygon><polygon points="395.49 280.84 375.01 280.84 372.8 323.02 393.28 323.02 395.49 280.84" style="fill:#415BB2"></polygon><polygon points="395.49 280.84 375.01 280.84 372.8 323.02 393.28 323.02 395.49 280.84" style="opacity:0.30000000000000004"></polygon><polygon points="393.09 326.61 315.62 326.61 315.67 325.65 393.14 325.65 393.09 326.61" style="fill:#263238"></polygon><polygon points="403.56 148.15 314.26 148.15 316.9 97.7 406.21 97.7 403.56 148.15" style="fill:#fafafa;opacity:0.8"></polygon><path d="M315.87,117.36l-1.61,30.79h89.3l2-38.23c-14.82,0-23.61,16.87-41.94,16.87S340.26,117.36,315.87,117.36Z" style="fill:#415BB2"></path><path d="M315.87,117.36l-1.61,30.79h89.3l2-38.23c-14.82,0-23.61,16.87-41.94,16.87S340.26,117.36,315.87,117.36Z" style="opacity:0.1"></path><path d="M315.1,132.08c20.07,0,27.28-11,38.55-11s16.2,11.57,30.24,11.57c14.64,0,21-9.1,21-9.1l-1.29,24.62h-89.3Z" style="fill:#415BB2"></path><path d="M315.1,132.08c20.07,0,27.28-11,38.55-11s16.2,11.57,30.24,11.57c14.64,0,21-9.1,21-9.1l-1.29,24.62h-89.3Z" style="opacity:0.5"></path></g><g id="freepik--Character--inject-296"><path d="M138.49,170.8c-1.32,1.77-2.79,3.74-4.12,5.67s-2.67,3.9-3.93,5.88a86,86,0,0,0-6.6,12.11l-.33.76-.16.38s0,0,0,0a1.22,1.22,0,0,0-.11.5,8.57,8.57,0,0,0,.27,2.42,35.39,35.39,0,0,0,2.17,6.13,142.33,142.33,0,0,0,6.58,12.64l-4.33,3.42a73.31,73.31,0,0,1-9.72-12,38.42,38.42,0,0,1-3.74-7.42,18.1,18.1,0,0,1-1.07-4.85,11.4,11.4,0,0,1,.22-3.16c.06-.29.15-.6.24-.89l.16-.49.32-1c.41-1.31.91-2.54,1.39-3.79s1-2.45,1.63-3.62c1.1-2.39,2.37-4.66,3.66-6.9s2.69-4.4,4.15-6.51c.73-1.06,1.48-2.1,2.24-3.14s1.52-2,2.42-3.12Z" style="fill:#e58a7b"></path><path d="M130.69,215.72l5.37.92-4.77,8.08s-3.74-1.8-4.42-5.29Z" style="fill:#e58a7b"></path><polygon points="141.86 219.53 137.61 226.03 131.29 224.72 136.06 216.64 141.86 219.53" style="fill:#e58a7b"></polygon><path d="M166.18,131.6c0,.59.31,1.07.7,1.07s.7-.48.7-1.07-.31-1.07-.7-1.07S166.18,131,166.18,131.6Z" style="fill:#263238"></path><path d="M166.44,132.67a21.33,21.33,0,0,0,2.83,5.07,3.41,3.41,0,0,1-2.83.53Z" style="fill:#df5753"></path><path d="M164.08,128.32a.32.32,0,0,1-.28-.15.33.33,0,0,1,.08-.48,3.42,3.42,0,0,1,3.13-.54.35.35,0,0,1,.19.45.33.33,0,0,1-.44.2h0a2.75,2.75,0,0,0-2.48.45A.31.31,0,0,1,164.08,128.32Z" style="fill:#263238"></path><path d="M147.05,138.43c1.06,5.38,2.11,15.22-1.65,18.81,0,0,1.47,5.45,11.46,5.45,11,0,5.24-5.45,5.24-5.45-6-1.43-5.84-5.88-4.79-10.05Z" style="fill:#e58a7b"></path><path d="M144,159.11c-.79-1.72-1.65-3.7.14-4.32,2-.68,12.77-1.37,16.49-.1a3.85,3.85,0,0,1,2.67,4.78Z" style="fill:#415BB2"></path><path d="M120.83,410a9.34,9.34,0,0,1-1.92-.21.16.16,0,0,1-.13-.13.18.18,0,0,1,.07-.18c.09-.06,2.12-1.44,3.19-1.2a.79.79,0,0,1,.54.41.72.72,0,0,1,0,.83A2.35,2.35,0,0,1,120.83,410Zm-1.43-.46c1.1.18,2.6.18,2.91-.24,0,0,.13-.16,0-.44a.47.47,0,0,0-.32-.24A4.72,4.72,0,0,0,119.4,409.56Z" style="fill:#415BB2"></path><path d="M119,409.82a.14.14,0,0,1-.09,0,.16.16,0,0,1-.08-.16c0-.09.18-2.21,1-2.91a1,1,0,0,1,.74-.22.57.57,0,0,1,.56.46c.15.82-1.32,2.42-2.08,2.84Zm1.48-3a.64.64,0,0,0-.4.15,4.23,4.23,0,0,0-.87,2.3c.76-.57,1.7-1.78,1.61-2.27,0,0,0-.15-.26-.18Z" style="fill:#415BB2"></path><path d="M164.94,410a12.08,12.08,0,0,1-2.25-.21.16.16,0,0,1-.14-.14.18.18,0,0,1,.08-.18c.11-.06,2.68-1.52,3.9-1.19a.84.84,0,0,1,.55.41.65.65,0,0,1,0,.76C166.79,409.89,165.88,410,164.94,410Zm-1.69-.46c1.38.19,3.23.16,3.57-.3,0-.06.08-.16,0-.38a.51.51,0,0,0-.34-.24C165.64,408.42,164,409.16,163.25,409.56Z" style="fill:#415BB2"></path><path d="M162.72,409.82a.17.17,0,0,1-.1,0,.17.17,0,0,1-.07-.16,4.84,4.84,0,0,1,1.14-2.83,1.22,1.22,0,0,1,1-.3c.48.05.62.29.65.49.13.83-1.62,2.42-2.51,2.81Zm1.79-3a.87.87,0,0,0-.6.23,4,4,0,0,0-1,2.26c.9-.54,2.1-1.79,2-2.29,0,0,0-.16-.34-.2Z" style="fill:#415BB2"></path><polygon points="154.64 409.64 161.99 409.64 162.72 392.63 155.37 392.63 154.64 409.64" style="fill:#e58a7b"></polygon><polygon points="110.53 409.64 117.88 409.64 121.57 392.63 114.23 392.63 110.53 409.64" style="fill:#e58a7b"></polygon><path d="M118.4,408.79h-8.25a.65.65,0,0,0-.63.51l-1.45,6.53a1.08,1.08,0,0,0,1.08,1.3c2.88-.05,4.28-.22,7.91-.22,2.23,0,6.83.24,9.92.24s3.48-3,2.22-3.33c-5.66-1.24-7.79-2.95-9.61-4.57A1.74,1.74,0,0,0,118.4,408.79Z" style="fill:#263238"></path><path d="M161.94,408.79h-8a.65.65,0,0,0-.63.51l-1.45,6.53a1.07,1.07,0,0,0,1.06,1.3c2.89-.05,7.07-.22,10.71-.22,4.25,0,7.93.24,12.91.24,3,0,3.86-3,2.6-3.33-5.75-1.26-10.44-1.39-15.41-4.45A3.36,3.36,0,0,0,161.94,408.79Z" style="fill:#263238"></path><path d="M171.65,161.43c4.3,2.12,8.77,4.29,13.18,6.32s8.87,4,13.3,5.69l1.65.59.42.15.1,0s0,0,0,0h0s0,0,.05.05a4.06,4.06,0,0,0,1.77-.21,25.82,25.82,0,0,0,5.66-2.69A117.87,117.87,0,0,0,219.41,163l4.05,3.74a65.51,65.51,0,0,1-10.69,11.56,30.38,30.38,0,0,1-7.32,4.68,13.48,13.48,0,0,1-5.53,1.2,10.5,10.5,0,0,1-1.8-.19l-.48-.11-.33-.09-.48-.13-1.92-.53a136,136,0,0,1-14.56-5.28c-4.72-2-9.26-4.14-13.85-6.57Z" style="fill:#e58a7b"></path><path d="M132.25,158.9c-6.89,1.58-14.79,20.35-14.79,20.35l13.83,9.48a116.61,116.61,0,0,0,9.14-15.53C144.51,164.61,139.29,157.29,132.25,158.9Z" style="fill:#263238"></path><path d="M137.18,170.87l-6.54,17.41.65.45s2.83-4,5.89-9.33Z" style="fill:#415BB2"></path><path d="M137.18,170.87l-6.54,17.41.65.45s2.83-4,5.89-9.33Z" style="opacity:0.8"></path><path d="M173.4,159.28s7.82,8.83.44,63.5h-39.3c-.27-6,3.52-35.46-2.29-63.88a102.56,102.56,0,0,1,13.15-1.66,145.27,145.27,0,0,1,16.7,0A73.5,73.5,0,0,1,173.4,159.28Z" style="fill:#263238"></path><path d="M176.84,176.1l-9.45-2c.14.17,6,7.52,9.59,12.09C177.05,182.29,177,179,176.84,176.1Z" style="fill:#415BB2"></path><path d="M176.84,176.1l-9.45-2c.14.17,6,7.52,9.59,12.09C177.05,182.29,177,179,176.84,176.1Z" style="opacity:0.8"></path><path d="M161.08,169.06c2.16,6.68,24,14,24,14l6.5-15.41a90.06,90.06,0,0,0-17.36-8.14C165.36,156.69,158.7,161.73,161.08,169.06Z" style="fill:#263238"></path><path d="M218.79,164l2.15-7.45,8.55,3.87s-1.89,5.78-7.06,7.16Z" style="fill:#e58a7b"></path><polygon points="226.06 150.34 231.87 156.07 229.49 160.38 220.94 156.51 226.06 150.34" style="fill:#e58a7b"></polygon><polygon points="162.72 392.64 162.34 401.4 154.99 401.4 155.37 392.64 162.72 392.64" style="fill:#cf6f64"></polygon><polygon points="114.22 392.64 121.57 392.64 119.67 401.4 112.32 401.4 114.22 392.64" style="fill:#cf6f64"></polygon><path d="M146.42,130.34c.44,7.28.33,11.56,4,15.3,5.53,5.62,14.51,2.28,16.25-5,1.56-6.54.57-17.34-6.56-20.24A9.94,9.94,0,0,0,146.42,130.34Z" style="fill:#e58a7b"></path><path d="M160.56,125.5c5.49,1.62,10.09-6.17,9.24-.66s5.14,4.91,5.14,4.91-4.7-1.78.89-6.42c6.83-5.67-2.87-9.15-7.12-6.07-5.72,4.16-6.84-3.18-14.21-5.15-5-1.32-11.15,1.82-11.26,5.43-.14,4.41-3.93.86-4.21,7.42-.19,4.28,4.91,18.39,10.41,18.87C157.72,144.56,160.5,134.06,160.56,125.5Z" style="fill:#263238"></path><path d="M156.24,132.46A8.22,8.22,0,0,0,159,137c1.85,1.5,3.33.16,3.29-2-.05-1.95-1.06-5.08-3.14-5.74S155.77,130.33,156.24,132.46Z" style="fill:#e58a7b"></path><path d="M144.84,121.64a9.81,9.81,0,0,1-.81-9.3S136.21,118.23,144.84,121.64Z" style="fill:#263238"></path><path d="M138.58,120.92a5,5,0,0,1,4.79.49S141.15,116.88,138.58,120.92Z" style="fill:#263238"></path><path d="M159.9,222.78S151.56,278.92,147,300c-5,23-23.89,99.76-23.89,99.76H109.63S122.09,324.84,125,302c3.1-24.75,9.59-79.26,9.59-79.26Z" style="fill:#415BB2"></path><path d="M125.24,394.75c.06,0-1.39,5.17-1.39,5.17H108.71l.28-4.61Z" style="fill:#415BB2"></path><path d="M125.24,394.75c.06,0-1.39,5.17-1.39,5.17H108.71l.28-4.61Z" style="opacity:0.2"></path><path d="M154.63,242.78c-9.64,1.89-8.62,37.84-7.46,56.33C150,286,154,260.89,156.8,243A3.29,3.29,0,0,0,154.63,242.78Z" style="fill:#415BB2"></path><path d="M154.63,242.78c-9.64,1.89-8.62,37.84-7.46,56.33C150,286,154,260.89,156.8,243A3.29,3.29,0,0,0,154.63,242.78Z" style="opacity:0.2"></path><path d="M173.84,222.78s1,54.92.21,77.33c-.83,23.3-9,99.6-9,99.6H152.64s-.46-74.94-1-97.82c-.6-24.95-3.61-79.11-3.61-79.11Z" style="fill:#415BB2"></path><path d="M162.49,390.77h0a.14.14,0,0,1-.12-.14c2.2-21.12,7.37-72.21,8-90.53.67-18.77.06-60.69-.14-73.1a.12.12,0,0,1,.12-.12.13.13,0,0,1,.13.12c.2,12.4.81,54.33.14,73.11-.65,18.33-5.82,69.43-8,90.55A.12.12,0,0,1,162.49,390.77Z" style="fill:#415BB2"></path><path d="M162.49,390.77h0a.14.14,0,0,1-.12-.14c2.2-21.12,7.37-72.21,8-90.53.67-18.77.06-60.69-.14-73.1a.12.12,0,0,1,.12-.12.13.13,0,0,1,.13.12c.2,12.4.81,54.33.14,73.11-.65,18.33-5.82,69.43-8,90.55A.12.12,0,0,1,162.49,390.77Z" style="opacity:0.2"></path><path d="M167.47,394.75c.06,0-.7,5.17-.7,5.17H151.63l-.41-4.61Z" style="fill:#415BB2"></path><path d="M167.47,394.75c.06,0-.7,5.17-.7,5.17H151.63l-.41-4.61Z" style="opacity:0.2"></path></g></svg>