<svg xmlns="http://www.w3.org/2000/svg" viewBox="0 0 500 500"><g id="freepik--background-complete--inject-295"><rect x="127.46" y="41.11" width="62.31" height="62.31" rx="2.75" style="fill:#f0f0f0"></rect><path d="M176.82,56.49h-.07c-2.11,0-3.82.13-3.82.3a11,11,0,0,0,3.42.3c-.19.2-.47.49-.82.88l-3,3.4-10,11.48L158.32,70c-.75-.49-1.49-1-2.18-1.45l-.23-.14-.17.2c-4.45,5.2-8.39,9.85-11.2,13.21l-3.29,4a10.56,10.56,0,0,0-1.14,1.5A13.21,13.21,0,0,0,141.42,86l3.43-3.86c2.85-3.25,6.78-7.78,11.17-12.89l2,1.31,4.43,2.94.22.15.17-.2,10-11.81,2.89-3.51c.38-.46.64-.8.8-1h.05a11.07,11.07,0,0,0,.29,3.45c.17,0,.3-1.67.31-3.75v-.3Z" style="fill:#e0e0e0"></path><path d="M334.69,82.7h30.48A30.48,30.48,0,1,1,334,52.23Z" style="fill:#f0f0f0"></path><path d="M342.9,75.27l-.68-30.48a32.17,32.17,0,0,1,21.94,8.63,31.32,31.32,0,0,1,9.21,21.38Z" style="fill:#ebebeb"></path><path d="M347.1,208.17c-.17,5.6.15,22.68.15,22.68l5-5H380.4a1.79,1.79,0,0,0,1.78-1.79v-15.8a1.78,1.78,0,0,0-1.78-1.78H348.89A1.78,1.78,0,0,0,347.1,208.17Z" style="fill:#ebebeb"></path><path d="M361.48,216.16a1.32,1.32,0,1,1-1.32-1.33A1.32,1.32,0,0,1,361.48,216.16Z" style="fill:#e0e0e0"></path><path d="M365.94,216.16a1.33,1.33,0,1,1-1.32-1.33A1.32,1.32,0,0,1,365.94,216.16Z" style="fill:#e0e0e0"></path><path d="M370.4,216.16a1.33,1.33,0,1,1-1.33-1.33A1.33,1.33,0,0,1,370.4,216.16Z" style="fill:#e0e0e0"></path><path d="M117.88,297.05c.75-9.73,7.91-24.79,16.71-29a28.61,28.61,0,0,1,27.91,2c5.51,3.72,9.69,9.39,15.72,12.19,11.93,5.54,26.09-2.31,34.42-12.49s13.55-22.8,23-32a47.62,47.62,0,0,1,68.09,1.7c6.41,6.9,10.61,15.51,15.76,23.39s11.76,15.47,20.71,18.42c12.29,4.05,26.16-1.9,34.86-11.49s13.22-22.18,17-34.56,7.09-25.15,14-36.09,18.32-20,31.26-20.33v117.9Z" style="fill:#f0f0f0"></path></g><g id="freepik--Floor--inject-295"><path d="M458.51,445.1c0,.14-93.36.26-208.5.26s-208.52-.12-208.52-.26,93.34-.26,208.52-.26S458.51,445,458.51,445.1Z" style="fill:#263238"></path></g><g id="freepik--Charts--inject-295"><path d="M379.35,193.61a4.39,4.39,0,0,0,.6-.12,2,2,0,0,0,1.22-1.2,3.4,3.4,0,0,0,.11-1.31c0-.49,0-1,0-1.61,0-1.17,0-2.51,0-4,0-6.07-.05-14.83-.09-25.63,0-5.42,0-11.34,0-17.7,0-3.19,0-6.48,0-9.87,0-1.69,0-3.41,0-5.15,0-.85,0-1.79,0-2.59a1.74,1.74,0,0,0-1.62-1.45H332.93a1.74,1.74,0,0,0-1.74,1.69c0,1,0,2,0,3.06v17.95c0,7.79,0,15.3,0,22.46s0,14,0,20.31v2.37a7,7,0,0,0,0,1.13,1.69,1.69,0,0,0,.46.9,1.79,1.79,0,0,0,.88.51,5.33,5.33,0,0,0,1.08.05h10.73l25.63.09,7,.05,1.81,0,.62,0s-.21,0-.62,0l-1.81,0-7,.05-25.63.08-8.49,0h-2.24a5.37,5.37,0,0,1-1.18-.06,2.11,2.11,0,0,1-1.08-.62,2.16,2.16,0,0,1-.58-1.12,8.24,8.24,0,0,1,0-1.2v-2.37c0-6.36,0-13.16,0-20.31s0-14.67,0-22.46q0-5.83,0-11.88v-6.07c0-1,0-2,0-3.08a2.26,2.26,0,0,1,2.26-2.19l46.57,0a2.22,2.22,0,0,1,2.05,1.85c.07,1,0,1.78,0,2.67v5.15c0,3.39,0,6.68,0,9.87,0,6.36,0,12.28,0,17.7,0,10.8-.06,19.56-.08,25.63,0,1.51,0,2.85,0,4,0,.58,0,1.12,0,1.61a3.57,3.57,0,0,1-.14,1.34,2,2,0,0,1-1.31,1.22A1.5,1.5,0,0,1,379.35,193.61Z" style="fill:#263238"></path><path d="M359.43,136.71c-6.8-1.51-14.27,2.18-16.18,9.19-1.84,6.73,2.61,14.59,9.36,16.42A14,14,0,0,0,369,153.57c2.42-7.19-2.19-14.94-9.15-17.23-.8-.27-1.12,1-.34,1.26,5.93,2.17,10.19,8.57,8.41,15-1.68,6.1-8.83,10.18-14.93,8.56-5.87-1.56-9.66-7.86-8.91-13.73.91-7.19,8.52-11.49,15.29-10.32.25,0,.36-.33.11-.38Z" style="fill:#263238"></path><path d="M352.67,162.11a13.76,13.76,0,0,0,17-9c2.12-7.3-2.61-15.2-9.72-17.37-1.64-.5-2.23,1.92-.7,2.52,6,2.36,10,8.89,7.64,15.3-2.12,5.7-8.36,8.45-14.15,7.8-.46-.06-.52.66-.1.78Z" style="fill:#FAB50A"></path><path d="M370,174.07c0,.14-6.18.26-13.82.26s-13.82-.12-13.82-.26,6.19-.26,13.82-.26S370,173.93,370,174.07Z" style="fill:#FAB50A"></path><path d="M370,178.26c0,.15-6.18.26-13.82.26s-13.82-.11-13.82-.26,6.19-.26,13.82-.26S370,178.12,370,178.26Z" style="fill:#FAB50A"></path><path d="M181.6,79.2v92.46a3.73,3.73,0,0,0,3.72,3.72H308.48a3.73,3.73,0,0,0,3.72-3.72V76a3.72,3.72,0,0,0-3.82-3.72L185.22,75.48A3.73,3.73,0,0,0,181.6,79.2Z" style="fill:#e0e0e0"></path><path d="M301.2,95.38c0,.1-1.57-.79-4.55-1.73a29.26,29.26,0,0,0-13.07-1A28.59,28.59,0,0,0,275,95.45a40.2,40.2,0,0,0-8.47,6.09c-2.78,2.46-5.54,5.24-8.72,7.81a30.09,30.09,0,0,1-11.13,6,17,17,0,0,1-6.5.39,20.9,20.9,0,0,1-6-1.86,104.83,104.83,0,0,1-10.08-6,31.71,31.71,0,0,0-9.49-4.25,28.07,28.07,0,0,0-9-.69,29,29,0,0,0-12.46,4c-2.67,1.64-3.93,2.86-4,2.78a6.19,6.19,0,0,1,.9-.89,22.6,22.6,0,0,1,2.9-2.21,28.48,28.48,0,0,1,21.87-3.82,31.9,31.9,0,0,1,9.76,4.27,108.7,108.7,0,0,0,10,5.9,17.22,17.22,0,0,0,11.88,1.39,29.41,29.41,0,0,0,10.77-5.83c3.14-2.51,5.91-5.28,8.73-7.74a40.89,40.89,0,0,1,8.7-6.14A29,29,0,0,1,283.48,92a28.56,28.56,0,0,1,13.28,1.29,23.45,23.45,0,0,1,3.35,1.44A6.15,6.15,0,0,1,301.2,95.38Z" style="fill:#455a64"></path><rect x="210.69" y="117.1" width="12.05" height="32.58" style="fill:#455a64"></rect><rect x="261.81" y="117.1" width="12.05" height="32.58" style="fill:#455a64"></rect><rect x="278.84" y="97.97" width="12.05" height="51.71" style="fill:#455a64"></rect><rect x="195.1" y="139.42" width="12.05" height="10.96" style="fill:#455a64"></rect><rect x="227.73" y="131.81" width="12.05" height="17.87" style="fill:#455a64"></rect><rect x="244.77" y="127.71" width="12.05" height="21.97" style="fill:#455a64"></rect><path d="M223.22,153.52c0,.27-2.91.48-6.51.48s-6.51-.21-6.51-.48,2.92-.48,6.51-.48S223.22,153.25,223.22,153.52Z" style="fill:#263238"></path><path d="M208.23,153.52c0,.27-2.92.48-6.51.48s-6.51-.21-6.51-.48,2.92-.48,6.51-.48S208.23,153.25,208.23,153.52Z" style="fill:#263238"></path><path d="M293.27,153.52c0,.27-3.3.48-7.36.48s-7.36-.21-7.36-.48,3.29-.48,7.36-.48S293.27,153.25,293.27,153.52Z" style="fill:#263238"></path><ellipse cx="268.01" cy="153.52" rx="7.36" ry="0.48" style="fill:#263238"></ellipse><path d="M256.81,153.52c0,.27-2.91.48-6.51.48s-6.5-.21-6.5-.48,2.91-.48,6.5-.48S256.81,153.25,256.81,153.52Z" style="fill:#263238"></path><path d="M239.21,153.52c0,.27-2.92.48-6.51.48s-6.51-.21-6.51-.48,2.91-.48,6.51-.48S239.21,153.25,239.21,153.52Z" style="fill:#263238"></path><path d="M278.48,194.13h.2a1.59,1.59,0,0,1,.59.17,1.68,1.68,0,0,1,.72.71,2.62,2.62,0,0,1,.21,1.38c0,2.12,0,5.23.05,9.22s0,8.91.05,14.6q0,4.28,0,9.12V233a2.23,2.23,0,0,1-.24,1.32,1.84,1.84,0,0,1-1.09.86,5.69,5.69,0,0,1-1.35.08H275l.18-.18c0,2.88,0,6,0,9.22v.53l-.35-.4-8.17-9.21.16.07-84.22,0h-5.89c-.33,0-.62,0-1,0a2,2,0,0,1-1-.42,2.06,2.06,0,0,1-.63-.91,2.11,2.11,0,0,1-.09-.56V212.1c0-4.95,0-9.82,0-14.58v-1.8a1.94,1.94,0,0,1,1-1.63,2.1,2.1,0,0,1,1-.21h9.54l48.37.06,32.6.08,8.87.05,2.3,0,.79,0-.79,0-2.3,0-8.87,0-32.6.08-48.37.06H176a1.41,1.41,0,0,0-.74.15,1.44,1.44,0,0,0-.78,1.21V212.1q0,7.43,0,15.11V233a2.75,2.75,0,0,0,.07.89,1.37,1.37,0,0,0,.45.66,1.42,1.42,0,0,0,.75.31h6.84l84.22,0h.1l.06.07,8.15,9.24-.35.13c0-3.23,0-6.34,0-9.22v-.19h2.84a5.58,5.58,0,0,0,1.25-.05,1.52,1.52,0,0,0,.88-.69A2,2,0,0,0,280,233c0-.42,0-.84,0-1.25v-2.46c0-3.23,0-6.27,0-9.12,0-5.69,0-10.59,0-14.6s0-7.1,0-9.22a2.55,2.55,0,0,0-.17-1.34,1.68,1.68,0,0,0-.67-.7A2.11,2.11,0,0,0,278.48,194.13Z" style="fill:#263238"></path><path d="M179.59,227.87c.84-2.93,1.82-5.92,3.77-8.26s5.12-3.91,8.07-3.15c4.67,1.2,6.92,7.42,11.69,8,2.64.36,5.21-1.22,6.91-3.27s2.75-4.54,4.05-6.86c2-3.49,4.63-6.72,8.22-8.47s8.21-1.76,11.35.71c5.38,4.24,4.63,13.6,10.36,17.34a8.3,8.3,0,0,0,9.24-.27c2.55-1.89,3.85-5.15,6.53-6.84,3.1-2,7.4-1.19,10.21,1.17s4.27,6,4.8,9.62" style="fill:#FAB50A"></path><path d="M272.86,211.05a.76.76,0,0,1-.23-.09l-.66-.31a18.57,18.57,0,0,0-2.66-.9,21.39,21.39,0,0,0-10.2.3,39,39,0,0,0-6.67,2.48c-2.33,1.08-4.74,2.4-7.31,3.73a58.36,58.36,0,0,1-8.34,3.7,24.41,24.41,0,0,1-9.69,1.35,32.11,32.11,0,0,1-9.5-2.4c-2.95-1.18-5.66-2.57-8.24-3.87-5.14-2.64-10-4.75-14.28-5.39a20.34,20.34,0,0,0-10.16.74,19.58,19.58,0,0,0-3.4,1.67,1,1,0,0,1,.2-.16l.6-.43a13.7,13.7,0,0,1,2.52-1.27,20.18,20.18,0,0,1,10.3-.92c4.39.61,9.27,2.71,14.43,5.33,2.59,1.29,5.3,2.67,8.22,3.83a31.71,31.71,0,0,0,9.35,2.35,23.87,23.87,0,0,0,9.49-1.32,57.66,57.66,0,0,0,8.27-3.63c2.58-1.33,5-2.63,7.36-3.7a38.7,38.7,0,0,1,6.76-2.45,20.93,20.93,0,0,1,10.34-.13A11.48,11.48,0,0,1,272.86,211.05Z" style="fill:#263238"></path><path d="M228.24,204.67a1.05,1.05,0,1,1-1.05-1A1.06,1.06,0,0,1,228.24,204.67Z" style="fill:#455a64"></path><path d="M190.56,209.12a1.05,1.05,0,1,1-1.05-1.05A1,1,0,0,1,190.56,209.12Z" style="fill:#455a64"></path><path d="M265.54,209.13a1.06,1.06,0,1,1-1.06-1.06A1.06,1.06,0,0,1,265.54,209.13Z" style="fill:#455a64"></path></g><g id="freepik--character-2--inject-295"><path d="M336.56,357.41h9.37c4.37,0,13.74-11.49-37.1-10.18-33.42.86-35.62,5.8-33.93,8.68a4.18,4.18,0,0,0,3.91,1.95c.82-.06,1.9-.07,3.18-.06l-.8,3.52h0l-18.6,82.22,3.24-.28L279.57,398l26.21-1,1.5,48.12h4.11l1-48.37h.13l2.77-.1,23.23-.9,13.77,49.38h3.94Zm-55,34.14,9.17-30.23,1-3.42h0c3.84,0,8.33-.09,12.83-.09l1,33Zm34.56-1.08h0l-1,0-2.55.08.68-33.17h14.64l9,32.41Z" style="fill:#455a64"></path><path d="M252.81,439.45V428.82l19.05-.12.15,15.89-1.18.09c-5.25.34-26.73,1-30.25-.1C236.66,443.37,252.81,439.45,252.81,439.45Z" style="fill:#FAB50A"></path><path d="M240.13,443.61c0,.18,7.12.33,15.91.33s15.91-.15,15.91-.33-7.12-.32-15.91-.32S240.13,443.43,240.13,443.61Z" style="fill:#263238"></path><path d="M252.48,441.62c.16-.08,0-.64-.39-1.2s-.9-.85-1-.72.13.59.51,1.11S252.32,441.71,252.48,441.62Z" style="fill:#263238"></path><path d="M251.26,442.32c.17-.06.08-.69-.29-1.35s-.87-1.07-1-1,.1.66.45,1.27S251.09,442.39,251.26,442.32Z" style="fill:#263238"></path><path d="M266.21,443.54c.08,0,.36-.23.77-.7a13.08,13.08,0,0,1,1.67-1.67,4.41,4.41,0,0,1,2.06-.9c.58-.08,1,0,1-.08s-.32-.33-1-.38a3.85,3.85,0,0,0-2.44.85,6.83,6.83,0,0,0-1.65,1.92C266.29,443.12,266.14,443.49,266.21,443.54Z" style="fill:#263238"></path><path d="M252.42,439.62c-.09.15.23.52.78.72s1,.13,1.06,0-.36-.39-.84-.57S252.51,439.47,252.42,439.62Z" style="fill:#263238"></path><path d="M252.72,438.6c0,.17.49.33,1.13.33s1.16-.13,1.15-.3-.52-.33-1.14-.34S252.74,438.42,252.72,438.6Z" style="fill:#263238"></path><path d="M293,439.45V428.82l19.05-.12.15,15.89-1.18.09c-5.25.34-26.73,1-30.25-.1C276.86,443.37,293,439.45,293,439.45Z" style="fill:#FAB50A"></path><path d="M280.33,443.61c0,.18,7.13.33,15.91.33s15.91-.15,15.91-.33-7.12-.32-15.91-.32S280.33,443.43,280.33,443.61Z" style="fill:#263238"></path><path d="M292.68,441.62c.16-.08,0-.64-.39-1.2s-.9-.85-1-.72.14.59.51,1.11S292.52,441.71,292.68,441.62Z" style="fill:#263238"></path><path d="M291.46,442.32c.17-.06.08-.69-.29-1.35s-.87-1.07-1-1,.1.66.45,1.27S291.3,442.39,291.46,442.32Z" style="fill:#263238"></path><path d="M306.41,443.54c.08,0,.36-.23.77-.7a13.08,13.08,0,0,1,1.67-1.67,4.41,4.41,0,0,1,2.06-.9c.58-.08,1,0,1-.08s-.33-.33-1-.38a3.85,3.85,0,0,0-2.44.85,6.83,6.83,0,0,0-1.65,1.92C306.49,443.12,306.34,443.49,306.41,443.54Z" style="fill:#263238"></path><path d="M292.62,439.62c-.09.15.24.52.78.72s1,.13,1.06,0-.36-.39-.84-.57S292.72,439.47,292.62,439.62Z" style="fill:#263238"></path><path d="M292.92,438.6c0,.17.49.33,1.13.33s1.16-.13,1.15-.3-.52-.33-1.14-.34S292.94,438.42,292.92,438.6Z" style="fill:#263238"></path><path d="M347.58,248.78c-.78-.18-1.75-.08-2.22-.73s-.13-1.41.12-2.1a10,10,0,0,0,.07-6.88,7.76,7.76,0,0,0-2.87-3.62,2.91,2.91,0,0,0,.49-.62,4.32,4.32,0,0,0,.54-2.18,4.83,4.83,0,0,0-1.47-3.65,2.33,2.33,0,0,0-3.13,0,1.6,1.6,0,0,0,0,2.33,1.44,1.44,0,0,0,1.52.19c.33-.17.38-.38.38-.38a1.64,1.64,0,0,1-.42.29,1.38,1.38,0,0,1-1.35-.25,1.36,1.36,0,0,1,.12-2,2,2,0,0,1,2.69.12,4.48,4.48,0,0,1,1.26,3.36,3.76,3.76,0,0,1-.5,1.95,2.8,2.8,0,0,1-.49.6,6.19,6.19,0,0,0-1.72-.71c-1.29-.31-2.69-.23-3.87-.84a4.72,4.72,0,0,1-2.11-2.53c0-.11,0-.23,0-.35a47.42,47.42,0,0,1,.71-5.18,15.83,15.83,0,0,0-.13-5,9.33,9.33,0,0,0-4.77-6.7,6.52,6.52,0,0,0-5.55-.1,4.9,4.9,0,0,0-1.28.85l-.21.22a4.64,4.64,0,0,0-1.53,1.22l-3.08,27.78,22.59,13.81a16.62,16.62,0,0,0,5.15-1,5.69,5.69,0,0,0,3.44-3.74A3.49,3.49,0,0,0,347.58,248.78Zm-14.83-29.09a8.77,8.77,0,0,0-4.59-5,6,6,0,0,0-4.57.08,5.76,5.76,0,0,1,1.32-.76,6.38,6.38,0,0,1,5.31.24,9,9,0,0,1,4.46,6.46,15.79,15.79,0,0,1,.1,4.82c-.13,1.25-.48,2.51-.64,3.85a27.11,27.11,0,0,1-.22-2.86A20.77,20.77,0,0,0,332.75,219.69Z" style="fill:#263238"></path><path d="M326.06,219.65a2.46,2.46,0,0,0-.88-1.34,3.65,3.65,0,0,0-2.71-.12l-.05-6.38L310,201.71l-6.69,3.47a10.47,10.47,0,0,0-5.64,9.38c.05,5.14.18,12.11.52,16.07.58,6.8,7.46,7.36,7.46,7.36s.3,2.45.5,4.88c0,0-1.51,20.13,5.57,19.95,5.22-.13,8.73-11.1,10.21-16.87l.79-3.17v-.17l0-.13h0l-.15-19.09.21.22a1.51,1.51,0,0,0,1.65.2,3.05,3.05,0,0,0,1.63-1.75A3.75,3.75,0,0,0,326.06,219.65Z" style="fill:#ffbe9d"></path><path d="M299.25,219.53a.86.86,0,0,0,.89.85.87.87,0,0,0,0-1.74A.86.86,0,0,0,299.25,219.53Z" style="fill:#263238"></path><path d="M298.38,218.61c.11.11.74-.46,1.68-.53s1.65.36,1.75.23-.08-.26-.39-.46a2.24,2.24,0,0,0-1.41-.34,2.31,2.31,0,0,0-1.33.57C298.41,218.33,298.32,218.56,298.38,218.61Z" style="fill:#263238"></path><path d="M309.35,219.23a.87.87,0,0,0,1.74,0,.87.87,0,0,0-1.74,0Z" style="fill:#263238"></path><path d="M308.79,218.3c.11.11.74-.45,1.68-.53s1.65.36,1.75.24-.08-.27-.39-.47a2.34,2.34,0,0,0-2.74.23C308.82,218,308.73,218.25,308.79,218.3Z" style="fill:#263238"></path><path d="M305.58,226.36a6.08,6.08,0,0,1-1.54.12,1.52,1.52,0,0,1-.41,0,.58.58,0,0,1-.41-.33,1.5,1.5,0,0,1,.06-1l.57-2a34.52,34.52,0,0,1,1.69-5,34.87,34.87,0,0,1-1.3,5.11l-.6,2a1.27,1.27,0,0,0-.11.75c.05.17.27.2.51.2A5.5,5.5,0,0,1,305.58,226.36Z" style="fill:#263238"></path><path d="M308.83,227.12c.06-.07-2.71,1.67-4.62,1.72a2.6,2.6,0,0,0,3.13.81A2.16,2.16,0,0,0,308.83,227.12Z" style="fill:#fafafa"></path><path d="M305.61,238a16.94,16.94,0,0,0,8.94-3.27s-1.92,5.05-8.75,4.93Z" style="fill:#eb996e"></path><path d="M296.68,215.38c3,.41,5.15-.4,8.05-1.13s5.66-2.64,6.67-5.46a10.24,10.24,0,0,0,2.48,5c.27.3.79.58,1,.25a.74.74,0,0,0,0-.62l-.6-2.38a19.07,19.07,0,0,0,3.95,5c1.66,1.33,6.71,3.39,5.94,1.41-.19-.5,1.5-15.92-13.16-16.15S296.68,215.38,296.68,215.38Z" style="fill:#263238"></path><path d="M322.66,219.77c-.05,0,.25-.35.88-.33a1.66,1.66,0,0,1,1,2.87,1.67,1.67,0,0,1-1,.41c-.63,0-.92-.3-.88-.34s.36.07.84,0a1.29,1.29,0,0,0,0-2.54C323,219.7,322.69,219.85,322.66,219.77Z" style="fill:#eb996e"></path><path d="M347,267.67l2.52-.51s-5.49-24.68-24.57-24.68H322.7l0,.12v.17l-.79,3.17c-1.48,5.77-5,16.74-10.21,16.87-6.61.17-5.73-17.32-5.59-19.68a1.68,1.68,0,0,0-.48.13s-20.75,1.15-30,19.35l16,11.69,3.91-2.36s1.28,25.74-.92,32.75c-2.48,7.92-6.32,16.69-6.32,16.69,17.59-1.37,37.6-.58,58.93,1.39L333,270.52A48.5,48.5,0,0,0,347,267.67Z" style="fill:#FAB50A"></path><path d="M329.88,280s-.13.23-.45.56a9.43,9.43,0,0,1-1.51,1.21,10.53,10.53,0,0,1-12.12-.44,8.66,8.66,0,0,1-1.42-1.32c-.3-.35-.43-.57-.4-.59s.71.72,2,1.61a10.93,10.93,0,0,0,11.72.43C329.11,280.68,329.81,280,329.88,280Z" style="fill:#263238"></path><path d="M339.12,293.75a6.65,6.65,0,0,1-.43-1.24c-.28-.9-.62-2-1-3.4-.86-2.87-2-6.84-3.42-11.19s-2.7-8.29-3.66-11.13c-.44-1.34-.82-2.47-1.12-3.37a5.52,5.52,0,0,1-.35-1.25,7,7,0,0,1,.54,1.19c.32.77.76,1.9,1.28,3.31,1.05,2.81,2.42,6.72,3.8,11.09s2.52,8.35,3.28,11.25c.38,1.45.68,2.63.86,3.45A5.69,5.69,0,0,1,339.12,293.75Z" style="fill:#263238"></path><path d="M332.93,254.28a5.54,5.54,0,0,1-2.56-.69,5.78,5.78,0,0,1-2.27-1.37,8.45,8.45,0,0,1,2.47.9A8.73,8.73,0,0,1,332.93,254.28Z" style="fill:#263238"></path><path d="M337.85,262.84a8.67,8.67,0,0,1,.69-2.92,8.8,8.8,0,0,1,1.2-2.76,9.16,9.16,0,0,1-.7,2.92A8.92,8.92,0,0,1,337.85,262.84Z" style="fill:#263238"></path><path d="M320.72,269a9.08,9.08,0,0,1,1.07-2.6,9.56,9.56,0,0,1,1.38-2.46,11.36,11.36,0,0,1-2.45,5.06Z" style="fill:#263238"></path><path d="M317.62,274.42a6.86,6.86,0,0,1-2.28-1.92,6.76,6.76,0,0,1-1.68-2.47,39.91,39.91,0,0,1,4,4.39Z" style="fill:#263238"></path><path d="M330,273.6a9.22,9.22,0,0,1-2.14,2.86,15,15,0,0,1-2.47,2.14l-.74.45.58-.59c.14-.14.23-.2.26-.18s0,.13-.08.3l-.16-.14c.35-.42,1.24-1.29,2.24-2.34A19.34,19.34,0,0,1,330,273.6Z" style="fill:#263238"></path><path d="M332.69,291.45a6.65,6.65,0,0,1-2.75-1.14,6.56,6.56,0,0,1-2.33-1.87,12.84,12.84,0,0,1,2.59,1.42A11.81,11.81,0,0,1,332.69,291.45Z" style="fill:#263238"></path><path d="M320.16,287.37a8.68,8.68,0,0,1-1.49,2.63,9.21,9.21,0,0,1-1.92,2.34,8.42,8.42,0,0,1,1.49-2.63A9.24,9.24,0,0,1,320.16,287.37Z" style="fill:#263238"></path><path d="M311.94,288.18a6,6,0,0,1-2.09-1.31c-1.07-.83-1.86-1.6-1.77-1.71s1,.47,2.09,1.3S312,288.06,311.94,288.18Z" style="fill:#263238"></path><path d="M307.49,276c.08.12-.7.82-1.75,1.57s-2,1.26-2,1.14.69-.82,1.74-1.57A5.73,5.73,0,0,1,307.49,276Z" style="fill:#263238"></path><path d="M305.79,269.83c-.11.09-.83-.67-1.61-1.69s-1.31-1.93-1.2-2,.84.68,1.61,1.7S305.91,269.75,305.79,269.83Z" style="fill:#263238"></path><path d="M323.62,253.43a6.58,6.58,0,0,1,1-2.43,7,7,0,0,1,1.46-2.19,6.74,6.74,0,0,1-1,2.44A6.83,6.83,0,0,1,323.62,253.43Z" style="fill:#263238"></path><path d="M301.34,254.47a8.24,8.24,0,0,1-2.56-1.27,8.11,8.11,0,0,1-2.29-1.71,7.64,7.64,0,0,1,2.56,1.27A7.93,7.93,0,0,1,301.34,254.47Z" style="fill:#263238"></path><path d="M289.67,251.48c.13.07-.24.93-.82,1.9s-1.15,1.72-1.28,1.64.25-.92.83-1.9S289.55,251.41,289.67,251.48Z" style="fill:#263238"></path><path d="M301.81,319a14.23,14.23,0,0,1-4.56-3,7.37,7.37,0,0,1,2.42,1.3A7.84,7.84,0,0,1,301.81,319Z" style="fill:#263238"></path><path d="M335.23,315.42c.11.1-.62,1.06-1.63,2.16s-1.9,1.9-2,1.8.62-1.06,1.63-2.16S335.13,315.32,335.23,315.42Z" style="fill:#263238"></path><path d="M312.52,319.17a67,67,0,0,1,0-4c.13,0,.49.85.49,2A3,3,0,0,1,312.52,319.17Z" style="fill:#263238"></path><path d="M324.34,319.36a7.31,7.31,0,0,1-2.44-1.18,7.19,7.19,0,0,1-2.17-1.62,14.22,14.22,0,0,1,4.61,2.8Z" style="fill:#263238"></path><path d="M347.25,322.78a2.74,2.74,0,0,1-.6,0l-1.72-.14-6.3-.56c-5.32-.46-12.67-1.12-20.81-1.25s-15.53.05-20.86.25l-6.32.27-1.72.07a2.15,2.15,0,0,1-.6,0l.59-.09,1.72-.16c1.48-.13,3.64-.28,6.31-.44,5.34-.3,12.72-.56,20.89-.4s15.52.85,20.84,1.4c2.65.29,4.8.54,6.28.73l1.71.23A2.41,2.41,0,0,1,347.25,322.78Z" style="fill:#263238"></path><g style="opacity:0.2"><path d="M329.12,262.17l5,33.25s4.63,0,5.48-1.38Z"></path><path d="M329.12,262.17l5,33.25s4.63,0,5.48-1.38Z"></path></g><path d="M300.09,320.76c-11.77.91-18.2.1-31.15,1.32A18.48,18.48,0,0,0,252.88,340l-2.27,97.81H274.4l3.76-87.69,7,.89c-.9,32.84,2.53,86.8,2.53,86.8l26.42-1.29-1.51-84.22s35.53,2.41,34.64-29.49C347.25,322.78,319.27,319.39,300.09,320.76Z" style="fill:#263238"></path><path d="M307.2,320.51a16.26,16.26,0,0,1-1.8.3c-1.16.18-2.84.43-4.9.81a30.4,30.4,0,0,0-7.05,1.87,14,14,0,0,0-3.59,2.3,11.43,11.43,0,0,0-2.72,3.64,20.38,20.38,0,0,0-1.7,8.68c0,2.76.1,5.27.08,7.37s-.09,3.8-.17,5c0,.59-.08,1.05-.12,1.35a2.22,2.22,0,0,1-.07.47,12.78,12.78,0,0,1,0-1.82c0-1.18,0-2.87,0-5s-.12-4.62-.19-7.37a20.42,20.42,0,0,1,1.71-8.91,11.9,11.9,0,0,1,2.85-3.79,14.25,14.25,0,0,1,3.73-2.36,29.59,29.59,0,0,1,7.19-1.8c2.07-.33,3.77-.53,4.94-.64.58-.05,1-.09,1.35-.1A1.43,1.43,0,0,1,307.2,320.51Z" style="fill:#455a64"></path><path d="M276.06,344a19.28,19.28,0,0,1,1.29,3,7.15,7.15,0,0,1,.81,3.16,19.28,19.28,0,0,1-1.29-3A7,7,0,0,1,276.06,344Z" style="fill:#455a64"></path><path d="M278,342a12.33,12.33,0,0,1,.69,4,8.62,8.62,0,0,1-.52,4.06c-.16,0,.11-1.82,0-4S277.82,342,278,342Z" style="fill:#455a64"></path><path d="M310.81,343.85A14.13,14.13,0,0,1,312,348a26.22,26.22,0,0,1,.65,4.26,13.73,13.73,0,0,1-1.16-4.16A25.5,25.5,0,0,1,310.81,343.85Z" style="fill:#455a64"></path><path d="M313.19,343.83a16.21,16.21,0,0,1-.46,8.44,37.31,37.31,0,0,1,.27-4.22A40.43,40.43,0,0,1,313.19,343.83Z" style="fill:#455a64"></path><path d="M273.79,432.07c0,.14-5.21.26-11.64.26s-11.64-.12-11.64-.26,5.21-.26,11.64-.26S273.79,431.92,273.79,432.07Z" style="fill:#455a64"></path><path d="M313.79,431.63c0,.14-5.93.26-13.24.26s-13.24-.12-13.24-.26,5.93-.26,13.24-.26S313.79,431.49,313.79,431.63Z" style="fill:#455a64"></path><path d="M344.09,337.42l-.33,0-1,0-3.8,0-14,.07-9.65,0a22.79,22.79,0,0,0-5.27.6,8.38,8.38,0,0,0-4.63,2.87,9.61,9.61,0,0,0-1.71,5.5c-.1,2,.12,4.09.2,6.22q.16,6.38.35,13.15c.51,18,.93,34.31,1.08,46.12.08,5.9.1,10.68.1,14q0,2.44,0,3.81c0,.41,0,.73,0,1a1.23,1.23,0,0,1,0,.34,1.44,1.44,0,0,1,0-.34c0-.25,0-.57,0-1,0-.91,0-2.18-.07-3.81-.07-3.33-.16-8.1-.27-14-.25-11.8-.72-28.11-1.23-46.12-.12-4.5-.23-8.89-.34-13.14-.08-2.11-.29-4.2-.18-6.27a10,10,0,0,1,1.82-5.76,8.76,8.76,0,0,1,4.89-3,23.5,23.5,0,0,1,5.39-.6l9.65,0,14,.1,3.8.06,1,0A1.39,1.39,0,0,1,344.09,337.42Z" style="fill:#455a64"></path><path d="M282.35,350.62s-.92-11.85,3.53-18.66l-.71,19Z" style="opacity:0.2"></path><path d="M284.27,339.35a.86.86,0,0,1-.26,0l-.78-.14c-.69-.13-1.69-.33-3-.48a13.09,13.09,0,0,0-4.72.28,8.15,8.15,0,0,0-2.66,1.25,6.64,6.64,0,0,0-2.05,2.51c-1,2.1-1.12,4.73-1.18,7.49s-.14,5.74-.22,8.86c-.17,6.24-.35,13.1-.54,20.3-.42,14.38-.81,27.4-1.09,36.88-.16,4.68-.3,8.49-.39,11.17-.06,1.29-.1,2.31-.13,3,0,.32,0,.58-.05.79a.94.94,0,0,1,0,.27.8.8,0,0,1,0-.27c0-.21,0-.47,0-.79,0-.74,0-1.76,0-3,.05-2.69.13-6.49.22-11.18.24-9.48.58-22.5.94-36.89.21-7.2.4-14.05.58-20.29.09-3.12.18-6.09.27-8.86s.19-5.45,1.28-7.64a7,7,0,0,1,2.19-2.62,8.26,8.26,0,0,1,2.77-1.26,12.85,12.85,0,0,1,4.83-.2c1.31.18,2.31.42,3,.57l.77.2C284.19,339.31,284.28,339.34,284.27,339.35Z" style="fill:#455a64"></path><path d="M282.43,263.92s-25.11,25.19-29.9,30.82c-4.09,4.81-1.42,13.88,2,14.27s58.78-.36,58.78-.36l-.73-11.32s-35.86.16-36.91-.5,20.74-22.69,20.74-22.69Z" style="fill:#ffbe9d"></path><path d="M348.83,267.21s7.63,23.13,8.55,25.86,5.66,14.3-3.34,15.27-57.3,0-57.3,0l-3.59-11.69s46.68-.12,46.45-2.61-7.09-23.38-7.09-23.38Z" style="fill:#ffbe9d"></path><polygon points="246.9 260 264.25 308.06 344.12 308.03 343.57 305.68 313.6 304.58 298.85 259.26 246.9 260" style="fill:#263238"></polygon><path d="M282.5,281.88a2.83,2.83,0,1,1-3.32-2.73A3.06,3.06,0,0,1,282.5,281.88Z" style="fill:#fafafa"></path><polygon points="385.43 307.01 196.75 307.01 194.7 307.01 192.66 307.01 192.66 445 196.75 445 196.75 315.14 385.43 315.14 385.43 445.1 433.66 445.1 433.66 315.14 433.66 307.01 385.43 307.01" style="fill:#455a64"></polygon></g><g id="freepik--character-1--inject-295"><path d="M153.28,439.61V429.28l-18.5-.12-.16,15.45,1.15.08c5.11.33,26,1,29.4-.09C169,443.42,153.28,439.61,153.28,439.61Z" style="fill:#FAB50A"></path><path d="M165.61,443.66c0,.17-6.92.31-15.46.31s-15.46-.14-15.46-.31,6.92-.32,15.46-.32S165.61,443.48,165.61,443.66Z" style="fill:#263238"></path><path d="M153.61,441.72c-.15-.08,0-.63.37-1.16s.89-.83,1-.71-.13.58-.5,1.08S153.76,441.8,153.61,441.72Z" style="fill:#263238"></path><path d="M154.79,442.4c-.16-.06-.08-.67.29-1.31s.84-1,1-.93-.09.63-.43,1.23S155,442.46,154.79,442.4Z" style="fill:#263238"></path><path d="M140.26,443.59c-.07.05-.35-.22-.75-.68a11.72,11.72,0,0,0-1.62-1.62,4.24,4.24,0,0,0-2-.88c-.57-.08-.93,0-1-.08s.31-.32,1-.36a3.61,3.61,0,0,1,2.37.82,6.74,6.74,0,0,1,1.6,1.86C140.19,443.18,140.33,443.54,140.26,443.59Z" style="fill:#263238"></path><path d="M153.66,439.78c.1.15-.22.5-.75.7s-1,.12-1-.05.35-.37.81-.54S153.57,439.63,153.66,439.78Z" style="fill:#263238"></path><path d="M153.37,438.78c0,.17-.47.32-1.1.33s-1.12-.13-1.11-.3.51-.32,1.11-.33S153.36,438.61,153.37,438.78Z" style="fill:#263238"></path><path d="M207,131.53l.17-3.13a26.38,26.38,0,0,0,.39-5.25,7.47,7.47,0,0,0-.46-2.56,12,12,0,0,0-1.4-2.94,1,1,0,0,1,.88-1.69c.88.23,2.68,2.32,3.5,5.44s2.92-1.5,3.71-3.17,3.51-6.72,4.21-6.88c1-.24,1.49.83.65,2.48s-3,6.77-2.08,7.15a4.7,4.7,0,0,1,2-.09.53.53,0,0,1,.41.44,6.2,6.2,0,0,0,.29,1.44s1.24-.4,1.55.13a5.49,5.49,0,0,1,.41,1.73s.94-.41,1.44-.09c1.07.7-.09,2.17-.09,2.17a104.74,104.74,0,0,1-8.33,10.49l-7.27-5.85" style="fill:#ffbe9d"></path><path d="M118.05,131.32l-.12,39.89L135,172l.49-9.7s6.08,1.21,7.65-4.44c1-3.6.75-31.47.75-31.47Z" style="fill:#ffbe9d"></path><path d="M143,120.23c-5.21,1.68-6.46,2.25-8.8,2.43s-18.18.2-19.63,9.13a6.65,6.65,0,0,1-.45-1.31,21.72,21.72,0,0,1-.19-2.64,3.27,3.27,0,0,0-.31,2.76,3.43,3.43,0,0,0,.17.57c-.11-.1-.21-.21-.33-.31a5,5,0,0,0-2-1.08c-.57-.14-.94-.11-1,0a13.33,13.33,0,0,1,2.63,1.51,6.78,6.78,0,0,1,1.35,1.6s0,.08,0,.12-3.41-1.5-2.51,4.68,4.93,11.43,5.43,21.55c0,0,14.13,1.68,16.65-3.75l2.11-6.23s-3.4-.56-3-3.29c.55-3.79,3.44-3.88,5.6-2.2l2.48-6.64s6.28-4.12,6.64-6.75S148.16,118.54,143,120.23Z" style="fill:#263238"></path><polygon points="70.71 431.89 68.21 443.05 85.48 445.19 86.1 434.13 70.71 431.89" style="fill:#FAB50A"></polygon><path d="M78.51,432.44a25,25,0,0,1-.56,5.12,25.63,25.63,0,0,1-1.09,5,51.44,51.44,0,0,1,1.65-10.16Z" style="fill:#263238"></path><path d="M85.55,444a13.86,13.86,0,0,1-2.5-.31l-6-1c-2.35-.39-4.46-.78-6-1.12a12,12,0,0,1-2.43-.67,12,12,0,0,1,2.5.31l6,1c2.34.39,4.46.78,6,1.12A10.81,10.81,0,0,1,85.55,444Z" style="fill:#263238"></path><path d="M96.33,256.48l-32,179.68,27.38,1.55s29.08-154.88,33.35-155.26c1.79-.17,2.51,154,3.94,153.71s29.59.5,29.59.5-3.81-182.46-3.74-182.46Z" style="fill:#263238"></path><path d="M136.78,278.67c0,.14-4.72,1.27-10.6,2.52s-10.68,2.15-10.71,2,4.72-1.27,10.6-2.52S136.75,278.53,136.78,278.67Z" style="fill:#455a64"></path><path d="M93.74,427.16c0,.15-6.19.07-13.82-.16s-13.81-.55-13.81-.69,6.19-.07,13.82.16S93.74,427,93.74,427.16Z" style="fill:#455a64"></path><path d="M158.41,427.18c0,.14-6.69.06-14.92-.19s-14.91-.56-14.91-.7,6.68-.06,14.92.18S158.41,427,158.41,427.18Z" style="fill:#455a64"></path><path d="M110,283.65c.14,0-6.63,32.08-15.13,71.58s-15.5,71.51-15.64,71.48,6.63-32.07,15.13-71.59S109.85,283.62,110,283.65Z" style="fill:#455a64"></path><path d="M143.61,426.73a2,2,0,0,1,0-.37c0-.27,0-.63-.06-1.09,0-1-.1-2.39-.18-4.19-.15-3.63-.32-8.9-.51-15.41-.38-13-.76-31-.85-50.86s.1-37.85.36-50.87c.12-6.51.25-11.77.37-15.41.06-1.8.1-3.2.14-4.19,0-.46,0-.82,0-1.09a1.7,1.7,0,0,1,0-.37,1.46,1.46,0,0,1,0,.37v1.09c0,1,0,2.39,0,4.19-.05,3.67-.12,8.93-.21,15.42-.16,13-.3,31-.2,50.86s.41,37.84.69,50.86c.15,6.48.27,11.74.36,15.41,0,1.79.06,3.2.08,4.19,0,.46,0,.82,0,1.09A1.46,1.46,0,0,1,143.61,426.73Z" style="fill:#455a64"></path><path d="M204.13,130.63s-21.2,32-23,33.77-35,5.29-35,5.29c-10.2-2.3-43.16-1.54-49.38,3h0c-5.39,3-11.93,10-15.3,26.53-5.75,28.28-11.5,38.7,0,42.65a75.18,75.18,0,0,0,14.15,3.34l-.32,12.8,59.6-3.71-3-31.78c-.36-8.93-.53-18.23-.75-26.47,3.73-1.41,38.39-14.53,40.77-14.87s25.21-42.33,25.21-42.33C217.79,133.86,204.13,130.63,204.13,130.63Z" style="fill:#FAB50A"></path><path d="M97.24,188.5c.14,0-.18,15.58-.71,34.78s-1.09,34.77-1.24,34.77.18-15.58.72-34.78S97.1,188.5,97.24,188.5Z" style="fill:#263238"></path><path d="M184.12,171.6a10.5,10.5,0,0,1-1.74-3.51,24.5,24.5,0,0,1-1.24-3.69,10.6,10.6,0,0,1,1.73,3.51A27.35,27.35,0,0,1,184.12,171.6Z" style="fill:#263238"></path><path d="M186.5,168.88a17.28,17.28,0,0,1-2.84-2,8.76,8.76,0,0,1-2.52-2.44,18.3,18.3,0,0,1,2.84,2A9.1,9.1,0,0,1,186.5,168.88Z" style="fill:#263238"></path><path d="M215.92,141.4a12,12,0,0,1-2-1.21c-1.22-.77-2.91-1.81-4.85-2.85s-3.74-1.87-5.06-2.45a12.1,12.1,0,0,1-2.12-1,9.77,9.77,0,0,1,2.26.66,42.34,42.34,0,0,1,10,5.35A9.26,9.26,0,0,1,215.92,141.4Z" style="fill:#263238"></path><path d="M96.53,223.43a11.66,11.66,0,0,1-3.69-.37,9.89,9.89,0,0,1-3.52-1.19,20.72,20.72,0,0,1,3.63.68A16.17,16.17,0,0,1,96.53,223.43Z" style="fill:#263238"></path><path d="M151.58,169.24a27.18,27.18,0,0,0-3.2.75,12.37,12.37,0,0,0-8.52,11.94,31.22,31.22,0,0,0,.33,3.27,2.56,2.56,0,0,1-.32-.84,10.65,10.65,0,0,1-.38-2.42,12.17,12.17,0,0,1,8.78-12.3,10.91,10.91,0,0,1,2.41-.44A2.45,2.45,0,0,1,151.58,169.24Z" style="fill:#263238"></path><path d="M154.89,254.34c0,.15-13.33,1.09-29.78,2.11s-29.81,1.74-29.82,1.6,13.33-1.09,29.79-2.12S154.88,254.2,154.89,254.34Z" style="fill:#263238"></path><path d="M131.15,168.61a3.61,3.61,0,0,1,.18.74c0,.25.12.55.16.91s.07.79.12,1.26a19.67,19.67,0,0,1-1.29,7.92,18.71,18.71,0,0,1-7.43,9.19,12.24,12.24,0,0,1-1.52.82,14.5,14.5,0,0,1-1.62.67c-1.11.4-2.26.74-3.4,1.15a15.24,15.24,0,0,0-3.3,1.54,11.68,11.68,0,0,0-2.71,2.55,70.52,70.52,0,0,0-3.94,6.39,13.56,13.56,0,0,1-4.89,5.1A11.29,11.29,0,0,1,95.22,208a15,15,0,0,1-5.36-1.53,24.17,24.17,0,0,1-6.47-4.77c-.67-.67-1.17-1.21-1.5-1.57a3.16,3.16,0,0,1-.49-.59,6.3,6.3,0,0,1,.56.51l1.57,1.51A25.48,25.48,0,0,0,90,206.15a15.09,15.09,0,0,0,5.24,1.43,10.93,10.93,0,0,0,6-1.16,13,13,0,0,0,4.69-4.94,67.48,67.48,0,0,1,4-6.44,12.15,12.15,0,0,1,2.84-2.66,15.53,15.53,0,0,1,3.41-1.6l3.4-1.13a13.93,13.93,0,0,0,1.59-.65,10.28,10.28,0,0,0,1.47-.78A18.45,18.45,0,0,0,130,179.3a20,20,0,0,0,1.43-7.77c0-.47,0-.88-.06-1.25s-.09-.67-.12-.91A4.34,4.34,0,0,1,131.15,168.61Z" style="fill:#263238"></path><path d="M153.72,242.14s-.23-.16-.67-.43a6,6,0,0,0-2.06-.84,30.21,30.21,0,0,0-3.56-.32c-1.39-.11-3-.12-4.75-.19a23.91,23.91,0,0,1-5.74-.8,19.47,19.47,0,0,1-6-2.89,16.75,16.75,0,0,1-4.91-5.49,16,16,0,0,1-2-7.63A13.84,13.84,0,0,1,131.61,211a12.38,12.38,0,0,1,3.29-1.1,19,19,0,0,1,3.23-.26,47.45,47.45,0,0,0,5.73-.17,8.32,8.32,0,0,0,6.69-4.17,6.16,6.16,0,0,0,.62-2.14c.06-.51.06-.79.08-.79a.55.55,0,0,1,0,.2c0,.14,0,.34,0,.6a6.08,6.08,0,0,1-.55,2.22,7,7,0,0,1-2.34,2.75,9.65,9.65,0,0,1-4.47,1.69,46.11,46.11,0,0,1-5.78.24,19,19,0,0,0-3.16.28,12,12,0,0,0-3.15,1.08,13.38,13.38,0,0,0-7.29,12.1,15.61,15.61,0,0,0,1.94,7.39,16.36,16.36,0,0,0,4.74,5.34,19.06,19.06,0,0,0,5.84,2.86,23.54,23.54,0,0,0,5.64.85c1.76.09,3.36.13,4.76.27a26.14,26.14,0,0,1,3.58.41,5.82,5.82,0,0,1,2.07,1,5.57,5.57,0,0,1,.47.37A.6.6,0,0,1,153.72,242.14Z" style="fill:#263238"></path><path d="M120.6,256.78a11.43,11.43,0,0,0-.12-2.14,7.52,7.52,0,0,0-3.08-4.74,7.26,7.26,0,0,0-1.7-.83,11.82,11.82,0,0,0-2-.38,21.27,21.27,0,0,1-4.68-.63,6,6,0,0,1-2.25-1.36,7.19,7.19,0,0,1-1.52-2.26,10.45,10.45,0,0,1-.65-5.59c.56-3.85,2.25-7.16,2.54-10.42a10.25,10.25,0,0,0-.41-4.53,6.47,6.47,0,0,0-2.32-3.13,7.63,7.63,0,0,0-5.48-1.41,12.19,12.19,0,0,0-2.06.58,5.08,5.08,0,0,1,2-.78,7.69,7.69,0,0,1,5.73,1.31,6.85,6.85,0,0,1,2.51,3.29,10.54,10.54,0,0,1,.48,4.72c-.29,3.37-2,6.72-2.5,10.44a10,10,0,0,0,.6,5.32,7,7,0,0,0,1.4,2.11,5.46,5.46,0,0,0,2.05,1.25,21.72,21.72,0,0,0,4.58.66,11.06,11.06,0,0,1,2.12.43,7.32,7.32,0,0,1,4.86,5.92,6,6,0,0,1,0,1.62A3,3,0,0,1,120.6,256.78Z" style="fill:#263238"></path><path d="M118.6,201.45s.21-.22.71-.37a3.4,3.4,0,0,1,2.16.15,3.53,3.53,0,0,1,1.26.88,3.05,3.05,0,0,1,.72,1.62,3.51,3.51,0,0,1-1.73,3.5,3.46,3.46,0,0,1-3.85-.6,3,3,0,0,1-.88-1.55,3.28,3.28,0,0,1,.07-1.54,3.2,3.2,0,0,1,1.25-1.77,1.29,1.29,0,0,1,.73-.3s-.24.15-.61.46a3.23,3.23,0,0,0-1,1.7,2.63,2.63,0,0,0,.78,2.65,3,3,0,0,0,3.28.49,3.07,3.07,0,0,0,1.5-3,2.77,2.77,0,0,0-1.66-2.22,3.39,3.39,0,0,0-2-.29C118.87,201.36,118.62,201.49,118.6,201.45Z" style="fill:#263238"></path><path d="M88.62,244.08c-.11,0,.36-1.76.47-4.62a22.92,22.92,0,0,0,0-2.33c0-.84-.16-1.73-.27-2.67a30.79,30.79,0,0,0-1.59-5.92,29.66,29.66,0,0,0-2.84-5.42A25.93,25.93,0,0,0,82.76,221a21.36,21.36,0,0,0-1.57-1.74c-2-2-3.54-3-3.47-3.07a5.53,5.53,0,0,1,1.07.65,11.59,11.59,0,0,1,1.19.87A17.39,17.39,0,0,1,81.45,219a19.61,19.61,0,0,1,1.64,1.72,26.86,26.86,0,0,1,1.68,2.15,29.36,29.36,0,0,1,2.93,5.5,29,29,0,0,1,1.57,6,24.54,24.54,0,0,1,.23,2.72,18.32,18.32,0,0,1,0,2.37,18.91,18.91,0,0,1-.21,1.94,11,11,0,0,1-.28,1.45A5.21,5.21,0,0,1,88.62,244.08Z" style="fill:#263238"></path><path d="M192.38,180.78a11,11,0,0,1-1.49-.66c-.95-.44-2.32-1.07-4.08-1.71a30.13,30.13,0,0,0-6.32-1.59,20.75,20.75,0,0,0-7.9.39,15.77,15.77,0,0,0-7,3.66,13.45,13.45,0,0,0-3.57,5.33,10.83,10.83,0,0,0-.6,4.3c.08,1,.24,1.6.19,1.61s-.07-.13-.15-.4a9,9,0,0,1-.24-1.19,10.2,10.2,0,0,1,.46-4.44,13.29,13.29,0,0,1,3.59-5.56,16,16,0,0,1,7.14-3.82,21,21,0,0,1,8.1-.36,29.09,29.09,0,0,1,6.38,1.73,35.91,35.91,0,0,1,4,1.87c.46.25.82.45,1.05.6A1.34,1.34,0,0,1,192.38,180.78Z" style="fill:#263238"></path><path d="M200.57,136s.1.07.27.24a6.4,6.4,0,0,1,.69.76,11.74,11.74,0,0,1,1.85,3.3,13.37,13.37,0,0,1,.79,5.56,13.58,13.58,0,0,1-2.17,6.51,13.18,13.18,0,0,1-5.19,4.51,13.85,13.85,0,0,1-5.42,1.44,12.14,12.14,0,0,1-3.77-.35,7.27,7.27,0,0,1-1-.31c-.22-.08-.33-.13-.32-.15a17.34,17.34,0,0,0,5,.44,14,14,0,0,0,5.24-1.5,13,13,0,0,0,5-4.36A13.55,13.55,0,0,0,203,140.4,16.73,16.73,0,0,0,200.57,136Z" style="fill:#263238"></path><path d="M135.28,168.47a71.64,71.64,0,0,1-8.69.33,73.35,73.35,0,0,1-8.69-.19,71.64,71.64,0,0,1,8.69-.33A73.35,73.35,0,0,1,135.28,168.47Z" style="fill:#263238"></path></g></svg>