<svg xmlns="http://www.w3.org/2000/svg" xmlns:xlink="http://www.w3.org/1999/xlink" width="674" height="509.611" viewBox="0 0 674 509.611"><defs><style>.a,.e,.f{fill:#6c63ff;}.a,.c,.u,.v{opacity:0.1;}.b{fill:#535f89;}.d{fill:#dce2ed;}.f,.j{opacity:0.2;}.g{fill:#dea3a2;}.h{fill:none;}.i{fill:#a8a8a8;}.k{fill:#dce0ed;}.l{fill:#f0f0f4;}.m{fill:#636780;}.n{fill:url(#a);}.o{fill:#f899a5;}.p{fill:#f3b4b4;}.q{fill:#bdd3e8;}.r{opacity:0.05;}.s{fill:#e6ebef;}.t{fill:#4b3648;}.v,.z{fill:#fff;}.w{fill:#4c4981;}.x{fill:#ceddf9;}.y{fill:#fec2be;}.aa{fill:#9a5e7f;}.ab{opacity:0.15;}</style><linearGradient id="a" x1="0.5" y1="1" x2="0.5" gradientUnits="objectBoundingBox"><stop offset="0" stop-color="gray" stop-opacity="0.251"/><stop offset="0.54" stop-color="gray" stop-opacity="0.122"/><stop offset="1" stop-color="gray" stop-opacity="0.102"/></linearGradient></defs><g transform="translate(0 -0.07)"><path class="a" d="M99.6,363.79c10.283,28.234,32.046,52.673,66.445,64.52,71.485,24.6,232.7,11.914,353.016-2.652C581.3,418.125,636,397.339,675.736,368.067Z" transform="translate(-68.336 -161.612)"/><path class="a" d="M741.135,126.524H675.148c-3.134,0-5.707-1.65-5.707-3.666s2.572-3.666,5.707-3.666h11.413c-3.141,0-5.707-1.65-5.707-3.666s2.566-3.666,5.707-3.666h-8.151c-3.141,0-5.707-1.65-5.707-3.666s2.566-3.666,5.707-3.666h34.447a131.4,131.4,0,0,0-26.883-4.766c-93.97-7.772-127.519-2.621-139.354,2.639a175.352,175.352,0,0,1-48.268,13.613c-57.995,7.686-166.4,16.943-264.661-2.988-48.836-9.892-85.135,6.825-106.892,34.765H752.6a46.97,46.97,0,0,0-7.753-22.185,7.729,7.729,0,0,1-3.715.916Z" transform="translate(-78.917 -57.358)"/><path class="a" d="M89.527,267.25a121.3,121.3,0,0,0,2.56,49.3l579.624,13.631c16.045-11.878,29.639-25.148,40.27-39.488Zm229.248,35.168H307.387c3.134,0,5.7,1.656,5.7,3.666s-2.566,3.666-5.7,3.666H241.4c-3.14,0-5.707-1.65-5.707-3.666s2.566-3.666,5.707-3.666h11.407c-3.134,0-5.707-1.65-5.707-3.666s2.572-3.666,5.707-3.666h-8.2c-3.134,0-5.707-1.656-5.707-3.666s2.572-3.666,5.707-3.666h66.017c3.14,0,5.707,1.65,5.707,3.666s-2.566,3.666-5.707,3.666h8.151c3.14,0,5.707,1.65,5.707,3.666s-2.566,3.666-5.707,3.666Z" transform="translate(-63.866 -124.056)"/><path class="a" d="M738.533,181.35l-632.811,9.9A116.344,116.344,0,0,0,90.57,233.272H727.444a123.17,123.17,0,0,0,9.165-26.786A81.627,81.627,0,0,0,738.533,181.35ZM219.054,213.781H207.641c3.14,0,5.707,1.656,5.707,3.666s-2.566,3.666-5.707,3.666H141.655c-3.14,0-5.707-1.65-5.707-3.666s2.566-3.666,5.707-3.666h11.413c-3.14,0-5.707-1.65-5.707-3.666s2.566-3.666,5.707-3.666h-8.181c-3.14,0-5.707-1.656-5.707-3.666s2.566-3.666,5.707-3.666h65.987c3.134,0,5.7,1.65,5.7,3.666s-2.566,3.666-5.7,3.666h8.151c3.134,0,5.7,1.65,5.7,3.666S222.195,213.781,219.054,213.781Z" transform="translate(-64.823 -90.64)"/><rect class="b" width="3.403" height="187.603" transform="translate(354.818 161.126)"/><path class="b" d="M632.84,638.727a8.878,8.878,0,0,1-10.894,0c-1.521-10.039,2.34-29.767,3.25-34.215l.189-.892h4.4a3.053,3.053,0,0,1,.678,1.02C633.451,611.074,632.84,638.727,632.84,638.727Z" transform="translate(-271.399 -254.909)"/><path class="c" d="M632.323,596.953V601H630.49v-4.051a5.334,5.334,0,0,1,.892-.073A5.989,5.989,0,0,1,632.323,596.953Z" transform="translate(-274.859 -252.287)"/><path class="c" d="M632.734,604.682a5.194,5.194,0,0,1-2.517.611,4.98,4.98,0,0,1-2.707-.721l.189-.892h4.387A3.055,3.055,0,0,1,632.734,604.682Z" transform="translate(-273.7 -254.932)"/><ellipse class="d" cx="3.672" cy="2.181" rx="3.672" ry="2.181" transform="translate(352.845 345.29)"/><path class="e" d="M557.1,206.052l12.929-6.189,19.063,4.558L574.3,193.24Z" transform="translate(-216.719 -75.146)"/><path class="e" d="M560.882,212.249l-3.782-1.98,12.929-6.189,19.063,4.558-3.354,1.631-15.708-3.525Z" transform="translate(-216.719 -79.363)"/><path class="c" d="M560.882,212.249l-3.782-1.98,12.929-6.189,19.063,4.558-3.354,1.631-15.708-3.525Z" transform="translate(-216.719 -79.363)"/><path class="f" d="M562.45,211.609l10.405,29.156h5.157l9.635-30.965L572.11,206.19Z" transform="translate(-218.801 -80.183)"/><path class="e" d="M585.4,248.055l-2.053,6.611-.5,1.595h-5.157l-.385-1.081-2.432-6.812,3.9-2.346Z" transform="translate(-223.632 -95.678)"/><path class="f" d="M572.436,208.44l2.462,33.2h-1.717l-9.892-27.7Z" transform="translate(-219.127 -81.059)"/><path class="c" d="M574.3,193.24l-4.271,6.623L557.1,206.052Z" transform="translate(-216.719 -75.146)"/><path class="c" d="M633.323,292.643l-.495,1.595h-5.163l-.385-1.081a4.32,4.32,0,0,1,3.312-1.222,4.955,4.955,0,0,1,2.731.709Z" transform="translate(-273.611 -133.655)"/><path class="c" d="M632.319,296.6v2.841h-.483a5.653,5.653,0,0,1-1.356-.159V296.6Z" transform="translate(-274.855 -135.474)"/><ellipse class="d" cx="3.672" cy="2.181" rx="3.672" ry="2.181" transform="translate(353.303 158.945)"/><rect class="b" width="2.248" height="124.03" transform="translate(488.227 252.371)"/><path class="b" d="M849.959,672.128a5.865,5.865,0,0,1-7.2,0c-1.008-6.635,1.546-19.686,2.145-22.606.079-.385.128-.611.128-.611h2.878a2.043,2.043,0,0,1,.452.672C850.356,653.853,849.959,672.128,849.959,672.128Z" transform="translate(-357.345 -272.527)"/><path class="c" d="M849.592,644.518V647.2H848.37v-2.682a3.061,3.061,0,0,1,.611-.049A4.1,4.1,0,0,1,849.592,644.518Z" transform="translate(-359.617 -270.8)"/><path class="c" d="M849.878,649.56a3.487,3.487,0,0,1-1.668.391,3.36,3.36,0,0,1-1.79-.47c.079-.385.128-.611.128-.611h2.878A2.041,2.041,0,0,1,849.878,649.56Z" transform="translate(-358.859 -272.512)"/><ellipse class="d" cx="2.426" cy="1.442" rx="2.426" ry="1.442" transform="translate(486.926 374.128)"/><path class="e" d="M783.46,374.918l8.548-4.094,12.6,3.018-9.782-7.393Z" transform="translate(-304.777 -142.527)"/><path class="e" d="M785.959,379.011l-2.5-1.307,8.548-4.094,12.6,3.018-2.218,1.075-10.387-2.328Z" transform="translate(-304.777 -145.312)"/><path class="c" d="M785.959,379.011l-2.5-1.307,8.548-4.094,12.6,3.018-2.218,1.075-10.387-2.328Z" transform="translate(-304.777 -145.312)"/><path class="f" d="M786.99,378.59l6.88,19.277h3.415l6.366-20.468-10.271-2.389Z" transform="translate(-306.15 -145.857)"/><path class="e" d="M802.169,402.688l-1.356,4.375-.33,1.057h-3.415l-.25-.715-1.607-4.5,2.578-1.552Z" transform="translate(-309.348 -156.103)"/><path class="f" d="M793.6,376.5l1.631,21.947h-1.143l-6.537-18.311Z" transform="translate(-306.368 -146.436)"/><path class="c" d="M794.831,366.45l-2.823,4.375-8.548,4.094Z" transform="translate(-304.777 -142.527)"/><path class="c" d="M850.266,443.319l-.33,1.051h-3.409l-.257-.715a2.859,2.859,0,0,1,2.187-.819A3.275,3.275,0,0,1,850.266,443.319Z" transform="translate(-358.801 -192.36)"/><path class="c" d="M849.6,445.924v1.87h-.318a3.756,3.756,0,0,1-.892-.1V445.9Z" transform="translate(-359.625 -193.554)"/><ellipse class="d" cx="2.426" cy="1.442" rx="2.426" ry="1.442" transform="translate(487.231 250.929)"/><ellipse class="a" cx="271.889" cy="26.883" rx="271.889" ry="26.883" transform="translate(0 455.915)"/><path class="g" d="M348.2,453.169s-54.5-2.291-60.237-109,51.06-124.782,51.06-124.782S357.02,209.337,365,208.921s34.649,2.1,34.649,2.1l-29.4-5.67s41.37-15.745,53.767-17l-44.724,9.446s-.611-24.775,10.081-32.963c0,0-9.165-.684-14,17.163A34.093,34.093,0,0,1,354.955,204.9c-16.588,6.47-39.525,16.686-44.749,25.435,0,0-9.66,10.081-8.187-16.167s8.395-48.72,10.918-49.349c0,0,19.735-20.993,47.455-22.252,0,0-16.167-6.513-43.466,13.857,0,0-2.31-10.289,7.979-22.472s26.272-37.8,43.673-40.521c0,0-24.354-1.472-43.673,30.024,0,0-7.142,4.619-7.772-7.136s-4.827-26.462-4.827-26.462-5.884,27.091,6.507,39.268c0,0-23.731,30.867-22.68,65.516,0,0-7.332,15.745-10.075-2.731,0,0-1.582-25.448-4.741-47.046a63.921,63.921,0,0,1,13.405-49.313c5.248-6.531,8.9-12.873,6.874-16.2L274.1,112.1s-23.126-53.529-39.922-65.052S215.283,33,215.283,33l27.085,31.7L208.355,52.692l34.014,15.745s15.751,12.831,24.782,47.877,9.867,56.9,9.867,56.9-48.506-38.425-57.744-37.166l31.386,23.743a74.766,74.766,0,0,1,29.5,54.579h0S219.481,198.834,204.78,195.9l-27.714-28.35,21,26.883-43.258-.611-24.775-17.639s19.552,16.381,17.633,17.431-30.445,2.31-30.445,2.31,72.652-.422,80.65,4.827,25.826,7.142,25.826,7.142l-51.445,7.766,61.319-4.405s46.4,8.395,48.922,22.888c0,0-9.452,24.659-15.745,34.435C261.517,276.7,251,303.007,248.9,326.108s-5.041,58.581,2.939,80.21,10.918,34.02,6.929,40.527-7.772,14.908,5.248,16.588,70.135-.837,70.135-.837S351.57,466.018,348.2,453.169Z" transform="translate(-75.19 -32.93)"/><path class="c" d="M415.333,700.034a27.433,27.433,0,0,0-18.519-2.316c-10.692,2.316-27.073,1.088-28.564.831" transform="translate(-172.844 -291.251)"/><path class="c" d="M388.855,496.14s-2.6,41.046,2.022,49.142Z" transform="translate(-180.576 -213.098)"/><path class="c" d="M373.6,576.57s3.336,38.443,5.646,45.958S373.6,576.57,373.6,576.57Z" transform="translate(-174.926 -244.386)"/><path class="c" d="M361.454,421.86c-2.365.868-12.482,21.385-10.454,27.464S361.454,421.86,361.454,421.86Z" transform="translate(-166.03 -184.202)"/><path class="c" d="M407.073,387c-1.094.495-5.8,12.318-4.888,15.812S407.073,387,407.073,387Z" transform="translate(-186 -170.641)"/><path class="c" d="M338.56,499.81c1.173,11.92,1.833,19.723,1.063,29.266a112.846,112.846,0,0,0,.318,22.258" transform="translate(-161.295 -214.525)"/><path class="c" d="M542.473,272.66a9.516,9.516,0,0,0-1.967,6.043c-.067,2.163.208,4.326.067,6.483-.153,2.267-1.222,4.931-3.483,5.23" transform="translate(-238.525 -126.161)"/><path class="c" d="M469.346,156.35a54.591,54.591,0,0,0-7.6,9.434,22.488,22.488,0,0,1-2.157,3.055,37.315,37.315,0,0,1-4.167,3.415,19.613,19.613,0,0,0-6.641,10.387" transform="translate(-204.172 -80.915)"/><path class="c" d="M302.78,55.93a13.57,13.57,0,0,0,2.694,3.6c.953.9,2.041,1.674,2.9,2.664a21.111,21.111,0,0,1,1.833,2.737,72.546,72.546,0,0,0,7.766,9.776" transform="translate(-147.376 -41.85)"/><path class="c" d="M383.086,155.35c-1.833,1.13-2.279,3.55-2.242,5.682s.4,4.356-.385,6.336c-.361.9-.947,1.7-1.326,2.591a11.988,11.988,0,0,0-.611,4.937c.031,1.931.092,3.868.177,5.8.1,2.322.318,4.851,1.9,6.556" transform="translate(-176.835 -80.526)"/><path class="h" d="M361.09,254a25.012,25.012,0,0,1,4.711,3.244,8.456,8.456,0,0,1,2.737,4.888c.1.813.049,1.644.232,2.444a7.709,7.709,0,0,0,1.607,2.951,40.583,40.583,0,0,0,3.978,4.405" transform="translate(-170.059 -118.902)"/><path class="c" d="M370.774,338.907a28.679,28.679,0,0,0-3.8-2.639,15.789,15.789,0,0,0-3.9-1.717,41.774,41.774,0,0,0-6.452-.7c-2.175-.226-4.411-.825-5.878-2.444" transform="translate(-166.033 -149.016)"/><path class="c" d="M243.79,300.26c2.554.073,5.206.165,7.478,1.332,1.161.611,2.169,1.454,3.305,2.09a10,10,0,0,0,4.821,1.252" transform="translate(-124.428 -136.898)"/><path class="c" d="M297.417,317.4a1.419,1.419,0,0,0-1.833.428c-.452.525-.7,1.222-1.173,1.711-.935,1.008-2.444,1.124-3.831,1.173" transform="translate(-142.63 -143.487)"/><path class="c" d="M325.68,228.69l2.444,1.289a43.428,43.428,0,0,1,7.252,4.4" transform="translate(-156.284 -109.056)"/><path class="c" d="M371.6,267.965c1.613-.385,3.006,1.338,3.293,2.969s-.049,3.354.409,4.949a9.232,9.232,0,0,0,2.444,3.623" transform="translate(-174.148 -124.314)"/><path class="c" d="M414.721,272.89c1.472,4.387-1.644,9.165-.733,13.7.275,1.381.916,2.664,1.222,4.039.849,3.6-.611,7.442-2.969,10.307" transform="translate(-189.957 -126.25)"/><rect class="b" width="4.246" height="234.179" transform="translate(132.731 111.05)"/><path class="b" d="M270.287,641.722a11.071,11.071,0,0,1-13.594,0c-1.894-12.531,2.921-37.16,4.057-42.683l.238-1.118h5.438a4.028,4.028,0,0,1,.849,1.271C271.038,607.207,270.287,641.722,270.287,641.722Z" transform="translate(-129.277 -252.692)"/><path class="c" d="M269.611,589.582v5.059H267.32v-5.065a6.64,6.64,0,0,1,1.118-.086A7.324,7.324,0,0,1,269.611,589.582Z" transform="translate(-133.581 -249.412)"/><path class="c" d="M270.135,599.191a6.5,6.5,0,0,1-3.141.739,6.268,6.268,0,0,1-3.385-.892l.238-1.118h5.438A4.027,4.027,0,0,1,270.135,599.191Z" transform="translate(-132.138 -252.692)"/><ellipse class="d" cx="4.582" cy="2.719" rx="4.582" ry="2.719" transform="translate(130.275 340.939)"/><path class="e" d="M187.74,109.786l16.142-7.729,23.8,5.688L209.21,93.79Z" transform="translate(-73.033 -36.458)"/><path class="e" d="M192.463,117.517l-4.723-2.468,16.142-7.729,23.8,5.688-4.191,2.041-19.607-4.4Z" transform="translate(-73.033 -41.722)"/><path class="c" d="M192.463,117.517l-4.723-2.468,16.142-7.729,23.8,5.688-4.191,2.041-19.607-4.4Z" transform="translate(-73.033 -41.722)"/><path class="f" d="M194.42,116.724l12.99,36.39h6.44l12.024-38.645-19.393-4.509Z" transform="translate(-75.632 -42.749)"/><path class="e" d="M223.072,162.216,220.5,170.47l-.617,1.992h-6.44l-.483-1.35-3.031-8.5,4.87-2.933Z" transform="translate(-81.666 -62.09)"/><path class="f" d="M206.889,112.77l3.073,41.437h-2.145l-12.348-34.57Z" transform="translate(-76.04 -43.842)"/><path class="c" d="M209.21,93.79l-5.328,8.267-16.142,7.729Z" transform="translate(-73.033 -36.458)"/><path class="c" d="M270.87,209.689l-.611,1.992h-6.452l-.477-1.35a5.368,5.368,0,0,1,4.13-1.552,6.226,6.226,0,0,1,3.409.91Z" transform="translate(-132.029 -101.309)"/><path class="c" d="M269.6,214.64v3.544c-.2,0-.4.031-.611.031a7.1,7.1,0,0,1-1.692-.2V214.64Z" transform="translate(-133.573 -103.59)"/><ellipse class="d" cx="4.582" cy="2.719" rx="4.582" ry="2.719" transform="translate(130.843 108.331)"/><ellipse class="a" cx="10.277" cy="1.735" rx="10.277" ry="1.735" transform="translate(548.177 418.48)"/><path class="i" d="M951.16,705.423s5.859-.183,7.625-1.442,9.018-2.756,9.452-.739,8.81,10.032,2.193,10.087-15.379-1.033-17.138-2.108S951.16,705.423,951.16,705.423Z" transform="translate(-399.604 -293.279)"/><path class="j" d="M970.566,714.64c-6.617.055-15.372-1.032-17.108-2.108-1.338-.819-1.876-3.751-2.053-5.1h-.2s.367,4.723,2.132,5.8,10.521,2.157,17.138,2.108c1.912,0,2.566-.7,2.536-1.7C972.717,714.249,971.99,714.627,970.566,714.64Z" transform="translate(-399.624 -295.293)"/><ellipse class="a" cx="7.906" cy="1.338" rx="7.906" ry="1.338" transform="translate(610.143 398.641)"/><path class="i" d="M1051.3,675.808s4.509-.141,5.872-1.106,6.935-2.126,7.271-.574,6.782,7.723,1.686,7.76-11.829-.788-13.185-1.619S1051.3,675.808,1051.3,675.808Z" transform="translate(-438.56 -282.043)"/><path class="j" d="M1066.22,682.9c-5.089.043-11.829-.794-13.185-1.619-1.032-.611-1.448-2.89-1.582-3.929h-.153s.287,3.635,1.644,4.46,8.1,1.662,13.185,1.619c1.473,0,1.979-.532,1.949-1.308C1067.876,682.6,1067.314,682.892,1066.22,682.9Z" transform="translate(-438.56 -283.591)"/><ellipse class="a" cx="18.873" cy="3.189" rx="18.873" ry="3.189" transform="translate(563.299 481.289)"/><path class="i" d="M980.53,797.854s10.766-.336,14.01-2.646,16.564-5.071,17.37-1.363,16.179,18.427,4.02,18.525-28.24-1.888-31.447-3.861S980.53,797.854,980.53,797.854Z" transform="translate(-411.03 -328.204)"/><path class="j" d="M1016.15,814.776c-12.159.1-28.246-1.894-31.484-3.862-2.444-1.5-3.446-6.9-3.776-9.385h-.36s.684,8.7,3.953,10.674,19.325,3.965,31.478,3.861c3.513,0,4.723-1.271,4.656-3.122C1020.1,814.037,1018.759,814.758,1016.15,814.776Z" transform="translate(-411.03 -331.899)"/><path class="g" d="M654.8,426.554s31.3-1.32,34.594-62.6-29.327-71.669-29.327-71.669-10.332-5.774-14.914-6.012-19.9,1.222-19.9,1.222l16.882-3.257s-23.755-9.043-30.873-9.776l25.661,5.426s.36-14.23-5.792-18.941c0,0,5.242-.391,8.041,9.855a19.552,19.552,0,0,0,11.725,13.161c9.531,3.721,22.7,9.586,25.7,14.609,0,0,5.548,5.792,4.7-9.287s-4.821-27.983-6.269-28.344c0,0-11.334-12.055-27.256-12.782,0,0,9.287-3.733,24.965,7.943,0,0,1.326-5.908-4.582-12.9s-15.073-21.708-25.087-23.272c0,0,13.992-.849,25.087,17.242,0,0,4.1,2.652,4.46-4.1a83.079,83.079,0,0,1,2.774-15.2s3.379,15.556-3.739,22.551c0,0,13.631,17.719,13.026,37.631,0,0,4.222,9.043,5.792-1.57,0,0,.9-14.615,2.719-27.012a36.739,36.739,0,0,0-7.7-28.325c-3.012-3.745-5.114-7.393-3.947-9.305l15.8,18.812s13.265-30.751,22.912-37.386,10.857-8.077,10.857-8.077L715.58,203.4l19.552-6.874-19.552,9.049s-9.043,7.332-14.23,27.494-5.67,32.682-5.67,32.682,27.843-22.026,33.17-21.33l-18.03,13.631a42.958,42.958,0,0,0-16.949,31.35h0s34.826-8.927,43.3-10.613l15.886-16.283-12.03,15.433,24.843-.36,14.236-10.13s-11.218,9.409-10.148,10.014,17.492,1.326,17.492,1.326-41.73-.238-46.313,2.774-14.835,4.1-14.835,4.1l29.56,4.5-35.217-2.536s-26.651,4.827-28.105,13.148c0,0,5.432,14.163,9.049,19.778,3,4.662,9.043,19.778,10.246,33.042s2.9,33.647-1.686,46.068-6.269,19.552-3.977,23.279,4.46,8.554-3.018,9.525-40.282-.483-40.282-.483S652.862,433.935,654.8,426.554Z" transform="translate(-267.379 -92.134)"/><path class="c" d="M711.21,568.368a15.739,15.739,0,0,1,10.625-1.326c6.11,1.326,15.55.611,16.4.477" transform="translate(-306.261 -240.528)"/><path class="c" d="M742.631,451.26s1.491,23.578-1.161,28.221Z" transform="translate(-318.032 -195.639)"/><path class="c" d="M750.174,497.45s-1.912,22.081-3.238,26.4S750.174,497.45,750.174,497.45Z" transform="translate(-320.064 -213.607)"/><path class="c" d="M755.45,408.6c1.356.5,7.167,12.287,6.006,15.77S755.45,408.6,755.45,408.6Z" transform="translate(-323.47 -179.044)"/><path class="c" d="M731.34,388.58c.611.281,3.336,7.075,2.792,9.079S731.34,388.58,731.34,388.58Z" transform="translate(-314.091 -171.255)"/><path class="c" d="M772.014,453.37c-.672,6.849-1.039,11.328-.611,16.808a64.407,64.407,0,0,1-.183,12.782" transform="translate(-329.605 -196.46)"/><path class="c" d="M653.43,322.91a5.5,5.5,0,0,1,1.136,3.47c.043,1.222-.122,2.481-.043,3.721s.709,2.829,2,3.006" transform="translate(-283.783 -145.709)"/><path class="c" d="M689.89,256.1a31.291,31.291,0,0,1,4.344,5.438,12.741,12.741,0,0,0,1.222,1.766,20.163,20.163,0,0,0,2.4,1.961,11.278,11.278,0,0,1,3.813,5.982" transform="translate(-297.967 -119.719)"/><path class="c" d="M787.507,198.43a7.906,7.906,0,0,1-1.546,2.071c-.55.519-1.173.959-1.668,1.527a12.04,12.04,0,0,0-1.069,1.57,42.47,42.47,0,0,1-4.454,5.633" transform="translate(-332.542 -97.285)"/><path class="c" d="M745.28,255.53a3.626,3.626,0,0,1,1.289,3.263,9.351,9.351,0,0,0,.226,3.666c.208.519.544.978.758,1.491a6.988,6.988,0,0,1,.361,2.829c0,1.112-.055,2.224-.1,3.33a5.782,5.782,0,0,1-1.088,3.77" transform="translate(-319.514 -119.497)"/><path class="h" d="M754.729,312.16a14.49,14.49,0,0,0-2.707,1.833,4.851,4.851,0,0,0-1.57,2.823c-.061.464-.031.941-.135,1.4a4.46,4.46,0,0,1-.923,1.692,22.966,22.966,0,0,1-2.285,2.529" transform="translate(-320.226 -141.527)"/><path class="c" d="M746.69,360.989a17.158,17.158,0,0,1,2.181-1.515,9.226,9.226,0,0,1,2.248-.99,24.162,24.162,0,0,1,3.7-.367,5.249,5.249,0,0,0,3.379-1.387" transform="translate(-320.063 -158.865)"/><path class="c" d="M821.3,338.76a9.791,9.791,0,0,0-4.277.764c-.666.342-1.222.837-1.9,1.222a5.7,5.7,0,0,1-2.768.721" transform="translate(-345.609 -151.875)"/><path class="c" d="M793.65,348.608a.825.825,0,0,1,1.057.244c.263.3.4.69.678.984a3,3,0,0,0,2.193.672" transform="translate(-338.331 -155.668)"/><path class="c" d="M776.376,297.66l-1.411.733a25.011,25.011,0,0,0-4.155,2.536" transform="translate(-329.446 -135.886)"/><path class="c" d="M751.309,320.2c-.929-.22-1.729.77-1.894,1.711s0,1.925-.238,2.841a5.317,5.317,0,0,1-1.387,2.083" transform="translate(-320.491 -144.643)"/><path class="c" d="M727.594,323c-.843,2.517.947,5.267.422,7.87-.159.794-.525,1.534-.715,2.322a7.063,7.063,0,0,0,1.7,5.92" transform="translate(-312.465 -145.744)"/><path class="e" d="M405.273,405.72c-10.032,13.527-18.293,53.321-20.609,65.314l-17.474-.69c1.1-10.32,22.228-51.989,28.105-63.42C398.442,406.5,401.808,406.074,405.273,405.72Z" transform="translate(-172.432 -177.923)"/><rect class="k" width="7.747" height="10.912" transform="translate(443.411 222.994)"/><path class="c" d="M781.911,397.86v3.55a5.963,5.963,0,0,1-1.68.226l-6.061-.049V397.86Z" transform="translate(-330.753 -174.865)"/><path class="k" d="M768.81,352.36h7.332a8.78,8.78,0,0,1,8.132,5.5c2.138,5.273,3.953,13.656-.813,22a6.036,6.036,0,0,1-5.3,3.055l-9.336-.079Z" transform="translate(-328.668 -157.165)"/><ellipse class="l" cx="7.833" cy="15.232" rx="7.833" ry="15.232" transform="translate(432.309 195.201)"/><rect class="k" width="7.747" height="9.55" transform="translate(374.614 223.123)"/><path class="c" d="M669.307,398.07v3.055a5.975,5.975,0,0,1-1.686.226l-6.061-.055v-3.208Z" transform="translate(-286.946 -174.947)"/><path class="k" d="M656.21,352.58h7.332a8.761,8.761,0,0,1,8.126,5.5c2.145,5.273,3.959,13.656-.807,22a6.049,6.049,0,0,1-5.3,3.055l-9.33-.086Z" transform="translate(-284.865 -157.251)"/><ellipse class="l" cx="7.833" cy="15.232" rx="7.833" ry="15.232" transform="translate(363.512 195.329)"/><path class="k" d="M658.251,361.69s-2.89.464-1.387,4.277a26.063,26.063,0,0,1,1.729,5.774s2.89,1.5,2.774-3.464S658.251,361.69,658.251,361.69Z" transform="translate(-284.951 -160.795)"/><ellipse class="m" cx="45.696" cy="50.083" rx="45.696" ry="50.083" transform="translate(34.099 368.47)"/><path class="c" d="M179.768,641.07c-23.908,1.607-42.848,23.37-42.848,49.985,0,21.452,12.305,39.751,29.6,46.881,23.914-1.607,42.855-23.37,42.855-49.985C209.377,666.5,197.065,648.2,179.768,641.07Z" transform="translate(-82.854 -269.478)"/><ellipse class="m" cx="37.087" cy="48.36" rx="37.087" ry="48.36" transform="translate(400.343 260.729)"/><path class="c" d="M730.465,462.93c-15.385,5.9-26.615,24.439-26.615,46.4,0,23.474,12.831,43.038,29.841,47.437,15.379-5.9,26.615-24.439,26.615-46.4C760.305,486.893,747.474,467.329,730.465,462.93Z" transform="translate(-303.397 -200.179)"/><path class="e" d="M522.955,504.722l.69-17.554s-3.446-7.576-6.886-8.261S505.4,477.79,505.4,477.79s-6.2,25.209-2.065,32.785S522.955,504.722,522.955,504.722Z" transform="translate(-224.842 -205.959)"/><path class="c" d="M522.955,504.722l.69-17.554s-3.446-7.576-6.886-8.261S505.4,477.79,505.4,477.79s-6.2,25.209-2.065,32.785S522.955,504.722,522.955,504.722Z" transform="translate(-224.842 -205.959)"/><path class="e" d="M432.331,502.154s-2.132-24.342,11.242-24.782c1.723-.055,3.446-.1,5.163-.263,9.269-.9,34.557-2.847,31.527,2.927,0,0-6.024,21.171-1.894,26.5Z" transform="translate(-197.724 -205.285)"/><path class="e" d="M740.636,557.057l17.938.519s3.1-33.048,4.13-35.627,1.552-14.975-1.8-16.778-14.578-4-14.578-4l-8.273,18.837-.642,17.04Z" transform="translate(-316.453 -215.055)"/><path class="c" d="M740.636,557.057l17.938.519s3.1-33.048,4.13-35.627,1.552-14.975-1.8-16.778-14.578-4-14.578-4l-8.273,18.837-.642,17.04Z" transform="translate(-316.453 -215.055)"/><path class="e" d="M651.4,499.148l-.079-3.666a2.12,2.12,0,0,1,2.212-2.163c8.9.373,41.254,1.925,46.918,4.815,0,0-6.2,46.081.648,57.054L698.777,592.1l-79.257-5.939Z" transform="translate(-270.592 -211.999)"/><path class="c" d="M661.56,407.174c2.2-.22,4.821-.452,7.747-.684V410.9H661.56Z" transform="translate(-286.946 -178.223)"/><path class="c" d="M781.911,413.022v.556H774.17V410.23a33.072,33.072,0,0,1,7.741,2.792Z" transform="translate(-330.753 -179.678)"/><path class="n" d="M380.468,492.91a.721.721,0,0,1,.293-.458,1.032,1.032,0,0,1,.532-.049h0v.312h0a11.957,11.957,0,0,0-1.106,1.13C380.3,493.533,380.376,493.222,380.468,492.91Zm28.038-8.224a.952.952,0,0,0,0-.128,27.052,27.052,0,0,1,1.338-2.859,27.8,27.8,0,0,0-1.338,2.988Zm4.179-7.906c-.66.984-1.46,2.255-2.248,3.727A17.313,17.313,0,0,1,412.685,476.78Zm-109.165,85.5c3.11.122,5.7.067,5.7.067C308.658,562.605,306.159,562.489,303.52,562.281Zm5.707.061c.116-.073,1.265-.745,3.947-.477A10.881,10.881,0,0,0,309.227,562.343Zm104.363-47,1.136-19.552s-.422,9.984-.281,14.3a14.051,14.051,0,0,1-.855,5.254Z" transform="translate(-147.664 -205.566)"/><path class="o" d="M364.062,597.578s-.324,1-.752,2.273c-.7,2.071-1.68,4.888-2.016,5.151s-2.939.434-5.774.611a17.853,17.853,0,0,1-12.171-3.868s1.485-1.069,3.055-2.31a17.273,17.273,0,0,0,3.556-3.336c.47-.947,3.159-2.578,4.778-3.495.727-.416,1.222-.684,1.222-.684Z" transform="translate(-163.158 -250.357)"/><path class="p" d="M351,607.9s-28.57-1.314-30.274-1.692a3.048,3.048,0,0,1-2.053-2.383c-.568-1.332,2.444-1.045,2.444-1.045h0c.305.049,3.666.611,6.831,1.014h0c2.536.324,4.937.544,5.5.306h0a10.794,10.794,0,0,1,3.825-.306c-1.448-4.79-5.835-5.933-7.711-6.2l.116-.116a9.589,9.589,0,0,1,1.631-1.222c5.823.238,8.9,8.267,8.9,8.267h.049c.66.208,7.68,2.383,9.073,2.584h0C350.788,607.327,351,607.9,351,607.9Z" transform="translate(-153.531 -252.042)"/><path class="o" d="M325.42,608.024c-.11.36-.611.611-1.43.678a9.292,9.292,0,0,1-1.332,0h0a30.251,30.251,0,0,1-7.943-1.784c-.44-.153-.855-.287-1.259-.4h-.049a17.307,17.307,0,0,0-2.969-.611c-2.591-.269-3.7.4-3.806.477h0s-2.505.055-5.5-.067h0a44.671,44.671,0,0,1-6.861-.721h0c-.324-.067-.611-.147-.91-.226a6.353,6.353,0,0,1-1.534-.611c-3.153-1.894,7.466-3.171,7.466-3.171a5.536,5.536,0,0,0,3.214-1.552l.11-.122.269-.269h0a14.612,14.612,0,0,1,1.289-1l.391-.263c2.114-1.43,4.961-2.957,4.961-2.957a12.062,12.062,0,0,0,5.261-3.006,6.231,6.231,0,0,0,.733-.868h0l5.872-1.515,4.045,9.715s.031.525.061,1.314A46.185,46.185,0,0,1,325.42,608.024Z" transform="translate(-142.887 -249.622)"/><path class="c" d="M325.339,614.012a9.292,9.292,0,0,1-1.332,0h0a30.258,30.258,0,0,1-7.943-1.784c-.44-.153-.855-.287-1.259-.4h-.049a17.294,17.294,0,0,0-2.969-.611c-2.591-.269-3.7.4-3.806.477h0s-2.505.055-5.5-.067h0a44.672,44.672,0,0,1-6.861-.721h0c-.324-.067-.611-.147-.91-.226a7.265,7.265,0,0,1,1.179-.049h0c.3.037,3.7.452,6.861.715h0c2.554.214,4.961.33,5.5.067h0a10.258,10.258,0,0,1,3.806-.477c-1.65-4.723-6.11-5.67-7.973-5.859.037-.043.079-.079.11-.122h0a10.09,10.09,0,0,1,1.558-1.271h.122c5.749.092,9.134,7.863,9.134,7.863h.049c.666.177,7.778,2.053,9.165,2.193h0A3.5,3.5,0,0,1,325.339,614.012Z" transform="translate(-144.236 -254.932)"/><path class="p" d="M324.661,614.922s-28.6-.073-30.317-.373-2.157-2.3-2.157-2.3c-.611-1.3,2.377-1.143,2.377-1.143h0c.3.037,3.666.452,6.861.721h0c2.548.208,4.961.324,5.5.067h0a10.207,10.207,0,0,1,3.806-.477c-1.656-4.723-6.11-5.67-7.973-5.859l.11-.122a10.436,10.436,0,0,1,1.576-1.289c5.829,0,9.256,7.87,9.256,7.87h.049c.666.171,7.778,2.047,9.165,2.187h0C324.423,614.36,324.661,614.922,324.661,614.922Z" transform="translate(-143.223 -255.115)"/><path class="c" d="M371.3,597.589s-.324,1-.751,2.273c-.171-.116-5.8-3.861-7.943-6.318a4.646,4.646,0,0,1-.648-.91c.727-.415,1.222-.684,1.222-.684Z" transform="translate(-170.397 -250.369)"/><path class="q" d="M388,573.894l-1.014,3.281-9.715,5.291s-2.627,1.864-3.055,2.743a2.738,2.738,0,0,1-1.552,1.222,21.525,21.525,0,0,0-1.344,1.87s-5.768-3.825-7.943-6.318c-.672-.77-1-1.417-.69-1.778,1.271-1.527,8.9-7.014,8.9-7.014s4.656-6.11,4.857-6,2.542-2.145,3.916-3.422l.941-.88Z" transform="translate(-170.635 -239.064)"/><path class="o" d="M460,463.178l-9.458,16.729-3.47,6.617-18.482-2.694.415-.886,1.564-3.281.715-1.5.11-.2,2.047-3.709.116-.153,1.485-2.1,2.988-4.222a2.7,2.7,0,0,0,.978-.257,2.31,2.31,0,0,0,1.118-1.271c1.057-2.615-.88-7.643-.88-7.643s7.014-17.108,9.446-7.692a17.922,17.922,0,0,0,9.776,11.609A13.445,13.445,0,0,0,460,463.178Z" transform="translate(-196.317 -194.402)"/><path class="q" d="M428,566.92v1.619s6.11,5.847,5.3,10.613.9,10.7.9,10.7l6.147-.44-.929-21.776Z" transform="translate(-196.088 -240.632)"/><path class="r" d="M440.348,589.417l-6.147.44s-1.7-5.933-.9-10.7-5.3-10.613-5.3-10.613V566.92l11.419.721.061,1.417Z" transform="translate(-196.088 -240.632)"/><path class="r" d="M380.871,565.275a51.322,51.322,0,0,0-5.389,5.847c-2.163,2.878-5.847,7.014-5.847,7.014l-4.405,2.609-1.833,1.778c-.672-.77-1-1.418-.69-1.778,1.271-1.527,8.9-7.014,8.9-7.014s4.656-6.11,4.857-6,2.542-2.145,3.916-3.422Z" transform="translate(-170.643 -239.617)"/><path class="c" d="M340.453,601.066a5.944,5.944,0,0,0-.507.489s-.092,2.872-2.34-3.874-7.827-5.126-7.827-5.126a.1.1,0,0,1-.043-.122c0-.183.324-.5.733-.868h0l5.872-1.515,4.045,9.715S340.422,600.278,340.453,601.066Z" transform="translate(-157.86 -249.63)"/><path class="q" d="M361.513,545.28l-3.422.092-2.34,3.33s-3.868,4.136-5.035,5.169-8.725,8.138-10.882,11.829c0,0-1.98.99-1.98,1.98s-3.776,3.868-3.776,3.868-3.959,2.694-3.422,3.055c0,0,5.578-1.619,7.827,5.126s2.34,3.868,2.34,3.868a5.249,5.249,0,0,1,1.35-1.063c.538-.2,3.1-3.88,3.886-3.971a3.885,3.885,0,0,0,1.6-.721l4.582-4.5,4.411-2.609s3.666-4.136,5.841-7.014a51.757,51.757,0,0,1,5.4-5.847Z" transform="translate(-158.201 -232.214)"/><path class="c" d="M353.22,580.91s6.11,2.963,5.847,3.593S353.22,580.91,353.22,580.91Z" transform="translate(-166.997 -246.074)"/><path class="c" d="M361.12,579.73s.477,2.67,2.908,2.548S361.12,579.73,361.12,579.73Z" transform="translate(-170.071 -245.615)"/><path class="c" d="M347.18,592s.361,1.527,2.609,1.8S347.18,592,347.18,592Z" transform="translate(-164.648 -250.389)"/><path class="c" d="M384.65,580.91s2.963,1.222,3.232,2.921S384.65,580.91,384.65,580.91Z" transform="translate(-179.224 -246.074)"/><path class="c" d="M372.72,591.21c1.149.495,4.454,4.2,4.387,4.607S372.72,591.21,372.72,591.21Z" transform="translate(-174.583 -250.081)"/><path class="c" d="M381.33,586.827a1.986,1.986,0,0,1,2.029.428C384.183,588.11,381.33,586.827,381.33,586.827Z" transform="translate(-177.933 -248.332)"/><path class="o" d="M410.228,537.759s-11.468-3.715-10.588,0,10.588,5.8,10.588,5.8Z" transform="translate(-185.036 -228.646)"/><path class="c" d="M460,472.389l-9.458,16.729-3.47,6.617-18.482-2.694.415-.886a10.668,10.668,0,0,1,1.473-1.65,6.109,6.109,0,0,1,.092-1.631,3.171,3.171,0,0,1,.825-1.7l.073-.067a11.4,11.4,0,0,0,2.09-3.794c.159-.422.244-.7.244-.7l1.222-1.4,3.965-4.479,1.118-1.271,1.051-1.185-3.764,5.352s-1.8,3.238-1.888,3.666-3.055,4.405-3.055,4.405-5.034,4.411,3.959,4.5,14.48-8.676,14.48-8.676l7.588-11.755A13.431,13.431,0,0,0,460,472.389Z" transform="translate(-196.317 -203.614)"/><path class="c" d="M391.047,536.132l-3.525-.244-7.961-.666V534l11.425.715Z" transform="translate(-147.654 -207.706)"/><path class="s" d="M457.094,470.21s1.619,1.8,3.238,1.888a21.618,21.618,0,0,0-4.051,6.208s-5.047,8.493-1.436,11.419,5.707,3.507,5.707,3.507l-1.094,19.552s2.67,13.442,3.666,14.444.721,3.238.721,3.238-.654,2.248.031,3.055.868,4.949.868,4.949-4.045-2.071-4.888-2.071-3.055-4.228-3.055-4.228l-22-1.527-9.672-.806,1.527-26.883s-4.405-7.228,1.619-12.788c0,0-.232-2.328.99-3.4s2.34-4.5,2.34-4.5l7.375-8.334h0l-3.776,5.371s-1.8,3.238-1.888,3.666-3.055,4.411-3.055,4.411-5.035,4.405,3.959,4.5,14.48-8.725,14.48-8.725Z" transform="translate(-194.962 -203.011)"/><path class="c" d="M465.68,528.21a13.323,13.323,0,0,0,6.476,2.383C475.5,530.685,465.68,528.21,465.68,528.21Z" transform="translate(-210.746 -225.573)"/><path class="c" d="M472.3,515.933s2.474-1.222,3.868-.2S472.3,515.933,472.3,515.933Z" transform="translate(-213.321 -220.561)"/><path class="c" d="M470.39,523s.159,1.442,3.825,1.619S470.39,523,470.39,523Z" transform="translate(-212.578 -223.547)"/><path class="o" d="M472.32,473.3l.77.409a17.169,17.169,0,0,0,4.851,1.033c3.1.269,5.8,3.238,6.342,6.067.134.709.244,1.656.336,2.67a54.827,54.827,0,0,1-.171,11,34.948,34.948,0,0,0-.434,5.927c.269.807-1.485,13.356-1.485,13.356s-.4,10.252-2.969,11.2-16.863.941-16.863.941l-6.067-10.521,14.163.672a13.858,13.858,0,0,0,1.753-7.283c-.134-4.32.269-14.3.269-14.3s-8.554-1.833-6.819-8.511A40.927,40.927,0,0,1,472.32,473.3Z" transform="translate(-207.225 -204.213)"/><path class="q" d="M413.806,576.908s-5.713,1.888-7.943.9-7.081-4.766-7.081-4.766-3.116-3.055-6.079-6.47l-.379-.44h0c-2.566-2.988-4.888-6.11-4.888-7.656a6.506,6.506,0,0,0-.238-1.9,7.943,7.943,0,0,0-1.222-2.487,7.425,7.425,0,0,0-1.051-1.185l-9.354-12.055s2.7-2.878,2.7-3.666,3.238-5.212,7.375-2.872c1.741.978,5.9,4.625,10.142,8.517,5.835,5.352,11.8,11.175,11.8,11.175s.422.452,1.039,1.155c1.582,1.833,4.442,5.285,4.668,7.032C413.628,564.584,413.806,576.908,413.806,576.908Z" transform="translate(-175.692 -227.683)"/><path class="r" d="M415.236,560.948c-4.43,4.411-11.1,10.326-15.935,11.444l-.128.03-.25-.47h0l-5.108-9.556-1.3-2.444.067-.067L402.4,548.6c5.835,5.352,11.8,11.175,11.8,11.175S414.619,560.245,415.236,560.948Z" transform="translate(-182.286 -233.505)"/><path class="q" d="M450.7,555.237v2.047s2.835,10.008-2.291,12.831c-2.591,1.436-8.108,1.778-12.935,1.766a13.7,13.7,0,0,1-13.521-11.273,8.186,8.186,0,0,1-.055-2.9s-2.291-16.393-2.835-16.5c0,0-12.886,14.755-20.773,16.454l-6.66-12.452,10.637-12.22s7.894-12.544,10.185-13.692,4.589-4.363,4.589-4.363,9.244-7.711,15.379,5.31,10.118,23.535,11.609,27.439c0,0,2.163,4.424,3.507,4.411h.043a3.153,3.153,0,0,1,3.122,3.141Z" transform="translate(-181.939 -219.528)"/><path class="c" d="M436.09,554.718a13.33,13.33,0,0,0,2.762-4.723c1.02-2.969-.305,3.012-2.493,5.4Z" transform="translate(-199.235 -233.733)"/><path class="t" d="M416.429,431.193a4.494,4.494,0,0,0,1.393,2.334,44.6,44.6,0,0,0,4.509,4.246,4.681,4.681,0,0,1,1.65,1.9,2.988,2.988,0,0,1-.11,1.65,28.283,28.283,0,0,1-2.4,5.951,3.666,3.666,0,0,0-.666,2.028c.165,1.6,2.444,2.5,4.106,3.556a6.683,6.683,0,0,1,3.36,5.67c-.134,3.318-3.281,6.183-4.02,9.458a15.886,15.886,0,0,0,5.945-1.222c1.747-.825,3.055-2.261,2.982-3.788a1.07,1.07,0,0,1,.092-.7,1.509,1.509,0,0,1,.855-.44c1.631-.4,3.623-.269,4.821-1.179s.923-2.511.409-3.788c-1.393-3.495-3.409-6.855-4.625-10.387a7.455,7.455,0,0,1-.525-3.715,12.458,12.458,0,0,1,1.613-3.55,22.606,22.606,0,0,0,2.676-8.151,7.59,7.59,0,0,0-.66-4.784,8.063,8.063,0,0,0-5.334-3.531c-4.589-1.008-7.032,1.222-10.619,2.707C419.216,426.592,416.161,428.627,416.429,431.193Z" transform="translate(-191.58 -184.449)"/><path class="c" d="M424.255,467.521c.373,0,.745-.043,1.118-.073.764-3.244,3.861-6.11,4-9.379a6.691,6.691,0,0,0-3.36-5.676c-1.637-1.057-3.941-1.955-4.106-3.55a3.7,3.7,0,0,1,.666-2.035,28.279,28.279,0,0,0,2.4-5.951,2.988,2.988,0,0,0,.11-1.65,4.628,4.628,0,0,0-1.65-1.894,45.379,45.379,0,0,1-4.509-4.277,4.455,4.455,0,0,1-1.393-2.328c-.281-2.566,2.756-4.607,5.456-5.737,2.8-1.185,4.888-2.786,7.906-2.945-3.593-.232-5.859,1.625-9,2.945-2.7,1.13-5.737,3.171-5.456,5.737a4.455,4.455,0,0,0,1.393,2.328,45.373,45.373,0,0,0,4.509,4.277,4.628,4.628,0,0,1,1.65,1.894,2.988,2.988,0,0,1-.11,1.65,28.279,28.279,0,0,1-2.4,5.951,3.7,3.7,0,0,0-.666,2.035c.165,1.595,2.444,2.493,4.106,3.55a6.693,6.693,0,0,1,3.36,5.676C428.141,461.381,424.994,464.253,424.255,467.521Z" transform="translate(-191.579 -184.259)"/><circle class="c" cx="14.37" cy="14.37" r="14.37" transform="translate(228.601 239.473)"/><circle class="o" cx="14.37" cy="14.37" r="14.37" transform="translate(228.869 238.935)"/><path class="t" d="M429.73,426.468a5.694,5.694,0,0,1-3.055-1.741c-.752-1-.886-2.792.073-3.611a6.317,6.317,0,0,1,1.729-.752c2.413-1.069,2.823-4.815,4.46-7.155a5.364,5.364,0,0,1,4.949-2.383,23.824,23.824,0,0,1,2.988.88c2.389.648,4.943.134,7.369.574,4.766.874,8.413,5.358,10.387,10.387.91,2.316,1.546,4.766,2.267,7.179a95.086,95.086,0,0,0,3.91,10.631,7.472,7.472,0,0,0,1.338,2.254c1.527,1.558,4.228,1.442,5.169,3.538a7.427,7.427,0,0,1,.1,3.9,31.014,31.014,0,0,0,1.124,13.216c1.033,3.275,3.006,6.586,6.018,7.057-1.155,1.613-3.415,1.46-4.845.305s-2.285-3.012-3.244-4.7a29.939,29.939,0,0,0-2.768-4.063,5.713,5.713,0,0,0-2.1-1.8c-2.053-.831-4.234.868-6.067,2.346a10.444,10.444,0,0,1-4.943,2.6,3.971,3.971,0,0,1-4.369-2.682c-.69-2.34.7-5.5-.819-7.2a10.864,10.864,0,0,0-2.016-1.307c-1.943-1.381-2.181-4.54-1.919-7.216s.813-5.548-.226-7.9a9.513,9.513,0,0,0-2.444-3.055,53.766,53.766,0,0,0-14.761-9.69" transform="translate(-195.337 -179.901)"/><g class="u" transform="translate(230.64 230.998)"><path d="M456.084,464.751a3.971,3.971,0,0,1-4.375-2.682c-.69-2.334.709-5.5-.819-7.2a10.673,10.673,0,0,0-2.01-1.3c-1.949-1.381-2.187-4.54-1.918-7.216s.813-5.554-.232-7.906a9.58,9.58,0,0,0-2.444-3.055,53.767,53.767,0,0,0-14.761-9.745l1.7.4a5.711,5.711,0,0,1-3.055-1.741c-.745-.99-.886-2.792.079-3.617a6.27,6.27,0,0,1,1.723-.745c2.444-1.069,2.823-4.815,4.46-7.155a5.9,5.9,0,0,1,2.059-1.833,5.615,5.615,0,0,0-3.7,2.364c-1.637,2.34-2.041,6.11-4.46,7.155a6.317,6.317,0,0,0-1.729.752c-.959.819-.843,2.621-.073,3.611a5.9,5.9,0,0,0,3.055,1.741l-1.692-.4a53.767,53.767,0,0,1,14.755,9.727,9.513,9.513,0,0,1,2.444,3.055c1.045,2.352.495,5.224.226,7.9s0,5.835,1.919,7.216a10.278,10.278,0,0,1,2.016,1.308c1.521,1.7.128,4.857.819,7.2a3.971,3.971,0,0,0,4.369,2.682,6.341,6.341,0,0,0,1.967-.611,3.015,3.015,0,0,1-.324.092Z" transform="translate(-425.919 -410.96)"/><path d="M499.362,501.3c-1.43-1.155-2.285-3.012-3.238-4.7a29.038,29.038,0,0,0-2.774-4.063,5.61,5.61,0,0,0-2.1-1.8,3.788,3.788,0,0,0-3.214.354,3.109,3.109,0,0,1,1.576.189,5.664,5.664,0,0,1,2.1,1.8,29.938,29.938,0,0,1,2.768,4.063c.959,1.692,1.833,3.55,3.244,4.7a3.565,3.565,0,0,0,4.21.336,3.966,3.966,0,0,1-2.572-.886Z" transform="translate(-450.085 -441.915)"/></g><path class="k" d="M776.578,517.241l-11.706.171-24.183-43.948-4.039-7.338,3.1-18.586,2.383,4.5Z" transform="translate(-286.567 -174.072)"/><path class="k" d="M612.324,456.295l-4.815,7.228L593.1,444.044l-6.593-8.92,3.959-5.334,3.031,3.678Z" transform="translate(-228.16 -167.167)"/><path class="c" d="M641.93,466.392c0,.373.043.758.067,1.143l-.464,9.44-6.593-8.92,3.959-5.334Z" transform="translate(-276.59 -200.097)"/><path class="c" d="M742.131,452.037l-1.442,21.427-4.039-7.338,3.1-18.586Z" transform="translate(-286.567 -174.072)"/><path class="k" d="M623.538,457.81s-5.78-43.166,15.275-49.624a5.343,5.343,0,0,1,.825-.171c4.845-.58,49.979-5.786,73.41.4,0,0,16.008,2.413,15.837,11l-7.1,105.175H710.255l3.782-69.53s5.5-30.293-3.611-32.382-50.6-5.5-65.229-1.375c0,0-10.674-2.413-8.951,23.92l-.69,14.114Z" transform="translate(-271.872 -177.804)"/><path class="e" d="M663.094,503.44a6.647,6.647,0,0,0-2.713-5.939c-3.226-2.444-13.167-7.741-13.167-7.741l-3.226.257-9.678,24.012.642,50.987,17.425,21.556Z" transform="translate(-276.345 -210.616)"/><path class="c" d="M663.094,503.44a6.647,6.647,0,0,0-2.713-5.939c-3.226-2.444-13.167-7.741-13.167-7.741l-3.226.257-9.678,24.012.642,50.987,17.425,21.556Z" transform="translate(-276.345 -210.616)"/><path class="e" d="M567.62,553.156l.342-52.325s-1.546-20.309,10.588-20.651c0,0,28.613.208,41.046,4.246a2.774,2.774,0,0,1,1.564,4.008c-2.444,4.307-6.647,15.715-8.664,44.969v31.368Z" transform="translate(-250.402 -206.889)"/><path class="e" d="M568.515,598.478l-52.068-1.216H516.4l-25.588-.593,2.963-34.209,14.2.519,45.182,10.069,13.808,21.684Z" transform="translate(-190.932 -218.777)"/><path class="c" d="M568.515,598.478l-52.068-1.216H516.4l-25.588-.593,2.963-34.209,14.2.519,45.182,10.069,13.808,21.684Z" transform="translate(-190.932 -218.777)"/><path class="e" d="M584.294,605.219,532.225,604l-.855-22.924,37.563-1.289,13.808,21.684Z" transform="translate(-206.71 -225.519)"/><path class="v" d="M564.828,630.176l-25.588-.611,2.969-34.215s8,12.782,21.812,11.878Z" transform="translate(-239.362 -251.692)"/><path class="k" d="M867.563,692.324c-1.033,9.813-8,8.261-8,8.261l-1.3-.116-12.9-1.173.519-15.232a56.134,56.134,0,0,1,13.081.788C863.8,685.854,868.022,687.968,867.563,692.324Z" transform="translate(-358.447 -286.168)"/><path class="w" d="M563.684,454.27s-23.749,10.833-25.472,13.937-13.442,16.5-13.442,16.5l5.077,8.554,23.492-18.678Z" transform="translate(-233.733 -196.81)"/><path class="x" d="M501.649,543.874l-11-1.644-8.089,9.544s-11.273,5.591-12.586,8.035-5.413,9.6-7.222,9.66-3.5,2.694-3.513,3.739-6.886,13.044-8.59,13.735-4.662,4.589-4.589,5.358-6.415,8.444-6.415,8.444-11,17.211-12.635,17.761-7.973,11.664-9.58,12.983-6.11,2.505-5.56,3.574,11.609,16.185,10.937,20.468c0,0,8.23-6.513,8.554-8.517S441.87,634.44,441.87,634.44l53.345-55.4L505.5,544.118Z" transform="translate(-189.795 -231.027)"/><path class="c" d="M531.56,557.322s2.193,25.185-5.077,29-12.22,3.373-13.619,5.053-9.922,3.165-10.827,4.692-24.788,14.878-24.788,14.878-16.338,9.629-18.9,11.725-16.5,8.224-18.873,11.108-17.3,12.336-17.3,12.336-4.369-13.442-9.391-14.621c0,0,12.073-2.377,12.788-4.277s4.32-3.941,4.32-3.941,17.187-9.971,17.719-12.22,4.766-5.45,4.766-5.45,6.825-9.33,9.336-10.228,17.4-16.185,17.4-16.185,10.124-5.352,11.248-7.112,20.309-11.731,20.309-11.731l-21.867-27.171,6.916-2.126,20.486,5.5,3.666,6.641Z" transform="translate(-190.171 -226.678)"/><path class="x" d="M533.58,557.891s2.2,25.185-5.071,29-12.22,3.379-13.625,5.053-9.922,3.171-10.827,4.692-24.782,14.884-24.782,14.884-16.338,9.623-18.9,11.7-16.5,8.23-18.873,11.114-17.3,12.33-17.3,12.33-4.387-13.405-9.391-14.627c0,0,12.079-2.371,12.788-4.277s4.32-3.947,4.32-3.947,17.187-9.971,17.719-12.22,4.772-5.456,4.772-5.456,6.825-9.33,9.336-10.222,17.395-16.191,17.395-16.191,10.124-5.352,11.248-7.112-8.676-25.05-8.676-25.05l7.136-13.869,6.916-2.12,20.486,5.5,3.666,6.641Z" transform="translate(-190.957 -226.881)"/><path class="y" d="M629.394,451.528l-16.711,11.609s-20.193-7.491-12.22-10.5c5.23-1.974,7.112-12.159,7.784-18.941.354-3.531.373-6.11.373-6.11s22.784-.037,18.592,7.234a11.443,11.443,0,0,0-1.393,6.574A22.778,22.778,0,0,0,629.394,451.528Z" transform="translate(-262.454 -186.431)"/><path class="c" d="M631.9,441.42a16.02,16.02,0,0,1-17.572-7.68c.354-3.531.373-6.11.373-6.11s22.784-.037,18.592,7.234A11.443,11.443,0,0,0,631.9,441.42Z" transform="translate(-268.573 -186.446)"/><path class="y" d="M642.4,418.378a16.057,16.057,0,1,1,.36-1.472C642.663,417.394,642.547,417.889,642.4,418.378Z" transform="translate(-267.255 -174.83)"/><path class="c" d="M585.033,456.11s-2.8,0-2.982,3.99-3.012,3.7-3.012,3.7l-13.173,13.68s-5.914,14.163-5.865,14.737-1.332,2.969-1.02,4.179-.122,4.888-1.222,4.564a2.6,2.6,0,0,0-2.908,2.609c.024,1.8-9.256,7.332-8.878,8.676S572.4,527.424,572.4,527.424l10.839,8.4,10.118-18.849L601.786,491l4.686-15.079,3.88-4.338-1.784-10.179s-1.6-4.405-2.908-3.788-6.11,5.8-10.619,6.256-7.142,1-8.193,0S579.412,462.153,585.033,456.11Z" transform="translate(-241.977 -197.526)"/><path class="c" d="M586.171,453.94s-3.336.1-3.519,4.081-3.012,3.7-3.012,3.7L566.466,475.4s-5.914,14.157-5.859,14.737-1.338,2.963-1.026,4.179-.116,4.888-1.222,4.564a2.6,2.6,0,0,0-2.914,2.609c.024,1.8-9.257,7.332-8.872,8.676s26.419,15.183,26.419,15.183l10.845,8.4,10.118-18.855,8.432-25.973,4.729-15.073,3.874-4.338L609.2,459.329s-1.6-4.405-2.908-3.788-6.11,5.8-10.613,6.25-7.142,1.008-8.193,0S587.069,459.647,586.171,453.94Z" transform="translate(-242.21 -196.681)"/><path class="z" d="M585.974,454.61s-3.342.1-3.519,4.081-3.012,3.7-3.012,3.7L566.27,476.068s-5.914,14.163-5.859,14.737-1.338,2.969-1.026,4.179-.116,4.888-1.222,4.564a2.6,2.6,0,0,0-2.908,2.609c.024,1.8-9.256,7.332-8.872,8.676S572.8,526.022,572.8,526.022l10.839,8.395,10.118-18.849L602.2,489.6l4.723-15.079,3.88-4.338L609.015,460s-1.6-4.405-2.908-3.782-6.11,5.8-10.613,6.25-7.149,1.008-8.2,0S586.873,460.347,585.974,454.61Z" transform="translate(-242.136 -196.942)"/><path class="c" d="M575.669,453.806a24.772,24.772,0,0,1-4.613-.9c-1.613-.611-7.582-.134-7.582-.134s-6.855.422-8.12,2.4-6.721,12.69-8.59,13.362-12.922,18.464-15.183,20.028-12,20.645-12,20.645,7.2-3.4,10.491,1.576c.086.128.171.257.25.4,3.165,5.548,6.11,1.271,6.11,1.271s10.478-9.544,11.315-11.206,7.032-14.163,8.627-17.615,15.1-20.5,15.55-21.262S575.669,453.806,575.669,453.806Z" transform="translate(-231.714 -196.156)"/><path class="w" d="M575.143,453.65a38.671,38.671,0,0,1-5.432-1.149c-1.619-.611-7.588-.134-7.588-.134s-6.855.422-8.12,2.4-6.721,12.7-8.59,13.362-12.922,18.464-15.183,20.034-12,20.645-12,20.645,7.2-3.4,10.5,1.576c.079.122.165.257.244.4,3.165,5.542,6.11,1.271,6.11,1.271s10.484-9.55,11.315-11.206,7.033-14.163,8.627-17.615,15.1-20.5,15.55-21.268S575.143,453.65,575.143,453.65Z" transform="translate(-231.189 -196.001)"/><path class="c" d="M625.928,455.62s8.664,6.287,9.776,8.193,12.458,7.869,12.458,7.869,4.277,7.894,3.635,10.735-1.32,5.548-.764,7.063.9,1.5.073,3.5-.538,2.193.611,3.99S634.61,504.3,634.61,504.3s-2.444.379-2.707,1.546-14.26,31.967-16.283,36.861-8.413,24.439-13.778,24.714-1.222.073-1.222.073.825-15.886-2.474-21.385,3.214-26.719,3.214-26.719S623.044,457,625.928,455.62Z" transform="translate(-261.914 -197.335)"/><path class="w" d="M626.449,455.62s9.489,6.538,10.6,8.438,12.489,7.869,12.489,7.869,4.277,7.894,3.635,10.735-1.32,5.554-.764,7.063.9,1.5.073,3.5-.544,2.193.611,4-17.108,7.332-17.108,7.332-2.444.385-2.707,1.546-14.291,31.979-16.326,36.867-8.413,24.409-13.778,24.7-1.222.073-1.222.073.825-15.886-2.474-21.385,3.269-26.731,3.269-26.731S623.565,457,626.449,455.62Z" transform="translate(-262.435 -197.335)"/><path class="y" d="M642.88,558.55s-19.222,4.277-19.82,5.5-16.5,10.7-8.157,15.275,21.446-6.446,21.446-6.446l10.387-6.629Z" transform="translate(-267.857 -237.376)"/><path class="w" d="M667.837,516.61c.312.092,7.008,4.338,7.008,4.338s3.153,10.472,3.843,13.039,2.444,7.13,2.328,7.986,1.906,5.615-1.32,7.79-6.611,1.833-8.163,3.287-12.25,6.11-13.6,6.476,6.672-15.953-3.232-18.464c0,0,7.094.666,7.46-.574s.776-4.479-.55-5.658-7.051-6.819-7.051-6.819Z" transform="translate(-284.223 -221.061)"/><path class="c" d="M642.8,416.924a4.411,4.411,0,0,1-1.912-2c-.654-1.271-1.307-2.823-2.7-3.147-.782-.189-1.729.043-2.31-.513a2.443,2.443,0,0,1-.446-1.784,7.259,7.259,0,0,0-1.167-4.051,4.24,4.24,0,0,0-3.623-1.888c-1.986.134-3.715,1.943-5.67,1.582-.861-.159-1.686-.739-2.529-.513a2.486,2.486,0,0,0-.892.5,13,13,0,0,0-4.075,5.5c-.807,2.053-1.075,4.277-2.041,6.287-.385.782-1.124,1.619-1.955,1.375-1.3-.385-.611-2.016-1.332-2.731a1.974,1.974,0,0,0-1.02-.409,16.014,16.014,0,1,1,31.674,1.8Z" transform="translate(-267.306 -174.849)"/><path class="aa" d="M610.371,411.851c.831.244,1.57-.611,1.955-1.369.965-1.986,1.222-4.234,2.041-6.287a12.971,12.971,0,0,1,4.081-5.5,2.481,2.481,0,0,1,.886-.507c.843-.22,1.674.354,2.529.513,1.955.367,3.666-1.448,5.67-1.582a4.24,4.24,0,0,1,3.623,1.894,7.173,7.173,0,0,1,1.167,4.045,2.439,2.439,0,0,0,.452,1.784c.574.562,1.521.33,2.31.513,1.393.33,2.041,1.876,2.7,3.147s1.986,2.6,3.312,2.053a12.691,12.691,0,0,1,1.13-.611c.751-.25,1.65.159,2.322-.257.855-.525.611-1.833.055-2.707s-1.222-1.833-.874-2.768a3.75,3.75,0,0,1,.923-1.185,5.872,5.872,0,0,0-.354-8.059c-.544-.489-1.179-.868-1.711-1.369a17.991,17.991,0,0,1-2.444-3.666,11.168,11.168,0,0,0-3.892-3.666,5.56,5.56,0,0,0-2.261-.788,19.085,19.085,0,0,0-3.3.44c-3.7.373-6.886-2.554-10.509-3.385a2.981,2.981,0,0,0-2.487.293c-.721.562-.874,1.57-1.222,2.444a7.343,7.343,0,0,1-4.356,3.9c-2.157.825-4.888,1.271-5.786,3.391-.782,1.833.232,3.935-.177,5.865-.318,1.509-1.448,2.688-2.322,3.959s-1.515,2.982-.758,4.326a3.849,3.849,0,0,0,1.98,1.546c1.014.415,3.275.2,3.959.868S609.076,411.478,610.371,411.851Z" transform="translate(-264.064 -168.847)"/><path class="c" d="M674.47,546.66c.367.037,7.045,1.222,8.615,3.47S674.47,546.66,674.47,546.66Z" transform="translate(-291.968 -232.751)"/><path class="c" d="M669,535s7.283,1.65,8.126,2.352S669,535,669,535Z" transform="translate(-289.84 -228.215)"/><path class="c" d="M672.92,505.57s5.358,2.346,5.969,3.8S672.92,505.57,672.92,505.57Z" transform="translate(-291.365 -216.766)"/><path class="c" d="M560.84,605c.556.391,13.717,10.155,12.641,10.509S560.84,605,560.84,605Z" transform="translate(-247.764 -255.446)"/><path class="c" d="M560.68,615s7.711,3.727,6.421,5.285S560.68,615,560.68,615Z" transform="translate(-247.702 -259.336)"/><g class="u" transform="translate(338.7 223.685)"><path d="M608.556,404.061c.348-1.656-.348-3.446-.061-5.071v.031c-.77,1.784.2,3.868-.159,5.774A5.108,5.108,0,0,0,608.556,404.061Z" transform="translate(-604.884 -398.99)"/><path d="M670.175,414.9a1.571,1.571,0,0,0-.086.5,6.767,6.767,0,0,1,.764-.862,5.328,5.328,0,0,0,1.289-2.53,5.175,5.175,0,0,1-1.045,1.7A3.752,3.752,0,0,0,670.175,414.9Z" transform="translate(-628.964 -404.055)"/><path d="M651.97,417.7c-.672.415-1.576,0-2.328.257-.409.141-.733.458-1.13.611-1.326.55-2.658-.776-3.312-2.047s-1.307-2.823-2.7-3.153c-.782-.183-1.735.049-2.309-.513a2.45,2.45,0,0,1-.452-1.778,7.241,7.241,0,0,0-1.161-4.051,4.277,4.277,0,0,0-3.629-1.894c-1.979.134-3.709,1.949-5.664,1.589-.861-.165-1.693-.739-2.536-.519a2.574,2.574,0,0,0-.886.507,12.971,12.971,0,0,0-4.081,5.5,18.574,18.574,0,0,0-.611,1.79c.1-.324.214-.648.342-.965a12.972,12.972,0,0,1,4.081-5.5,2.48,2.48,0,0,1,.886-.507c.843-.22,1.674.354,2.529.513,1.955.367,3.666-1.448,5.67-1.582a4.24,4.24,0,0,1,3.623,1.894,7.174,7.174,0,0,1,1.167,4.045,2.44,2.44,0,0,0,.452,1.784c.574.562,1.521.33,2.309.513,1.393.33,2.041,1.876,2.7,3.147s1.986,2.6,3.312,2.053a12.676,12.676,0,0,1,1.13-.611c.751-.25,1.65.159,2.322-.257a1.222,1.222,0,0,0,.55-1.1A1.082,1.082,0,0,1,651.97,417.7Z" transform="translate(-609.934 -401.378)"/><path d="M612.586,423.281c-.379.782-1.124,1.613-1.955,1.369-1.3-.379-.611-2.01-1.326-2.725s-2.945-.452-3.959-.868a3.874,3.874,0,0,1-1.98-1.546,2.927,2.927,0,0,1-.257-2.071,3.342,3.342,0,0,0,0,2.9,3.849,3.849,0,0,0,1.98,1.546c1.014.415,3.275.2,3.959.868s.031,2.346,1.326,2.725c.831.244,1.57-.611,1.955-1.369a15.983,15.983,0,0,0,.947-2.639A13.107,13.107,0,0,1,612.586,423.281Z" transform="translate(-602.78 -406.167)"/></g><path class="c" d="M571.228,477.3s-5.261,7.851-4.631,9.495S571.228,477.3,571.228,477.3Z" transform="translate(-249.984 -205.769)"/><path class="c" d="M575.47,519.17a14.747,14.747,0,0,1,3.813,2.261C580.3,522.524,575.47,519.17,575.47,519.17Z" transform="translate(-253.456 -222.057)"/><path class="c" d="M585.51,532.27s5.963,1.442,6.47,2.377S585.51,532.27,585.51,532.27Z" transform="translate(-257.361 -227.153)"/><path class="c" d="M587.21,545.63s5.4.709,6.006,2.8S587.21,545.63,587.21,545.63Z" transform="translate(-258.023 -232.35)"/><path class="c" d="M874.466,692.882c-1.033,9.813-8,8.261-8,8.261l-1.3-.116a13.18,13.18,0,0,1-2.053-7.369,12.375,12.375,0,0,1,2.756-8.248C870.7,686.412,874.924,688.526,874.466,692.882Z" transform="translate(-365.349 -286.726)"/><path class="m" d="M541.636,487.22c-11.786,0-21.336,12.91-21.336,28.832s9.55,28.826,21.336,28.826,21.342-12.91,21.342-28.826S553.428,487.22,541.636,487.22Zm-3.012,51.634c-8.982,0-16.258-9.36-16.258-20.914s7.277-20.908,16.258-20.908,16.264,9.36,16.264,20.908S547.611,538.854,538.623,538.854Z" transform="translate(-231.994 -209.628)"/><path class="m" d="M507.931,511.275l9.983,9.806,3.611-8.78L507.07,503.87Z" transform="translate(-197.257 -195.985)"/><path class="e" d="M494.836,357.07l8.688,1.057,3.226,3.831-4.888,22-10.387,35.437-6.819,24.329-4.79,14.774-3.055,19.552-3.055,13.442-9.165,9.165-18.635-22-3.055-7.332-7.332-14.969,18.941-8.859,20.773-1.833,9.776-25.05L493,391.591Z" transform="translate(-169.443 -138.878)"/><path class="e" d="M237.588,521.1,226.23,616.452l143.02-6.024-16.521-46.814-27.537-17.9,62.993,1.033.342-26.156-25.472-5.511-51.286-4.13-38.553-1.717-36.83,12.043" transform="translate(-88.007 -198.07)"/><path class="c" d="M237.588,521.1,226.23,616.452l143.02-6.024-16.521-46.814-27.537-17.9,62.993,1.033.342-26.156-25.472-5.511-51.286-4.13-38.553-1.717-36.83,12.043" transform="translate(-88.007 -198.07)"/><path class="m" d="M575.221,690.8c0,23.694-7.876,45.262-29.718,42.9-27.549-.611-29.712-19.209-29.712-42.9s13.3-41.327,29.712-41.327S575.221,667.1,575.221,690.8Z" transform="translate(-230.239 -272.745)"/><path class="c" d="M584.9,692.5c0-18.329-7.973-33.054-19.191-38.761-14.407,2.737-25.478,19.307-25.478,40.936,0,19.417,1.454,35.437,17.144,40.893C577.555,736.284,584.9,715.382,584.9,692.5Z" transform="translate(-239.747 -274.406)"/><path class="e" d="M605.221,597.353l-8.4,9.623,15.122-2.6,11.3-10.387,10.081-20.162,14.205-8.707,34.826,4.735,32.23,1.222,11.9-10.564-13.271-1.809-13.442-.306-33.757-.764-40.172-1.069-8.248,22-6.263,15.122Z" transform="translate(-232.171 -216.486)"/><path class="e" d="M560.971,592.568c-.69,1.033-23.218,4.479-23.218,4.479L475.433,608.4,368.4,609.95l-12.562-10.674-6.6,1.173-.269.049-88.153,15.647-1.436-.2-24.024-3.428L109.88,594.633l1.405-18.213.831-10.753,1.717-22.319,1.222-5.853,11.175-1.026,5.218-.477,81.438-7.472,10.649-.978L229.5,527l58.172-7.943,84.848,2.065.342-26.162L406.428,391.7c7.4,1.222,7.228,6.2,7.228,6.2L385.08,495.14l-.348,59.724c59.418,6,61.337-6.947,70.734-2.585l11.364-36.311,99.817.519C570.637,521.315,560.971,592.568,560.971,592.568Z" transform="translate(-72.335 -172.469)"/><path class="e" d="M394.4,598.8l31.667,67.984,10.668,3.44,2.585-11.016-11.878-37.692-12.22-21.855Z" transform="translate(-153.427 -232.914)"/><path class="ab" d="M394.4,598.8l31.667,67.984,10.668,3.44,2.585-11.016-11.878-37.692-12.22-21.855Z" transform="translate(-153.427 -232.914)"/><ellipse class="m" cx="57.353" cy="65.058" rx="57.353" ry="65.058" transform="translate(163.005 375.692)"/><path class="c" d="M408.347,654.43c-30.012,2.09-53.767,30.354-53.767,64.923,0,27.867,15.446,51.641,37.154,60.9,30.012-2.09,53.767-30.354,53.767-64.923C445.5,687.466,430.055,663.693,408.347,654.43Z" transform="translate(-167.527 -274.675)"/><path class="e" d="M126.092,568.07l-2.841,13.4-8.688,41-37.35-3.617s-2.236-6.88,3.617-9.464c0,0,1.918-23.3,8.823-30.635a6.96,6.96,0,0,1,2.707-1.888Z" transform="translate(-59.464 -241.08)"/><path class="v" d="M123.251,588.273l-8.688,41-37.35-3.617s-2.236-6.88,3.617-9.464c0,0,1.918-23.3,8.823-30.635Z" transform="translate(-59.464 -247.883)"/><path class="e" d="M232.439,554.487c4.815,8.077-6.861,82.6-6.861,82.6L133.82,621.94l3.269-65.229c1.894-11.7,8.78-13.075,8.78-13.075,32.382-16.35,106.7-19.8,106.7-19.8,67.819,2.578,129.6,22.545,129.6,22.545C305.067,534.514,232.439,554.487,232.439,554.487Z" transform="translate(-81.648 -223.873)"/><path class="c" d="M225.578,648.956,133.82,633.81l3.269-65.229c1.894-11.7,8.78-13.075,8.78-13.075s66.946-6.373,86.571,10.851C237.254,574.434,225.578,648.956,225.578,648.956Z" transform="translate(-81.648 -235.744)"/><path class="e" d="M219.253,650.757l-76.7-12.922,2.719-55.655c1.582-9.984,7.332-11.157,7.332-11.157s55.979-5.438,72.384,9.25C229.035,587.172,219.253,650.757,219.253,650.757Z" transform="translate(-85.044 -241.846)"/><ellipse class="c" cx="10.497" cy="19.106" rx="10.497" ry="19.106" transform="translate(117.401 344.025)"/><ellipse class="k" cx="10.497" cy="19.106" rx="10.497" ry="19.106" transform="translate(117.401 343.512)"/><path class="l" d="M258.281,603.28s-4.277.684-2.065,6.367a41.113,41.113,0,0,1,2.578,8.6s4.277,2.242,4.13-5.163S258.281,603.28,258.281,603.28Z" transform="translate(-129.014 -254.777)"/><ellipse class="c" cx="9.812" cy="17.853" rx="9.812" ry="17.853" transform="translate(61.807 337.707)"/><ellipse class="k" cx="9.812" cy="17.853" rx="9.812" ry="17.853" transform="translate(61.807 337.188)"/><path class="l" d="M166.181,590.88s-4.277.69-2.065,6.373a41.464,41.464,0,0,1,2.584,8.6s4.277,2.236,4.13-5.163S166.181,590.88,166.181,590.88Z" transform="translate(-93.186 -249.953)"/><path class="c" d="M215.647,595.78c-.684,7.057-4.13,59.376-4.13,59.376l-5.841-.978-3.244-.531-4.326-.727-.525-.085-17.04-2.841,3.367-55.5a6.941,6.941,0,0,1,7.051-6.5,4.98,4.98,0,0,1,.519,0c1.179.1,2.444.226,3.77.373.556.061,1.124.122,1.692.2,1.637.2,3.33.434,4.986.7.843.147,1.674.3,2.5.458,1.387.275,2.731.58,3.971.929.837.232,1.637.483,2.371.758C213.845,592.523,215.855,593.959,215.647,595.78Z" transform="translate(-99.823 -248.828)"/><path class="e" d="M194.26,588l-3.336,62.321-1.894-.171,3.305-61.96A6.9,6.9,0,0,1,194.26,588Z" transform="translate(-103.125 -248.829)"/><path class="e" d="M203.529,588.792l-3.122,62.98H197.48l4.356-63.182C202.392,588.657,202.961,588.718,203.529,588.792Z" transform="translate(-106.412 -249.062)"/><path class="e" d="M215.285,590.548l-4.925,63.2h-1.9v-.086l4.32-63.543C213.629,590.236,214.46,590.389,215.285,590.548Z" transform="translate(-110.684 -249.657)"/><path class="e" d="M224.694,593.1l-5.065,62.773v.122l-3.269-.348v-.305l5.939-63C223.166,592.572,223.967,592.823,224.694,593.1Z" transform="translate(-113.757 -250.521)"/><path class="c" d="M114.563,651.029s-6.324-32.657,8.132-34.338,61.96,1.833,60.537,15.232-2.951,33.818-2.951,33.818l-9.806-2.193s7.332-30.72-4.13-31.881-39.629-4.393-39.629-4.393-7.619-1.289-3.226,25.661Z" transform="translate(-73.621 -259.842)"/><path class="k" d="M114.563,654.784s-6.324-34.722,8.132-36.4,61.96,1.833,60.537,15.232-2.951,33.818-2.951,33.818l-9.806-2.193s7.332-30.72-4.13-31.881-39.647-4.362-39.647-4.362-7.619.776-3.226,27.757Z" transform="translate(-73.621 -260.5)"/><path class="e" d="M432.92,690.008l-12.733-.171C410.894,648.9,395.57,623.4,395.57,623.4c-5.181-2.755-61.63-2.383-61.63-2.383-5.853,1.033-7.4,19.625-7.4,19.625s4.992,4.277.171,7.057c-2.151,1.222-9.238,1.46-17.4,1.039-10.13-.525-21.934-2.065-28.032-3.965-11-3.446-2.242-9.812-2.242-9.812s1.552-2.065,2.584-13.442a45.975,45.975,0,0,1,6.281-18.751c.477-.788.776-1.222.776-1.222a5.9,5.9,0,0,1,2.01-1.259c14.59-6.11,86.106-.293,86.106-.293l26.5,8.438c.733.293,1.863,2.163,3.257,5.151C414.932,631.543,432.92,690.008,432.92,690.008Z" transform="translate(-136.854 -252.527)"/><path class="c" d="M432.92,690.008l-12.733-.171C410.894,648.9,395.57,623.4,395.57,623.4c-5.181-2.755-61.63-2.383-61.63-2.383-5.853,1.033-7.4,19.625-7.4,19.625s4.992,4.277.171,7.057c-2.151,1.222-9.238,1.46-17.4,1.039-10.13-.525-21.934-2.065-28.032-3.965-11-3.446-2.242-9.812-2.242-9.812s1.552-2.065,2.584-13.442a45.975,45.975,0,0,1,6.281-18.751c.477-.788.776-1.222.776-1.222a5.9,5.9,0,0,1,2.01-1.259c14.59-6.11,86.106-.293,86.106-.293l26.5,8.438c.733.293,1.863,2.163,3.257,5.151C414.932,631.543,432.92,690.008,432.92,690.008Z" transform="translate(-136.854 -252.527)"/><path class="e" d="M414.3,613.572c-24.439-9.507-91.892-4.46-91.892-4.46-7.161-6.11-20.633-6.525-26.761-6.36.477-.788.776-1.222.776-1.222a5.9,5.9,0,0,1,2.01-1.259c14.59-6.11,86.106-.293,86.106-.293l26.5,8.438C411.78,608.715,412.911,610.585,414.3,613.572Z" transform="translate(-144.602 -252.52)"/><path class="e" d="M318.63,613.461c-1.546,5.334-7.9,26.682-7.9,26.682a90.315,90.315,0,0,0-1.4,10.332c-10.13-.525-21.934-2.065-28.032-3.965-11-3.446-2.242-9.812-2.242-9.812s1.552-2.065,2.585-13.442a45.745,45.745,0,0,1,7.057-19.967,5.9,5.9,0,0,1,2.01-1.259C300.264,604.3,319.8,609.423,318.63,613.461Z" transform="translate(-136.862 -254.29)"/><path class="v" d="M318.63,613.461c-1.546,5.334-7.9,26.682-7.9,26.682a90.315,90.315,0,0,0-1.4,10.332c-10.13-.525-21.934-2.065-28.032-3.965-11-3.446-2.242-9.812-2.242-9.812s1.552-2.065,2.585-13.442a45.745,45.745,0,0,1,7.057-19.967,5.9,5.9,0,0,1,2.01-1.259C300.264,604.3,319.8,609.423,318.63,613.461Z" transform="translate(-136.862 -254.29)"/><path class="e" d="M353.629,392.786c-6.843,1.033-9.812,15.232-9.812,15.232L325.23,470.107l131.4,21.556L490.19,388.406C459.341,374.457,353.629,392.786,353.629,392.786Zm105.7,66.347s-.776,5.939-5.81,6.458l-85.19-3.33-17.474-.69L345,461.345h-.415s-6.458,1.161-5.426-4.277c0,0,7.1-51.628,19.625-55.5,0,0,1.3-.275,3.58-.7,3.58-.678,9.556-1.741,16.594-2.713,3.153-.434,6.519-.849,9.983-1.222,9.464-.965,19.637-1.485,28.057-.672,0,0,62.73-5.81,58.215,8.132.012.018-13.155,50.486-15.867,54.744Z" transform="translate(-156.109 -169.15)"/><path class="e" d="M353.81,472.612h-.415s-6.458,1.161-5.426-4.277c0,0,7.1-51.628,19.625-55.5,0,0,1.3-.275,3.58-.7C366.628,421,352.038,451.374,353.81,472.612Z" transform="translate(-164.911 -180.417)"/><path class="c" d="M353.81,472.612h-.415s-6.458,1.161-5.426-4.277c0,0,7.1-51.628,19.625-55.5,0,0,1.3-.275,3.58-.7C366.628,421,352.038,451.374,353.81,472.612Z" transform="translate(-164.911 -180.417)"/><path class="c" d="M273.694,702.764a8.309,8.309,0,0,1-7.778,4.362l-2.633-.116-24.812-1.069-8.945-.385-8.261-.684L112.18,687.153l.831-10.753,12.544,1.8,5.193.745,77.015,11L217.9,691.43l4.918.7,20.829-.153,22.545-.165a8.482,8.482,0,0,1,3.324.611,8.083,8.083,0,0,1,4.369,4.149,6.788,6.788,0,0,1-.189,6.189Z" transform="translate(-73.23 -283.221)"/><path class="k" d="M255.446,696.153a8.309,8.309,0,0,1-7.778,4.362l-36.39-1.57-8.261-.691L86.685,679.381,77.521,677.9l-4.961-.831c-9.806-2.065-6.88-11.878-6.88-11.878.684-4.479,17.554-8.609,23.059-8.432,3.7.116,4.216,5.817,4.155,9.55a24.618,24.618,0,0,1-.2,3.183l5.444.782L204.569,685.5l43.38-.318a8.334,8.334,0,0,1,7.692,4.79,6.788,6.788,0,0,1-.2,6.183Z" transform="translate(-54.981 -275.578)"/><path class="c" d="M90.72,666.94s4.65,5.676,11.878,6.538C102.6,673.478,99.671,667.111,90.72,666.94Z" transform="translate(-64.881 -279.541)"/><path class="c" d="M79,693.139s-15.317-.348-15.317,7.943,9.641,9.641,9.641,9.641l136.824,26.321,38.9.684s13.594-10.839-.519-15.66l-39.231,1.014L78.826,699.163S82.266,694.513,79,693.139Z" transform="translate(-54.362 -289.732)"/><path class="k" d="M249.041,739.389l-38.9-.684L88.486,715.292l-8.9-1.717-6.263-1.222s-9.641-1.381-9.641-9.641c0-5.927,7.894-7.423,12.348-7.8,1.754-.14,2.969-.116,2.969-.116,3.269,1.375-.171,6.018-.171,6.018l4.747.874L209.29,724.762l39.238-1.033C262.635,728.525,249.041,739.389,249.041,739.389Z" transform="translate(-54.362 -290.378)"/><path class="k" d="M102.034,679.738l8.089-3.617,4.13-.171-.342,34.765-12.733-2.578-5.34-3.44L93.26,690.241s1.033-6.024,1.546-6.538S102.034,679.738,102.034,679.738Z" transform="translate(-65.869 -283.046)"/><path class="c" d="M102.034,679.738l8.089-3.617,4.13-.171-.342,34.765-12.733-2.578-5.34-3.44L93.26,690.241s1.033-6.024,1.546-6.538S102.034,679.738,102.034,679.738Z" transform="translate(-65.869 -283.046)"/><path class="c" d="M95.826,715.3l.147.177-8.945-1.723-.1-.171c-4.711-7.607-5.12-13.765-3.556-18.653,1.754-.141,2.969-.116,2.969-.116,3.269,1.375-.171,6.018-.171,6.018l4.747.874C90.6,708.519,94.952,714.22,95.826,715.3Z" transform="translate(-61.702 -290.382)"/><path class="c" d="M110.138,674.366a45.762,45.762,0,0,0-4.2,1.833c-5.792,2.786-9.366,5.914-11.456,9.085L85.32,683.8c3.965-8.236,13.442-12,13.442-12l1.918.434Z" transform="translate(-62.781 -281.432)"/><path class="k" d="M99.353,671.73s-25.124,9.984-10.668,33.042l8.951,1.723s-17.719-20.309,13.075-32.187Z" transform="translate(-62.346 -281.405)"/><path class="k" d="M146.792,656.892l9.293-.342-1.552,37.343-14.975-2.75-6.366-3.1-2.927-7.405-2.065-7.4,4.992-6.715,5.682-3.782Z" transform="translate(-49.872 -255.38)"/><path class="c" d="M146.792,656.892l9.293-.342-1.552,37.343-14.975-2.75-6.366-3.1-2.927-7.405-2.065-7.4,4.992-6.715,5.682-3.782Z" transform="translate(-49.872 -255.38)"/><ellipse class="k" cx="4.472" cy="7.57" rx="4.472" ry="7.57" transform="translate(91.416 413.219)"/><path class="k" d="M135.844,750.848c-1.289-6.58-6.324-8-6.324-8s-9.684-2.835-9.941,7.906c0,0,.128,6.586,4.521,8.651l.257,7.332s.385,6.843-3.489,6.2-3.354-6.721-3.354-6.721-2.065-6.452-7.1-3.1c0,0-1.161,3.617,1.424,5.426,1.5,1.051,1.558,3.2,1.344,4.815a7,7,0,0,0,1.613,5.609A6.507,6.507,0,0,0,121,781.184a9.629,9.629,0,0,0,5.377-3.092,14.1,14.1,0,0,0,3.727-9.4l.189-9.446S137.133,757.435,135.844,750.848ZM127.9,757.5a7.548,7.548,0,1,0,.006-.024Z" transform="translate(-72.442 -308.938)"/><path class="m" d="M134.564,734.247a2.444,2.444,0,0,0-1.222,3.391c1.014,1.9,2.23,4.356,2.114,5-.2,1.094,2.261.2,2.578-.067s4.778,0,5.035-3.055a5.224,5.224,0,0,0-2.383-4.65l1.033-6.648-6.11-.513.067,6.067Z" transform="translate(-81.353 -303.182)"/><path class="c" d="M134.564,734.247a2.444,2.444,0,0,0-1.222,3.391c1.014,1.9,2.23,4.356,2.114,5-.2,1.094,2.261.2,2.578-.067s4.778,0,5.035-3.055a5.224,5.224,0,0,0-2.383-4.65l1.033-6.648-6.11-.513.067,6.067Z" transform="translate(-81.353 -303.182)"/><path class="c" d="M138.26,738.21s2.065,7.1,1.161,7.332S138.26,738.21,138.26,738.21Z" transform="translate(-83.375 -307.266)"/><path class="c" d="M142.06,735.46s2.065,7.1,1.161,7.332S142.06,735.46,142.06,735.46Z" transform="translate(-84.853 -306.196)"/><path class="m" d="M153.308,696.624l-3.446,21.342s-4.277-.581-6.611-1.088a4.765,4.765,0,0,1-1.479-.458c-.122-.122-.373-.11-.709-.043h0c-1.149.232-3.189,1.179-3.586.379a.569.569,0,0,0-.116-.165h0c-.4-.44-1.185-.122-1.943,0a1.649,1.649,0,0,1-1.222-.159c-.611-.428-1.925.257-2.975.483-.666.147-1.222.116-1.5-.483a1.387,1.387,0,0,0-1.026-.733h0c-.99-.25-2.377-.079-3.177-.25a.726.726,0,0,1-.611-.4c-.159-.464-1.045-.684-1.992-.868-1.155-.22-2.4-.385-2.487-.849,0-.159-.141-.226-.312-.232a10.658,10.658,0,0,0-1.882.464h0c-.513.134-.947.134-1.069-.232s-.727-.367-1.405-.2c-.544.134-1.149.348-1.613.458s-.721.11-.77-.092c-.171-.684-2.407.868-2.921-.513s-7.588-10.533,1.576-22.387c0,0,2.444.171,4.35.513a6.826,6.826,0,0,1,1.833.513h0c.654.373,2.053.293,3.318.385a4.278,4.278,0,0,1,1.833.44,1.222,1.222,0,0,1,.519.55c.287.654.947.788,1.668.752.978-.061,2.065-.428,2.444-.232h.037c.721.312,3.422,0,3.88.458l.037.043c.2.287,1.222,0,2.334-.159h0a2.612,2.612,0,0,1,2.138.336,2.334,2.334,0,0,0,1.674.495,9.853,9.853,0,0,1,2.193.086.935.935,0,0,1,.434.275c.434.544,1.485.47,2.444.519a2.493,2.493,0,0,1,1.369.342,1.283,1.283,0,0,0,.495.208,14.72,14.72,0,0,0,4.149-.208Z" transform="translate(-71.356 -288.745)"/><path class="c" d="M117.99,713.448c-.544.134-1.149.348-1.613.458-6.99-10.845-1.106-19.081,2.206-22.466a6.826,6.826,0,0,1,1.833.513C113.383,700.055,116.646,710.173,117.99,713.448Z" transform="translate(-73.589 -289.072)"/><path class="c" d="M125.439,713.993a10.668,10.668,0,0,0-1.882.464h0c-5.982-10.576.171-18.489,3.281-21.537a4.276,4.276,0,0,1,1.833.44C121.981,700.68,123.967,709.789,125.439,713.993Z" transform="translate(-76.676 -289.648)"/><path class="c" d="M133.91,717.264a.726.726,0,0,1-.611-.4c-.159-.464-1.045-.684-1.992-.868-5.248-9.58-.556-16.943,2.627-20.413.978-.061,2.065-.428,2.444-.232h.037C129.034,703.669,132.609,714.178,133.91,717.264Z" transform="translate(-79.752 -290.573)"/><path class="c" d="M143.164,718.992c-.666.147-1.222.116-1.5-.483a1.387,1.387,0,0,0-1.026-.733h0c-6.11-10.674.122-18.653,3.232-21.69l.037.043c.2.287,1.222,0,2.334-.159C137.536,704.75,142.009,716.407,143.164,718.992Z" transform="translate(-83.293 -290.834)"/><path class="c" d="M153.387,719.191c-.4-.44-1.185-.122-1.943,0-6.379-10.595-.519-18.6,2.707-21.867a9.853,9.853,0,0,1,2.193.086C148.9,705.419,151.97,715.629,153.387,719.191Z" transform="translate(-87.395 -291.351)"/><path class="c" d="M162.994,720.063a4.767,4.767,0,0,1-1.479-.458c-.122-.122-.373-.11-.709-.043h0c-5.652-9.678-1.143-17.15,2.1-20.774a2.492,2.492,0,0,1,1.369.342,1.283,1.283,0,0,0,.495.208C158.589,707.306,161.711,716.91,162.994,720.063Z" transform="translate(-91.1 -291.93)"/><ellipse class="m" cx="28.05" cy="41.303" rx="28.05" ry="41.303" transform="translate(210.686 402.551)"/><ellipse class="c" cx="20.395" cy="33.476" rx="20.395" ry="33.476" transform="translate(217.395 410.977)"/><ellipse class="l" cx="20.395" cy="33.476" rx="20.395" ry="33.476" transform="translate(217.395 409.944)"/><ellipse class="m" cx="2.407" cy="4.13" rx="2.407" ry="4.13" transform="translate(239.079 416.83)"/><ellipse class="m" cx="2.407" cy="4.13" rx="2.407" ry="4.13" transform="translate(248.72 452.976)"/><ellipse class="m" cx="2.407" cy="4.13" rx="2.407" ry="4.13" transform="translate(222.729 435.764)"/><ellipse class="m" cx="2.407" cy="4.13" rx="2.407" ry="4.13" transform="translate(229.786 459.856)"/><path class="e" d="M775.22,634.26s20.163,53.7,19.106,57.054c0,0,8.517,5.163,10.582,3.874s.263-25.05.263-25.05L801.3,649.229,796.9,636.838Z" transform="translate(-331.161 -266.828)"/><path class="ab" d="M775.22,634.26s20.163,53.7,19.106,57.054c0,0,8.517,5.163,10.582,3.874s.263-25.05.263-25.05L801.3,649.229,796.9,636.838Z" transform="translate(-331.161 -266.828)"/><ellipse class="m" cx="2.407" cy="4.13" rx="2.407" ry="4.13" transform="translate(252.16 430.602)"/><ellipse class="m" cx="7.057" cy="9.812" rx="7.057" ry="9.812" transform="translate(234.429 434.897)"/><path class="m" d="M762.362,717.213c0,31.081-10.326,59.376-38.981,56.278-36.14-.776-38.981-25.2-38.981-56.278S701.838,663,723.369,663,762.362,686.126,762.362,717.213Z" transform="translate(-295.831 -278.009)"/><path class="c" d="M775.04,719.436c0-24.061-10.46-43.38-25.179-50.846-18.9,3.593-33.421,25.332-33.421,53.687,0,25.472,1.912,46.435,22.49,53.645C765.4,776.875,775.04,749.491,775.04,719.436Z" transform="translate(-308.295 -280.183)"/><path class="c" d="M713.48,685.087s-5.163,4.387-8,1.289c0,0-6.971-55.765-15.745-56.021l-30.207-.257s-3.611,1.546-5.163,8.26l-19.552,55.6L527.8,695.5,519.62,678.39l88.55.257v-.037c.477-1.717,15.275-54.549,25.215-61.1h0a4.278,4.278,0,0,1,1.094-.532s36.916-4.888,49.05-1.552c0,0,12.648,2.841,15.745,6.721h0c.415.434,5.206,5.829,6.69,21.385Z" transform="translate(-231.729 -259.049)"/><path class="e" d="M713.48,686.777s-5.163,4.387-8,1.289c0,0-6.971-55.765-15.745-56.021l-30.207-.257s-3.611,1.546-5.163,8.261l-19.552,55.6L527.8,697.188,519.62,680.08l88.55.257V680.3c.477-1.717,15.275-54.549,25.215-61.1h0a4.277,4.277,0,0,1,1.094-.532s36.916-4.888,49.05-1.552c0,0,12.648,2.841,15.745,6.721v.03c.415.434,5.206,5.829,6.69,21.385Z" transform="translate(-231.729 -259.707)"/><path class="c" d="M713.48,686.777s-5.163,4.387-8,1.289c0,0-6.971-55.765-15.745-56.021l-30.207-.257s-3.611,1.546-5.163,8.261l-19.552,55.6L527.8,697.188,519.62,680.08l88.55.257V680.3c.477-1.717,15.275-54.549,25.215-61.1h0a4.277,4.277,0,0,1,1.094-.532s36.916-4.888,49.05-1.552c0,0,12.648,2.841,15.745,6.721v.03c.415.434,5.206,5.829,6.69,21.385Z" transform="translate(-231.729 -259.707)"/><path class="e" d="M704.277,627.906c-2.584,4.888-24.782,65.315-24.782,65.315L664.52,682.375v-.037c.477-1.717,15.275-54.6,25.228-61.1C696.224,622.315,706.03,624.576,704.277,627.906Z" transform="translate(-288.097 -261.763)"/><path class="e" d="M634.274,586.94l-12.134,39.751-63.249-1.833.513,5.939s49.569,7.228,70.734-2.584L641.5,591.9l99.817.513L722.3,587.942Z" transform="translate(-247.006 -248.42)"/><path class="v" d="M634.274,586.94l-12.134,39.751-63.249-1.833.513,5.939s49.569,7.228,70.734-2.584L641.5,591.9l99.817.513L722.3,587.942Z" transform="translate(-247.006 -248.42)"/><path class="c" d="M185.428,689.47s-33.9,17.04-8.78,33.048l6.721,1.546s-24.611-17.719,16.5-34.594Z" transform="translate(-94.702 -288.306)"/><path class="k" d="M187.118,689.47s-33.9,17.04-8.78,33.048l6.721,1.546s-24.611-17.719,16.5-34.594Z" transform="translate(-95.36 -288.306)"/><ellipse class="m" cx="18.843" cy="32.272" rx="18.843" ry="32.272" transform="translate(423.664 411.319)"/><ellipse class="c" cx="13.698" cy="26.15" rx="13.698" ry="26.15" transform="translate(428.173 418.137)"/><ellipse class="l" cx="13.698" cy="26.15" rx="13.698" ry="26.15" transform="translate(428.173 417.105)"/><ellipse class="m" cx="1.619" cy="3.226" rx="1.619" ry="3.226" transform="translate(442.739 422.482)"/><ellipse class="m" cx="1.619" cy="3.226" rx="1.619" ry="3.226" transform="translate(449.216 450.721)"/><ellipse class="m" cx="1.619" cy="3.226" rx="1.619" ry="3.226" transform="translate(431.754 437.273)"/><ellipse class="m" cx="1.619" cy="3.226" rx="1.619" ry="3.226" transform="translate(436.495 456.098)"/><ellipse class="m" cx="1.619" cy="3.226" rx="1.619" ry="3.226" transform="translate(451.525 433.241)"/><ellipse class="m" cx="4.741" cy="7.662" rx="4.741" ry="7.662" transform="translate(439.617 436.601)"/><path class="c" d="M324.8,524s57.317,2.065,131.661,22.46Z" transform="translate(-155.942 -223.936)"/><path class="k" d="M771.1,359.77s-3.11.5-1.491,4.607A29.393,29.393,0,0,1,771.5,370.6s3.116,1.619,2.988-3.739S771.1,359.77,771.1,359.77Z" transform="translate(-328.798 -160.048)"/><path class="y" d="M521.845,494.992l-.037.049a5.83,5.83,0,0,0-1.222,2.817c-.5,3.263-.978,9.947,3.77,8.841a14.665,14.665,0,0,0,7.075-3.843,5.8,5.8,0,0,0,1.57-4.277h0a4.46,4.46,0,0,0-1.961-3.727l-1.766-1.014a3.055,3.055,0,0,0-1.65-.428l-3.055.11a3.813,3.813,0,0,0-2.725,1.473Z" transform="translate(-231.987 -212.035)"/><path class="e" d="M569.08,404.5l-9.122,45.323L553.5,463.46l4.277,7.943,9.47-22.3s10.387-32.688,10.387-33.6S569.08,404.5,569.08,404.5Z" transform="translate(-244.909 -177.449)"/></g></svg>