<svg xmlns="http://www.w3.org/2000/svg" viewBox="0 0 500 500"><g id="freepik--background-complete--inject-8"><path d="M95.43,384.89c-4.63-2.39-10.09-2.7-15.24-1.85-2.76.46-5.64,1.28-7.53,3.36s-2.23,5.73-.07,7.52a7.2,7.2,0,0,0,4.74,1.2c4-.05,8.5-.76,11.72,1.67,1.84,1.38,3.06,3.68,5.25,4.36a5.21,5.21,0,0,0,5.72-2.54,8.93,8.93,0,0,0,.64-6.55A10,10,0,0,0,95.43,384.89Z" style="fill:#ebebeb"></path><path d="M106.05,364.39c-2.83,4.05-8.34,2.71-10.9.24s-3.63-6.06-4.61-9.47c-2.25-7.8-4.51-16-2.84-23.94a13.3,13.3,0,0,1,3.06-6.5,6.91,6.91,0,0,1,6.58-2.19c2.78.73,4.5,3.45,5.75,6a57,57,0,0,1,5.64,24.48c0,3.95-.45,8.08-2.68,11.34" style="fill:#ebebeb"></path><path d="M113.84,370.2c-3.08-3.65-3.67-9-2.3-13.56s4.47-8.47,8-11.64A43.25,43.25,0,0,1,134,336.51a15.33,15.33,0,0,1,6.47-1.09,6.76,6.76,0,0,1,5.42,3.28c1.51,2.88.06,6.38-1.5,9.24a110.33,110.33,0,0,1-9.45,14.38c-2.83,3.65-6.07,7.25-10.38,8.9s-8.8,1.45-11.08-1.54" style="fill:#ebebeb"></path><path d="M106.24,425.46a10,10,0,0,1-.25-1.84c-.13-1.34-.3-3-.49-5a70.49,70.49,0,0,0-1.13-7.37,55.85,55.85,0,0,0-2.68-8.69,32,32,0,0,0-4.43-7.86A16.68,16.68,0,0,0,91.65,390a16.06,16.06,0,0,0-4.73-1.47,9.3,9.3,0,0,1-1.83-.26,8.93,8.93,0,0,1,1.86,0,14.3,14.3,0,0,1,4.93,1.28,16.55,16.55,0,0,1,5.92,4.71,31.24,31.24,0,0,1,4.6,8,53.7,53.7,0,0,1,2.66,8.83,62.29,62.29,0,0,1,1,7.46c.16,2.13.22,3.86.25,5.05A7.78,7.78,0,0,1,106.24,425.46Z" style="fill:#e0e0e0"></path><path d="M105.9,421.59a3.48,3.48,0,0,1-.05-.85c0-.64,0-1.45,0-2.44,0-2.12,0-5.18-.11-9-.19-7.57-.84-15.72-2.1-27.21-1.19-10.8-2.79-23.37-4.48-31.54-.36-1.86-.73-3.53-1.07-5s-.61-2.73-.88-3.75l-.57-2.38a4.2,4.2,0,0,1-.15-.84,3.19,3.19,0,0,1,.3.8c.18.62.42,1.39.71,2.34s.63,2.27,1,3.74.79,3.12,1.18,5a276.5,276.5,0,0,1,4.71,29.27c1.27,11.51,1.83,22,1.88,29.58,0,3.8,0,6.87-.13,9-.06,1-.11,1.8-.15,2.44A3.9,3.9,0,0,1,105.9,421.59Z" style="fill:#e0e0e0"></path><path d="M105.85,401.38a15.55,15.55,0,0,1,0-2.55,66.94,66.94,0,0,1,.78-6.91,91.94,91.94,0,0,1,2.24-10.06A82.88,82.88,0,0,1,113.1,370a63.66,63.66,0,0,1,12.36-19.25,32.8,32.8,0,0,1,2.91-2.7c.45-.38.84-.75,1.24-1.05l1.13-.78a14.86,14.86,0,0,1,2.15-1.37c.12.16-3,2-7,6.27a66.8,66.8,0,0,0-12,19.18,93.35,93.35,0,0,0-4.23,11.8,99.92,99.92,0,0,0-2.39,10c-.53,2.88-.84,5.22-1,6.84A16.88,16.88,0,0,1,105.85,401.38Z" style="fill:#e0e0e0"></path><polygon points="125.39 437.04 123.36 464.79 87.71 464.79 85.69 437.04 125.39 437.04" style="fill:#e0e0e0"></polygon><rect x="81.43" y="426.1" width="47.4" height="10.94" style="fill:#e0e0e0"></rect><polygon points="128.83 463.73 128.83 466.76 126.6 466.76 82.21 466.76 82.21 463.73 128.83 463.73" style="fill:#ebebeb"></polygon><polygon points="124.42 472.1 126.6 466.76 83.91 466.76 86.46 472.1 124.42 472.1" style="fill:#e0e0e0"></polygon><path d="M86.35,446.11a1.48,1.48,0,0,0,.16.25l.54.71,2.07,2.66.09.12.09-.13,5.11-7.06h-.3l5,7.12.15.22.18-.21,6-7.09h-.35l.33.41,5.33,6.68.18.22.16-.23,5-7.11h-.3l6.19,7.05.11.13.09-.14c.81-1.37,1.46-2.47,1.94-3.26l.49-.86a1.41,1.41,0,0,0,.15-.31,1.22,1.22,0,0,0-.2.27l-.55.84c-.5.77-1.18,1.85-2,3.19h.2c-1.59-1.86-3.66-4.28-6.09-7.14l-.16-.18-.14.19-5.07,7.08h.34l-5.31-6.69-.33-.41-.17-.21-.17.21-5.94,7.1h.33l-5.07-7.07-.15-.21-.15.21-5,7.13h.18L87.14,447l-.58-.67Z" style="fill:#f5f5f5"></path><path d="M85.19,436.86c0,.12,8.93.22,20,.22s20-.1,20-.22-8.93-.23-20-.23S85.19,436.73,85.19,436.86Z" style="fill:#f5f5f5"></path><path d="M83.39,467.06c0,.12,9.71.22,21.68.22s21.68-.1,21.68-.22-9.7-.22-21.68-.22S83.39,466.94,83.39,467.06Z" style="fill:#f5f5f5"></path><path d="M105,128.53c.59-4.29-5.46-7.81-10-8.18-2.17-.17-4.42.16-6.47-.56-4.45-1.55-6.22-7.29-10.56-9.12-3.25-1.37-7-.15-10.12,1.43s-6.26,3.58-9.77,3.8c-3.06.2-6.37-.94-9.05.56-2,1.11-3,3.4-4.87,4.76S40,122.82,37.77,123s-4.54.14-6.57,1.07-3.7,3.07-3.28,5.27Z" style="fill:#f5f5f5"></path><path d="M136.15,55.66c.37-2.64-3.37-4.82-6.17-5a16,16,0,0,1-4-.35c-2.75-1-3.84-4.5-6.52-5.63-2-.85-4.31-.09-6.25.88s-3.86,2.21-6,2.35c-1.88.12-3.93-.58-5.58.34-1.23.69-1.88,2.1-3,2.94a7.21,7.21,0,0,1-3.93,1.07,10.89,10.89,0,0,0-4.06.66,3.2,3.2,0,0,0-2,3.25Z" style="fill:#f5f5f5"></path><path d="M126.72,207.89c.37-2.71-3.45-4.94-6.32-5.17a16.28,16.28,0,0,1-4.08-.35c-2.81-1-3.94-4.61-6.68-5.77-2-.86-4.41-.09-6.39.91s-4,2.26-6.17,2.4c-1.93.12-4-.59-5.72.35-1.26.7-1.92,2.15-3.08,3a7.32,7.32,0,0,1-4,1.09,11.34,11.34,0,0,0-4.15.68A3.29,3.29,0,0,0,78,208.37Z" style="fill:#f5f5f5"></path><path d="M430,55.79c.38-2.71-3.44-4.93-6.31-5.17a16.36,16.36,0,0,1-4.09-.35c-2.81-1-3.93-4.61-6.67-5.76-2.05-.87-4.41-.1-6.4.9s-3.95,2.26-6.17,2.4c-1.93.13-4-.59-5.72.35-1.26.71-1.91,2.16-3.07,3a7.29,7.29,0,0,1-4,1.09,11.34,11.34,0,0,0-4.15.68,3.29,3.29,0,0,0-2.08,3.33Z" style="fill:#f5f5f5"></path><path d="M403.29,280.11c.37-2.71-3.45-4.93-6.32-5.17a16.36,16.36,0,0,1-4.09-.35c-2.81-1-3.93-4.61-6.67-5.76-2-.87-4.41-.1-6.4.9s-3.95,2.26-6.17,2.4c-1.93.13-4-.59-5.71.35-1.26.71-1.92,2.16-3.08,3a7.29,7.29,0,0,1-4,1.09,11.38,11.38,0,0,0-4.15.68,3.27,3.27,0,0,0-2.07,3.33Z" style="fill:#f5f5f5"></path><path d="M468.81,165.37c.71-5.15-6.55-9.38-12-9.82-2.6-.21-5.31.19-7.77-.67-5.34-1.86-7.47-8.75-12.68-10.95-3.89-1.64-8.38-.18-12.15,1.72s-7.51,4.29-11.73,4.56c-3.67.23-7.65-1.13-10.86.67-2.39,1.33-3.65,4.09-5.85,5.71s-5,1.93-7.65,2.08-5.44.17-7.88,1.29-4.45,3.69-3.95,6.32Z" style="fill:#f5f5f5"></path><path d="M93.24,171.29l.79,1.42a9.42,9.42,0,0,0,3.81,3.75l1.42.77-1.41.78a9.55,9.55,0,0,0-3.75,3.81l-.77,1.43-.79-1.42a9.42,9.42,0,0,0-3.81-3.75l-1.42-.77,1.41-.78a9.55,9.55,0,0,0,3.75-3.81Z" style="fill:#e0e0e0"></path><path d="M405.65,78.26l.79,1.42a9.46,9.46,0,0,0,3.8,3.75l1.43.77-1.42.78a9.55,9.55,0,0,0-3.75,3.81l-.76,1.43L405,88.8a9.55,9.55,0,0,0-3.81-3.75l-1.43-.77,1.42-.78a9.55,9.55,0,0,0,3.75-3.81Z" style="fill:#e0e0e0"></path></g><g id="freepik--Elements--inject-8"><path d="M203.51,39.12c-8.35.85-15.33,8.33-16.25,16.68s3.86,16.84,11.14,21S215,81,222.61,77.36c4.62-2.18,8.77-5.77,10.64-10.52,2.89-7.36-.43-16.17-6.52-21.21s-14.35-6.8-22.26-6.59" style="fill:#415BB2"></path><g style="opacity:0.9"><path d="M203.51,39.12c-8.35.85-15.33,8.33-16.25,16.68s3.86,16.84,11.14,21S215,81,222.61,77.36c4.62-2.18,8.77-5.77,10.64-10.52,2.89-7.36-.43-16.17-6.52-21.21s-14.35-6.8-22.26-6.59" style="fill:#fff"></path></g><path d="M364.22,86.36c-10.39-20.21-29.3-36.4-51.5-41.3s-47.23,2.53-61.51,20.21c-7.71,9.54-12.83,22.12-23.88,27.47-12.46,6-27.05.42-40.65-2.22-17.84-3.47-37.56-1.12-51.93,10s-20.48,32.3-12.55,48.65h0a22,22,0,0,0,3.34,4c5,4.72,11.88,6.91,17.93,10.24s11.89,8.8,12,15.71c.11,8.94-9.39,16.36-7.88,25.16,1.14,6.6,8,10.53,14.37,12.49s13.46,3.11,18.27,7.76c10.53,10.17,3.31,28.91,10.3,41.77,5.49,10.09,17.86,13.66,28.54,17.89s22.21,12.52,21.36,24L268,305.47c-4.75-5.29-.29-14,5.63-17.91s13.36-6,17.68-11.66c8-10.5.77-26.84,7.33-38.33,6.85-12,25.85-13.61,30.95-26.46,3.43-8.65-1.21-18.45,0-27.68,1.9-14.1,16-22,26-32.59h0c5.74-5.28,10.54-11.4,13.39-18.65C374.78,117.46,371.46,100.45,364.22,86.36Z" style="fill:#415BB2"></path><g style="opacity:0.9"><path d="M364.22,86.36c-10.39-20.21-29.3-36.4-51.5-41.3s-47.23,2.53-61.51,20.21c-7.71,9.54-12.83,22.12-23.88,27.47-12.46,6-27.05.42-40.65-2.22-17.84-3.47-37.56-1.12-51.93,10s-20.48,32.3-12.55,48.65h0a22,22,0,0,0,3.34,4c5,4.72,11.88,6.91,17.93,10.24s11.89,8.8,12,15.71c.11,8.94-9.39,16.36-7.88,25.16,1.14,6.6,8,10.53,14.37,12.49s13.46,3.11,18.27,7.76c10.53,10.17,3.31,28.91,10.3,41.77,5.49,10.09,17.86,13.66,28.54,17.89s22.21,12.52,21.36,24L268,305.47c-4.75-5.29-.29-14,5.63-17.91s13.36-6,17.68-11.66c8-10.5.77-26.84,7.33-38.33,6.85-12,25.85-13.61,30.95-26.46,3.43-8.65-1.21-18.45,0-27.68,1.9-14.1,16-22,26-32.59h0c5.74-5.28,10.54-11.4,13.39-18.65C374.78,117.46,371.46,100.45,364.22,86.36Z" style="fill:#fff"></path></g><path d="M279.19,157.2h-.05l-.2,0Z" style="fill:#415BB2"></path><path d="M289,142.41a4,4,0,0,0-5,1.27c-1.33,2.16-.07,5.38-1.77,7.26a7.84,7.84,0,0,1-2.43,1.49c-.85.43-2.13,1-2.36,1.89s.16,2.79,1.75,2.87A12.19,12.19,0,0,0,290,152.31a8.56,8.56,0,0,0,1.78-5.28A5.42,5.42,0,0,0,289,142.41Z" style="fill:#415BB2"></path><circle cx="286.21" cy="79.85" r="16.46" transform="translate(101.93 312.94) rotate(-67.26)" style="fill:#415BB2"></circle><g style="opacity:0.30000000000000004"><path d="M284.07,85a2.69,2.69,0,1,1-2.69-2.68A2.68,2.68,0,0,1,284.07,85Z" style="fill:#fff"></path></g><g style="opacity:0.30000000000000004"><path d="M280.26,77.24a1.56,1.56,0,1,1-1.56-1.56A1.56,1.56,0,0,1,280.26,77.24Z" style="fill:#fff"></path></g><path d="M270.24,83.85c.08.28-14.08,13.87-10.43,16.76s19-4.53,32.09-15.1,25-23.4,21.77-26.8S294,65.37,294,65.37L296,66.62s9.89-6.35,13-3.89S303.22,74.82,290.64,84,265.9,99.64,264,97.12s7-10.91,7-10.91Z" style="fill:#415BB2"></path><g style="opacity:0.30000000000000004"><path d="M270.24,83.85c.08.28-14.08,13.87-10.43,16.76s19-4.53,32.09-15.1,25-23.4,21.77-26.8S294,65.37,294,65.37L296,66.62s9.89-6.35,13-3.89S303.22,74.82,290.64,84,265.9,99.64,264,97.12s7-10.91,7-10.91Z"></path></g><g style="opacity:0.30000000000000004"><path d="M277.14,68.25c.13.16-1,1.11-2.25,3a15.17,15.17,0,0,0-.33,16.64c1.19,1.95,2.26,2.94,2.13,3.1s-1.41-.65-2.87-2.59a14.13,14.13,0,0,1-2-3.75,14.72,14.72,0,0,1-.86-5.15A14.9,14.9,0,0,1,272,74.39a14.25,14.25,0,0,1,2.15-3.66C275.71,68.85,277.06,68.14,277.14,68.25Z" style="fill:#fff"></path></g><path d="M174.9,118.64l.54.9a6.23,6.23,0,0,0,2.58,2.38l.95.47-.91.55a6.19,6.19,0,0,0-2.37,2.57l-.47.95-.55-.91a6.21,6.21,0,0,0-2.58-2.37l-1-.47.91-.55a6.18,6.18,0,0,0,2.37-2.57Z" style="fill:#415BB2"></path><path d="M333.14,144.88l.55.91a6.21,6.21,0,0,0,2.58,2.37l1,.47-.91.55a6.18,6.18,0,0,0-2.37,2.57l-.48,1-.54-.91a6.23,6.23,0,0,0-2.58-2.38l-.95-.47.91-.55a6.19,6.19,0,0,0,2.37-2.57Z" style="fill:#415BB2"></path><path d="M191.79,216l.36.6a4,4,0,0,0,1.67,1.54l.62.31-.59.35a4,4,0,0,0-1.54,1.68l-.31.62-.36-.6a4.06,4.06,0,0,0-1.67-1.54l-.62-.3.59-.36a4,4,0,0,0,1.54-1.68Z" style="fill:#415BB2"></path><path d="M277.73,171.94l.54.91a6.21,6.21,0,0,0,2.58,2.37l.95.48-.91.54a6.27,6.27,0,0,0-2.37,2.58l-.47,1-.55-.91a6.25,6.25,0,0,0-2.57-2.37l-1-.47.91-.55a6.17,6.17,0,0,0,2.38-2.58Z" style="fill:#415BB2"></path><path d="M290.32,208.09l.31.51a3.47,3.47,0,0,0,1.45,1.34l.54.27-.51.31a3.41,3.41,0,0,0-1.34,1.45l-.27.54-.31-.51a3.5,3.5,0,0,0-1.46-1.34l-.53-.27.51-.31a3.53,3.53,0,0,0,1.34-1.45Z" style="fill:#415BB2"></path><path d="M324.39,73.12l.33.56a3.91,3.91,0,0,0,1.6,1.47l.58.29-.56.34a3.8,3.8,0,0,0-1.46,1.59l-.29.59-.34-.56a3.89,3.89,0,0,0-1.59-1.47l-.59-.29.56-.34a3.89,3.89,0,0,0,1.47-1.59Z" style="fill:#415BB2"></path><path d="M286.66,54.68l.17.28a2,2,0,0,0,.81.75l.3.14-.29.17a2,2,0,0,0-.74.81l-.15.3-.17-.29a1.93,1.93,0,0,0-.81-.74l-.3-.15.29-.17a1.9,1.9,0,0,0,.74-.8Z" style="fill:#415BB2"></path><path d="M210.87,103.23l.26.1a1.75,1.75,0,0,0,.93.1l.28-.06-.11.26a1.65,1.65,0,0,0-.09.93l.05.28-.26-.11a1.72,1.72,0,0,0-.93-.09l-.27.06.1-.27a1.61,1.61,0,0,0,.09-.92Z" style="fill:#415BB2"></path><path d="M265.46,128.53l.55.22a3.49,3.49,0,0,0,1.92.19l.58-.11-.22.54a3.44,3.44,0,0,0-.19,1.93l.11.57-.54-.22a3.44,3.44,0,0,0-1.93-.18l-.58.11.22-.55a3.41,3.41,0,0,0,.19-1.92Z" style="fill:#415BB2"></path><path d="M175.23,184.24a16.91,16.91,0,1,1,16.51,17.31A16.91,16.91,0,0,1,175.23,184.24Z" style="fill:#415BB2"></path><g style="opacity:0.4"><path d="M197.65,178.16a2.76,2.76,0,1,1,2.69,2.83A2.77,2.77,0,0,1,197.65,178.16Z"></path></g><g style="opacity:0.4"><path d="M203.17,184.61a1.61,1.61,0,1,1,1.57,1.64A1.61,1.61,0,0,1,203.17,184.61Z"></path></g><g style="opacity:0.4"><path d="M201,189.53a.6.6,0,1,1-.61.58A.6.6,0,0,1,201,189.53Z"></path></g><polygon points="192.14 85.41 179.86 92.25 178.96 102.53 171.15 96.06 160.64 100.93 130.18 72.27 192.14 85.41" style="fill:#415BB2"></polygon><g style="opacity:0.5"><polygon points="179.86 92.25 131.12 72.47 174.06 94.72 178.96 102.53 178.96 102.53 179.86 92.25"></polygon></g><g style="opacity:0.8"><polygon points="174.06 94.72 171.15 96.06 178.96 102.53 174.06 94.72"></polygon></g><path d="M242.33,41.23v5.83a.92.92,0,0,0,.92.92h16.21a.74.74,0,0,0,.75-.75V30.81a.75.75,0,0,0-.75-.75H253.6v.66a1.13,1.13,0,0,0,.09.45,2.41,2.41,0,0,1,.18.93,2.48,2.48,0,0,1-2.59,2.48,2.48,2.48,0,0,1-2.15-3.53,1.17,1.17,0,0,0,.12-.52v-.47h-6a.92.92,0,0,0-.92.92V41.23Z" style="fill:#263238"></path><path d="M247.15,32.27a2.38,2.38,0,0,1,.22-1.22,1.18,1.18,0,0,0,.13-.52v-.47h-6a.93.93,0,0,0-.93.92v6h-.4a1.26,1.26,0,0,1-.54-.13,2.4,2.4,0,0,0-1.51-.21,2.49,2.49,0,0,0,.43,4.94,2.36,2.36,0,0,0,1-.22,1.26,1.26,0,0,1,.51-.11h.51v5.83a.93.93,0,0,0,.93.92h16.2a.74.74,0,0,0,.75-.75V30.81a.75.75,0,0,0-.75-.75h-5.85v.66a1.33,1.33,0,0,0,.08.45,2.41,2.41,0,0,1,.18.93,2.48,2.48,0,0,1-5,.17Z" style="fill:#455a64"></path><path d="M274.46,135.57c.17-7.56,2.3-14.25,12.7-17.55a16.24,16.24,0,0,1-.76,7.22,15.71,15.71,0,0,1-5.24,6.26c-2.2,1.67-4.37,2.6-6.7,4.07" style="fill:#455a64"></path><path d="M282.93,123c.15.13-3,3.06-5.74,7.45a27.15,27.15,0,0,0-2.81,6c-.51,1.62-.69,2.66-.78,2.65a2.4,2.4,0,0,1,0-.75,15.43,15.43,0,0,1,.4-2,22.71,22.71,0,0,1,2.72-6.15,33.57,33.57,0,0,1,4.13-5.29A12.26,12.26,0,0,1,282.93,123Z" style="fill:#263238"></path><path d="M348.35,135.68c6.2-4.34,12.86-6.57,21.67-.14a16.15,16.15,0,0,1-6.27,3.66,15.86,15.86,0,0,1-8.16-.52c-2.64-.79-4.67-2-7.24-3" style="fill:#455a64"></path><path d="M363.54,135.05c0,.19-4.23-.59-9.4-.23a26.66,26.66,0,0,0-6.48,1.27c-1.61.54-2.56,1-2.6.93a2.51,2.51,0,0,1,.63-.41,14,14,0,0,1,1.85-.87,22.29,22.29,0,0,1,6.56-1.43,32.58,32.58,0,0,1,6.71.2A11.68,11.68,0,0,1,363.54,135.05Z" style="fill:#263238"></path><path d="M208.71,156.44c-.42-4.63-2-8.65-8.51-10.24a8.13,8.13,0,0,0,4.23,8c1.42.93,2.79,1.41,4.28,2.22" style="fill:#455a64"></path><path d="M203,149.05a4.92,4.92,0,0,1,1.39,1,19.42,19.42,0,0,1,2.78,3.06,13.25,13.25,0,0,1,1.9,3.69,3.71,3.71,0,0,1,.31,1.69,24.57,24.57,0,0,0-2.64-5.08C204.87,150.87,202.87,149.18,203,149.05Z" style="fill:#263238"></path><path d="M185.87,70.88c-.41-4.63-2-8.64-8.51-10.24a10,10,0,0,0,.77,4.4,9.64,9.64,0,0,0,3.47,3.62c1.41.93,2.78,1.41,4.27,2.22" style="fill:#455a64"></path><path d="M180.16,63.49a5,5,0,0,1,1.38,1,18.49,18.49,0,0,1,2.78,3.06,13,13,0,0,1,1.91,3.69,4.09,4.09,0,0,1,.31,1.69,25.27,25.27,0,0,0-2.64-5.07C182,65.32,180,63.62,180.16,63.49Z" style="fill:#263238"></path><path d="M252.44,85.27c.33-3.7,1.6-6.9,6.79-8.17a8,8,0,0,1-.61,3.51,7.68,7.68,0,0,1-2.77,2.89c-1.13.74-2.22,1.12-3.41,1.77" style="fill:#455a64"></path><path d="M257,79.38c.11.12-1.46,1.49-2.94,3.52a24.07,24.07,0,0,0-2.15,4,7.51,7.51,0,0,1,1.72-4.32A10.54,10.54,0,0,1,257,79.38Z" style="fill:#263238"></path><path d="M269.47,190.14c5.43-1.39,10.64-1.21,15.08,5.56a11.92,11.92,0,0,1-5.31.9,11.69,11.69,0,0,1-5.53-2.49c-1.62-1.23-2.72-2.6-4.24-4" style="fill:#455a64"></path><path d="M280.18,193.67c-.09.16-2.81-1.45-6.49-2.54a26.26,26.26,0,0,0-6.85-.91,5.6,5.6,0,0,1,2.05-.29,16.26,16.26,0,0,1,4.95.7,24.05,24.05,0,0,1,4.61,1.91A7,7,0,0,1,280.18,193.67Z" style="fill:#263238"></path><path d="M361.2,82.31a.88.88,0,0,1-.08.23c-.08.17-.18.38-.29.65s-.29.64-.5,1-.47.87-.76,1.38a35.72,35.72,0,0,1-6.3,7.83A57.36,57.36,0,0,1,341.09,102a181.11,181.11,0,0,1-16.66,7.48,116.19,116.19,0,0,0-16.38,7.92,49.28,49.28,0,0,0-11.36,9.46,33.13,33.13,0,0,0-5.35,8.41c-.21.55-.41,1-.58,1.46s-.27.8-.37,1.09l-.23.68-.09.22s0-.08,0-.24l.19-.68c.09-.3.18-.68.33-1.11l.55-1.49a31.94,31.94,0,0,1,5.26-8.55,48.42,48.42,0,0,1,11.39-9.61,113,113,0,0,1,16.42-8c6-2.47,11.71-4.78,16.64-7.43a58.45,58.45,0,0,0,12.16-8.45,37.31,37.31,0,0,0,6.37-7.68c.29-.51.56-1,.79-1.36s.39-.75.53-1l.33-.63A1.12,1.12,0,0,1,361.2,82.31Z" style="fill:#263238"></path><path d="M328.26,118.36c-.06-.27-.44-.44-.78-.55a16.82,16.82,0,0,0-8.4-.57,12,12,0,0,0-6.6,3.51l.53.11a14,14,0,0,0,7.68.53A34.51,34.51,0,0,0,327.6,119C327.94,118.88,328.32,118.67,328.26,118.36Z" style="fill:#455a64"></path><path d="M330.06,94.55c-.24-.14-.62,0-.93.2a16.75,16.75,0,0,0-6.12,5.78,11.79,11.79,0,0,0-1.9,7.22l.43-.31a14,14,0,0,0,5.6-5.28,33.08,33.08,0,0,0,3-6.67C330.23,95.14,330.33,94.71,330.06,94.55Z" style="fill:#455a64"></path><path d="M322,119a3.44,3.44,0,0,1-1,.43,18,18,0,0,1-2.73.75c-2.35.51-5.66.62-9.25,1a20.56,20.56,0,0,0-8.74,2.59,16.41,16.41,0,0,0-2.89,2.46,3.46,3.46,0,0,1,.59-.85,9.92,9.92,0,0,1,2.12-1.89,19.63,19.63,0,0,1,8.87-2.78c3.63-.33,6.91-.39,9.24-.8S322,118.88,322,119Z" style="fill:#263238"></path><path d="M353,109.11c0-.28-.34-.51-.66-.69a16.9,16.9,0,0,0-8.13-2.16,11.89,11.89,0,0,0-7.15,2.19l.5.21a14,14,0,0,0,7.43,2,34.25,34.25,0,0,0,7.24-1C352.62,109.56,353,109.43,353,109.11Z" style="fill:#455a64"></path><path d="M346.81,108.52a4.1,4.1,0,0,1-1,.24A19.17,19.17,0,0,1,343,109c-2.41,0-5.7-.49-9.32-.84a22.85,22.85,0,0,0-9.1,1.3c-2.25.76-3.6,1.4-3.63,1.33a4.18,4.18,0,0,1,.91-.52,27.84,27.84,0,0,1,2.61-1.12,21.6,21.6,0,0,1,9.25-1.46c3.66.36,6.9.94,9.29,1S346.8,108.43,346.81,108.52Z" style="fill:#263238"></path><path d="M377.58,84.3c-.11-.26-.51-.36-.87-.41a17,17,0,0,0-8.36,1,11.94,11.94,0,0,0-5.86,4.64H363a14,14,0,0,0,7.64-.86,33.45,33.45,0,0,0,6.38-3.56C377.36,84.87,377.7,84.59,377.58,84.3Z" style="fill:#455a64"></path><path d="M371.57,86a3.16,3.16,0,0,1-.6.45,16.64,16.64,0,0,1-1.8,1,36.63,36.63,0,0,1-6.38,2.06c-1.26.32-2.47.61-3.55.91a19.11,19.11,0,0,0-2.79,1c-1.54.7-2.44,1.28-2.48,1.21s.19-.2.58-.47a17.91,17.91,0,0,1,1.76-1A17.05,17.05,0,0,1,359.12,90c1.09-.33,2.3-.64,3.56-1a49.49,49.49,0,0,0,6.36-1.9C370.62,86.49,371.53,85.93,371.57,86Z" style="fill:#263238"></path><path d="M327.72,97.81a3.82,3.82,0,0,1-.39.93c-.28.59-.73,1.41-1.33,2.4s-1.36,2.15-2.28,3.38a24.68,24.68,0,0,1-3.35,3.72c-.69.59-1.42,1.05-2.1,1.53l-2,1.36c-1.25.87-2.35,1.69-3.25,2.41-1.8,1.43-2.81,2.44-2.86,2.39a3.4,3.4,0,0,1,.65-.77c.45-.47,1.12-1.12,2-1.88s2-1.6,3.21-2.5l2-1.39c.68-.48,1.41-1,2.05-1.5a25.71,25.71,0,0,0,3.32-3.63c.93-1.2,1.71-2.33,2.34-3.29s1.12-1.76,1.45-2.31A6,6,0,0,1,327.72,97.81Z" style="fill:#263238"></path><path d="M352.74,82.17c-.26-.1-.61.13-.89.35a16.84,16.84,0,0,0-5.09,6.7,12,12,0,0,0-.7,7.44l.38-.38a13.93,13.93,0,0,0,4.66-6.12,33.33,33.33,0,0,0,1.83-7.07C353,82.72,353,82.28,352.74,82.17Z" style="fill:#455a64"></path><path d="M350.77,85.69a9.68,9.68,0,0,1-.59,2.58,39.12,39.12,0,0,1-2.38,5.92,20.86,20.86,0,0,1-1.81,3,23.14,23.14,0,0,1-1.92,2.14,15.4,15.4,0,0,1-1.91,1.83,15,15,0,0,1,1.66-2A26.5,26.5,0,0,0,345.64,97a24.49,24.49,0,0,0,1.75-3,56.48,56.48,0,0,0,2.48-5.82C350.43,86.64,350.71,85.67,350.77,85.69Z" style="fill:#263238"></path><path d="M132.25,145.39a3.3,3.3,0,0,1,.72,0l2.07.08c1.8.08,4.4.16,7.62.19s7.05,0,11.31.13a126.51,126.51,0,0,1,13.83.94,62.59,62.59,0,0,1,13.48,3.3,43.13,43.13,0,0,1,10,5.28,31.78,31.78,0,0,1,5.66,5.12c.62.66,1,1.26,1.3,1.62a5.33,5.33,0,0,1,.41.6,3.18,3.18,0,0,1-.5-.53c-.32-.35-.72-.92-1.36-1.55a34.63,34.63,0,0,0-5.73-5,44.11,44.11,0,0,0-10-5.12,63.79,63.79,0,0,0-13.38-3.24,133.4,133.4,0,0,0-13.78-1l-11.3-.24c-3.22-.09-5.82-.22-7.62-.36-.9-.06-1.59-.14-2.07-.19A5,5,0,0,1,132.25,145.39Z" style="fill:#263238"></path><path d="M149.7,157.18c0-.31.28-.65.59-.91a19.13,19.13,0,0,1,8.64-4.14,13.48,13.48,0,0,1,8.45.93l-.5.34a16.06,16.06,0,0,1-7.9,3.79,38.88,38.88,0,0,1-8.3.42C150.26,157.6,149.76,157.53,149.7,157.18Z" style="fill:#455a64"></path><path d="M137.75,132.77c.2-.25.67-.24,1.07-.19a19.26,19.26,0,0,1,8.91,3.53,13.59,13.59,0,0,1,5.06,6.84l-.59-.14a16,16,0,0,1-8.15-3.23,38,38,0,0,1-5.94-5.8C137.83,133.46,137.53,133.05,137.75,132.77Z" style="fill:#455a64"></path><path d="M156.53,155.19c0-.09,1.68-.08,4.31-.67s6.13-1.86,10.11-3a22.34,22.34,0,0,1,10.55-.8,11.32,11.32,0,0,1,3,1.1,3.93,3.93,0,0,1,1,.65,17.68,17.68,0,0,0-4.1-1.38,23.41,23.41,0,0,0-10.33.94,104.92,104.92,0,0,1-10.18,2.9,19.55,19.55,0,0,1-3.2.36A4.07,4.07,0,0,1,156.53,155.19Z" style="fill:#263238"></path><path d="M119.6,157.85c-.11-.3.16-.7.41-1a19.27,19.27,0,0,1,7.69-5.72,13.63,13.63,0,0,1,8.48-.7l-.43.43a15.86,15.86,0,0,1-7,5.23,38.86,38.86,0,0,1-8.07,2C120.23,158.15,119.73,158.18,119.6,157.85Z" style="fill:#455a64"></path><path d="M125.93,154.59c0-.09,1.65-.4,4.13-1.49s5.69-3,9.4-4.95a24.72,24.72,0,0,1,10.4-2.36c1.37,0,2.47,0,3.23.09a4.36,4.36,0,0,1,1.18.16c0,.09-1.69,0-4.4.13a26,26,0,0,0-10.17,2.46c-3.67,1.89-6.92,3.85-9.5,4.82a20.37,20.37,0,0,1-3.09,1A4.45,4.45,0,0,1,125.93,154.59Z" style="fill:#263238"></path><path d="M141.61,135.23a5.66,5.66,0,0,1,.93.66c.58.45,1.43,1.08,2.51,1.83s2.38,1.61,3.86,2.49a29.13,29.13,0,0,0,5,2.44c.92.32,1.88.5,2.8.73l2.66.64c1.69.43,3.2.87,4.45,1.3s2.24.83,2.91,1.13a4.59,4.59,0,0,1,1,.54c0,.08-1.53-.56-4-1.32-1.25-.38-2.76-.78-4.45-1.18-.85-.19-1.74-.39-2.65-.61a26.3,26.3,0,0,1-2.87-.73,27.33,27.33,0,0,1-5.11-2.52c-1.49-.91-2.78-1.81-3.83-2.6s-1.88-1.48-2.42-2A4.24,4.24,0,0,1,141.61,135.23Z" style="fill:#263238"></path><path d="M230.75,116.23a2.76,2.76,0,1,1-2.76-2.75A2.76,2.76,0,0,1,230.75,116.23Z" style="fill:#415BB2"></path><path d="M269.6,156.59c-1-1.54-2.42-2.8-3.15-4.47a18.8,18.8,0,0,1-.94-4.67,9.75,9.75,0,0,0-.47-1.86,23.87,23.87,0,0,0-23.62-20.49q-.79,0-1.59.06a16.74,16.74,0,0,1,3.63,3.19c1.64,1.93,2.72,5.11.82,6.78-1.32,1.15-3.36.85-4.95.13s-3.05-1.8-4.77-2.11a5.75,5.75,0,0,0-6.46,5.11,30.15,30.15,0,0,0,.4,3.9,3.86,3.86,0,0,1-1.3,3.52c-1.93,1.3-4.52-.62-6.81-.21a4,4,0,0,0-2.79,2.37c0,.37,0,.74,0,1.12a24,24,0,0,0,.72,5.78l.2.42-.19-.39a23.91,23.91,0,0,0,13,15.76v6h20.91s.13-3.38.17-6.39a22.77,22.77,0,0,0,2.24-1.33,9.58,9.58,0,0,1,1.3-.06c1.39,0,3,.08,4-.89s1.05-2.9,2.1-4c1.9-2,5.85-.22,7.78-2.21C271,160.35,270.57,158.13,269.6,156.59Z" style="fill:#415BB2"></path><path d="M244.61,176.45s0-.1,0-.29.06-.49.1-.86c.09-.76.23-1.87.44-3.3s.49-3.18,1-5.19a34.87,34.87,0,0,1,2.16-6.64,22.56,22.56,0,0,1,2-3.57,4.51,4.51,0,0,1,1.63-1.46,2.49,2.49,0,0,1,2.27.07,1.66,1.66,0,0,1,.65,2.17A3.43,3.43,0,0,1,253,159a6.55,6.55,0,0,1-5-.35,6.62,6.62,0,0,1-3.37-4,5,5,0,0,1-.14-2.75,2.14,2.14,0,0,1,2.17-1.66,1.53,1.53,0,0,1,1.21.84,2.15,2.15,0,0,1,.19,1.47,4.62,4.62,0,0,1-1.67,2.37,7.12,7.12,0,0,1-5.56,1.61,6.15,6.15,0,0,1-4.61-3.43,3.6,3.6,0,0,1-.17-2.89,1.86,1.86,0,0,1,1.05-1.06,1.76,1.76,0,0,1,1.47.14,2.41,2.41,0,0,1,1,1,3.76,3.76,0,0,1,.36,1.38,6.92,6.92,0,0,1-.36,2.72,7.1,7.1,0,0,1-3.36,4,7.2,7.2,0,0,1-4.94.68,3.79,3.79,0,0,1-2.15-1.13,1.85,1.85,0,0,1-.13-2.3,1.58,1.58,0,0,1,1.07-.53,2.45,2.45,0,0,1,1.14.22,3.45,3.45,0,0,1,1.46,1.64c.6,1.29,1.08,2.55,1.57,3.75,1.91,4.81,3.26,8.77,4.17,11.52.45,1.37.78,2.44,1,3.17.11.35.19.63.25.83s.07.28.07.28,0-.09-.1-.28-.16-.46-.28-.82c-.24-.73-.6-1.79-1.06-3.15-.94-2.73-2.32-6.68-4.25-11.47-.49-1.19-1-2.46-1.58-3.73a3.2,3.2,0,0,0-1.36-1.52,1.62,1.62,0,0,0-1.92.24,1.6,1.6,0,0,0,.14,2,3.52,3.52,0,0,0,2,1,7,7,0,0,0,4.75-.66,6.83,6.83,0,0,0,3.22-3.86,6.56,6.56,0,0,0,.35-2.61,2.6,2.6,0,0,0-1.23-2.19,1.44,1.44,0,0,0-2.11.78,3.34,3.34,0,0,0,.16,2.66,6,6,0,0,0,4.39,3.27,6.86,6.86,0,0,0,5.33-1.55,4.41,4.41,0,0,0,1.58-2.21,1.85,1.85,0,0,0-.16-1.27,1.26,1.26,0,0,0-1-.7,1.7,1.7,0,0,0-1.19.39,2.09,2.09,0,0,0-.68,1.07,4.77,4.77,0,0,0,.14,2.59,6.29,6.29,0,0,0,8,4.17,3.11,3.11,0,0,0,1.7-1.46,1.4,1.4,0,0,0-.55-1.85,2.23,2.23,0,0,0-2-.07,4.23,4.23,0,0,0-1.55,1.39,22.34,22.34,0,0,0-1.95,3.52,35,35,0,0,0-2.19,6.59c-.47,2-.77,3.74-1,5.16s-.38,2.53-.49,3.29c0,.37-.1.66-.13.86S244.61,176.45,244.61,176.45Z" style="fill:#263238"></path><path d="M250.56,180.42H232.61a1.35,1.35,0,0,1-1.35-1.34h0a1.35,1.35,0,0,1,1.35-1.35h17.95a1.34,1.34,0,0,1,1.35,1.34h0A1.34,1.34,0,0,1,250.56,180.42Z" style="fill:#263238"></path><path d="M250.56,181.6H232.61a1.35,1.35,0,0,0,0,2.69h2l2.62,5a1.73,1.73,0,0,0,1.53.92h6.41a1.72,1.72,0,0,0,1.54-.94l2.54-5h1.34a1.35,1.35,0,1,0,0-2.69Z" style="fill:#263238"></path><path d="M246.35,189.68s-.47-.17-1.23-.38a10.33,10.33,0,0,0-3.05-.39,10.5,10.5,0,0,0-3,.56,10.31,10.31,0,0,1-1.21.45,4.08,4.08,0,0,1,1.14-.64,8.72,8.72,0,0,1,6.2-.18A3.58,3.58,0,0,1,246.35,189.68Z" style="fill:#455a64"></path><path d="M249.26,184.35c0,.08-3.24.15-7.25.15s-7.24-.07-7.24-.15,3.24-.14,7.24-.14S249.26,184.27,249.26,184.35Z" style="fill:#455a64"></path><path d="M248.14,186.48a10.38,10.38,0,0,1-1.77.18c-1.09.07-2.61.13-4.28.16s-3.19,0-4.28,0a9.31,9.31,0,0,1-1.78-.13,11.5,11.5,0,0,1,1.78-.07l4.28-.06,4.27-.07A12.13,12.13,0,0,1,248.14,186.48Z" style="fill:#455a64"></path><path d="M213.9,140.86a10.78,10.78,0,0,1-10.86-7.7c-.43-1.63-.48-3.37-1.21-4.89-.66-1.36-1.84-2.45-2.34-3.87a5.22,5.22,0,0,1,3-6.2,6.71,6.71,0,0,1,7,1.46,9.44,9.44,0,0,1,2.74,6.84c0,2.2-.56,4.55.43,6.51a14,14,0,0,0,2.35,2.82,4.32,4.32,0,0,1,1.34,3.31c-.19,1.21-1.67,2.21-2.69,1.53" style="fill:#415BB2"></path><path d="M237.43,82c.15,0,.27,7.66.27,17.11s-.12,17.11-.27,17.11-.26-7.66-.26-17.11S237.29,82,237.43,82Z" style="fill:#263238"></path><path d="M219.46,121.26a49.39,49.39,0,0,1-5.22-4.79,48.94,48.94,0,0,1-4.85-5.16,48.27,48.27,0,0,1,5.22,4.79A45.62,45.62,0,0,1,219.46,121.26Z" style="fill:#263238"></path><path d="M264.91,110.76a51.74,51.74,0,0,1-4.79,5.35,48.41,48.41,0,0,1-5.16,5,50,50,0,0,1,4.79-5.36A47.67,47.67,0,0,1,264.91,110.76Z" style="fill:#263238"></path><path d="M218.91,66.94a3,3,0,0,1,1.3-.82,1.75,1.75,0,0,0,.6-.36l.42-.43-5.39-5.48a1.15,1.15,0,0,0-1.63,0l-5.36,5.27-.35-.36a1.53,1.53,0,0,1-.36-.6A3.09,3.09,0,0,0,207,62.64a3.2,3.2,0,0,0-3.74.09c-2.69,2-1.6,3.34-.31,4.65a3.1,3.1,0,0,0,1.07.7,1.73,1.73,0,0,1,.54.35l.45.46L199.8,74a1.17,1.17,0,0,0,0,1.64L214,90.1a.94.94,0,0,0,1.33,0L230,75.62a.94.94,0,0,0,0-1.33l-5.13-5.22-.6.59a1.27,1.27,0,0,0-.32.47,3.23,3.23,0,0,1-.67,1,3.13,3.13,0,0,1-4.5-.11A3,3,0,0,1,218.91,66.94Z" style="fill:#415BB2"></path><g style="opacity:0.30000000000000004"><path d="M218.91,66.94a3,3,0,0,1,1.3-.82,1.75,1.75,0,0,0,.6-.36l.42-.43-5.39-5.48a1.15,1.15,0,0,0-1.63,0l-5.36,5.27-.35-.36a1.53,1.53,0,0,1-.36-.6A3.09,3.09,0,0,0,207,62.64a3.21,3.21,0,0,0-3.79.13c-2.92,2.3-1.55,3.3-.26,4.61a3.1,3.1,0,0,0,1.07.7,1.73,1.73,0,0,1,.54.35l.45.46L199.8,74a1.17,1.17,0,0,0,0,1.64L214,90.1a.94.94,0,0,0,1.33,0L230,75.62a.94.94,0,0,0,0-1.33l-5.13-5.22-.6.59a1.27,1.27,0,0,0-.32.47,3.23,3.23,0,0,1-.67,1,3.13,3.13,0,0,1-4.5-.11A3,3,0,0,1,218.91,66.94Z"></path></g><path d="M218,67.85a2.93,2.93,0,0,1,1.29-.82,1.53,1.53,0,0,0,.6-.36l.43-.43-5.4-5.47a1.14,1.14,0,0,0-1.63,0L207.93,66l-.36-.36a1.66,1.66,0,0,1-.36-.6,3,3,0,0,0-1.13-1.52A3.13,3.13,0,0,0,202,68.29a3.05,3.05,0,0,0,1.07.7,1.62,1.62,0,0,1,.54.35l.46.46L198.88,75a1.14,1.14,0,0,0,0,1.63L213.07,91a.94.94,0,0,0,1.33,0l14.71-14.49a.94.94,0,0,0,0-1.33L224,70l-.59.59a1.54,1.54,0,0,0-.33.47,3.06,3.06,0,0,1-.67,1,3.13,3.13,0,0,1-4.5-.11A3,3,0,0,1,218,67.85Z" style="fill:#415BB2"></path><path d="M358.23,182.11c.45-3.21-4.09-5.86-7.51-6.14-1.62-.13-3.31.12-4.85-.41-3.34-1.17-4.68-5.48-7.94-6.86-2.43-1-5.24-.11-7.6,1.08s-4.69,2.68-7.33,2.85c-2.3.15-4.79-.7-6.8.42-1.49.83-2.28,2.56-3.66,3.58a8.76,8.76,0,0,1-4.78,1.29,13.4,13.4,0,0,0-4.93.81c-1.53.7-2.79,2.31-2.47,4Z" style="fill:#fff"></path><path d="M144.7,116.78c.44-3.22-4.1-5.87-7.51-6.14-1.63-.13-3.32.12-4.86-.42-3.34-1.16-4.67-5.48-7.93-6.85-2.44-1-5.24-.12-7.6,1.07s-4.7,2.69-7.34,2.86c-2.29.14-4.78-.71-6.79.41-1.5.84-2.28,2.56-3.66,3.58a8.77,8.77,0,0,1-4.78,1.3,13.45,13.45,0,0,0-4.94.8c-1.52.7-2.78,2.31-2.46,4Z" style="fill:#fff"></path><path d="M176.49,212.89c.56-3.52-4.36-6.53-8.09-6.92-1.79-.18-3.65.06-5.32-.57-3.64-1.36-5-6.12-8.55-7.71-2.65-1.18-5.75-.25-8.37,1s-5.21,2.84-8.11,3c-2.52.11-5.24-.88-7.47.3-1.66.88-2.56,2.75-4.1,3.84a9.57,9.57,0,0,1-5.28,1.31,14.78,14.78,0,0,0-5.43.77c-1.69.73-3.11,2.47-2.8,4.28Z" style="fill:#fff"></path><path d="M316.34,158l-4.59-1.43a4.09,4.09,0,0,1-5.23,2.68,3.89,3.89,0,0,1-2.86-3.5,4.3,4.3,0,0,1,1.48-3.61c1.18-1.05,3.26-1.68,6.18-.17l3.23-10.35L310,140.15l-1.89,6.06a9.29,9.29,0,0,0-9.07,6.68c-2.1,6.72,3.44,10.16,6,11C307,164.46,313.9,166.08,316.34,158Z" style="fill:#415BB2"></path><rect x="311.18" y="134.31" width="4.83" height="4.51" transform="matrix(-0.95, -0.3, 0.3, -0.95, 572.29, 360.33)" style="fill:#415BB2"></rect><path d="M156.08,170.74l2.75-.89a2.45,2.45,0,0,1,1.64-3.11,2.32,2.32,0,0,1,2.61.72,2.59,2.59,0,0,1,.52,2.29c-.22.92-1,1.95-3,2.21l2,6.2,2.71-.87-1.16-3.63a5.57,5.57,0,0,0,2.14-6.41c-1.29-4-5.19-3.79-6.73-3.3C158.4,164.33,154.47,165.91,156.08,170.74Z" style="fill:#415BB2"></path><rect x="163.36" y="178.93" width="2.9" height="2.7" transform="translate(-47.23 59.03) rotate(-17.81)" style="fill:#415BB2"></rect><path d="M311.23,202.79l-.7,1.22s7.07,4.05,14.13,4.18l.15-1.49Z" style="fill:#415BB2"></path><path d="M312.23,204.08a.23.23,0,1,1-.1-.31A.22.22,0,0,1,312.23,204.08Z" style="fill:#fff"></path><path d="M315.28,205.45a.23.23,0,0,1-.31.09.23.23,0,0,1,.22-.4A.23.23,0,0,1,315.28,205.45Z" style="fill:#fff"></path><path d="M313.66,204.75a.23.23,0,0,1-.31.11.23.23,0,0,1-.11-.3.22.22,0,0,1,.31-.11A.23.23,0,0,1,313.66,204.75Z" style="fill:#fff"></path><path d="M317,206.08a.23.23,0,0,1-.31.09.23.23,0,1,1,.22-.4A.23.23,0,0,1,317,206.08Z" style="fill:#fff"></path><path d="M321,207.2a.23.23,0,0,1-.31.1.22.22,0,0,1-.1-.31.23.23,0,0,1,.31-.1A.24.24,0,0,1,321,207.2Z" style="fill:#fff"></path><path d="M323,207.58a.23.23,0,0,1-.31.1.23.23,0,0,1-.09-.31.22.22,0,0,1,.31-.1A.23.23,0,0,1,323,207.58Z" style="fill:#fff"></path><path d="M318.9,206.7a.24.24,0,0,1-.31.1.23.23,0,0,1,.21-.41A.23.23,0,0,1,318.9,206.7Z" style="fill:#fff"></path><path d="M301,194.08c-.29.41,3.64,7.4,17.67,11.7,12.06,3.69,19.88.54,19.88.54Z" style="fill:#415BB2"></path><path d="M301,194.08c-.29.41,3.64,7.4,17.67,11.7,12.06,3.69,19.88.54,19.88.54Z" style="opacity:0.2"></path><path d="M300.91,193.77c-.46,1.38,7.59,5.3,18,8.75s19.17,5.14,19.63,3.75-7.58-5.3-18-8.75S301.37,192.38,300.91,193.77Z" style="fill:#415BB2"></path><path d="M311.5,196.12s2.69-8.55,11.37-6.41,6,11.2,6,11.2S322,202.92,311.5,196.12Z" style="fill:#415BB2"></path><path d="M318.64,190.35a4.26,4.26,0,0,1-.94.4l-.46.21c-.16.07-.33.17-.51.26a10.31,10.31,0,0,0-1.12.71,11.31,11.31,0,0,0-1,.86c-.14.14-.28.28-.4.42l-.33.38c-.39.48-.61.8-.66.77a2.48,2.48,0,0,1,.47-.91A3.77,3.77,0,0,1,314,193c.11-.15.25-.3.39-.46a8.55,8.55,0,0,1,1-.91,8.43,8.43,0,0,1,1.17-.72l.55-.24.49-.17A2.36,2.36,0,0,1,318.64,190.35Z" style="fill:#e0e0e0"></path><path d="M337.16,205.6s0,0-.08.05l-.23.08a3,3,0,0,1-.9.1,19.46,19.46,0,0,1-3-.21,19.86,19.86,0,0,1-2.91-.63c-.37-.11-.66-.21-.86-.28l-.24-.09-.07,0,.08,0,.23.07c.21.07.5.16.87.26a23.09,23.09,0,0,0,2.91.62,22.65,22.65,0,0,0,3,.23,4,4,0,0,0,.89-.08A1.71,1.71,0,0,0,337.16,205.6Z" style="fill:#fff"></path><path d="M315.39,204.69s0,0-.09-.11-.12-.19-.2-.33a5,5,0,0,1-.22-.54,4,4,0,0,1-.17-.68,6,6,0,0,1,0-.71,4.51,4.51,0,0,1,.06-.58,2.5,2.5,0,0,1,.09-.37l.05-.14s-.05.2-.09.52a4.48,4.48,0,0,0,0,.57,4.35,4.35,0,0,0,0,.7,4.51,4.51,0,0,0,.16.68,3.9,3.9,0,0,0,.21.53C315.28,204.52,315.4,204.69,315.39,204.69Z" style="fill:#263238"></path><path d="M315.56,202.57s0,0-.07.05a.09.09,0,0,0,0,.07.06.06,0,0,0,.06.05.06.06,0,0,0,.07,0s0-.05,0-.08-.05,0-.05-.06.05,0,.09,0a.12.12,0,0,1-.12.2.15.15,0,0,1-.12-.1.14.14,0,0,1,0-.12C315.51,202.54,315.56,202.56,315.56,202.57Z" style="fill:#263238"></path><path d="M315.72,203.74s0,0-.06,0a.07.07,0,0,0,0,.12.08.08,0,0,0,.07,0,.11.11,0,0,0,0-.08s-.06-.05-.06-.06.06,0,.1,0a.12.12,0,0,1,0,.12.13.13,0,0,1-.14.08.14.14,0,0,1-.12-.1.13.13,0,0,1,0-.12C315.68,203.71,315.73,203.73,315.72,203.74Z" style="fill:#263238"></path><path d="M301,193.7h.11l.31,0c.28,0,.67.07,1.15.13,1,.13,2.31.36,3.77.69s2.75.73,3.68,1c.47.15.84.28,1.1.38l.29.11.1,0-.1,0-.3-.1-1.1-.37c-.93-.3-2.23-.67-3.69-1s-2.78-.57-3.75-.71l-1.15-.16-.31,0Z" style="fill:#263238"></path><path d="M327.46,205l-.11-.16c-.08-.11-.19-.25-.31-.43-.26-.36-.62-.85-1-1.39s-.82-1-1.1-1.34l-.35-.4a1.07,1.07,0,0,1-.12-.16l.14.14.36.38c.3.34.7.8,1.12,1.34s.77,1,1,1.41l.29.44A.88.88,0,0,1,327.46,205Z" style="fill:#263238"></path><path d="M324.71,202.14s0,0-.07.09a.12.12,0,0,0,0,.1.1.1,0,0,0,.1.06c.05,0,.09,0,.1-.07a.12.12,0,0,0,0-.1c0-.06-.08-.07-.08-.08s.07,0,.12.06a.18.18,0,0,1,0,.15.17.17,0,0,1-.16.1.16.16,0,0,1-.16-.09.19.19,0,0,1,0-.15C324.64,202.13,324.71,202.13,324.71,202.14Z" style="fill:#263238"></path><path d="M309.35,195.67s0,0-.06.09a.12.12,0,0,0,0,.1.1.1,0,0,0,.1,0,.09.09,0,0,0,.1-.06.12.12,0,0,0,0-.1c0-.06-.08-.07-.07-.08s.06,0,.11.06a.16.16,0,0,1,0,.14.15.15,0,0,1-.15.11.17.17,0,0,1-.17-.09.19.19,0,0,1,0-.15C309.29,195.66,309.35,195.66,309.35,195.67Z" style="fill:#263238"></path><path d="M306.35,194.92s-.05,0-.07.09a.2.2,0,0,0,0,.11.13.13,0,0,0,.11,0,.17.17,0,0,0,.1-.06.14.14,0,0,0,0-.11c0-.06-.07-.07-.07-.08s.06,0,.11.06a.15.15,0,0,1,0,.15.17.17,0,0,1-.16.1.15.15,0,0,1-.16-.09.16.16,0,0,1,0-.15C306.28,194.91,306.35,194.91,306.35,194.92Z" style="fill:#263238"></path><path d="M302.88,194.16s0,0-.06.09a.14.14,0,0,0,0,.11.12.12,0,0,0,.1,0,.11.11,0,0,0,.1-.06.14.14,0,0,0,0-.11c0-.06-.08-.07-.07-.08s.06,0,.11.06a.18.18,0,0,1,0,.15.18.18,0,0,1-.15.11.17.17,0,0,1-.16-.1.16.16,0,0,1,0-.15C302.82,194.15,302.88,194.16,302.88,194.16Z" style="fill:#263238"></path><path d="M325.68,203.53s-.05,0-.07.09a.17.17,0,0,0,0,.1.11.11,0,0,0,.11.06.13.13,0,0,0,.1-.07.12.12,0,0,0,0-.1c0-.06-.07-.07-.07-.08s.06,0,.11.06a.15.15,0,0,1,0,.15.17.17,0,0,1-.16.1.15.15,0,0,1-.16-.09.16.16,0,0,1,0-.15C325.61,203.52,325.68,203.52,325.68,203.53Z" style="fill:#263238"></path><path d="M311.5,196.12s2.69-8.55,11.37-6.41,6,11.2,6,11.2S322,202.92,311.5,196.12Z" style="fill:#fff;opacity:0.6000000000000001"></path><path d="M177.15,269.18c-1.16-5-2.35-10.11-4.83-14.63s-6.46-8.47-11.46-9.72c-4.41-1.11-9.25-.07-13.44-1.81-4.72-2-7.37-6.86-10.42-11s-7.91-8-12.81-6.53c-3.65,1.1-5.93,5-6,8.86s1.75,7.43,4,10.48a32.69,32.69,0,0,0,20.48,12.43c8.6,1.44,18.63-.24,25,5.72,1.67,1.56,2.91,3.53,4.57,5.09s4,2.72,6.2,2.09Z" style="fill:#415BB2"></path><g style="opacity:0.9"><path d="M177.15,269.18c-1.16-5-2.35-10.11-4.83-14.63s-6.46-8.47-11.46-9.72c-4.41-1.11-9.25-.07-13.44-1.81-4.72-2-7.37-6.86-10.42-11s-7.91-8-12.81-6.53c-3.65,1.1-5.93,5-6,8.86s1.75,7.43,4,10.48a32.69,32.69,0,0,0,20.48,12.43c8.6,1.44,18.63-.24,25,5.72,1.67,1.56,2.91,3.53,4.57,5.09s4,2.72,6.2,2.09Z" style="fill:#fff"></path></g><path d="M376.1,204.43c-3.59-2.92-9.26-1.45-12.51,1.84s-4.75,7.88-6.39,12.21-3.73,8.81-7.64,11.29c-2,1.25-4.28,1.92-6.12,3.34-6.46,5-4.2,16.54-10.7,21.49-3.38,2.57-8,2.43-12.23,2.87S309.22,263,308.08,267c3.27-4.25,9.64-4.17,14.92-3.24s11.15,2.21,15.66-.7c6.06-3.92,6.57-13.61,13-16.9,3.16-1.61,7.21-1.3,10-3.54,3-2.44,3.21-6.8,4.65-10.36,1.36-3.36,3.87-6.11,6.28-8.83s4.81-5.59,5.88-9.06S378.92,206.71,376.1,204.43Z" style="fill:#415BB2"></path><g style="opacity:0.9"><path d="M376.1,204.43c-3.59-2.92-9.26-1.45-12.51,1.84s-4.75,7.88-6.39,12.21-3.73,8.81-7.64,11.29c-2,1.25-4.28,1.92-6.12,3.34-6.46,5-4.2,16.54-10.7,21.49-3.38,2.57-8,2.43-12.23,2.87S309.22,263,308.08,267c3.27-4.25,9.64-4.17,14.92-3.24s11.15,2.21,15.66-.7c6.06-3.92,6.57-13.61,13-16.9,3.16-1.61,7.21-1.3,10-3.54,3-2.44,3.21-6.8,4.65-10.36,1.36-3.36,3.87-6.11,6.28-8.83s4.81-5.59,5.88-9.06S378.92,206.71,376.1,204.43Z" style="fill:#fff"></path></g><path d="M411.65,105.56l.52.83a5.84,5.84,0,0,0,2.44,2.15l.89.42-.84.52a5.78,5.78,0,0,0-2.14,2.43l-.42.9-.53-.84a5.81,5.81,0,0,0-2.43-2.15l-.89-.41.83-.53a5.74,5.74,0,0,0,2.15-2.43Z" style="fill:#f5f5f5"></path><path d="M76.62,190.09l.31.56a3.7,3.7,0,0,0,1.49,1.47l.56.3-.56.31A3.76,3.76,0,0,0,77,194.22l-.3.56.3-.56a5.48,5.48,0,0,0-2.1-1.46l-.56-.3.56-.31a3.79,3.79,0,0,0,1.47-1.5Z" style="fill:#e0e0e0"></path></g><g id="freepik--Plant--inject-8"><polygon points="377.55 426.81 384.36 471.58 423.94 471.58 433.12 427.46 377.55 426.81" style="fill:#415BB2"></polygon><path d="M427.59,455.5c0,.13-10.14.24-22.65.24s-22.65-.11-22.65-.24,10.14-.23,22.65-.23S427.59,455.38,427.59,455.5Z" style="fill:#fafafa"></path><path d="M427.74,453.3c0,.13-10.21.23-22.8.23s-22.81-.1-22.81-.23,10.21-.23,22.81-.23S427.74,453.17,427.74,453.3Z" style="fill:#fafafa"></path><path d="M427.66,450.82c0,.12-10.21.23-22.8.23s-22.8-.11-22.8-.23,10.2-.24,22.8-.24S427.66,450.69,427.66,450.82Z" style="fill:#fafafa"></path><path d="M388.9,469a36.89,36.89,0,0,1-1.21-5.64,37.73,37.73,0,0,1-.76-5.72,69.82,69.82,0,0,1,2,11.36Z" style="fill:#fafafa"></path><path d="M391.6,468.55a42.23,42.23,0,0,1-.49-5.5,42.77,42.77,0,0,1-.26-5.51,44.18,44.18,0,0,1,.75,11Z" style="fill:#fafafa"></path><path d="M396.5,468.55a44.72,44.72,0,0,1-1.33-11.36,48.68,48.68,0,0,1,.77,5.67A49.46,49.46,0,0,1,396.5,468.55Z" style="fill:#fafafa"></path><path d="M400,468.79a27.57,27.57,0,0,1-.55-5.73,27.17,27.17,0,0,1,.18-5.76,49.56,49.56,0,0,1,.28,5.74A48.09,48.09,0,0,1,400,468.79Z" style="fill:#fafafa"></path><path d="M406.05,468.55a31.42,31.42,0,0,1-.42-5.44,31.92,31.92,0,0,1,.05-5.45,32.08,32.08,0,0,1,.41,5.44A32.67,32.67,0,0,1,406.05,468.55Z" style="fill:#fafafa"></path><path d="M410.5,468.79a67.43,67.43,0,0,1,.09-11.25,67.46,67.46,0,0,1-.09,11.25Z" style="fill:#fafafa"></path><path d="M414.68,468.19a37.13,37.13,0,0,1,.33-5.88,39.6,39.6,0,0,1,.8-5.84,37.09,37.09,0,0,1-.33,5.88A39.6,39.6,0,0,1,414.68,468.19Z" style="fill:#fafafa"></path><path d="M420.06,467.6a20,20,0,0,1,.67-5,19.64,19.64,0,0,1,1.47-4.82,42.91,42.91,0,0,1-1,4.92A43.76,43.76,0,0,1,420.06,467.6Z" style="fill:#fafafa"></path><path d="M416.25,338.47a.73.73,0,0,1-.05.22l-.18.63c-.19.59-.44,1.4-.76,2.42s-.74,2.33-1.16,3.83-1,3.2-1.42,5.11-1.05,4-1.55,6.23-1,4.67-1.52,7.21c-.95,5.1-1.82,10.75-2.43,16.71s-.84,11.67-.92,16.86c0,2.59,0,5.06.07,7.37s.16,4.45.28,6.41.27,3.73.39,5.29.26,2.89.38,4,.2,1.91.26,2.52c0,.27,0,.48.06.66a.63.63,0,0,1,0,.22.93.93,0,0,1-.05-.22c0-.17-.06-.39-.1-.65-.09-.61-.2-1.45-.35-2.51s-.32-2.42-.46-4-.35-3.32-.46-5.29-.28-4.11-.34-6.42-.1-4.79-.11-7.39c.05-5.2.31-10.92.89-16.9s1.49-11.63,2.47-16.74c.52-2.55,1-5,1.57-7.22s1.07-4.33,1.6-6.23,1-3.6,1.49-5.09.88-2.78,1.24-3.82.64-1.8.84-2.39c.09-.25.17-.45.23-.61A.74.74,0,0,1,416.25,338.47Z" style="fill:#455a64"></path><path d="M409.11,366.19a14.62,14.62,0,0,1,6.15-7.77,3.53,3.53,0,0,1,3.26-.6c1.38.67,1.49,2.61,1.08,4.09a10.88,10.88,0,0,1-4.48,6.11,9.15,9.15,0,0,1-6.73,1.69" style="fill:#455a64"></path><path d="M406.7,384.91c1-3.86,4.11-9.36,7.31-11.75a4.67,4.67,0,0,1,1.66-.88,1.93,1.93,0,0,1,1.78.38,2.72,2.72,0,0,1,.39,2.57,15.58,15.58,0,0,1-11.54,11.62" style="fill:#455a64"></path><path d="M406,401.39a22.59,22.59,0,0,1,7.37-9.27,3.57,3.57,0,0,1,2.57-.92c1.4.26,2,2,1.91,3.38-.25,2.91-2.48,5.25-4.78,7.06a29.68,29.68,0,0,1-6.81,3.51" style="fill:#455a64"></path><path d="M406.41,413.23a21.86,21.86,0,0,1,6.27-7.14,4.55,4.55,0,0,1,1.88-.84,1.94,1.94,0,0,1,1.85.7c.63.93,0,2.17-.64,3.07a17.93,17.93,0,0,1-8.95,6.56" style="fill:#455a64"></path><path d="M406.1,408.42a69.72,69.72,0,0,0-9-9.13c-.5-.43-1.15-.89-1.78-.68a1.36,1.36,0,0,0-.83,1.21,3.39,3.39,0,0,0,.35,1.49A17.38,17.38,0,0,0,406.41,411" style="fill:#455a64"></path><path d="M406.39,393l-7.05-8.59a8.55,8.55,0,0,0-2.28-2.17,2.91,2.91,0,0,0-3,0,2.86,2.86,0,0,0-1,2.84,7.41,7.41,0,0,0,1.37,2.82,21,21,0,0,0,5.14,5.46c2.06,1.42,3.94,2.34,6.43,2" style="fill:#455a64"></path><path d="M407.37,375.65A24.56,24.56,0,0,0,400.28,365a4.25,4.25,0,0,0-1.85-1.08,3.11,3.11,0,0,0-3.23,2.27,5.84,5.84,0,0,0,.64,4.67,12.4,12.4,0,0,0,3.31,3.5A28.6,28.6,0,0,0,407,378.6" style="fill:#455a64"></path><path d="M410.18,360.18c-.68-5-3.27-9.12-6.27-13.15-.64-.85-1.52-1.75-2.57-1.59a2,2,0,0,0-1.47,1.26,4.79,4.79,0,0,0-.28,2,15.38,15.38,0,0,0,10,13.74" style="fill:#455a64"></path><path d="M412.15,352.28a41.33,41.33,0,0,1-.25-7.7,13.7,13.7,0,0,1,2.55-7.17,5.92,5.92,0,0,1,2.56-2,3.23,3.23,0,0,1,3.14.42,3.42,3.42,0,0,1,1.07,2.76,8.79,8.79,0,0,1-.79,2.95c-1.88,4.52-5,9.52-8.28,10.78" style="fill:#455a64"></path><path d="M381.46,358.21a2.83,2.83,0,0,1,0,.63l0,1.81c0,.79,0,1.74.05,2.86s0,2.38.13,3.78c.13,2.8.4,6.13.82,9.81s1.08,7.7,2,11.89,1.93,8.12,3,11.67,2.18,6.7,3.2,9.31c.47,1.32,1,2.49,1.39,3.52s.79,1.92,1.11,2.63l.7,1.67a2.57,2.57,0,0,1,.22.59,3,3,0,0,1-.3-.55c-.2-.42-.46-1-.79-1.63s-.75-1.58-1.18-2.61-1-2.18-1.46-3.5c-1.06-2.6-2.18-5.76-3.3-9.3s-2.14-7.51-3-11.71-1.49-8.24-1.92-11.93-.64-7-.73-9.85c-.07-1.4-.05-2.67-.06-3.79s0-2.08,0-2.86.05-1.35.07-1.81A4.53,4.53,0,0,1,381.46,358.21Z" style="fill:#263238"></path><path d="M382.57,378.62a10.49,10.49,0,0,1,2.51-6.61,2.51,2.51,0,0,1,2.09-1.11c1.08.16,1.58,1.46,1.62,2.55a7.74,7.74,0,0,1-1.74,5.12,6.51,6.51,0,0,1-4.21,2.6" style="fill:#263238"></path><path d="M385,391.89c-.14-2.85.78-7.26,2.44-9.58a3.61,3.61,0,0,1,1-1,1.38,1.38,0,0,1,1.29-.12,2,2,0,0,1,.82,1.66,11.13,11.13,0,0,1-5.36,10.4" style="fill:#263238"></path><path d="M388.05,403.25a16.18,16.18,0,0,1,3-7.9,2.52,2.52,0,0,1,1.55-1.18c1-.13,1.81.9,2,1.89.45,2-.56,4.11-1.73,5.84a21.25,21.25,0,0,1-3.89,3.85" style="fill:#263238"></path><path d="M390.86,411.23a15.57,15.57,0,0,1,2.73-6.21,3.22,3.22,0,0,1,1.1-1,1.39,1.39,0,0,1,1.41.08c.62.5.49,1.47.22,2.23a12.78,12.78,0,0,1-4.68,6.39" style="fill:#263238"></path><path d="M389.61,408a50.3,50.3,0,0,0-8.07-4.29,1.44,1.44,0,0,0-1.36-.07,1,1,0,0,0-.3,1,2.31,2.31,0,0,0,.55.94,12.43,12.43,0,0,0,9.95,4.13" style="fill:#263238"></path><path d="M386.49,397.47l-6.65-4.34a6,6,0,0,0-2-1,2.06,2.06,0,0,0-2.05.62,2,2,0,0,0,0,2.14,5.32,5.32,0,0,0,1.54,1.63,15,15,0,0,0,4.67,2.6,6.13,6.13,0,0,0,4.81,0" style="fill:#263238"></path><path d="M383.42,385.44a17.52,17.52,0,0,0-7.12-5.72,2.91,2.91,0,0,0-1.49-.34,2.22,2.22,0,0,0-1.71,2.24,4.15,4.15,0,0,0,1.44,3,8.72,8.72,0,0,0,3,1.67,20.2,20.2,0,0,0,6.25,1.2" style="fill:#263238"></path><path d="M382,374.3c-1.53-3.24-4.19-5.51-7.1-7.6a2.15,2.15,0,0,0-2.09-.54,1.48,1.48,0,0,0-.73,1.18,3.48,3.48,0,0,0,.24,1.42,11,11,0,0,0,9.75,7.2" style="fill:#263238"></path><path d="M381.65,368.49a29,29,0,0,1-1.84-5.18,9.82,9.82,0,0,1,.2-5.43,4.26,4.26,0,0,1,1.3-1.94,2.32,2.32,0,0,1,2.23-.39,2.43,2.43,0,0,1,1.33,1.65,6.32,6.32,0,0,1,.09,2.17c-.31,3.48-1.36,7.56-3.31,9.12" style="fill:#263238"></path><path d="M431.5,357.78a2.54,2.54,0,0,1,.06.63c0,.46,0,1.06.07,1.8s.05,1.75,0,2.87,0,2.38-.07,3.79c-.08,2.81-.32,6.15-.72,9.84s-1.05,7.74-1.92,11.94-1.95,8.15-3,11.7-2.24,6.7-3.29,9.31c-.5,1.31-1,2.47-1.46,3.5s-.84,1.9-1.19,2.6-.58,1.22-.78,1.63a3.48,3.48,0,0,1-.31.56,5.38,5.38,0,0,1,.22-.6c.18-.42.42-1,.71-1.66s.7-1.6,1.11-2.63.91-2.2,1.39-3.52c1-2.61,2.1-5.77,3.19-9.31s2.11-7.49,3-11.68,1.49-8.21,1.95-11.89.69-7,.81-9.81c.1-1.39.1-2.66.14-3.78s.05-2.07,0-2.85,0-1.35,0-1.81A3.91,3.91,0,0,1,431.5,357.78Z" style="fill:#455a64"></path><path d="M430.4,378.19a10.53,10.53,0,0,0-2.52-6.62,2.5,2.5,0,0,0-2.08-1.1c-1.09.15-1.58,1.45-1.62,2.55a7.76,7.76,0,0,0,1.74,5.12,6.55,6.55,0,0,0,4.21,2.6" style="fill:#455a64"></path><path d="M428,391.45c.13-2.85-.78-7.25-2.45-9.57a3.19,3.19,0,0,0-.94-1,1.38,1.38,0,0,0-1.29-.12,1.94,1.94,0,0,0-.82,1.66,11.13,11.13,0,0,0,5.36,10.4" style="fill:#455a64"></path><path d="M424.91,402.81a16.14,16.14,0,0,0-3-7.89,2.51,2.51,0,0,0-1.55-1.18c-1-.13-1.81.9-2,1.89-.46,2,.56,4.11,1.73,5.83a21.45,21.45,0,0,0,3.89,3.86" style="fill:#455a64"></path><path d="M422.11,410.8a15.51,15.51,0,0,0-2.73-6.21,3.32,3.32,0,0,0-1.1-1,1.35,1.35,0,0,0-1.41.08c-.63.49-.49,1.47-.22,2.22a12.76,12.76,0,0,0,4.68,6.4" style="fill:#455a64"></path><path d="M423.36,407.59a49.88,49.88,0,0,1,8.07-4.29,1.44,1.44,0,0,1,1.36-.08,1,1,0,0,1,.3,1,2.6,2.6,0,0,1-.55.95,12.43,12.43,0,0,1-10,4.12" style="fill:#455a64"></path><path d="M426.48,397l6.64-4.33a6.15,6.15,0,0,1,2-1,1.83,1.83,0,0,1,2.1,2.76,5.31,5.31,0,0,1-1.55,1.62,14.69,14.69,0,0,1-4.66,2.61,6.17,6.17,0,0,1-4.81,0" style="fill:#455a64"></path><path d="M429.55,385a17.46,17.46,0,0,1,7.12-5.72,2.88,2.88,0,0,1,1.48-.34,2.21,2.21,0,0,1,1.72,2.24,4.14,4.14,0,0,1-1.45,3,8.77,8.77,0,0,1-3,1.67,20.24,20.24,0,0,1-6.25,1.19" style="fill:#455a64"></path><path d="M431,373.86c1.54-3.24,4.19-5.5,7.11-7.6a2.16,2.16,0,0,1,2.08-.53,1.42,1.42,0,0,1,.73,1.18,3.4,3.4,0,0,1-.23,1.41,11,11,0,0,1-9.76,7.21" style="fill:#455a64"></path><path d="M431.32,368.06a29.09,29.09,0,0,0,1.83-5.19,9.82,9.82,0,0,0-.19-5.43,4.25,4.25,0,0,0-1.31-1.94,2.3,2.3,0,0,0-2.22-.39,2.44,2.44,0,0,0-1.33,1.65,6.14,6.14,0,0,0-.09,2.18c.3,3.48,1.36,7.56,3.31,9.12" style="fill:#455a64"></path><path d="M373,418v8.37a3.3,3.3,0,0,0,3.3,3.3h57.32a3.29,3.29,0,0,0,3.29-3.3V418Z" style="fill:#415BB2"></path><g style="opacity:0.4"><polygon points="377.97 429.62 378.45 432.29 431.33 436.06 432.67 429.62 377.97 429.62"></polygon></g></g><g id="freepik--Floor--inject-8"><path d="M461.83,471.58c0,.14-94.85.26-211.82.26s-211.84-.12-211.84-.26,94.83-.26,211.84-.26S461.83,471.44,461.83,471.58Z" style="fill:#263238"></path></g><g id="freepik--Character--inject-8"><path d="M289.67,381.37s1.43-27.73,3.41-35.61c1.47-5.85-.92-9.64-.92-9.64l6.54-44.05-3.76-1.2c-2.08,12.6-37,30.27-46,28.38-11.33-2.38-45.75-25.13-45.75-25.13l-4.7,1.42,14,86.28c-3.47,9-8.08,21.54-8.09,25.28,0,0,32.54,6.27,38.06,7.18,13.39,2.2,28-1.8,29.29-2.13s24.19-8.35,24.19-8.35l5.16-5.39Z" style="fill:#415BB2"></path><path d="M235.66,363.14c-.28.15-1.14.34-2,.78-.21.1-.65.24-.84.12s-.38,0-.47-.32a.56.56,0,0,0,0-.12c0-.06-.1-.09-.09-.17,0-.39-.25-.6.91-.87a5.23,5.23,0,0,1,2.28-.25c.31,0,.87.11.72.39a.64.64,0,0,1-.36.38Z" style="fill:#fff"></path><path d="M227.64,363.19a7.08,7.08,0,0,1,1.58-.27,1.11,1.11,0,0,1,.57.07.32.32,0,0,1,.2.26c0,.26.11.33,0,.47s-.26.21-1.08.53c-1.2.47-.88.45-1.66.56-.24,0-.19-.22-.47-.33-.1,0,0-.13-.15-.14s-.09-.09-.09-.18-.09-.17,0-.23.12-.26.25-.34A1.58,1.58,0,0,1,227.64,363.19Z" style="fill:#fff"></path><path d="M235.9,371c-.84.21-2.72,1.6-3.3.31-.52-1.13,1.92-1.1,2.41-1.13.18,0,.89,0,1,0a.33.33,0,0,1,.2.58A2.57,2.57,0,0,1,235.9,371Z" style="fill:#fff"></path><path d="M232.63,366.82a12.37,12.37,0,0,1,3.41-.49c.14,0,.26.05.29.21.11.43-.29.52-.72.64-1.14.33-3,1.07-3.2.49-.08-.24-.44-.26-.15-.6A.57.57,0,0,1,232.63,366.82Z" style="fill:#fff"></path><path d="M221.92,373.33a11.34,11.34,0,0,1,2.3-.54l.73,0c.12,0,.33.11.33.2a.45.45,0,0,1-.12.33,8.85,8.85,0,0,1-2.51,1.22,1.94,1.94,0,0,1-.33.07.49.49,0,0,1-.24-.08.63.63,0,0,1-.38-.26c-.11-.17,0-.11,0-.41S221.73,373.45,221.92,373.33Z" style="fill:#fff"></path><path d="M220.38,370.59c-.35.16-.13.13-.56.19a.11.11,0,0,1-.08,0c-.07-.1-.2-.08-.27-.17l-.18-.21c-.07-.08-.14-.31,0-.4s.06-.22.16-.29-.08-.06,0-.16a.61.61,0,0,1,.26-.15c.29-.07.57-.18.86-.27a7.35,7.35,0,0,1,2.23-.38c.23,0,.33.36-.08.57-1.16.57-1.63.92-2.36,1.26Z" style="fill:#fff"></path><path d="M229.51,373.11a3.62,3.62,0,0,0,.51-.05c.71-.15.79.58.34.8s-2.08.76-2.09.77a1,1,0,0,1-.86-.06.14.14,0,0,1-.09-.08c-.14-.3-.18-.46.07-.65A3.66,3.66,0,0,1,229.51,373.11Z" style="fill:#fff"></path><path d="M220.94,365.87c-.2.11-.4.2-.61.29-.51.25-.84.44-1.3.1-.07-.05-.17-.09-.18-.17,0-.35.05-.43.13-.51a11.75,11.75,0,0,1,3-.83.19.19,0,0,1,.23.14s0,0,0,0a1.38,1.38,0,0,1-.08.29.33.33,0,0,1-.17.16C221.77,365.46,221.29,365.67,220.94,365.87Z" style="fill:#fff"></path><path d="M230.77,360.1c-1.25.54-1.42.51-1.76.16-.16-.17,0-.23,0-.53a.31.31,0,0,1,.23-.34,7.42,7.42,0,0,1,2.38-.2c.27,0,.26-.1.52.05a.19.19,0,0,1,0,.33A5.74,5.74,0,0,1,230.77,360.1Z" style="fill:#fff"></path><path d="M227,368.05s-1.12.48-1.27-.07c-.1-.38-.19-.37-.1-.53.27-.51,2.66-1,3.31-.83.16,0,.14.29.08.31s-.24.21-.39.26a2.85,2.85,0,0,0-.45.25C227.69,367.71,227.19,367.86,227,368.05Z" style="fill:#fff"></path><path d="M223.44,361.59a6.35,6.35,0,0,1,2.19-.29c.13,0,.17.06.18.2s.14.3-.06.37a11.27,11.27,0,0,0-1.16.41l-.3.12c-.4.15-.83.43-1.06.36s-.38,0-.43-.25-.3-.27-.09-.64C222.8,361.71,223.32,361.61,223.44,361.59Z" style="fill:#fff"></path><path d="M232.79,374.51a6.29,6.29,0,0,1,2.18-.29c.13,0,.18.07.18.2s.14.3-.05.37a10.5,10.5,0,0,0-1.16.41,1.66,1.66,0,0,1-.31.12c-.39.15-.82.43-1,.36s-.38,0-.43-.25-.31-.27-.1-.64C232.15,374.63,232.66,374.54,232.79,374.51Z" style="fill:#fff"></path><path d="M216.1,368.36a6.29,6.29,0,0,1,2.18-.29c.13,0,.18.06.18.2s.14.3-.05.37a10.5,10.5,0,0,0-1.16.41,2.85,2.85,0,0,1-.31.12c-.39.15-.82.43-1.05.36s-.38,0-.43-.25-.31-.27-.1-.64C215.46,368.48,216,368.38,216.1,368.36Z" style="fill:#fff"></path><path d="M229.25,370.53a1.78,1.78,0,0,1-.9.24c-.18,0-.28-.12-.4-.21s0-.08,0-.12c-.08-.68,0-.51,1.55-.93a2.84,2.84,0,0,1,1.37-.15.18.18,0,0,1,.12.32l-.29.21C230.48,370,229.7,370.29,229.25,370.53Z" style="fill:#fff"></path><path d="M218,373.63a1.78,1.78,0,0,1-.9.24c-.18,0-.28-.12-.4-.21s0-.08-.05-.12c-.08-.69,0-.52,1.55-.94a2.75,2.75,0,0,1,1.37-.14.18.18,0,0,1,.12.32l-.29.21C219.21,373.09,218.43,373.38,218,373.63Z" style="fill:#fff"></path><path d="M274.27,383.69c0,.31-.18,1.17-.17,2.13a1.14,1.14,0,0,1-.26.82c-.11.07-.17.33-.49.27h-.12c-.07,0-.13.05-.19,0-.35-.19-.66,0-.39-1.2a5.25,5.25,0,0,1,.77-2.16c.17-.27.48-.73.67-.48a.63.63,0,0,1,.19.49A.53.53,0,0,0,274.27,383.69Z" style="fill:#fff"></path><path d="M270.82,390.92a7.81,7.81,0,0,1,.45-1.54,1.08,1.08,0,0,1,.31-.48.29.29,0,0,1,.32-.06c.24.08.35,0,.41.22s.08.32,0,1.2c-.1,1.28,0,1-.22,1.74-.07.24-.28.08-.5.28s-.12-.06-.19.07-.12,0-.21,0-.18,0-.22-.07-.18-.22-.2-.38A1.62,1.62,0,0,1,270.82,390.92Z" style="fill:#fff"></path><path d="M281.48,386.91c-.19.85.25,3.14-1.17,3.11-1.24,0-.16-2.21,0-2.67.07-.17.39-.8.45-.9a.33.33,0,0,1,.61.07C281.45,386.65,281.45,386.78,281.48,386.91Z" style="fill:#fff"></path><path d="M276.27,388a11.94,11.94,0,0,1,1.05-3.28c.07-.12.15-.21.31-.18.43.09.34.5.26.94-.2,1.17-.35,3.16-.95,3.09-.26,0-.43.28-.61-.13A.54.54,0,0,1,276.27,388Z" style="fill:#fff"></path><path d="M277.45,400.49a11.21,11.21,0,0,1,.52-2.3l.28-.67c.05-.11.24-.26.32-.21a.47.47,0,0,1,.25.25,9.13,9.13,0,0,1,0,2.79,1.24,1.24,0,0,1-.09.33c0,.09-.11.12-.17.18a.68.68,0,0,1-.4.23c-.2,0-.08-.09-.39-.15S277.47,400.72,277.45,400.49Z" style="fill:#fff"></path><path d="M274.31,400.69c0,.38.06.17-.07.58,0,0,0,.07,0,.07s-.16.15-.27.18l-.27.07c-.1,0-.33,0-.35-.18s-.18-.15-.2-.27-.08,0-.13-.09a.51.51,0,0,1,0-.3,8.66,8.66,0,0,0,.12-.89,7.62,7.62,0,0,1,.64-2.17c.11-.21.47-.14.47.32,0,1.29.12,1.87.11,2.68Z" style="fill:#fff"></path><path d="M280.56,393.57a3.54,3.54,0,0,0,.18-.48c.17-.7.87-.46.87,0s-.22,2.21-.22,2.22a1,1,0,0,1-.43.75.15.15,0,0,1-.11,0c-.33,0-.5,0-.55-.34A3.59,3.59,0,0,1,280.56,393.57Z" style="fill:#fff"></path><path d="M270.31,398.13c0,.22,0,.44,0,.67,0,.56,0,.95-.48,1.21-.08,0-.16.11-.24.09-.33-.11-.36-.23-.39-.34a11.07,11.07,0,0,1,.54-3,.18.18,0,0,1,.22-.15h0a2.36,2.36,0,0,1,.23.2.32.32,0,0,1,.07.23C270.3,397.2,270.28,397.72,270.31,398.13Z" style="fill:#fff"></path><path d="M269.41,386.76c-.06,1.37-.16,1.5-.63,1.65-.22.07-.2-.12-.47-.25a.32.32,0,0,1-.2-.36,7.4,7.4,0,0,1,.86-2.23c.14-.23,0-.28.27-.45a.2.2,0,0,1,.31.14A5.75,5.75,0,0,1,269.41,386.76Z" style="fill:#fff"></path><path d="M274.89,393.66s-.05,1.23-.62,1.12c-.38-.07-.41,0-.52-.14-.34-.47.24-2.85.7-3.34.11-.13.33,0,.32.06s.08.3.06.46a3,3,0,0,0,0,.52C274.91,392.86,274.83,393.37,274.89,393.66Z" style="fill:#fff"></path><path d="M267.55,394a6.33,6.33,0,0,1,.69-2.09c.08-.11.14-.13.26-.08s.33,0,.31.22a10.15,10.15,0,0,0-.13,1.22c0,.11,0,.22,0,.33,0,.42,0,.92-.14,1.1s-.19.33-.41.28-.38.16-.62-.2C267.38,394.63,267.52,394.12,267.55,394Z" style="fill:#fff"></path><path d="M283.25,391.23a6.44,6.44,0,0,1,.7-2.09c.07-.11.13-.13.26-.07s.33,0,.3.21a10.15,10.15,0,0,0-.13,1.22c0,.11,0,.22,0,.33,0,.42,0,.92-.13,1.1s-.2.33-.42.28-.37.16-.61-.2C283.08,391.86,283.22,391.36,283.25,391.23Z" style="fill:#fff"></path><path d="M270.43,403.56a6.44,6.44,0,0,1,.7-2.09c.07-.11.13-.13.26-.07s.33,0,.31.21-.14.86-.14,1.22c0,.11,0,.22,0,.33,0,.42,0,.93-.14,1.1s-.2.33-.42.28-.37.16-.61-.19C270.26,404.19,270.4,403.69,270.43,403.56Z" style="fill:#fff"></path><path d="M278.13,392.68a1.69,1.69,0,0,1-.18.91c-.08.17-.23.2-.37.27a.13.13,0,0,1-.12,0c-.65-.23-.48-.2-.17-1.79a2.92,2.92,0,0,1,.47-1.31.18.18,0,0,1,.34,0,2.25,2.25,0,0,1,.06.36C278.18,391.33,278.1,392.17,278.13,392.68Z" style="fill:#fff"></path><path d="M276,404.17a1.85,1.85,0,0,1-.18.92c-.08.16-.23.2-.37.27a.17.17,0,0,1-.12,0c-.65-.22-.48-.19-.17-1.79a3,3,0,0,1,.47-1.31.18.18,0,0,1,.34,0c0,.12,0,.24.06.36S276,403.66,276,404.17Z" style="fill:#fff"></path><path d="M227.77,400.47c.31.06,1.11.43,2.06.61.23,0,.66.21.74.42s.29.24.17.53c0,0,0,.08,0,.13s0,.13,0,.18c-.27.3-.18.64-1.26.13a5,5,0,0,1-2-1.19c-.22-.22-.61-.62-.33-.75a.63.63,0,0,1,.52-.08Z" style="fill:#fff"></path><path d="M234.15,405.33a8.5,8.5,0,0,1-1.42-.75,1.05,1.05,0,0,1-.4-.41.29.29,0,0,1,0-.32c.13-.22.12-.33.3-.36.33-.06.34,0,1.18.24,1.23.36,1,.18,1.66.57.21.12,0,.29.17.54s-.08.1,0,.21,0,.12,0,.2,0,.18-.11.2-.25.13-.41.12A1.62,1.62,0,0,1,234.15,405.33Z" style="fill:#fff"></path><path d="M232.39,394.08c.8.35,3.13.4,2.81,1.77-.28,1.21-2.2-.29-2.6-.58-.15-.1-.71-.54-.79-.62a.33.33,0,0,1,.2-.59C232.14,394.05,232.26,394.08,232.39,394.08Z" style="fill:#fff"></path><path d="M232.42,399.4a12,12,0,0,1-3-1.69.28.28,0,0,1-.11-.34c.18-.41.55-.23,1-.07,1.11.44,3,1,2.83,1.57-.08.24.19.48-.24.57A.57.57,0,0,1,232.42,399.4Z" style="fill:#fff"></path><path d="M244.87,400.79a11.35,11.35,0,0,1-2.15-1c-.2-.13-.39-.28-.6-.41s-.2-.29-.14-.35.16-.18.3-.19a9,9,0,0,1,2.73.56,1.05,1.05,0,0,1,.3.15c.09,0,.11.14.15.21a.68.68,0,0,1,.14.44c0,.2-.1.06-.22.35S245.09,400.82,244.87,400.79Z" style="fill:#fff"></path><path d="M244.42,403.9c.37.09.18,0,.56.19,0,0,.06,0,.06.06s.11.18.12.29,0,.19,0,.28-.07.33-.24.31-.19.15-.31.14,0,.09-.12.11a.48.48,0,0,1-.29,0c-.27-.12-.57-.2-.85-.3a7.51,7.51,0,0,1-2-1.07c-.19-.15-.05-.49.41-.4,1.26.25,1.85.26,2.64.44Z" style="fill:#fff"></path><path d="M238.73,396.33c-.18-.09-.19-.15-.44-.27-.65-.31-.27-.94.23-.84s2.11.67,2.12.67a1,1,0,0,1,.64.56.15.15,0,0,1,0,.13c-.06.32-.13.48-.44.47A3.67,3.67,0,0,1,238.73,396.33Z" style="fill:#fff"></path><path d="M241.1,407.3c.22,0,.44.09.66.14.55.12.93.16,1.09.71,0,.09.08.18,0,.25-.17.31-.29.31-.41.32a11.58,11.58,0,0,1-2.85-1.14.2.2,0,0,1-.1-.25.05.05,0,0,1,0,0,2.23,2.23,0,0,1,.24-.19.36.36,0,0,1,.23,0C240.19,407.12,240.69,407.24,241.1,407.3Z" style="fill:#fff"></path><path d="M229.79,405.86c1.32.34,1.43.46,1.49,1,0,.22-.16.17-.35.4a.3.3,0,0,1-.38.12,7.1,7.1,0,0,1-2-1.29c-.21-.18-.27-.08-.39-.36a.2.2,0,0,1,.2-.27A5.87,5.87,0,0,1,229.79,405.86Z" style="fill:#fff"></path><path d="M237.66,401.9s1.19.31,1,.84c-.15.35-.08.4-.24.48-.53.24-2.74-.82-3.13-1.36-.1-.14.06-.33.13-.31s.31,0,.46,0a3,3,0,0,0,.51.09C236.88,401.72,237.36,401.91,237.66,401.9Z" style="fill:#fff"></path><path d="M236.5,409.16a6.33,6.33,0,0,1-1.91-1.1.19.19,0,0,1,0-.28c.1-.14.07-.32.27-.25s.82.31,1.17.38c.11,0,.21.06.32.09.4.13.91.17,1,.36s.28.26.19.46.08.4-.32.57C237.08,409.46,236.61,409.22,236.5,409.16Z" style="fill:#fff"></path><path d="M237,393.22a6.33,6.33,0,0,1-1.91-1.1c-.09-.1-.1-.16,0-.27s.07-.33.27-.26a11.62,11.62,0,0,0,1.17.38c.11,0,.21.06.32.09.4.13.91.17,1.05.36s.28.26.19.47.08.39-.32.56C237.57,393.52,237.1,393.28,237,393.22Z" style="fill:#fff"></path><path d="M246.45,408.29a6.36,6.36,0,0,1-1.91-1.11.17.17,0,0,1,0-.27c.1-.14.07-.32.27-.26A11.62,11.62,0,0,0,246,407c.11,0,.21.06.32.09.4.13.91.17,1.05.36s.28.26.19.47.08.39-.32.56C247,408.58,246.56,408.34,246.45,408.29Z" style="fill:#fff"></path><path d="M237.36,398.53a1.82,1.82,0,0,1,.86.36.68.68,0,0,1,.19.42s0,.08,0,.12c-.35.59-.29.42-1.79-.2a2.86,2.86,0,0,1-1.18-.73.18.18,0,0,1,.1-.33l.36,0C236.05,398.21,236.86,398.45,237.36,398.53Z" style="fill:#fff"></path><path d="M248.18,403a1.87,1.87,0,0,1,.86.36.68.68,0,0,1,.19.42s0,.08,0,.12c-.36.59-.29.42-1.79-.21a3,3,0,0,1-1.19-.72.19.19,0,0,1,.1-.33l.37,0C246.87,402.64,247.67,402.88,248.18,403Z" style="fill:#fff"></path><path d="M198.46,295.55h0C198.44,295.45,198.44,295.46,198.46,295.55Z" style="fill:#415BB2"></path><path d="M198.46,295.55c-.28.2-10.48,7.9-18.9,32.74a205.91,205.91,0,0,0-6.82,24.22l34.64,1.12,3.48-14.77C210,336.72,198.89,297.45,198.46,295.55Z" style="fill:#415BB2"></path><path d="M210.88,338.77l0,.09C210.91,339,210.92,339,210.88,338.77Z" style="fill:#415BB2"></path><path d="M298.39,291.84a53,53,0,0,1,17.2,24.1,157.4,157.4,0,0,1,7.46,28.7l-30.25,3.23-3.11-13.47Z" style="fill:#415BB2"></path><g style="opacity:0.30000000000000004"><path d="M261.53,330.86c-.81-5.4-6.22-9.34-11.67-9.61s-10.7,2.52-14.59,6.34-6.67,8.62-9.38,13.35c-5.76,10-9.67,17.47-15.43,27.51L211,373a67.6,67.6,0,0,0,16.22-19.81c2-3.58,3.75-7.38,6.42-10.5s6.58-5.55,10.68-5.21c3,.24,6.42,1.77,8.66-.22.9-.8,1.45-2.1,2.61-2.43s2.5.59,3.75.39C261.16,335,261.8,332.66,261.53,330.86Z"></path></g><g style="opacity:0.30000000000000004"><path d="M218.15,399.57a58.93,58.93,0,0,0,36.35,4.76c3.06-.59,6.19-1.49,8.49-3.58,1.38-1.26,2.4-2.9,3.9-4,2.56-1.9,6.09-1.93,9.19-1.17s6,2.21,9.07,3.06,7.37.63,10.08-1c-9.39-4.18-19.58-8-29-12.14a4.61,4.61,0,0,0-2.42-.58c-1.26.17-2.12,1.32-3,2.28-3.42,3.86-8.62,5.7-13.73,6.41s-10.31.41-15.45.8-10.43,1.55-14.51,4.72"></path></g><path d="M194.59,332.51c0-.31.28-1.15.35-2.11,0-.24.13-.68.33-.79s.2-.32.51-.23l.12,0c.07,0,.13,0,.19,0,.33.23.65.1.28,1.23a5.14,5.14,0,0,1-.94,2.09c-.2.25-.54.69-.71.42a.65.65,0,0,1-.15-.5S194.58,332.55,194.59,332.51Z" style="fill:#fff"></path><path d="M198.64,325.6a10,10,0,0,1-.57,1.49,1.06,1.06,0,0,1-.36.45.29.29,0,0,1-.32,0c-.24-.1-.34-.08-.4-.25s0-.34.1-1.21c.21-1.26.06-1,.36-1.71.1-.23.29-.05.52-.23s.12.07.21-.06.12,0,.2,0,.19,0,.21.09.16.24.17.39A1.62,1.62,0,0,1,198.64,325.6Z" style="fill:#fff"></path><path d="M187.68,328.7c.26-.84,0-3.16,1.43-3,1.23.13,0,2.21-.27,2.65-.08.16-.45.76-.52.86a.34.34,0,0,1-.61-.13C187.68,329,187.7,328.82,187.68,328.7Z" style="fill:#fff"></path><path d="M193,328a12.19,12.19,0,0,1-1.33,3.18.28.28,0,0,1-.32.15c-.42-.13-.3-.52-.18-1,.3-1.15.61-3.12,1.21-3,.25,0,.45-.25.6.17A.64.64,0,0,1,193,328Z" style="fill:#fff"></path><path d="M192.85,315.5a11.41,11.41,0,0,1-.72,2.25c-.11.22-.23.43-.34.64s-.26.24-.33.19a.46.46,0,0,1-.23-.28,9,9,0,0,1,.23-2.78,1.66,1.66,0,0,1,.12-.31c0-.09.12-.12.18-.17a.67.67,0,0,1,.42-.2c.21,0,.08.1.38.18S192.84,315.27,192.85,315.5Z" style="fill:#fff"></path><path d="M196,315.57c0-.38-.05-.17.12-.58a.21.21,0,0,1,0-.07c.12,0,.17-.13.28-.14l.28,0c.1,0,.33,0,.34.2s.16.17.17.29.09,0,.12.1a.51.51,0,0,1,0,.3c-.09.29-.13.58-.2.88a7.94,7.94,0,0,1-.81,2.11c-.13.2-.49.1-.45-.36.09-1.29,0-1.87.11-2.68Z" style="fill:#fff"></path><path d="M189.16,322.13a4.32,4.32,0,0,0-.22.47c-.23.68-.9.38-.87-.12a22.19,22.19,0,0,1,.42-2.19,1,1,0,0,1,.48-.71.13.13,0,0,1,.12,0c.33,0,.49.07.52.38A3.64,3.64,0,0,1,189.16,322.13Z" style="fill:#fff"></path><path d="M199.76,318.46a5.05,5.05,0,0,1,.06-.67c.05-.56.05-1,.58-1.17.07,0,.16-.1.24-.07.32.14.34.26.37.38a11.75,11.75,0,0,1-.8,3,.19.19,0,0,1-.24.13h0a1.52,1.52,0,0,1-.22-.22.3.3,0,0,1,0-.23C199.69,319.39,199.75,318.87,199.76,318.46Z" style="fill:#fff"></path><path d="M199.69,329.86c.18-1.35.29-1.48.77-1.59.22-.06.19.13.44.29a.31.31,0,0,1,.17.37,7.15,7.15,0,0,1-1,2.15c-.15.22,0,.28-.31.42a.19.19,0,0,1-.29-.15A6.12,6.12,0,0,1,199.69,329.86Z" style="fill:#fff"></path><path d="M194.82,322.52s.15-1.22.71-1.06c.37.1.41,0,.5.18.31.5-.48,2.82-1,3.27-.13.12-.33,0-.32-.09s-.05-.3,0-.46a3,3,0,0,0,0-.52C194.73,323.32,194.85,322.82,194.82,322.52Z" style="fill:#fff"></path><path d="M202.16,322.8a6.23,6.23,0,0,1-.87,2,.17.17,0,0,1-.26.05c-.16-.08-.33,0-.29-.24s.21-.85.24-1.2a1.88,1.88,0,0,1,.05-.33c.07-.41.06-.92.23-1.09s.22-.31.44-.24.38-.12.59.25C202.38,322.19,202.2,322.68,202.16,322.8Z" style="fill:#fff"></path><path d="M186.28,324.24a6.41,6.41,0,0,1-.87,2c-.08.1-.14.12-.27.05s-.32,0-.28-.23a12,12,0,0,0,.23-1.21,3,3,0,0,1,.06-.32c.07-.42,0-.93.23-1.09s.22-.31.44-.25.38-.12.59.25C186.5,323.62,186.32,324.11,186.28,324.24Z" style="fill:#fff"></path><path d="M200.1,313a6.69,6.69,0,0,1-.87,2,.18.18,0,0,1-.27.05c-.16-.09-.33,0-.29-.24a11.2,11.2,0,0,0,.24-1.21c0-.11,0-.21.05-.32.08-.42.06-.92.23-1.09s.23-.31.44-.24.38-.13.6.25C200.32,312.42,200.13,312.91,200.1,313Z" style="fill:#fff"></path><path d="M191.5,323.23a1.81,1.81,0,0,1,.26-.9c.09-.16.25-.18.39-.24a.25.25,0,0,1,.12,0c.63.29.46.24,0,1.81a2.92,2.92,0,0,1-.58,1.26.18.18,0,0,1-.34-.06c0-.12,0-.24,0-.36S191.49,323.74,191.5,323.23Z" style="fill:#fff"></path><path d="M194.6,312a1.9,1.9,0,0,1,.25-.9c.09-.16.25-.18.39-.24a.3.3,0,0,1,.13,0c.62.29.45.24,0,1.81a3.14,3.14,0,0,1-.57,1.26.18.18,0,0,1-.34-.06,2.22,2.22,0,0,1,0-.37C194.44,313.29,194.58,312.47,194.6,312Z" style="fill:#fff"></path><path d="M279.87,329.14c-.28.14-1.14.34-2,.77a1.16,1.16,0,0,1-.84.13c-.12-.08-.38,0-.46-.32,0-.05,0-.09-.05-.13s-.1-.08-.09-.16c0-.4-.25-.61.91-.87a5.08,5.08,0,0,1,2.28-.25c.31,0,.87.11.72.39a.63.63,0,0,1-.35.38A.45.45,0,0,0,279.87,329.14Z" style="fill:#fff"></path><path d="M271.85,329.18a7.16,7.16,0,0,1,1.58-.26,1,1,0,0,1,.57.07.32.32,0,0,1,.2.26c0,.25.11.33,0,.47s-.26.21-1.08.53c-1.2.47-.88.45-1.66.56-.24,0-.19-.22-.47-.33-.1,0,0-.13-.15-.14s-.09-.09-.09-.19-.09-.16,0-.22.13-.26.25-.34A1.63,1.63,0,0,1,271.85,329.18Z" style="fill:#fff"></path><path d="M280.11,337c-.84.2-2.71,1.6-3.3.31-.52-1.13,1.92-1.11,2.41-1.13.19,0,.89,0,1,0a.33.33,0,0,1,.2.59A2.57,2.57,0,0,1,280.11,337Z" style="fill:#fff"></path><path d="M276.84,332.82a12.37,12.37,0,0,1,3.41-.49c.14,0,.26.05.29.2.11.43-.29.53-.72.65-1.14.33-3,1.06-3.2.49-.08-.24-.44-.26-.15-.6A.57.57,0,0,1,276.84,332.82Z" style="fill:#fff"></path><path d="M266.13,339.32a12.44,12.44,0,0,1,2.3-.53l.73,0c.12,0,.33.11.33.19a.46.46,0,0,1-.12.34,9,9,0,0,1-2.51,1.22,1.28,1.28,0,0,1-.33.06c-.09,0-.16,0-.24-.07a.63.63,0,0,1-.38-.26c-.1-.17,0-.11,0-.42S265.94,339.44,266.13,339.32Z" style="fill:#fff"></path><path d="M264.59,336.59c-.34.16-.13.13-.56.19,0,0-.07,0-.08,0s-.2-.08-.27-.16l-.18-.21c-.07-.08-.14-.31,0-.4s.06-.23.16-.29-.08-.06,0-.16a.5.5,0,0,1,.26-.15c.29-.07.57-.19.86-.28a8.05,8.05,0,0,1,2.23-.38c.24,0,.33.37-.08.58-1.16.57-1.63.92-2.36,1.26Z" style="fill:#fff"></path><path d="M273.72,339.11c.2,0,.25,0,.51-.05.71-.15.79.58.34.8a21.82,21.82,0,0,1-2.09.76,1,1,0,0,1-.86-.05.16.16,0,0,1-.09-.09c-.14-.29-.18-.46.07-.64C272.05,339.51,272.21,339.35,273.72,339.11Z" style="fill:#fff"></path><path d="M265.15,331.87c-.2.11-.4.2-.61.29-.51.24-.84.44-1.3.1-.07-.05-.17-.09-.18-.17-.05-.35.05-.43.13-.51a11.75,11.75,0,0,1,3-.83.19.19,0,0,1,.23.14,0,0,0,0,1,0,0,1.47,1.47,0,0,1-.08.3.33.33,0,0,1-.17.16C266,331.45,265.5,331.67,265.15,331.87Z" style="fill:#fff"></path><path d="M275,326.1c-1.25.54-1.41.51-1.76.15-.16-.16,0-.23,0-.53a.3.3,0,0,1,.23-.33,7.42,7.42,0,0,1,2.38-.2c.27,0,.26-.1.52.05a.19.19,0,0,1,0,.33A5.6,5.6,0,0,1,275,326.1Z" style="fill:#fff"></path><path d="M271.16,334s-1.12.49-1.27-.07c-.1-.37-.18-.37-.1-.52.27-.52,2.66-1,3.31-.84.16.05.14.3.08.32s-.24.2-.39.26a2.85,2.85,0,0,0-.45.25C271.9,333.71,271.4,333.86,271.16,334Z" style="fill:#fff"></path><path d="M267.65,327.58a6.61,6.61,0,0,1,2.19-.28c.13,0,.18.06.18.2s.14.3-.06.37a11.27,11.27,0,0,0-1.16.41,2.68,2.68,0,0,1-.3.12c-.4.15-.83.42-1.06.36s-.38,0-.43-.25-.3-.27-.09-.64C267,327.71,267.53,327.61,267.65,327.58Z" style="fill:#fff"></path><path d="M277,340.51a6.29,6.29,0,0,1,2.18-.29c.13,0,.18.06.19.2s.14.3-.06.37a10.5,10.5,0,0,0-1.16.41,2.85,2.85,0,0,1-.31.12c-.39.15-.82.43-1,.36s-.38,0-.43-.25-.31-.27-.09-.64C276.36,340.63,276.87,340.53,277,340.51Z" style="fill:#fff"></path><path d="M260.31,334.35a6.55,6.55,0,0,1,2.18-.28c.13,0,.18.06.19.2s.14.3-.06.37a10.5,10.5,0,0,0-1.16.41,2.85,2.85,0,0,1-.31.12c-.39.15-.82.42-1,.36s-.38,0-.43-.25-.31-.27-.09-.64C259.67,334.48,260.18,334.38,260.31,334.35Z" style="fill:#fff"></path><path d="M273.46,336.53a1.86,1.86,0,0,1-.9.24c-.18,0-.28-.12-.4-.21s0-.08-.05-.12c-.07-.69,0-.52,1.55-.94a2.75,2.75,0,0,1,1.37-.14.18.18,0,0,1,.12.32l-.29.2C274.69,336,273.91,336.28,273.46,336.53Z" style="fill:#fff"></path><path d="M262.19,339.63a1.86,1.86,0,0,1-.9.24c-.18,0-.28-.12-.4-.22s0-.07-.05-.12c-.07-.68,0-.51,1.55-.93a3,3,0,0,1,1.37-.15.18.18,0,0,1,.13.32,2.73,2.73,0,0,1-.3.21C263.42,339.08,262.64,339.38,262.19,339.63Z" style="fill:#fff"></path><path d="M207.42,335a7.71,7.71,0,0,1-.21-1.36c-.1-.88-.28-2.15-.56-3.71a53.33,53.33,0,0,0-1.25-5.39,58,58,0,0,0-2.29-6.39,60.31,60.31,0,0,0-3.09-6,54.76,54.76,0,0,0-3.08-4.61c-.94-1.27-1.74-2.27-2.32-2.94a7.54,7.54,0,0,1-.85-1.09,7.58,7.58,0,0,1,1,.95,36.51,36.51,0,0,1,2.46,2.85,46.35,46.35,0,0,1,3.2,4.59,52.88,52.88,0,0,1,3.16,6.08,53.47,53.47,0,0,1,2.27,6.46,49.82,49.82,0,0,1,1.16,5.46,36.44,36.44,0,0,1,.39,3.75A6.63,6.63,0,0,1,207.42,335Z" style="fill:#263238"></path><path d="M302.38,316.44a2,2,0,0,1-.16.53c-.16.38-.34.86-.57,1.45-.51,1.25-1.22,3.08-2.06,5.35s-1.77,5-2.72,8-1.85,6.45-2.68,10.05c-1.65,7.19-2.6,13.82-3.23,18.61-.28,2.35-.52,4.28-.69,5.7-.08.62-.14,1.13-.19,1.54a1.83,1.83,0,0,1-.11.54,3.83,3.83,0,0,1,0-.55c0-.41.06-.93.1-1.55.09-1.36.27-3.31.53-5.72a163.48,163.48,0,0,1,3.08-18.69c.83-3.61,1.78-7,2.73-10.07s1.94-5.78,2.83-8,1.65-4.07,2.22-5.3c.27-.57.48-1,.66-1.42A2,2,0,0,1,302.38,316.44Z" style="fill:#263238"></path><path d="M318.14,336a11.31,11.31,0,0,1,2.3-.53l.73,0c.12,0,.33.11.32.19a.44.44,0,0,1-.11.33,9.27,9.27,0,0,1-2.51,1.23,1.28,1.28,0,0,1-.33.06c-.09,0-.17,0-.24-.07a.69.69,0,0,1-.38-.26c-.11-.18,0-.12,0-.42S318,336.11,318.14,336Z" style="fill:#fff"></path><path d="M316.6,333.25c-.35.17-.13.13-.56.2H316c-.07-.09-.2-.08-.27-.16a1.92,1.92,0,0,1-.18-.22c-.07-.08-.15-.3,0-.39s.06-.23.16-.3-.07-.05,0-.16a.51.51,0,0,1,.26-.14c.29-.07.57-.19.85-.28a7.79,7.79,0,0,1,2.24-.38c.23,0,.33.37-.09.57-1.15.57-1.62.93-2.36,1.27Z" style="fill:#fff"></path><path d="M317.16,328.54c-.2.11-.41.19-.61.29-.51.24-.84.44-1.3.1-.07-.05-.17-.09-.18-.18-.05-.34,0-.42.13-.5a11.23,11.23,0,0,1,3-.84.2.2,0,0,1,.23.14v0c0,.1,0,.2-.08.3a.31.31,0,0,1-.17.15C318,328.12,317.51,328.33,317.16,328.54Z" style="fill:#fff"></path><path d="M312.32,331a6.29,6.29,0,0,1,2.18-.29c.13,0,.18.07.18.21s.14.29-.05.36-.84.26-1.16.42c-.1,0-.21.08-.31.12-.4.15-.82.42-1.05.35s-.38,0-.44-.25-.3-.26-.09-.64C311.68,331.14,312.19,331.05,312.32,331Z" style="fill:#fff"></path><path d="M314.2,336.29a1.78,1.78,0,0,1-.9.24c-.18,0-.28-.12-.41-.21s0-.07,0-.12c-.08-.68,0-.51,1.54-.93a2.88,2.88,0,0,1,1.38-.15.18.18,0,0,1,.12.32,1.61,1.61,0,0,1-.3.21C315.43,335.75,314.65,336.05,314.2,336.29Z" style="fill:#fff"></path><path d="M244.55,343.87a11.34,11.34,0,0,1,2.3-.54l.73,0c.12,0,.33.1.33.19a.45.45,0,0,1-.12.33,8.85,8.85,0,0,1-2.51,1.22,1.94,1.94,0,0,1-.33.07c-.09,0-.17-.05-.24-.08a.63.63,0,0,1-.38-.26c-.11-.17,0-.11,0-.41S244.36,344,244.55,343.87Z" style="fill:#fff"></path><path d="M243,341.13c-.35.16-.13.13-.56.2h-.08c-.07-.1-.2-.08-.27-.17l-.18-.21c-.07-.08-.14-.31,0-.39s.06-.23.16-.3-.08-.06,0-.16a.61.61,0,0,1,.26-.15c.29-.07.57-.18.86-.27a7.35,7.35,0,0,1,2.23-.38c.23,0,.33.36-.08.57-1.16.57-1.63.92-2.36,1.27Z" style="fill:#fff"></path><path d="M243.57,336.41c-.2.11-.4.2-.61.29-.51.25-.84.45-1.3.1-.07-.05-.17-.09-.18-.17,0-.35.05-.43.13-.51a11.75,11.75,0,0,1,3-.83.19.19,0,0,1,.23.14s0,0,0,0a1.38,1.38,0,0,1-.08.29.33.33,0,0,1-.17.16C244.4,336,243.92,336.21,243.57,336.41Z" style="fill:#fff"></path><path d="M238.73,338.9a6.29,6.29,0,0,1,2.18-.29c.13,0,.18.06.18.2s.14.3-.05.37a10.5,10.5,0,0,0-1.16.41,2.85,2.85,0,0,1-.31.12c-.39.15-.82.43-1,.36s-.38,0-.43-.25-.31-.27-.09-.64C238.09,339,238.6,338.92,238.73,338.9Z" style="fill:#fff"></path><path d="M240.61,344.17a1.78,1.78,0,0,1-.9.24c-.18,0-.28-.12-.4-.21s0-.08-.05-.12c-.07-.68,0-.51,1.55-.94a2.75,2.75,0,0,1,1.37-.14.18.18,0,0,1,.12.32l-.29.21C241.84,343.63,241.06,343.92,240.61,344.17Z" style="fill:#fff"></path><path d="M212.59,315.29a11.39,11.39,0,0,1-2,1.17l-.69.25c-.11,0-.35,0-.37-.09a.5.5,0,0,1,0-.36,9.16,9.16,0,0,1,2.05-1.89,1.2,1.2,0,0,1,.3-.15c.08-.05.17,0,.25,0a.61.61,0,0,1,.44.14c.15.13,0,.12.16.38S212.74,315.12,212.59,315.29Z" style="fill:#fff"></path><path d="M214.86,317.46c.28-.25.08-.15.48-.34,0,0,.06,0,.08,0s.21,0,.31.08l.23.15c.09.06.22.26.11.38s0,.24-.06.33.08,0,0,.16a.56.56,0,0,1-.21.22c-.26.15-.49.34-.74.51a7.73,7.73,0,0,1-2,1c-.23.06-.42-.25-.08-.57.94-.88,1.29-1.35,1.89-1.89Z" style="fill:#fff"></path><path d="M215.68,322.14c.15-.16.33-.3.5-.45.42-.38.68-.66,1.22-.47.08,0,.18,0,.22.12.15.31.08.42,0,.52a12,12,0,0,1-2.59,1.65.21.21,0,0,1-.27-.07l0,0c0-.1,0-.21,0-.31a.35.35,0,0,1,.12-.2C215,322.78,215.4,322.44,215.68,322.14Z" style="fill:#fff"></path><path d="M219.6,318.37a6.19,6.19,0,0,1-2,.91c-.13,0-.19,0-.23-.14s-.22-.25-.05-.37.73-.49,1-.73a1.64,1.64,0,0,1,.26-.2c.33-.26.67-.65.9-.65s.38-.08.49.12.37.16.27.58C220.18,318.07,219.71,318.31,219.6,318.37Z" style="fill:#fff"></path><path d="M216.28,313.86a2.06,2.06,0,0,1,.8-.49.67.67,0,0,1,.44.09.23.23,0,0,1,.08.11c.27.63.18.48-1.21,1.33a2.82,2.82,0,0,1-1.28.54.18.18,0,0,1-.2-.27,3.15,3.15,0,0,1,.22-.29C215.26,314.74,215.92,314.23,216.28,313.86Z" style="fill:#fff"></path><path d="M288.33,311.32a11.79,11.79,0,0,1,0,2.36c0,.24-.09.47-.14.71s-.18.3-.26.28a.48.48,0,0,1-.3-.2,9.14,9.14,0,0,1-.59-2.72,1.88,1.88,0,0,1,0-.34c0-.09.08-.15.13-.22a.69.69,0,0,1,.34-.31c.19-.05.1.07.41.06S288.25,311.1,288.33,311.32Z" style="fill:#fff"></path><path d="M291.35,310.47c-.07-.38-.09-.16-.06-.59,0,0,0-.07,0-.08s.13-.17.23-.22l.24-.13c.1,0,.34-.06.39.09s.21.12.25.23.07-.06.15.06a.6.6,0,0,1,.08.29c0,.3,0,.6.06.9a7.36,7.36,0,0,1-.16,2.25c-.06.23-.43.24-.53-.21-.28-1.26-.51-1.8-.67-2.59Z" style="fill:#fff"></path><path d="M295.8,312.13c-.06-.22-.1-.44-.14-.66-.11-.55-.23-.92.21-1.29.07-.05.13-.14.22-.13.34,0,.4.15.46.25a11.45,11.45,0,0,1,.1,3.07.19.19,0,0,1-.18.19h0a2.49,2.49,0,0,1-.28-.15.28.28,0,0,1-.1-.2C296,313,295.91,312.52,295.8,312.13Z" style="fill:#fff"></path><path d="M294.54,306.84a6.54,6.54,0,0,1-.24,2.19c-.05.12-.11.16-.24.13s-.33.06-.35-.15a11.51,11.51,0,0,0-.12-1.22c0-.11,0-.22,0-.32-.05-.42-.21-.91-.1-1.11s.13-.36.35-.36.33-.24.64.06C294.57,306.19,294.54,306.71,294.54,306.84Z" style="fill:#fff"></path><path d="M289,307.42a1.76,1.76,0,0,1,0-.94c0-.17.18-.24.3-.34a.18.18,0,0,1,.13,0c.68.09.5.09.54,1.72a2.82,2.82,0,0,1-.19,1.37.18.18,0,0,1-.34,0c-.05-.11-.09-.22-.13-.33S289.1,307.91,289,307.42Z" style="fill:#fff"></path><g style="opacity:0.30000000000000004"><path d="M292.67,347.68A22.11,22.11,0,0,0,299.31,324a102.34,102.34,0,0,0-6.67,24.09"></path></g><path d="M204.35,407.1S172.09,393,162.66,392.65c-8.06-.26-21.9,3.36-25.87,11.91s-2.76,20.17,0,24.55,31.82,18.34,45.75,23.71,57.87,17.3,57.87,17.3l61.66-4s18.17-15.65,20.95-18.83,21.39-20.63,23.37-23.42,7.39-20.08,1.43-26.84S338,386,329.4,386.61s-14.42,1.64-25.21,9.52c-8.29,6.06-11.66,8.38-20.07,10.3s-24.94,6.82-38.34,5.72S204.35,407.1,204.35,407.1Z" style="fill:#263238"></path><path d="M174.08,405.24s.1,0,.28.11l.79.36,3,1.47,11,5.48c4.63,2.34,10.13,5.13,16.21,8.32l19.7,10.45,26.66,14.16.19.1-.09.19L243,463.49l-2.47,4.91-.66,1.28a4,4,0,0,1-.24.44,2.14,2.14,0,0,1,.18-.47c.15-.32.34-.76.6-1.31l2.36-5c2.1-4.29,5.06-10.37,8.63-17.68l.09.29-26.69-14.1c-7-3.71-13.67-7.21-19.69-10.48s-11.54-6-16.15-8.41l-10.91-5.63-3-1.55-.76-.42Z" style="fill:#455a64"></path><path d="M294.51,408.23s-.07.07-.22.17l-.67.45c-.59.4-1.47,1-2.62,1.67-2.31,1.41-5.66,3.43-10,5.56a81.9,81.9,0,0,1-15.86,6,65.05,65.05,0,0,1-9.89,1.75,72.63,72.63,0,0,1-10.77.16A97.07,97.07,0,0,1,224,420.4a166.67,166.67,0,0,1-16-5.51c-4.49-1.78-8.08-3.32-10.55-4.39l-2.85-1.26-.73-.34-.25-.13a1,1,0,0,1,.27.08l.75.29,2.89,1.17c2.5,1,6.11,2.5,10.61,4.24s9.9,3.69,16,5.39a97.82,97.82,0,0,0,20.37,3.56,72.93,72.93,0,0,0,10.69-.15,64.18,64.18,0,0,0,9.82-1.7,83.9,83.9,0,0,0,15.82-5.9c4.34-2.08,7.72-4.05,10.05-5.4l2.68-1.59.7-.4Z" style="fill:#455a64"></path><path d="M250.71,440.84a3.36,3.36,0,0,1-.22-1,26.05,26.05,0,0,1-.31-2.77,67.73,67.73,0,0,1,.06-9.19c.24-3.57.55-6.8.74-9.13a32.93,32.93,0,0,1,.35-3.79,3.76,3.76,0,0,1,.07,1c0,.65,0,1.6-.06,2.78-.09,2.35-.34,5.58-.58,9.15s-.3,6.79-.22,9.13S250.79,440.83,250.71,440.84Z" style="fill:#455a64"></path><path d="M244,420.8a27.68,27.68,0,0,1-2.17-1.8,31.36,31.36,0,0,0-11.92-6.13,25.34,25.34,0,0,1-2.73-.72,10.57,10.57,0,0,1,2.81.36A26.48,26.48,0,0,1,242,418.72,10.59,10.59,0,0,1,244,420.8Z" style="fill:#455a64"></path><path d="M281.06,409.16c0,.07-1.25.46-3.26,1.18a70.38,70.38,0,0,0-7.67,3.28,68.84,68.84,0,0,0-7.2,4.21c-1.78,1.19-2.85,2-2.9,1.92s.22-.26.68-.65,1.14-.93,2-1.57a52.51,52.51,0,0,1,15-7.54c1-.32,1.87-.55,2.46-.68A3,3,0,0,1,281.06,409.16Z" style="fill:#455a64"></path><path d="M317.89,393a4.47,4.47,0,0,1-.74.5L315,394.78c-.95.56-2.08,1.29-3.39,2.15s-2.82,1.81-4.43,2.94c-3.28,2.19-7.06,5-11.25,8.06s-8.72,6.61-13.47,10.3-9.31,7.17-13.49,10.29-8,5.86-11.29,8c-1.62,1.12-3.12,2.09-4.45,2.92s-2.47,1.56-3.43,2.1l-2.2,1.27a5.19,5.19,0,0,1-.78.41,7.33,7.33,0,0,1,.73-.5l2.15-1.35c.94-.57,2.07-1.3,3.37-2.17s2.8-1.84,4.41-3c3.25-2.22,7-5,11.2-8.12s8.7-6.64,13.46-10.33,9.31-7.16,13.5-10.27,8-5.82,11.33-8c1.63-1.11,3.14-2.06,4.48-2.88s2.48-1.54,3.45-2.07l2.21-1.25A8.36,8.36,0,0,1,317.89,393Z" style="fill:#455a64"></path><path d="M343.51,415.09s0,.08-.06.23-.12.39-.21.66a26.43,26.43,0,0,1-.92,2.48,40,40,0,0,1-4.85,8.45,42.13,42.13,0,0,1-4.41,5.1,48.75,48.75,0,0,1-5.88,5,58.44,58.44,0,0,1-15.75,8c-5.95,2.05-11.79,3.41-17.05,4.75s-10,2.45-14.06,3.29-7.31,1.4-9.58,1.73c-1.14.16-2,.28-2.63.34l-.68.07a.62.62,0,0,1-.24,0l.23-.06.68-.12,2.61-.44c2.26-.39,5.52-1,9.53-1.89s8.76-2.05,14-3.4,11.08-2.74,17-4.78a58.83,58.83,0,0,0,15.64-7.91,49.89,49.89,0,0,0,5.86-5,44.61,44.61,0,0,0,4.42-5,41.87,41.87,0,0,0,4.95-8.31c.49-1,.79-1.87,1-2.44l.25-.63A.7.7,0,0,1,343.51,415.09Z" style="fill:#455a64"></path><path d="M346.42,414.8a6.34,6.34,0,0,1-.5,2,20.85,20.85,0,0,1-2.27,4.46,20.45,20.45,0,0,1-3.28,3.78,6.15,6.15,0,0,1-1.67,1.22,46.34,46.34,0,0,0,4.52-5.29A45.85,45.85,0,0,0,346.42,414.8Z" style="fill:#455a64"></path><path d="M236.69,468.42a4.31,4.31,0,0,1,.13-1.05c.11-.68.31-1.65.58-2.84a76.07,76.07,0,0,1,2.75-9.14,75.31,75.31,0,0,1,3.89-8.72c.57-1.08,1.05-1.94,1.4-2.52a4.82,4.82,0,0,1,.6-.89c.07,0-.62,1.38-1.67,3.58s-2.44,5.26-3.73,8.73-2.25,6.71-2.88,9.05S236.77,468.44,236.69,468.42Z" style="fill:#455a64"></path><path d="M159.74,402.33a5.49,5.49,0,0,1,2-.69,14.49,14.49,0,0,1,5-.19,14.3,14.3,0,0,1,4.77,1.53,5.31,5.31,0,0,1,1.7,1.18,23.14,23.14,0,0,0-6.54-2.19A23.13,23.13,0,0,0,159.74,402.33Z" style="fill:#455a64"></path><path d="M185,453.29c-2.42,0-5.46,1.88-7,3.74a24,24,0,0,0-3.41,6.4c-.71,1.76-1.41,3.74-.7,5.51a5.23,5.23,0,0,0,4.25,2.89,18.59,18.59,0,0,0,5.35-.43c18.51-3.12,37.63,1.43,56.19-1.37Z" style="fill:#455a64"></path><path d="M184.88,471.09s.27-.35.66-1a6.83,6.83,0,0,0,.91-3.1,6.37,6.37,0,0,0-1.6-4.38,5.49,5.49,0,0,0-2.27-1.57,2.94,2.94,0,0,0-2.75.31,1.77,1.77,0,0,0-.65,2.39,1.73,1.73,0,0,0,1,.77,1.3,1.3,0,0,0,1.14-.25,2.37,2.37,0,0,0,.75-2.18,9,9,0,0,0-.55-2.17,14.51,14.51,0,0,0-2.31-3.84,3.7,3.7,0,0,1,.9.84,10.47,10.47,0,0,1,1.76,2.87,9.27,9.27,0,0,1,.63,2.26,2.81,2.81,0,0,1-.89,2.6,1.77,1.77,0,0,1-1.55.35,2.19,2.19,0,0,1-1.31-1,2,2,0,0,1-.25-1.69,2.76,2.76,0,0,1,1-1.4,3.47,3.47,0,0,1,3.23-.36,5.81,5.81,0,0,1,2.46,1.74,6.54,6.54,0,0,1,1.6,4.71,6.36,6.36,0,0,1-1.1,3.19A2.94,2.94,0,0,1,184.88,471.09Z" style="fill:#fff"></path><path d="M197.55,456.92a5.25,5.25,0,0,1,1.07,2.08,9.71,9.71,0,0,1-3,10.39,5.21,5.21,0,0,1-2,1.21c0-.08.74-.51,1.75-1.48a10.51,10.51,0,0,0,2.8-4.62,10.38,10.38,0,0,0,0-5.4C197.91,457.74,197.47,457,197.55,456.92Z" style="fill:#fff"></path><path d="M207.85,460.13s-.26.22-.66.67a4.5,4.5,0,0,0-1.06,2.26,3.73,3.73,0,0,0,1,3.37,1.67,1.67,0,0,0,1.83.42,1.72,1.72,0,0,0,.94-1.75,2,2,0,0,0-1.38-1.54,2.34,2.34,0,0,0-2,.27A3.43,3.43,0,0,0,205,467a6,6,0,0,0,.65,2.44,5.54,5.54,0,0,1,.42.87,2.63,2.63,0,0,1-.6-.77,5.77,5.77,0,0,1-.84-2.52,4.3,4.3,0,0,1,.26-1.86,3.48,3.48,0,0,1,1.37-1.69,2.86,2.86,0,0,1,2.4-.35,2.55,2.55,0,0,1,1.74,1.95,2.23,2.23,0,0,1-1.25,2.3,2.16,2.16,0,0,1-2.36-.54,4.08,4.08,0,0,1-1-3.78,4.57,4.57,0,0,1,1.28-2.34C207.51,460.23,207.84,460.1,207.85,460.13Z" style="fill:#fff"></path><path d="M218.43,471.09c-.05-.07.29-.35.73-.89a5.56,5.56,0,0,0,1.15-2.39,5.2,5.2,0,0,0-.23-2.63c-.23-.66-.46-1-.4-1.08s.4.26.74.93a4.57,4.57,0,0,1,.4,2.87,4.85,4.85,0,0,1-1.39,2.55C218.89,471,218.46,471.14,218.43,471.09Z" style="fill:#fff"></path><path d="M243.42,199.45c-8.38-6.18-17.29,1.89-23.83,7.38a28.25,28.25,0,0,0-9.91,22.67c.26,5.46,2,11.33-.59,16.11-1.6,2.91-4.54,4.78-7.16,6.83s-5.17,4.73-5.35,8.05c-.16,2.95,1.59,5.68,1.8,8.62a8.72,8.72,0,0,1-8.25,9,11.46,11.46,0,0,0,18.4.11l.21,6.31a9.85,9.85,0,0,0,9.52-1.45,5.26,5.26,0,0,0,2.9,4.69,13.63,13.63,0,0,0,5.61,1.36,88.45,88.45,0,0,0,29-2.65c3.85-1,7.91-2.35,10.28-5.53,4.43-6,1.1-15.53,6.08-21,2.44-2.7,6.34-3.68,8.83-6.32,3.36-3.56,3.32-9,2.9-13.91-.62-7.34-1.66-14.74-4.48-21.55s-7.58-13-14.15-16.37-17-5.43-22.94-1" style="fill:#263238"></path><path d="M231.73,285.16l-28.56,9s31.12,43.54,45.39,39.44,48.11-42.07,48.11-42.07l-30.33-8Z" style="fill:#ffbe9d"></path><path d="M266.09,261.86c4.65-4.42,10.47-14.84,11.35-21.2s.27-12.83-.51-19.21c-.76-6.17-3.28-10.48-7.8-14.74a26,26,0,0,0-15.43-6.88c-7.41-.54-13.78-1-20.77,1.58s-13.31,7.53-16.25,14.36c-2.4,5.59-2.4,11.9-1.92,18,.56,7.14,1.86,14.6,6.29,20.23" style="fill:#415BB2"></path><g style="opacity:0.30000000000000004"><path d="M268.12,257.93a44.3,44.3,0,0,0,6.19-34.44A30.4,30.4,0,0,0,267,209.25c-3.77-3.87-9.13-6.38-14.52-6,0,0,15.27,5.63,18.39,19.64s1.41,24.48-.4,29.51S268.12,257.93,268.12,257.93Z"></path></g><path d="M281.3,288.3c2.45-2.65,4.48-5.83,4.47-9.23,0-3.56-2.21-6.82-4.55-9.74s-5-5.82-6-9.27l-2.36,1.18a24.66,24.66,0,0,1-4.64,27.2c-1.66,1.78-3.6,3.4-4.67,5.49a10.35,10.35,0,0,0-.27,8,33,33,0,0,0,4,7.4l1.47-8.19a51.24,51.24,0,0,0,7,6.6c1.1-3.91-1.24-8.1-.09-12C276.5,292.86,279.13,290.64,281.3,288.3Z" style="fill:#415BB2"></path><path d="M276.2,280.94a35,35,0,0,0,.71-8.65,34.63,34.63,0,0,0-2-8.45,8.47,8.47,0,0,1,1.15,2.32,22,22,0,0,1,.9,12.32A8.45,8.45,0,0,1,276.2,280.94Z" style="fill:#263238"></path><path d="M280.42,282.63c-.08,0,0-1.16,0-3a28.91,28.91,0,0,0-3.89-13.69c-.92-1.6-1.61-2.52-1.54-2.57s.23.19.56.59a15.16,15.16,0,0,1,1.3,1.79,25,25,0,0,1,3,6.65,25.36,25.36,0,0,1,1,7.23,17.62,17.62,0,0,1-.16,2.2A2.22,2.22,0,0,1,280.42,282.63Z" style="fill:#263238"></path><g style="opacity:0.30000000000000004"><path d="M275.1,263.88a20.91,20.91,0,0,1,1.9,14c-.4,1.81-1.05,3.55-1.53,5.33a2.06,2.06,0,0,0-.09,1,1.36,1.36,0,0,0,1.41.88,2.59,2.59,0,0,0,1.58-.78,2.67,2.67,0,0,1,1.11-.76c.45-.09,1,.29.87.73a8.5,8.5,0,0,0,.55-3.4,26.72,26.72,0,0,0-5.9-16.79"></path></g><path d="M269.13,220.78h0a6,6,0,0,0-4.65-6.1l-25.07-5.58c-9.27-1.27-19.61,7.73-20.49,17-1,10.35-1.75,23-.76,30.79,2,15.62,13.84,18,13.84,18l-.41,15.44,33.73-1Z" style="fill:#ffbe9d"></path><path d="M225.94,236.7a2,2,0,0,0,1.86,2.07,1.91,1.91,0,0,0,2.11-1.74,2,2,0,0,0-1.86-2.07A1.91,1.91,0,0,0,225.94,236.7Z" style="fill:#263238"></path><path d="M222,232.85c.24.27,1.78-.8,3.93-.73s3.68,1.19,3.93.94-.12-.59-.79-1.11a5.51,5.51,0,0,0-3.14-1.08,5.35,5.35,0,0,0-3.14.91C222.13,232.27,221.89,232.73,222,232.85Z" style="fill:#263238"></path><path d="M247,236.69a2,2,0,0,0,1.87,2.08A1.92,1.92,0,0,0,251,237a2,2,0,0,0-1.86-2.07A1.91,1.91,0,0,0,247,236.69Z" style="fill:#263238"></path><path d="M243.44,234c.24.27,1.79-.8,3.94-.73s3.68,1.19,3.92.94-.11-.59-.79-1.11a5.47,5.47,0,0,0-3.13-1.08,5.3,5.3,0,0,0-3.14.91C243.57,233.46,243.33,233.92,243.44,234Z" style="fill:#263238"></path><path d="M234.81,249.58a14.62,14.62,0,0,0-3.47-.74c-.54-.07-1.06-.2-1.14-.57a2.76,2.76,0,0,1,.42-1.62c.55-1.31,1.14-2.68,1.75-4.12,2.43-5.87,4.21-10.71,4-10.8s-2.41,4.58-4.84,10.45l-1.69,4.15a3.27,3.27,0,0,0-.35,2.15,1.41,1.41,0,0,0,.88.83,3.88,3.88,0,0,0,.93.15A13.92,13.92,0,0,0,234.81,249.58Z" style="fill:#263238"></path><path d="M232,274.94A41.15,41.15,0,0,0,253.54,270s-5.59,10.73-21.64,8.8Z" style="fill:#eb996e"></path><path d="M235.56,254.78a3.84,3.84,0,0,1,3.51-1.33,3.53,3.53,0,0,1,2.39,1.38,2.25,2.25,0,0,1,.1,2.57,2.62,2.62,0,0,1-2.84.62A7.92,7.92,0,0,1,236,256.3a2.46,2.46,0,0,1-.6-.65.74.74,0,0,1,0-.8" style="fill:#eb996e"></path><path d="M242.11,230.31c.28.56,2.37,0,4.91.05s4.64.47,4.91-.09c.12-.27-.29-.77-1.17-1.24a8.54,8.54,0,0,0-7.49,0C242.4,229.54,242,230.05,242.11,230.31Z" style="fill:#263238"></path><path d="M222.3,225c.36.5,1.86,0,3.64.08s3.27.42,3.63-.07c.16-.25-.06-.74-.7-1.23a5.27,5.27,0,0,0-5.86,0C222.36,224.27,222.14,224.76,222.3,225Z" style="fill:#263238"></path><path d="M242.66,254.48c0,.29-1.82,0-3.54,1s-2.41,2.64-2.69,2.54c-.13,0-.15-.52.16-1.23a4.89,4.89,0,0,1,4.93-2.84C242.28,254.09,242.7,254.35,242.66,254.48Z" style="fill:#263238"></path><path d="M276.13,256.39a4.75,4.75,0,0,0-5.88-.91c-1.77,1.1-2.56,3.29-2.77,5.37.29,2.13,1.19,3,3.27,3.57a5.34,5.34,0,0,0,5.71-2A5,5,0,0,0,276.13,256.39Z" style="fill:#415BB2"></path><path d="M271.71,254.36A9.2,9.2,0,0,1,270,258a9.08,9.08,0,0,1-2.74,2.91c-.11-.11,1.1-1.41,2.31-3.21S271.57,254.3,271.71,254.36Z" style="fill:#263238"></path><path d="M277.09,261.13c-.08,0-.27-.43-.74-1.05a5.54,5.54,0,0,0-5.28-2.19c-.77.11-1.24.3-1.27.22s.39-.37,1.2-.58a5.24,5.24,0,0,1,3.21.24,5.15,5.15,0,0,1,2.44,2.11C277.08,260.6,277.15,261.12,277.09,261.13Z" style="fill:#263238"></path><path d="M273.4,257.71a4.85,4.85,0,0,1,.46,3.61,5,5,0,0,1-1.73,3.21,18.13,18.13,0,0,0,1.21-3.31A17.47,17.47,0,0,0,273.4,257.71Z" style="fill:#263238"></path><path d="M277.17,260.8a2.33,2.33,0,0,1-.45,1.28,5.45,5.45,0,0,1-2.44,2.21,5.51,5.51,0,0,1-3.27.42c-.84-.16-1.29-.44-1.27-.5a8,8,0,0,1,1.31.14,6.27,6.27,0,0,0,3-.53,6.12,6.12,0,0,0,2.35-1.94C276.89,261.24,277.09,260.77,277.17,260.8Z" style="fill:#263238"></path><path d="M238.86,209c9.72-5.23,13.9-.39,22.2,2.19,0,0,9.35,2.7,10.91,12.15,1.31,7.89.06,11.88,1.12,19.8.46,3.48-2.19,7.77-3.33,11.09-1.92,5.57-5.13,7.9-11,7.56a11.93,11.93,0,0,0,3.71-6.36,8.37,8.37,0,0,0-1.74-7c-1.24-1.42-3-2.29-4.31-3.64a8.46,8.46,0,0,1-1.6-9.22c1.13-2.45,3.52-4.81,2.69-7.38s-3.94-3.06-6.42-3.85c-6.22-2-11.91-8.79-12.22-15.31" style="fill:#263238"></path><path d="M239.61,209a36.88,36.88,0,0,1-20.19,13.91c2.51-7.11,6.59-12.73,13.9-14.57,1-.24,5.15-.25,6.29.66" style="fill:#263238"></path><path d="M259.12,206.05c-6.74-4.08-15.25-4.24-22.9-2.37a27.23,27.23,0,0,0-11.5,5.49A23.1,23.1,0,0,0,217.65,222c-1,4.88-.44,10.32.41,15.23l.45-6.4c0-3.44.36-4.2,2.42-10,1.64-4.6,4.66-7.13,9.23-8.86,6.41-2.42,13.72-1,19.89,1.95s11.49,7.41,17.05,11.41c.73.53,1.87,1,2.41.27.22-.29,2.52-1.52,2.52-1.89C271.93,216.31,265.48,209.9,259.12,206.05Z" style="fill:#263238"></path><path d="M271.28,231.53s-.29-.51-.93-1.32a10,10,0,0,0-3.41-2.64,20,20,0,0,0-6.21-1.72,44.93,44.93,0,0,1-7.91-1.47,22,22,0,0,1-7-3.9,22.49,22.49,0,0,1-4.4-4.89,20.18,20.18,0,0,1-2-3.93c-.19-.49-.3-.88-.38-1.15s-.11-.4-.09-.41a30.72,30.72,0,0,0,2.81,5.29,23.44,23.44,0,0,0,4.41,4.72,22.24,22.24,0,0,0,6.91,3.78,47.92,47.92,0,0,0,7.81,1.49,19.41,19.41,0,0,1,6.31,1.87,9.5,9.5,0,0,1,3.4,2.84,6,6,0,0,1,.62,1A1.7,1.7,0,0,1,271.28,231.53Z" style="fill:#455a64"></path><path d="M265,211a5,5,0,0,1-1,.48c-.66.27-1.61.65-2.8,1.08a34.89,34.89,0,0,1-9.64,2.24,17.62,17.62,0,0,1-9.67-2,11.49,11.49,0,0,1-2.42-1.8,3.51,3.51,0,0,1-.72-.84,20.15,20.15,0,0,0,3.32,2.32,18.29,18.29,0,0,0,9.45,1.81,40.11,40.11,0,0,0,9.56-2.06l2.85-.93A4.65,4.65,0,0,1,265,211Z" style="fill:#455a64"></path><path d="M231.27,205.75c.08,0,.18.48.52,1.19a6.23,6.23,0,0,0,1.9,2.34,6.3,6.3,0,0,0,2.79,1.12,9.78,9.78,0,0,1,1.3.15,2.26,2.26,0,0,1-1.33.22,5.5,5.5,0,0,1-5-3.69C231.18,206.28,231.2,205.75,231.27,205.75Z" style="fill:#455a64"></path><path d="M221,212a.62.62,0,0,1,0-.24,2.7,2.7,0,0,1,.16-.67,6.37,6.37,0,0,1,1.49-2.2,29.75,29.75,0,0,1,8.15-5.32,24.4,24.4,0,0,1,6.45-2c.59-.11,1.2-.22,1.84-.28s1.26-.07,1.91-.1c1.28-.06,2.61-.09,4-.08s2.76,0,4.18.12a39,39,0,0,1,4.36.4,27,27,0,0,1,8.65,3.09,25.87,25.87,0,0,1,7.19,5.73,18.76,18.76,0,0,1,1.3,1.81c.39.63.7,1.28,1,1.92a34.6,34.6,0,0,1,1.67,3.84,40.75,40.75,0,0,1,2.43,14.22,43.71,43.71,0,0,1-1.11,9.68c-.25,1.12-.48,2-.67,2.56l-.2.66a.94.94,0,0,1-.09.22,1,1,0,0,1,0-.24l.15-.67c.15-.58.36-1.45.58-2.57a46.91,46.91,0,0,0,.93-9.64,40.86,40.86,0,0,0-2.51-14.05,36.67,36.67,0,0,0-1.66-3.79c-.33-.62-.64-1.27-1-1.87a16.19,16.19,0,0,0-1.27-1.75,25.56,25.56,0,0,0-7-5.61,26.56,26.56,0,0,0-8.49-3,37,37,0,0,0-4.3-.42c-1.41-.07-2.8-.12-4.15-.13s-2.67,0-4,.05a21.77,21.77,0,0,0-3.68.35,24.39,24.39,0,0,0-6.38,1.88,31.05,31.05,0,0,0-8.16,5.13,6.56,6.56,0,0,0-1.53,2.1,2.57,2.57,0,0,0-.21.64A.79.79,0,0,1,221,212Z" style="fill:#263238"></path><path d="M320.36,456.7c-2.93-4-8.59-4.86-13.56-4.59a48.52,48.52,0,0,0-11.59,2.05c-2,.6-4,1.33-6,.95-1.77-.32-3.28-1.46-5-2-3.14-.91-6.43.38-9.66.93-8.24,1.42-16.47-2-24.14-5.32l-9.14,17.78c8.76,3.88,16.51,5.63,25.72,7.88,8.17,2,16.71,1.3,25.12,1.6,4.8.17,9.63.67,14.4.08s9.6-2.4,12.71-6.06S323.18,460.59,320.36,456.7Z" style="fill:#455a64"></path><path d="M251.28,470.24s-.08-.1-.17-.3a8.08,8.08,0,0,1-.36-.92,10.41,10.41,0,0,1-.44-3.6,10.58,10.58,0,0,1,1.62-5.12,6,6,0,0,1,2.35-2.23,3.42,3.42,0,0,1,3.49.15,1.85,1.85,0,0,1,.73,1.77,1.16,1.16,0,0,1-.69.77,2,2,0,0,1-.94.1,6.12,6.12,0,0,1-5.21-6.16,6.1,6.1,0,0,1,1.2-3.42,5.15,5.15,0,0,1,.67-.73c.17-.14.27-.21.28-.2s-.33.35-.79,1a6.24,6.24,0,0,0-1,3.31,5.73,5.73,0,0,0,4.89,5.64c.5.07,1-.09,1.08-.49a1.4,1.4,0,0,0-.55-1.24,3,3,0,0,0-2.95-.09,5.49,5.49,0,0,0-2.16,2,10.48,10.48,0,0,0-1.66,4.89A13.16,13.16,0,0,0,251.28,470.24Z" style="fill:#fff"></path><path d="M265.71,473.19a7,7,0,0,1,.88-.19,4.78,4.78,0,0,0,2.06-1.18,5.34,5.34,0,0,0,1.57-3.08,8.07,8.07,0,0,0-.58-4.26,16.29,16.29,0,0,0-2.31-3.75,15.14,15.14,0,0,1-2.17-3,3.49,3.49,0,0,1-.2-2.51,1.47,1.47,0,0,1,.51-.78s-.18.29-.31.84a3.39,3.39,0,0,0,.34,2.29,16.34,16.34,0,0,0,2.2,2.87,15.52,15.52,0,0,1,2.42,3.85,8.26,8.26,0,0,1,.57,4.54,5.43,5.43,0,0,1-1.8,3.27,4.55,4.55,0,0,1-2.26,1.11A1.86,1.86,0,0,1,265.71,473.19Z" style="fill:#fff"></path><path d="M289.54,455.13a1.68,1.68,0,0,1,.18.42c.09.29.22.71.34,1.26a16,16,0,0,1,.34,4.8,11.83,11.83,0,0,1-.67,3.28,5.88,5.88,0,0,1-2.41,3,5.53,5.53,0,0,1-4.24.55,4.42,4.42,0,0,1-2-1.15,2.77,2.77,0,0,1-.86-2.27,2.07,2.07,0,0,1,1.57-1.85,2.68,2.68,0,0,1,2.31.54,4.72,4.72,0,0,1,1.53,4,7.69,7.69,0,0,1-3.88,5.85,15.81,15.81,0,0,1-4.5,1.72c-.55.13-1,.21-1.28.26a1.39,1.39,0,0,1-.45.05,15.13,15.13,0,0,1,1.68-.5,17,17,0,0,0,4.35-1.84,8.3,8.3,0,0,0,2.35-2.18,6.7,6.7,0,0,0,1.25-3.4,4.26,4.26,0,0,0-1.37-3.55,2.12,2.12,0,0,0-1.86-.43,1.55,1.55,0,0,0-1.19,1.4,2.29,2.29,0,0,0,.72,1.85,4.17,4.17,0,0,0,1.79,1,5,5,0,0,0,3.86-.48,5.32,5.32,0,0,0,2.24-2.76,11.61,11.61,0,0,0,.71-3.16,17.52,17.52,0,0,0-.16-4.73C289.68,455.74,289.5,455.14,289.54,455.13Z" style="fill:#fff"></path><path d="M298,475.7a1.73,1.73,0,0,1-.38-.28,9.08,9.08,0,0,1-.93-1,10.59,10.59,0,0,1-2.14-4.44,10.32,10.32,0,0,1,1.06-7.2,11,11,0,0,1,2.83-3.33,6.82,6.82,0,0,1,4.41-1.66,3.14,3.14,0,0,1,3.07,3.3,2.37,2.37,0,0,1-1.48,1.82,3.27,3.27,0,0,1-2.22.11,3.73,3.73,0,0,1-2.38-3.14,5.4,5.4,0,0,1,.66-3.4,9.2,9.2,0,0,1,3.7-3.25c.52-.27.93-.46,1.22-.58a1.55,1.55,0,0,1,.44-.15s-.56.32-1.56.9a9.4,9.4,0,0,0-3.48,3.26,5.09,5.09,0,0,0-.55,3.16,3.28,3.28,0,0,0,2.09,2.74,2.8,2.8,0,0,0,1.89-.11,1.86,1.86,0,0,0,1.17-1.43,2.65,2.65,0,0,0-2.61-2.71,6.37,6.37,0,0,0-4.05,1.54,10.45,10.45,0,0,0-2.73,3.16,10.06,10.06,0,0,0-1.12,6.89,11.14,11.14,0,0,0,1.94,4.4C297.58,475.24,298.07,475.67,298,475.7Z" style="fill:#fff"></path><path d="M314.68,453.26a4,4,0,0,1,.5.9,14.71,14.71,0,0,1,.94,2.66,17.32,17.32,0,0,1-5,17.09,15,15,0,0,1-2.23,1.73,3.42,3.42,0,0,1-.91.48c-.06-.08,1.22-.82,2.88-2.47a18,18,0,0,0,4.92-16.75C315.26,454.61,314.58,453.3,314.68,453.26Z" style="fill:#fff"></path><path d="M175.86,352.51s-4.53,17-5.21,20.19-4.91,15.69-2.17,21.15l21.62,7.34s5.45-3.91,11.74-15.28,29.84-47.16,29.84-47.16l-14-8L197.76,353.3Z" style="fill:#ffbe9d"></path><path d="M236,287.35,259.6,330.6l3.38,2.14v-4.33l-23.1-43.14a2.2,2.2,0,0,0-2.93-.91h0A2.19,2.19,0,0,0,236,287.35Z" style="fill:#455a64"></path><path d="M238.19,311l-20.54,19.71,9.47,10.19s6.08-2.24,8.93-5.57S242,327.8,242,327.8l5.22.47s-4.09.15-3.78,2.06,8.37,2.06,8.37,2.06a2,2,0,0,0,1.58-2.06s2.53-1.58,2.85-3.32a5.09,5.09,0,0,0-.2-2.86l.23-4.22,4.08,4.54s1.59-1.26,1-2.69S254.65,311,254.65,311Z" style="fill:#ffbe9d"></path><path d="M253.55,330.34a24,24,0,0,1-.87-2.48,9.29,9.29,0,0,0-1.29-2.46,5.93,5.93,0,0,0-2.66-2,18.68,18.68,0,0,0-6.13-1.18A15.37,15.37,0,0,1,240,322a11.56,11.56,0,0,1,2.64-.16,16.38,16.38,0,0,1,6.31,1.07,6.38,6.38,0,0,1,2.85,2.18,9.26,9.26,0,0,1,1.25,2.63A9.1,9.1,0,0,1,253.55,330.34Z" style="fill:#eb996e"></path><path d="M256.26,325.11c-.09,0-.23-1-.94-2.34a6.78,6.78,0,0,0-1.7-2,9.45,9.45,0,0,0-2.91-1.53,31,31,0,0,0-3.25-.82l-2.71-.58a12,12,0,0,1-2.47-.68,12.88,12.88,0,0,1,2.54.32l2.73.47a25.32,25.32,0,0,1,3.33.8,9,9,0,0,1,3,1.66,6.55,6.55,0,0,1,1.73,2.25,7.35,7.35,0,0,1,.57,1.81C256.29,324.86,256.3,325.11,256.26,325.11Z" style="fill:#eb996e"></path><path d="M256.24,320.2a9.74,9.74,0,0,0-.82-1.84,7.7,7.7,0,0,0-3.94-2.64,15.9,15.9,0,0,0-2.63-.56l-2.21-.37a8,8,0,0,1-2-.47,8.55,8.55,0,0,1,2.07.11l2.22.26a12.65,12.65,0,0,1,2.73.54,7.28,7.28,0,0,1,4.09,2.94A3,3,0,0,1,256.24,320.2Z" style="fill:#eb996e"></path><path d="M217.65,330.74a3.13,3.13,0,0,1,.35-.38l1.08-1.08,4.13-4L238,310.86l.06-.06h.09l16.46,0h.14l.07.12,3.44,5.4c.58.93,1.16,1.86,1.74,2.81l.87,1.44a6,6,0,0,1,.76,1.59,2.19,2.19,0,0,1-.27,1.45,3.78,3.78,0,0,1-.89,1.1l-.19.16-.17-.19-4.08-4.55.45-.16c-.06,1.53-.12,3.05-.18,4.54l0-.13a3.88,3.88,0,0,1,.27,1.9,4,4,0,0,1-.5,1.81,8.5,8.5,0,0,1-2.57,2.47l.11-.18a2.91,2.91,0,0,1-.48,1.44,2,2,0,0,1-1.31.83h0a36.6,36.6,0,0,1-3.68-.27,16.22,16.22,0,0,1-3.48-.75,3.78,3.78,0,0,1-.8-.41,1.35,1.35,0,0,1-.6-.77,1.51,1.51,0,0,1,.82-1.59,7.55,7.55,0,0,1,3.15-.76v.4L242,328l.16-.08c-1.47,2-2.85,3.75-4.08,5.27a31,31,0,0,1-3.36,3.72,8.47,8.47,0,0,1-2.69,1.64,3.33,3.33,0,0,1-.79.21c-.19,0-.28,0-.28,0l.27-.06a4.33,4.33,0,0,0,.76-.25,9,9,0,0,0,2.6-1.7,31.93,31.93,0,0,0,3.27-3.75c1.21-1.53,2.56-3.3,4-5.3l.05-.08H242l5.22.45v.4a7.36,7.36,0,0,0-2.95.72,1.08,1.08,0,0,0-.62,1.13c.1.39.64.68,1.14.87a25.7,25.7,0,0,0,7,1h0a1.57,1.57,0,0,0,1-.64,2.45,2.45,0,0,0,.4-1.2v-.12l.1-.07a8,8,0,0,0,2.4-2.31,3.25,3.25,0,0,0,.42-1.59,3.57,3.57,0,0,0-.2-1.62l0-.08v-.06l.17-4.54,0-.64.42.47,4.09,4.55-.36,0a2.36,2.36,0,0,0,1-2,6,6,0,0,0-.69-1.42l-.86-1.43-1.74-2.81-3.43-5.4.22.12-16.46,0,.16-.06-15,14.23-4.21,4-1.13,1A2.12,2.12,0,0,1,217.65,330.74Z" style="fill:#eb996e"></path><path d="M248.92,315c.08.12-.49.65-.91,1.48s-.54,1.59-.69,1.59-.27-.88.22-1.83S248.85,314.89,248.92,315Z" style="fill:#e0e0e0"></path><path d="M251.11,316.17a1.37,1.37,0,0,0-.47-.67,6.15,6.15,0,0,0-3-1l.07,0a6.42,6.42,0,0,0-1.24,0c-.36,0-.79.15-.88.5a.61.61,0,0,0,.17.57,1.69,1.69,0,0,0,.53.35,10.8,10.8,0,0,0,4.1,1,.94.94,0,0,0,.5-.06A.66.66,0,0,0,251.11,316.17Z" style="fill:#415BB2"></path><path d="M243.56,322a3,3,0,0,1,.31-2.52c.64-1.34,1.75-1.92,1.81-1.79s-.77.82-1.34,2S243.72,322,243.56,322Z" style="fill:#e0e0e0"></path><path d="M200.18,350.56a8.18,8.18,0,0,1-1,1.18c-.68.74-1.68,1.78-3,3s-2.88,2.67-4.74,4.13a70.86,70.86,0,0,1-6.39,4.27,56.06,56.06,0,0,0-6.2,4.44,25,25,0,0,0-4.21,4.54,18,18,0,0,0-2,3.66c-.37.92-.52,1.45-.56,1.44s0-.14.06-.4.16-.63.31-1.11a16.35,16.35,0,0,1,1.9-3.8,24.08,24.08,0,0,1,4.2-4.69,51,51,0,0,1,6.24-4.52c2.3-1.47,4.54-2.75,6.38-4.21s3.45-2.83,4.77-4,2.36-2.19,3.08-2.88A8.67,8.67,0,0,1,200.18,350.56Z" style="fill:#eb996e"></path><path d="M270.58,352.32a1.64,1.64,0,0,0,1.15-.54,1.93,1.93,0,0,0,.49-1.44,1.86,1.86,0,0,0-1.31-1.51,2.51,2.51,0,0,0-2.48.45,3.49,3.49,0,0,0-.93,1.2,4,4,0,0,0-.29.75c-.07.27-.16.56,0,.73a.62.62,0,0,0,.66.17,1.25,1.25,0,0,0,.66-.46,1.86,1.86,0,0,0,.27-1.7,2.48,2.48,0,0,0-3.36-1.11,4.56,4.56,0,0,0-1.7,1.34,2,2,0,0,0-.43,1,.63.63,0,0,0,.46.7,1.15,1.15,0,0,0,.95-.33,1.48,1.48,0,0,0,.43-1,2.32,2.32,0,0,0-1-2,3,3,0,0,0-2.39-.3,2.81,2.81,0,0,0-1.92,1.53,1.46,1.46,0,0,0-.06,1.17,1,1,0,0,0,.95.53,1.38,1.38,0,0,0,1-.57,1.39,1.39,0,0,0,.11-1.2,2,2,0,0,0-2.1-1.33,4,4,0,0,0-2.54,1.2,6.07,6.07,0,0,0-1,1.1,1.44,1.44,0,0,0-.27,1.24.71.71,0,0,0,1,.25,1.13,1.13,0,0,0,.58-1.1,3.05,3.05,0,0,0-1.49-2.43,3.25,3.25,0,0,0-4.15.64,1.79,1.79,0,0,0-.43,1.35c.09,1,1.67,1.15,2.18.34a1.85,1.85,0,0,0-.66-2.56,3.35,3.35,0,0,0-3-.17,8.61,8.61,0,0,0-1.42.72,3.55,3.55,0,0,0-1.13,1,1.25,1.25,0,0,0-.09,1.29.7.7,0,0,0,1,.32,1.1,1.1,0,0,0,.51-1.12,2.38,2.38,0,0,0-.58-1.28,2.89,2.89,0,0,0-4.78.44,1.51,1.51,0,0,0-.08,1.24.88.88,0,0,0,1,.46,1.22,1.22,0,0,0,.95-.68,1.64,1.64,0,0,0,0-1.23,2.65,2.65,0,0,0-2-1.47,5.47,5.47,0,0,0-2.61.08,2.22,2.22,0,0,0-1.66,1.59,1.66,1.66,0,0,0,.92,1.88,1.4,1.4,0,0,0,1.61-1.08,2.27,2.27,0,0,0-.6-2,3.41,3.41,0,0,0-1.82-1.09,4.19,4.19,0,0,0-3.79.93,3,3,0,0,0-.93,1.57,1.52,1.52,0,0,0,.49,1.51,1,1,0,0,0,1.38,0,1.47,1.47,0,0,0,.46-1.32,2.84,2.84,0,0,0-1.53-2.05,3.08,3.08,0,0,0-2.07-.32,3.42,3.42,0,0,0-1.42.69,4.43,4.43,0,0,0-.83,1,1.06,1.06,0,0,1,.14-.31,3,3,0,0,1,.63-.78,3.36,3.36,0,0,1,1.44-.76,3.28,3.28,0,0,1,2.21.29,3.06,3.06,0,0,1,1.68,2.2,1.76,1.76,0,0,1-.53,1.55,1.31,1.31,0,0,1-1.74.07,1.81,1.81,0,0,1-.61-1.8,3.35,3.35,0,0,1,1-1.75,4.52,4.52,0,0,1,4.1-1,3.81,3.81,0,0,1,2,1.2,2.63,2.63,0,0,1,.69,2.37,2,2,0,0,1-.75,1.11,1.57,1.57,0,0,1-1.36.27,1.71,1.71,0,0,1-1-1,2.37,2.37,0,0,1-.19-1.39,2.68,2.68,0,0,1,2-1.95,5.89,5.89,0,0,1,2.83-.1,3.07,3.07,0,0,1,2.36,1.74,2,2,0,0,1,0,1.59,1.69,1.69,0,0,1-1.31,1A1.36,1.36,0,0,1,243,351a1.93,1.93,0,0,1,.07-1.66,3.36,3.36,0,0,1,2.62-1.78,3.41,3.41,0,0,1,3,1.23,3,3,0,0,1,.7,1.56,1.64,1.64,0,0,1-.76,1.61,1.24,1.24,0,0,1-1,.12,1.32,1.32,0,0,1-.74-.65,1.76,1.76,0,0,1,.11-1.8,4,4,0,0,1,1.28-1.17,9,9,0,0,1,1.52-.76,3.87,3.87,0,0,1,3.44.21,2.37,2.37,0,0,1,.8,3.31,1.79,1.79,0,0,1-1.74.7,1.65,1.65,0,0,1-.9-.39,1.54,1.54,0,0,1-.48-.88,2.3,2.3,0,0,1,.55-1.75,3.6,3.6,0,0,1,1.44-1,3.68,3.68,0,0,1,3.38.28,3.56,3.56,0,0,1,1.73,2.88,1.66,1.66,0,0,1-.86,1.55,1.45,1.45,0,0,1-.94.12,1.08,1.08,0,0,1-.76-.63,1.84,1.84,0,0,1,.31-1.71,6.94,6.94,0,0,1,1.08-1.2,4.53,4.53,0,0,1,2.87-1.31,2.8,2.8,0,0,1,1.57.38,2.39,2.39,0,0,1,1,1.28,1.87,1.87,0,0,1-.18,1.61,1.84,1.84,0,0,1-1.41.78,1.45,1.45,0,0,1-1.38-.8,1.86,1.86,0,0,1,.05-1.55,3.27,3.27,0,0,1,2.23-1.78,3.38,3.38,0,0,1,2.74.38,2.71,2.71,0,0,1,1.17,2.4,1.7,1.7,0,0,1-1.88,1.67,1,1,0,0,1-.77-1.12,2.21,2.21,0,0,1,.52-1.16,4.9,4.9,0,0,1,1.85-1.45,2.82,2.82,0,0,1,3.82,1.34,2.15,2.15,0,0,1-.33,2,1.54,1.54,0,0,1-.85.56.9.9,0,0,1-1-.3,1.22,1.22,0,0,1,0-1,4.28,4.28,0,0,1,.31-.8,3.89,3.89,0,0,1,1-1.27,2.74,2.74,0,0,1,2.71-.45,1.91,1.91,0,0,1,.82,3.21A1.3,1.3,0,0,1,270.58,352.32Z" style="fill:#263238"></path><polygon points="230.73 349.58 217.65 399 259.23 400.31 272.31 351.5 230.73 349.58" style="fill:#455a64"></polygon><polygon points="230.73 349.58 229.06 349.74 215.87 395.39 217.88 398.14 230.73 349.58" style="fill:#e0e0e0"></polygon><path d="M258.26,362.18h13.5a3.18,3.18,0,0,1,3,1.95,9.06,9.06,0,0,1,.78,3.89,4.94,4.94,0,0,1,.91,2.73,68.78,68.78,0,0,1,0,7.4c-.13.39-1.56.78-1.56.78a5,5,0,0,1,.13,3.64,3.82,3.82,0,0,1-1.95,1.94s-1.82,4.16-3.63,4.68-3.51,0-4.42,0-15.58-7.53-15.58-7.53V380s-5.2.52-5.33-2.34,3.38-2.69,3.38-2.69h7.92s-8.7.35-9.48-.94-1.82-4.42.85-4.94,14.67-.52,14.67-.52l6.56,1.09h1l-.81-2.89s-6.89,0-7.91-.15-3-.39-3-2.2S258.26,362.18,258.26,362.18Z" style="fill:#ffbe9d"></path><path d="M276.53,373.62s10.15,2.66,17.14,2.13l7-.54-6.83-27.45,26.68-2.85,4.21,35.17v6.85c-8,2-16,6.16-24.09,11.92l-32-9.5Z" style="fill:#ffbe9d"></path><path d="M265.85,375.74a10.85,10.85,0,0,1-2.52.17c-1.56,0-3.72,0-6.1-.16s-4.52-.4-6.06-.62a11.11,11.11,0,0,1-2.48-.5,13.93,13.93,0,0,1,2.52.13c1.55.13,3.69.31,6.06.47s4.51.25,6.06.32A14.32,14.32,0,0,1,265.85,375.74Z" style="fill:#eb996e"></path><path d="M264.62,383a9.1,9.1,0,0,1-2.25-.07c-1.38-.12-3.28-.35-5.37-.68s-4-.73-5.32-1.05a9.43,9.43,0,0,1-2.15-.65,10.3,10.3,0,0,1,2.23.28l5.32.9,5.34.84A10.58,10.58,0,0,1,264.62,383Z" style="fill:#eb996e"></path><path d="M275.93,372.82s.2.06.48.29a3.24,3.24,0,0,1,.82,3.69,3.46,3.46,0,0,1-2.33,2l.16-.37a4.28,4.28,0,0,1-2,6.07l.15-.17a8.26,8.26,0,0,1-2.92,4.43,6.89,6.89,0,0,1-1.31.81,1.39,1.39,0,0,1-.52.18c0-.07.67-.38,1.64-1.23a8.48,8.48,0,0,0,2.63-4.31l0-.13.12,0a3.66,3.66,0,0,0,2-2.3,3.62,3.62,0,0,0-.31-3l-.19-.3.34-.08a3.1,3.1,0,0,0,2.06-1.66,2.93,2.93,0,0,0,.14-2.12A4.53,4.53,0,0,0,275.93,372.82Z" style="fill:#eb996e"></path></g></svg>