<svg xmlns="http://www.w3.org/2000/svg" viewBox="0 0 500 500"><g id="freepik--background-complete--inject-163"><rect y="382.4" width="500" height="0.25" style="fill:#ebebeb"></rect><rect x="416.78" y="398.49" width="33.12" height="0.25" style="fill:#ebebeb"></rect><rect x="322.53" y="401.21" width="8.69" height="0.25" style="fill:#ebebeb"></rect><rect x="396.59" y="389.21" width="19.19" height="0.25" style="fill:#ebebeb"></rect><rect x="52.46" y="390.89" width="43.19" height="0.25" style="fill:#ebebeb"></rect><rect x="104.56" y="390.89" width="6.33" height="0.25" style="fill:#ebebeb"></rect><rect x="131.47" y="395.11" width="93.68" height="0.25" style="fill:#ebebeb"></rect><path d="M237,337.8H43.91a5.71,5.71,0,0,1-5.7-5.71V60.66A5.71,5.71,0,0,1,43.91,55H237a5.71,5.71,0,0,1,5.71,5.71V332.09A5.71,5.71,0,0,1,237,337.8ZM43.91,55.2a5.46,5.46,0,0,0-5.45,5.46V332.09a5.46,5.46,0,0,0,5.45,5.46H237a5.47,5.47,0,0,0,5.46-5.46V60.66A5.47,5.47,0,0,0,237,55.2Z" style="fill:#ebebeb"></path><path d="M453.31,337.8H260.21a5.72,5.72,0,0,1-5.71-5.71V60.66A5.72,5.72,0,0,1,260.21,55h193.1A5.71,5.71,0,0,1,459,60.66V332.09A5.71,5.71,0,0,1,453.31,337.8ZM260.21,55.2a5.47,5.47,0,0,0-5.46,5.46V332.09a5.47,5.47,0,0,0,5.46,5.46h193.1a5.47,5.47,0,0,0,5.46-5.46V60.66a5.47,5.47,0,0,0-5.46-5.46Z" style="fill:#ebebeb"></path><circle cx="118.36" cy="107.44" r="27.79" style="fill:#fafafa"></circle><path d="M103.94,107.12a4.83,4.83,0,0,0-4.83-4.83,4.52,4.52,0,0,0-1.38.21,10.45,10.45,0,0,0,.11-1.49A10.23,10.23,0,0,0,87.61,90.78a10.62,10.62,0,0,0-1.89.18,8.93,8.93,0,0,0-16.57,4.52H69A8.24,8.24,0,1,0,69,112H99.25A4.84,4.84,0,0,0,103.94,107.12Z" style="fill:#f5f5f5"></path><path d="M351.85,129.5a4.84,4.84,0,0,0-6.22-4.63,10.21,10.21,0,0,0-10.12-11.71,9.74,9.74,0,0,0-1.88.18,8.94,8.94,0,0,0-16.58,4.52h-.15a8.24,8.24,0,1,0,0,16.48h30.25A4.82,4.82,0,0,0,351.85,129.5Z" style="fill:#f5f5f5"></path><path d="M215.62,98.25a4.83,4.83,0,0,1,4.83-4.83,4.52,4.52,0,0,1,1.38.21,10.45,10.45,0,0,1-.11-1.49A10.23,10.23,0,0,1,232,81.91a10.62,10.62,0,0,1,1.89.18,8.94,8.94,0,0,1,16.58,4.52h.14a8.24,8.24,0,1,1,0,16.48H220.31A4.82,4.82,0,0,1,215.62,98.25Z" style="fill:#f5f5f5"></path><path d="M164.55,121.59a3,3,0,0,0-3.86-2.87,7,7,0,0,0,.07-.92,6.36,6.36,0,0,0-6.36-6.36,6.56,6.56,0,0,0-1.18.11,5.55,5.55,0,0,0-10.3,2.81h-.09a5.13,5.13,0,1,0,0,10.25h18.81A3,3,0,0,0,164.55,121.59Z" style="fill:#f5f5f5"></path><path d="M176.77,174.09a3,3,0,0,1,3-3,3,3,0,0,1,.86.12,7,7,0,0,1-.06-.92,6.36,6.36,0,0,1,6.36-6.36,6.45,6.45,0,0,1,1.17.11,5.55,5.55,0,0,1,10.3,2.81h.1a5.12,5.12,0,0,1,0,10.24H179.69A3,3,0,0,1,176.77,174.09Z" style="fill:#f5f5f5"></path><path d="M388.51,172.05a3,3,0,0,1,3-3,3.16,3.16,0,0,1,.87.13,5.62,5.62,0,0,1-.07-.92,6.36,6.36,0,0,1,6.36-6.36,5.66,5.66,0,0,1,1.17.11,5.56,5.56,0,0,1,10.31,2.81h.09a5.13,5.13,0,0,1,0,10.25H391.43A3,3,0,0,1,388.51,172.05Z" style="fill:#f5f5f5"></path><rect x="153.62" y="200.04" width="8.21" height="180.94" style="fill:#f5f5f5"></rect><rect x="83.62" y="200.04" width="8.21" height="180.94" style="fill:#f5f5f5"></rect><rect x="203.62" y="246.3" width="8.21" height="134.68" style="fill:#e6e6e6"></rect><rect x="133.62" y="246.3" width="8.21" height="134.68" style="fill:#e6e6e6"></rect><polygon points="123.58 224.73 60.44 224.73 36.22 172.35 99.36 172.35 123.58 224.73" style="fill:#f5f5f5"></polygon><polygon points="111.76 199.16 48.62 199.16 48.04 197.92 111.18 197.92 111.76 199.16" style="fill:#fafafa"></polygon><polygon points="71.69 224.73 70.19 224.73 45.97 172.35 47.47 172.35 71.69 224.73" style="fill:#fafafa"></polygon><polygon points="82.22 224.73 80.72 224.73 56.51 172.35 58.01 172.35 82.22 224.73" style="fill:#fafafa"></polygon><polygon points="92.76 224.73 91.26 224.73 67.04 172.35 68.54 172.35 92.76 224.73" style="fill:#fafafa"></polygon><polygon points="103.29 224.73 101.79 224.73 77.57 172.35 79.07 172.35 103.29 224.73" style="fill:#fafafa"></polygon><polygon points="113.82 224.73 112.32 224.73 88.11 172.35 89.61 172.35 113.82 224.73" style="fill:#fafafa"></polygon><polygon points="190.19 224.73 140.84 224.73 121.91 183.79 171.27 183.79 190.19 224.73" style="fill:#f5f5f5"></polygon><polygon points="180.96 204.75 131.6 204.75 131.15 203.77 180.51 203.77 180.96 204.75" style="fill:#fafafa"></polygon><polygon points="149.64 224.73 148.47 224.73 129.54 183.79 130.71 183.79 149.64 224.73" style="fill:#fafafa"></polygon><polygon points="157.87 224.73 156.7 224.73 137.77 183.79 138.94 183.79 157.87 224.73" style="fill:#fafafa"></polygon><polygon points="166.1 224.73 164.93 224.73 146 183.79 147.18 183.79 166.1 224.73" style="fill:#fafafa"></polygon><polygon points="174.34 224.73 173.16 224.73 154.24 183.79 155.41 183.79 174.34 224.73" style="fill:#fafafa"></polygon><polygon points="182.57 224.73 181.4 224.73 162.47 183.79 163.64 183.79 182.57 224.73" style="fill:#fafafa"></polygon><polygon points="177.3 262.71 114.16 262.71 89.95 210.34 153.09 210.34 177.3 262.71" style="fill:#ebebeb"></polygon><polygon points="165.48 237.15 102.34 237.15 101.77 235.9 164.91 235.9 165.48 237.15" style="fill:#f5f5f5"></polygon><polygon points="125.42 262.71 123.92 262.71 99.7 210.34 101.2 210.34 125.42 262.71" style="fill:#f5f5f5"></polygon><polygon points="135.95 262.71 134.45 262.71 110.23 210.34 111.73 210.34 135.95 262.71" style="fill:#f5f5f5"></polygon><polygon points="146.48 262.71 144.98 262.71 120.77 210.34 122.27 210.34 146.48 262.71" style="fill:#f5f5f5"></polygon><polygon points="157.02 262.71 155.52 262.71 131.3 210.34 132.8 210.34 157.02 262.71" style="fill:#f5f5f5"></polygon><polygon points="167.55 262.71 166.05 262.71 141.83 210.34 143.33 210.34 167.55 262.71" style="fill:#f5f5f5"></polygon><polygon points="241.52 262.71 192.17 262.71 173.24 221.77 222.59 221.77 241.52 262.71" style="fill:#ebebeb"></polygon><polygon points="232.28 242.73 182.93 242.73 182.48 241.76 231.83 241.76 232.28 242.73" style="fill:#f5f5f5"></polygon><polygon points="200.97 262.71 199.79 262.71 180.87 221.78 182.04 221.78 200.97 262.71" style="fill:#f5f5f5"></polygon><polygon points="209.2 262.71 208.03 262.71 189.1 221.78 190.27 221.78 209.2 262.71" style="fill:#f5f5f5"></polygon><polygon points="217.43 262.71 216.26 262.71 197.33 221.78 198.5 221.78 217.43 262.71" style="fill:#f5f5f5"></polygon><polygon points="225.67 262.71 224.49 262.71 205.56 221.78 206.74 221.78 225.67 262.71" style="fill:#f5f5f5"></polygon><polygon points="233.9 262.71 232.73 262.71 213.8 221.78 214.97 221.78 233.9 262.71" style="fill:#f5f5f5"></polygon><path d="M299.65,381l-1.6-237.56a2.77,2.77,0,0,0-2.77-2.75h0a2.77,2.77,0,0,0-2.77,2.75L290.9,381Z" style="fill:#f5f5f5"></path><path d="M292.86,153.4,267.1,186.84a1.07,1.07,0,0,0,.19,1.51h0a1.08,1.08,0,0,0,1.44-.11l26-27.22-1.38-3.22,2-2.53Z" style="fill:#f0f0f0"></path><path d="M295.28,155.27l-16.26-39a1.08,1.08,0,0,0-1.41-.58h0A1.09,1.09,0,0,0,277,117l10.76,36,3.48.41,1.23,2.95Z" style="fill:#f0f0f0"></path><path d="M292.54,156.44l42,4.42a1.08,1.08,0,0,0,1.19-1h0a1.08,1.08,0,0,0-.85-1.17l-36.78-7.85-2,2.86-3.19-.34Z" style="fill:#f0f0f0"></path><path d="M359.47,381l-1.78-264a3.08,3.08,0,0,0-3.08-3.06h0a3.08,3.08,0,0,0-3.08,3.06l-1.78,264Z" style="fill:#f5f5f5"></path><path d="M351.92,128.12,323.3,165.27a1.19,1.19,0,0,0,.22,1.68h0a1.19,1.19,0,0,0,1.59-.13L354,136.58,352.44,133l2.17-2.82Z" style="fill:#ebebeb"></path><path d="M354.61,130.19,336.55,86.91a1.21,1.21,0,0,0-1.57-.65h0a1.2,1.2,0,0,0-.69,1.45l11.95,40.05,3.87.45,1.37,3.28Z" style="fill:#ebebeb"></path><path d="M351.57,131.49l46.64,4.91a1.19,1.19,0,0,0,1.31-1.06h0a1.2,1.2,0,0,0-.94-1.3l-40.87-8.73-2.25,3.18-3.54-.37Z" style="fill:#ebebeb"></path><path d="M419.27,381l-2-293.28a3.42,3.42,0,0,0-3.42-3.4h0a3.42,3.42,0,0,0-3.42,3.4l-2,293.28Z" style="fill:#f0f0f0"></path><path d="M410.88,100l-31.8,41.28a1.34,1.34,0,0,0,.24,1.87h0a1.33,1.33,0,0,0,1.77-.14l32.06-33.6-1.7-4,2.42-3.14Z" style="fill:#e6e6e6"></path><path d="M413.87,102.32,393.8,54.23a1.33,1.33,0,0,0-1.75-.71h0a1.34,1.34,0,0,0-.76,1.61l13.28,44.5,4.29.49,1.53,3.65Z" style="fill:#e6e6e6"></path><path d="M410.49,103.77l51.82,5.46a1.32,1.32,0,0,0,1.46-1.19h0a1.34,1.34,0,0,0-1-1.44l-45.42-9.69-2.49,3.52-3.94-.41Z" style="fill:#e6e6e6"></path></g><g id="freepik--Shadow--inject-163"><ellipse id="freepik--path--inject-163" cx="250" cy="416.24" rx="193.89" ry="11.32" style="fill:#f5f5f5"></ellipse></g><g id="freepik--plant-2--inject-163"><path d="M413.07,398.34a822.38,822.38,0,0,0-6.15-107.65c-4.48-34.91-.18-51.2-.18-51.2l2.41.46s-3.91,13.09,3.92,66.88a757.41,757.41,0,0,1,7.12,90.35Z" style="fill:#415BB2"></path><path d="M409.25,302.33a46.42,46.42,0,0,0,13.15-23.12H424s-3.54,17.31-13.27,26.11Z" style="fill:#415BB2"></path><path d="M393.38,299.54s11.94,24.87,21.07,28.78v3.74s-14.05-11-21.77-31.78Z" style="fill:#415BB2"></path><path d="M407.32,277.09s-5.49-12.16-20.58-19.46l-.81,1.46s11.51,3.79,21.49,25.74Z" style="fill:#415BB2"></path><path d="M407.3,262.84s4.27-8.7,18.57-17.16l.71.69s-15.91,11.78-19.17,23.93Z" style="fill:#415BB2"></path><g style="opacity:0.4;isolation:isolate"><path d="M413.07,398.34a822.38,822.38,0,0,0-6.15-107.65c-4.48-34.91-.18-51.2-.18-51.2l2.41.46s-3.91,13.09,3.92,66.88a757.41,757.41,0,0,1,7.12,90.35Z" style="fill:#fff"></path><path d="M409.25,302.33a46.42,46.42,0,0,0,13.15-23.12H424s-3.54,17.31-13.27,26.11Z" style="fill:#fff"></path><path d="M393.38,299.54s11.94,24.87,21.07,28.78v3.74s-14.05-11-21.77-31.78Z" style="fill:#fff"></path><path d="M407.32,277.09s-5.49-12.16-20.58-19.46l-.81,1.46s11.51,3.79,21.49,25.74Z" style="fill:#fff"></path><path d="M407.3,262.84s4.27-8.7,18.57-17.16l.71.69s-15.91,11.78-19.17,23.93Z" style="fill:#fff"></path></g><path d="M411.62,228.2s5,11.68-4.09,15.3C407.53,243.5,400.54,235.72,411.62,228.2Z" style="fill:#415BB2"></path><path d="M411.62,228.2s5,11.68-4.09,15.3C407.53,243.5,400.54,235.72,411.62,228.2Z" style="fill:#fff;opacity:0.1;isolation:isolate"></path><path d="M434.69,241.93s-4.13,10.57-12.18,7.16C422.51,249.09,422.94,239.76,434.69,241.93Z" style="fill:#415BB2"></path><path d="M434.69,241.93s-4.13,10.57-12.18,7.16C422.51,249.09,422.94,239.76,434.69,241.93Z" style="fill:#fff;opacity:0.1;isolation:isolate"></path><path d="M379.19,250.62s10.35,1.23,9.2,9.17C388.39,259.79,380,261.57,379.19,250.62Z" style="fill:#415BB2"></path><path d="M379.19,250.62s10.35,1.23,9.2,9.17C388.39,259.79,380,261.57,379.19,250.62Z" style="fill:#fff;opacity:0.1;isolation:isolate"></path><path d="M394,294.11s6.92,5.79,2.32,11C396.3,305.11,389.37,302.42,394,294.11Z" style="fill:#415BB2"></path><path d="M394,294.11s6.92,5.79,2.32,11C396.3,305.11,389.37,302.42,394,294.11Z" style="fill:#fff;opacity:0.1;isolation:isolate"></path><path d="M433.34,274.53s-3.88,9.93-11.45,6.73C421.89,281.26,422.3,272.5,433.34,274.53Z" style="fill:#415BB2"></path><path d="M433.34,274.53s-3.88,9.93-11.45,6.73C421.89,281.26,422.3,272.5,433.34,274.53Z" style="fill:#fff;opacity:0.1;isolation:isolate"></path><path d="M421.48,238.91s-5.26,11.57-14.06,7.28C407.42,246.19,408.47,235.78,421.48,238.91Z" style="fill:#415BB2"></path><path d="M421.48,238.91s-5.26,11.57-14.06,7.28C407.42,246.19,408.47,235.78,421.48,238.91Z" style="fill:#fff;opacity:0.2;isolation:isolate"></path><path d="M395.62,235.85s12.67,1,11.62,10.75C407.24,246.6,397.1,249.16,395.62,235.85Z" style="fill:#415BB2"></path><path d="M395.62,235.85s12.67,1,11.62,10.75C407.24,246.6,397.1,249.16,395.62,235.85Z" style="fill:#fff;opacity:0.2;isolation:isolate"></path><path d="M385.67,248.86s8.9,5.42,4.55,12.17C390.22,261,381.85,259.16,385.67,248.86Z" style="fill:#415BB2"></path><path d="M385.67,248.86s8.9,5.42,4.55,12.17C390.22,261,381.85,259.16,385.67,248.86Z" style="fill:#fff;opacity:0.2;isolation:isolate"></path><path d="M403.5,231.79s9.95,7.9,3.66,15.41C407.16,247.2,397.32,243.67,403.5,231.79Z" style="fill:#415BB2"></path><path d="M403.5,231.79s9.95,7.9,3.66,15.41C407.16,247.2,397.32,243.67,403.5,231.79Z" style="fill:#fff;opacity:0.30000000000000004;isolation:isolate"></path><path d="M402.12,296.06s.31,9-6.64,9.07C395.48,305.13,392.86,298.18,402.12,296.06Z" style="fill:#415BB2"></path><path d="M402.12,296.06s.31,9-6.64,9.07C395.48,305.13,392.86,298.18,402.12,296.06Z" style="fill:#fff;opacity:0.2;isolation:isolate"></path><path d="M384.71,302.29s8.37-3.36,10.79,3.17C395.5,305.46,389.85,310.29,384.71,302.29Z" style="fill:#415BB2"></path><path d="M384.71,302.29s8.37-3.36,10.79,3.17C395.5,305.46,389.85,310.29,384.71,302.29Z" style="fill:#fff;opacity:0.2;isolation:isolate"></path><path d="M388.43,297.22s8.83,1.88,7.2,8.64C395.63,305.86,388.26,306.73,388.43,297.22Z" style="fill:#415BB2"></path><path d="M388.43,297.22s8.83,1.88,7.2,8.64C395.63,305.86,388.26,306.73,388.43,297.22Z" style="fill:#fff;opacity:0.30000000000000004;isolation:isolate"></path><path d="M378.19,260.38s8.6-5.88,13,.86C391.15,261.24,386,268.1,378.19,260.38Z" style="fill:#415BB2"></path><path d="M378.19,260.38s8.6-5.88,13,.86C391.15,261.24,386,268.1,378.19,260.38Z" style="fill:#fff;opacity:0.30000000000000004;isolation:isolate"></path><path d="M425.89,269.24s4.36,9.73-3.23,12.88C422.66,282.12,416.7,275.69,425.89,269.24Z" style="fill:#415BB2"></path><path d="M425.89,269.24s4.36,9.73-3.23,12.88C422.66,282.12,416.7,275.69,425.89,269.24Z" style="fill:#fff;opacity:0.2;isolation:isolate"></path><path d="M416.49,270.7s9.93,3.87,6.74,11.44C423.23,282.14,414.47,281.74,416.49,270.7Z" style="fill:#415BB2"></path><path d="M416.49,270.7s9.93,3.87,6.74,11.44C423.23,282.14,414.47,281.74,416.49,270.7Z" style="fill:#fff;opacity:0.30000000000000004;isolation:isolate"></path><path d="M434.69,251.06s-8.66,7.34-14.13.52C420.56,251.58,425.38,243.57,434.69,251.06Z" style="fill:#415BB2"></path><path d="M434.69,251.06s-8.66,7.34-14.13.52C420.56,251.58,425.38,243.57,434.69,251.06Z" style="fill:#fff;opacity:0.2;isolation:isolate"></path><path d="M424.63,238.94s4,10.6-4.21,13.49C420.42,252.43,414.47,245.24,424.63,238.94Z" style="fill:#415BB2"></path><path d="M424.63,238.94s4,10.6-4.21,13.49C420.42,252.43,414.47,245.24,424.63,238.94Z" style="fill:#fff;opacity:0.30000000000000004;isolation:isolate"></path><path d="M382.25,401.88s15.2-2.07,23.93-5.65,27.19.49,33,2.36a122.3,122.3,0,0,0,14.24,3.29Z" style="fill:#415BB2"></path><path d="M382.25,401.88s15.2-2.07,23.93-5.65,27.19.49,33,2.36a122.3,122.3,0,0,0,14.24,3.29Z" style="fill:#fff;opacity:0.30000000000000004;isolation:isolate"></path></g><g id="freepik--plant-1--inject-163"><path d="M83.47,398.45A821.74,821.74,0,0,0,92,291c.29-35.19,6.75-50.74,6.75-50.74l2.34.78s-5.65,12.44-5.19,66.78a756.35,756.35,0,0,1-5.19,90.49Z" style="fill:#415BB2"></path><path d="M94.58,263.79a46.37,46.37,0,0,0,22.18-14.68l1.38.7s-11,13.84-23.63,17.3Z" style="fill:#415BB2"></path><path d="M71.12,280.31s20,19,20.89,28.92l3.55,1.15s-6.13-16.75-23.51-30.5Z" style="fill:#415BB2"></path><path d="M94.22,277.55s-3.79-12.8-17.75-22.08l-1,1.34s10.88,5.32,17.8,28.42Z" style="fill:#415BB2"></path><path d="M94.72,290.36s5.41-8,20.73-14.47l.6.77s-17.36,9.51-22.23,21.11Z" style="fill:#415BB2"></path><path d="M95,262.49s-10.39-14.38-12.26-29l.8-.33s4,17.12,12.79,24.06Z" style="fill:#415BB2"></path><g style="opacity:0.4;isolation:isolate"><path d="M83.47,398.45A821.74,821.74,0,0,0,92,291c.29-35.19,6.75-50.74,6.75-50.74l2.34.78s-5.65,12.44-5.19,66.78a756.35,756.35,0,0,1-5.19,90.49Z" style="fill:#fff"></path><path d="M94.58,263.79a46.37,46.37,0,0,0,22.18-14.68l1.38.7s-11,13.84-23.63,17.3Z" style="fill:#fff"></path><path d="M71.12,280.31s20,19,20.89,28.92l3.55,1.15s-6.13-16.75-23.51-30.5Z" style="fill:#fff"></path><path d="M94.22,277.55s-3.79-12.8-17.75-22.08l-1,1.34s10.88,5.32,17.8,28.42Z" style="fill:#fff"></path><path d="M94.72,290.36s5.41-8,20.73-14.47l.6.77s-17.36,9.51-22.23,21.11Z" style="fill:#fff"></path><path d="M95,262.49s-10.39-14.38-12.26-29l.8-.33s4,17.12,12.79,24.06Z" style="fill:#fff"></path></g><path d="M110.08,225.9s2.08,12.54-7.61,13.88C102.47,239.78,97.53,230.56,110.08,225.9Z" style="fill:#415BB2"></path><path d="M110.08,225.9s2.08,12.54-7.61,13.88C102.47,239.78,97.53,230.56,110.08,225.9Z" style="fill:#fff;opacity:0.1;isolation:isolate"></path><path d="M124.7,273.36s-5.53,9.91-13,5.45C111.65,278.81,113.34,269.62,124.7,273.36Z" style="fill:#415BB2"></path><path d="M124.7,273.36s-5.53,9.91-13,5.45C111.65,278.81,113.34,269.62,124.7,273.36Z" style="fill:#fff;opacity:0.1;isolation:isolate"></path><path d="M69.93,247.51s10.1,2.61,7.87,10.33C77.8,257.84,69.25,258.47,69.93,247.51Z" style="fill:#415BB2"></path><path d="M69.93,247.51s10.1,2.61,7.87,10.33C77.8,257.84,69.25,258.47,69.93,247.51Z" style="fill:#fff;opacity:0.1;isolation:isolate"></path><path d="M65.77,279.21s3.37,8.37,9.75,5.6C75.52,284.81,75.1,277.39,65.77,279.21Z" style="fill:#415BB2"></path><path d="M65.77,279.21s3.37,8.37,9.75,5.6C75.52,284.81,75.1,277.39,65.77,279.21Z" style="fill:#fff;opacity:0.1;isolation:isolate"></path><path d="M128.63,249.88s-7.94,7.1-13.25.83C115.38,250.71,119.7,243.08,128.63,249.88Z" style="fill:#415BB2"></path><path d="M128.63,249.88s-7.94,7.1-13.25.83C115.38,250.71,119.7,243.08,128.63,249.88Z" style="fill:#fff;opacity:0.1;isolation:isolate"></path><path d="M112.34,238.09s-5,11.66-13.93,7.53C98.41,245.62,99.27,235.2,112.34,238.09Z" style="fill:#415BB2"></path><path d="M112.34,238.09s-5,11.66-13.93,7.53C98.41,245.62,99.27,235.2,112.34,238.09Z" style="fill:#fff;opacity:0.2;isolation:isolate"></path><path d="M93.72,230.23s10.43,7.27,4.62,15.14C98.34,245.37,88.29,242.46,93.72,230.23Z" style="fill:#415BB2"></path><path d="M93.72,230.23s10.43,7.27,4.62,15.14C98.34,245.37,88.29,242.46,93.72,230.23Z" style="fill:#fff;opacity:0.2;isolation:isolate"></path><path d="M76.59,246.64s8.09,6.58,2.86,12.67C79.45,259.31,71.41,256.32,76.59,246.64Z" style="fill:#415BB2"></path><path d="M76.59,246.64s8.09,6.58,2.86,12.67C79.45,259.31,71.41,256.32,76.59,246.64Z" style="fill:#fff;opacity:0.2;isolation:isolate"></path><path d="M100.3,226.89s7.09,10.55-1.18,15.79C99.12,242.68,90.81,236.32,100.3,226.89Z" style="fill:#415BB2"></path><path d="M100.3,226.89s7.09,10.55-1.18,15.79C99.12,242.68,90.81,236.32,100.3,226.89Z" style="fill:#fff;opacity:0.30000000000000004;isolation:isolate"></path><path d="M65.12,287.56s8.48,3.07,10.67-3.52C75.79,284,70,279.4,65.12,287.56Z" style="fill:#415BB2"></path><path d="M65.12,287.56s8.48,3.07,10.67-3.52C75.79,284,70,279.4,65.12,287.56Z" style="fill:#fff;opacity:0.2;isolation:isolate"></path><path d="M76.41,272.91s-5.77,6.94-.31,11.24C76.1,284.15,82.43,280.27,76.41,272.91Z" style="fill:#415BB2"></path><path d="M76.41,272.91s-5.77,6.94-.31,11.24C76.1,284.15,82.43,280.27,76.41,272.91Z" style="fill:#fff;opacity:0.2;isolation:isolate"></path><path d="M70.44,274.89s-.94,9,6,9.52C76.43,284.41,79.53,277.66,70.44,274.89Z" style="fill:#415BB2"></path><path d="M70.44,274.89s-.94,9,6,9.52C76.43,284.41,79.53,277.66,70.44,274.89Z" style="fill:#fff;opacity:0.30000000000000004;isolation:isolate"></path><path d="M67.62,257s9.32-4.67,12.72,2.61C80.34,259.65,74.31,265.75,67.62,257Z" style="fill:#415BB2"></path><path d="M67.62,257s9.32-4.67,12.72,2.61C80.34,259.65,74.31,265.75,67.62,257Z" style="fill:#fff;opacity:0.30000000000000004;isolation:isolate"></path><path d="M124.38,241.8s-.51,10.64-8.7,10C115.68,251.83,113.27,243.39,124.38,241.8Z" style="fill:#415BB2"></path><path d="M124.38,241.8s-.51,10.64-8.7,10C115.68,251.83,113.27,243.39,124.38,241.8Z" style="fill:#fff;opacity:0.2;isolation:isolate"></path><path d="M115.34,238.85s7.11,7.94.84,13.25C116.18,252.1,108.55,247.78,115.34,238.85Z" style="fill:#415BB2"></path><path d="M115.34,238.85s7.11,7.94.84,13.25C116.18,252.1,108.55,247.78,115.34,238.85Z" style="fill:#fff;opacity:0.30000000000000004;isolation:isolate"></path><path d="M123.46,282.41s-9.58,6.09-14.07-1.41C109.39,281,115.24,273.73,123.46,282.41Z" style="fill:#415BB2"></path><path d="M123.46,282.41s-9.58,6.09-14.07-1.41C109.39,281,115.24,273.73,123.46,282.41Z" style="fill:#fff;opacity:0.2;isolation:isolate"></path><path d="M115.13,269s2.57,11.06-6,12.8C109.13,281.83,104.21,273.9,115.13,269Z" style="fill:#415BB2"></path><path d="M115.13,269s2.57,11.06-6,12.8C109.13,281.83,104.21,273.9,115.13,269Z" style="fill:#fff;opacity:0.30000000000000004;isolation:isolate"></path><path d="M82.8,224.94S90,232,84.36,237.41C84.36,237.41,76.9,233.78,82.8,224.94Z" style="fill:#415BB2"></path><path d="M82.8,224.94S90,232,84.36,237.41C84.36,237.41,76.9,233.78,82.8,224.94Z" style="fill:#fff;opacity:0.1;isolation:isolate"></path><path d="M90.26,228.16s2.94,9.65-4.55,11.71C85.71,239.87,80.87,233.12,90.26,228.16Z" style="fill:#415BB2"></path><path d="M90.26,228.16s2.94,9.65-4.55,11.71C85.71,239.87,80.87,233.12,90.26,228.16Z" style="fill:#fff;opacity:0.2;isolation:isolate"></path><path d="M76.82,232.1s10.08.43,9.54,8.18C86.36,240.28,78.39,242.61,76.82,232.1Z" style="fill:#415BB2"></path><path d="M76.82,232.1s10.08.43,9.54,8.18C86.36,240.28,78.39,242.61,76.82,232.1Z" style="fill:#fff;opacity:0.30000000000000004;isolation:isolate"></path><path d="M52.25,401.88s15.2-2.07,23.93-5.65,27.19.49,33,2.36a122.3,122.3,0,0,0,14.24,3.29Z" style="fill:#415BB2"></path><path d="M52.25,401.88s15.2-2.07,23.93-5.65,27.19.49,33,2.36a122.3,122.3,0,0,0,14.24,3.29Z" style="fill:#fff;opacity:0.30000000000000004;isolation:isolate"></path></g><g id="freepik--character-2--inject-163"><g id="freepik--group--inject-163"><path d="M276.69,310.3s-3.23,17.74-4.64,24.17S243.74,379,243.74,379s-6.07,9.92-6.07,13.09,10.29,9.85,11.6,9.15,4.22-15.74,4.22-15.74l-1.31-3.93s27.45-35.63,29.68-40.9,7.32-26.95,7.32-26.95Z" style="fill:#e4897b"></path><path d="M273,323.19s3-32.49,5.74-38.3,13.25,2.82,15,14-6.33,31.58-6.33,31.58Z" style="fill:#415BB2"></path><path d="M293.38,309.81A108,108,0,0,1,289.12,326c-.94,2.76-1.64,4.51-1.64,4.51L273,323.19s3-32.49,5.74-38.3,13.25,2.82,15,14A35.51,35.51,0,0,1,293.38,309.81Z" style="fill:#fff;opacity:0.4;isolation:isolate"></path><polygon points="272.05 320.51 272.05 325 288.07 333.06 290.44 328.08 272.05 320.51" style="fill:#415BB2"></polygon><polygon points="272.05 320.51 272.05 325 288.07 333.06 290.44 328.08 272.05 320.51" style="fill:#fff;opacity:0.6000000000000001;isolation:isolate"></polygon><path d="M293.38,309.81A108,108,0,0,1,289.12,326c-3.87-10-2.92-31.27-2.92-31.27Z" style="opacity:0.2;isolation:isolate"></path><polygon points="355.05 404.55 342.14 405.99 330.23 407.31 331.43 397.24 331.43 397.21 331.44 397.21 332.3 397.2 341.64 397.11 351.22 397.02 355.05 404.55" style="fill:#e4897b"></polygon><polygon points="342.14 405.99 330.23 407.31 331.43 397.24 331.44 397.21 332.3 397.2 341.65 397.1 341.64 397.11 342.14 405.99" style="opacity:0.2;isolation:isolate"></polygon><polygon points="336.75 393.33 335.84 410.41 340.22 409.85 340.32 392.84 336.75 393.33" style="fill:#415BB2"></polygon><path d="M353.76,404.83l-6.49-8.1a.75.75,0,0,1,0-.93l4.88-6.07a1.26,1.26,0,0,1,1.77-.18,1.19,1.19,0,0,1,.19.2c2.06,2.65,3.43,4.69,6.07,8,1.62,2,6.73,8,9,10.76s-.23,5.38-1.4,4.44c-5.23-4.24-9.88-6.86-12.68-7.32A2.13,2.13,0,0,1,353.76,404.83Z" style="fill:#263238"></path><path d="M353.76,404.83l-6.49-8.1a.75.75,0,0,1,0-.93l4.88-6.07a1.26,1.26,0,0,1,1.77-.18,1.19,1.19,0,0,1,.19.2c2.06,2.65,3.43,4.69,6.07,8,1.62,2,6.73,8,9,10.76s-.23,5.38-1.4,4.44c-5.23-4.24-9.88-6.86-12.68-7.32A2.13,2.13,0,0,1,353.76,404.83Z" style="opacity:0.2;isolation:isolate"></path><path d="M289.69,270c3.34-5.65,10.91-10.33,16.5-9.65s32.94,39.19,32.94,39.19L356.68,336l-58.35,19.58s1.1-32.36-7.66-58.21C290.67,297.38,285.19,277.63,289.69,270Z" style="fill:#415BB2"></path><path d="M289.69,270c3.34-5.65,10.91-10.33,16.5-9.65s32.94,39.19,32.94,39.19L356.68,336l-58.35,19.58s1.1-32.36-7.66-58.21C290.67,297.38,285.19,277.63,289.69,270Z" style="fill:#fff;opacity:0.2;isolation:isolate"></path><path d="M340.06,330.6l-2.3,31.13s-2.32,2.25-5.56,5.59c-8.34,8.55-22.78,24.27-20.05,27.79,3.8,4.9,16.47,3.73,16.47,3.73l4.33,13,1,2.94L333,415a111.84,111.84,0,0,1-20.47,3c-12.41.55-26.11-1.66-28.76-13.43-5.06-22.42,18.32-48.64,27-60,2.14-2.8,1.45-14,1.45-14Z" style="fill:#263238"></path><path d="M333,415a111.84,111.84,0,0,1-20.47,3,33.28,33.28,0,0,1-14.4-12.62c-10.48-17.41,21.56-49.67,21.56-49.67v-7.55L332,355.77l.2,11.55c-8.34,8.55-22.78,24.27-20.05,27.79,3.8,4.9,16.47,3.73,16.47,3.73l4.33,13Z" style="opacity:0.2;isolation:isolate"></path><path d="M356.7,406.09a2.59,2.59,0,0,1,.69,1.55,1.19,1.19,0,0,1-.59,1,.6.6,0,0,1-.65.09c-1-.44-1.38-3.65-1.42-4a.2.2,0,0,1,.09-.2.21.21,0,0,1,.23,0A10.55,10.55,0,0,1,356.7,406.09Zm-.59,2.1a.39.39,0,0,0,.21.17s.13.05.27-.05a.81.81,0,0,0,.39-.66,4.11,4.11,0,0,0-1.78-2.47A8.41,8.41,0,0,0,356.11,408.19Z" style="fill:#415BB2"></path><path d="M355.1,404.58l.06.08c.17,1-.23,3.49-1,3.92a.66.66,0,0,1-.82-.18,1.05,1.05,0,0,1-.33-.83c0-1.28,1.79-3,1.88-3.06a.24.24,0,0,1,.2,0A.22.22,0,0,1,355.1,404.58Zm-1.63,3.51.06.07c.16.21.29.13.34.1.5-.26.93-2,.9-3.1a4.77,4.77,0,0,0-1.45,2.46A.68.68,0,0,0,353.47,408.09Z" style="fill:#415BB2"></path><polygon points="395.16 410.54 382.25 411.98 370.33 413.3 371.53 403.23 371.54 403.2 371.55 403.2 372.4 403.2 381.75 403.1 391.33 403.01 395.16 410.54" style="fill:#e4897b"></polygon><path d="M393.87,410.82l-6.49-8.09a.75.75,0,0,1,0-.94l4.88-6.07a1.26,1.26,0,0,1,1.78-.17,1.14,1.14,0,0,1,.19.19c2.06,2.66,3.43,4.69,6.06,8,1.63,2,6.74,8,9,10.77s-.23,5.37-1.4,4.43c-5.24-4.24-9.89-6.86-12.68-7.32A2.06,2.06,0,0,1,393.87,410.82Z" style="fill:#263238"></path><path d="M396.81,412.09a2.55,2.55,0,0,1,.68,1.55,1.18,1.18,0,0,1-.58,1,.61.61,0,0,1-.66.08c-1-.43-1.37-3.64-1.41-4a.18.18,0,0,1,.09-.2.2.2,0,0,1,.23,0A10.08,10.08,0,0,1,396.81,412.09Zm-.59,2.1a.55.55,0,0,0,.2.17s.14,0,.27-.05a.82.82,0,0,0,.4-.67,4.18,4.18,0,0,0-1.78-2.47A8,8,0,0,0,396.22,414.19Z" style="fill:#415BB2"></path><path d="M395.2,410.57l.06.08c.18,1-.22,3.49-1,3.92a.65.65,0,0,1-.82-.18,1.08,1.08,0,0,1-.34-.83c0-1.27,1.8-3,1.88-3.05a.23.23,0,0,1,.21,0A.21.21,0,0,1,395.2,410.57Zm-1.63,3.51.06.08c.17.2.3.12.35.1.5-.27.93-2,.9-3.1a4.79,4.79,0,0,0-1.46,2.46A.71.71,0,0,0,393.57,414.08Z" style="fill:#415BB2"></path><polygon points="382.25 411.98 370.33 413.3 371.53 403.23 371.55 403.2 372.4 403.2 381.75 403.09 381.75 403.1 382.25 411.98" style="opacity:0.2;isolation:isolate"></polygon><path d="M331.3,328.33c-2.68,12.3-29.68,70.37-12.62,85.81,12.52,11.35,59.25.65,59.25.65l.73-14.16s-36.78,1.21-40.64-3.06,18.83-36.38,22-45.14c5.59-15.55-.47-24.73-.47-24.73Z" style="fill:#263238"></path><polygon points="376.85 399.32 375.95 416.4 380.33 415.84 380.43 398.84 376.85 399.32" style="fill:#415BB2"></polygon><path d="M365.58,336.88l-53.93,1.05s-13.2-42.09-32.31-53.95a40.59,40.59,0,0,1,7.1-8.52,51.7,51.7,0,0,1,20.9-12,59.3,59.3,0,0,1,18.31-2.31S353.6,276.42,365.58,336.88Z" style="fill:#415BB2"></path><path d="M306.19,264.19c-5.44,19.88-15.52,8.82-15.52,8.82a3.86,3.86,0,0,0,.46-2.06,5.27,5.27,0,0,0-2.29-3.92,17.05,17.05,0,0,0-2-1.33l1.22-15.63a68.75,68.75,0,0,0,6.11,8C297.74,262,302.06,265.22,306.19,264.19Z" style="fill:#e4897b"></path><path d="M291.13,271a5.27,5.27,0,0,0-2.29-3.92,17.05,17.05,0,0,0-2-1.33l1.22-15.63a68.75,68.75,0,0,0,6.11,8C294.48,263.39,293.92,268.62,291.13,271Z" style="opacity:0.2;isolation:isolate"></path><path d="M262.79,249.22s2.6,9.44,10.14,11-1.33-18.42-1.33-18.42Z" style="fill:#263238"></path><path d="M293.5,260.12a13.53,13.53,0,0,1-.2,1.36,10.67,10.67,0,0,1-9.53,8.75,11.9,11.9,0,0,1-8.45-2.31,10.39,10.39,0,0,1-1-.8,26.82,26.82,0,0,1-1.87-1.94c-5-5.77-9.29-15.31-4.8-21.89a11.6,11.6,0,0,1,19.71.81C291.31,250.84,294,254.85,293.5,260.12Z" style="fill:#e4897b"></path><path d="M278,253.18a1,1,0,0,1,0,1.48c-.38.26-1,0-1.37-.58s-.39-1.25,0-1.49S277.6,252.6,278,253.18Z" style="fill:#263238"></path><path d="M271.5,257.48a1.07,1.07,0,0,1,0,1.49c-.37.25-1,0-1.37-.59s-.38-1.24,0-1.49S271.14,256.94,271.5,257.48Z" style="fill:#263238"></path><path d="M273.75,256.4a24.53,24.53,0,0,1,.52,6.73,4,4,0,0,0,3.1-1.32Z" style="fill:#de5753"></path><path d="M278.61,249.74a.46.46,0,0,1-.42.09,3.24,3.24,0,0,0-2.9.3.42.42,0,0,1-.57-.07.41.41,0,0,1,.08-.57h0a4,4,0,0,1,3.65-.43.41.41,0,0,1,.27.51h0A.54.54,0,0,1,278.61,249.74Z" style="fill:#263238"></path><path d="M267.23,257.1a.33.33,0,0,1-.19.14.4.4,0,0,1-.46-.33h0a4,4,0,0,1,1.17-3.51.41.41,0,0,1,.57.05h0a.41.41,0,0,1,0,.56h0a3.28,3.28,0,0,0-.89,2.79A.38.38,0,0,1,267.23,257.1Z" style="fill:#263238"></path><path d="M289.06,250c.78-.21,4.1,5.64,4.1,5.64s1.88-3.16.41-8.8c-2.9-11.12-5.72-12.29-9-12.29-6,0-8.79,8.54-8.79,8.54,1.75-1.59,4.67-1,5.08,1.42.58,3.31,4.6,6.57,7.66,7C288.54,251.47,287.91,250.27,289.06,250Z" style="fill:#263238"></path><path d="M294.29,247.84a8,8,0,0,1-1.59,5.94c-1.73,2.23-4.27,1.08-5.2-1.43-.8-2.24-.93-6.15,1.51-7.46S293.92,245.25,294.29,247.84Z" style="fill:#e4897b"></path><path d="M278.74,241.2s-3,5.27-4.1,5.8-.89-1.94-.89-1.94-3.88,4.84-5.34,4.64-.94-3.1-.94-3.1-4.07,6.93-5.66,7-2-5.44,1-10.06c0,0-2,3.69-3.35,2.9s1.82-8.44,8-10.94c0,0-.83,0-.94-1.58s7.43-4.88,13.42-2.64c0,0-2.05-2.11.85-2.64s5.4,3.56,5.4,3.56-.13-2,1.72-1.58,6,6,4.65,12.69Z" style="fill:#263238"></path><path d="M293.5,260.12a13.53,13.53,0,0,1-.2,1.36,10.67,10.67,0,0,1-9.53,8.75,11.9,11.9,0,0,1-8.45-2.31,10.39,10.39,0,0,1-1-.8,26.82,26.82,0,0,1-1.87-1.94,15.5,15.5,0,0,0,8.33-3.86c2.77-2.42,6.92-7.08,4.17-11.62-1.45-2.38,2.19,1.4,2.19,1.4S291.59,255.5,293.5,260.12Z" style="opacity:0.30000000000000004;isolation:isolate"></path><path d="M280.27,264.16h0a6.18,6.18,0,0,0,3.49-4.54.21.21,0,1,0-.42-.06h0a5.92,5.92,0,0,1-3.26,4.2.22.22,0,0,0-.11.28v0a.2.2,0,0,0,.27.1Z" style="fill:#263238"></path><path d="M310.77,274.2s35,39.73,40,69.16L369.34,339s-16.76-65.4-43.69-77.8l-14.88,0Z" style="fill:#415BB2"></path><path d="M369.34,339l-18.59,4.38c-1.23-7.33-4.32-15.29-8.28-23.11A181.89,181.89,0,0,0,332,302.37a278.81,278.81,0,0,0-21.24-28.17v-13l14.88,0C352.58,273.58,369.34,339,369.34,339Z" style="fill:#fff;opacity:0.6000000000000001;isolation:isolate"></path><path d="M306.19,260.36s4,3.83,4.58,13.84h7.34s-1.06-11.13-4.94-13.69C311.71,259.55,306.19,260.36,306.19,260.36Z" style="fill:#415BB2"></path><path d="M306.19,260.36s4,3.83,4.58,13.84h7.34s-1.06-11.13-4.94-13.69C311.71,259.55,306.19,260.36,306.19,260.36Z" style="fill:#fff;opacity:0.4;isolation:isolate"></path><path d="M290.54,284.52s11.35,45.56,7.79,71.07c0,0-2.66-33.82-7.66-46.08,0,0-9.76-13.67-11.33-25.53L287,273.57S287.88,280.3,290.54,284.52Z" style="fill:#415BB2"></path><path d="M290.54,284.52s11.35,45.56,7.79,71.07c0,0-2.66-33.82-7.66-46.08,0,0-9.76-13.67-11.33-25.53L287,273.57S287.88,280.3,290.54,284.52Z" style="fill:#fff;opacity:0.6000000000000001;isolation:isolate"></path><path d="M289.69,270s-2.31,7.78.85,14.51l-2.43,2.9a21,21,0,0,1-1.91-9.37C286.2,272,289.69,270,289.69,270Z" style="fill:#415BB2"></path><path d="M289.69,270s-2.31,7.78.85,14.51l-2.43,2.9a21,21,0,0,1-1.91-9.37C286.2,272,289.69,270,289.69,270Z" style="fill:#fff;opacity:0.4;isolation:isolate"></path><path d="M279.19,374.75a14.5,14.5,0,0,0-1.43,2.6l3.49,4.18a67.16,67.16,0,0,1-23.67,10.26c1.39-8.11,14.47-20,14.47-20l2.54,2.62s.48-.83,1.36-2.19a77.55,77.55,0,0,1,10-12.35,2.26,2.26,0,0,1,3.46.35h0a2.28,2.28,0,0,1-.27,2.86A77,77,0,0,0,279.19,374.75Z" style="fill:#263238"></path><path d="M281.25,381.53a67.16,67.16,0,0,1-23.67,10.26c1.39-8.11,14.47-20,14.47-20l2.54,2.62s.48-.83,1.36-2.19a4.2,4.2,0,0,0,3.24,2.57,14.5,14.5,0,0,0-1.43,2.6Z" style="fill:#fff;opacity:0.4;isolation:isolate"></path><path d="M281.25,381.53a67.16,67.16,0,0,1-23.67,10.26c1.39-8.11,14.47-20,14.47-20l2.54,2.62s-2.5,3-3,5.55a12.38,12.38,0,0,0,6.2-2.57Z" style="fill:#fff;opacity:0.2;isolation:isolate"></path><path d="M210.92,416.24H273s-7.73-2.26-9.62-4.45-8.61-1.36-10.58-1.38-5.94,1.95-8.31.76S234,401.24,228.7,398.49s-8.11,6.47-10.88,8.29S210.92,416.24,210.92,416.24Z" style="fill:#415BB2"></path><path d="M196.91,419.25s15.35-7.88,20-8.08,11,3.28,12.57,3.62,13.06-.74,15.43-1.49,10.28,1.34,12.66,1,9.43-5.13,11.83-5.9,20.81,9.19,23,9.75,7.51,1.22,7.51,1.22-18,1.11-20.57,1.11-5.52,2.77-15.92,2.18-14.94.56-19.88.08-6.13-1.86-11.67-1.86-12.86,1.78-16.62.2S196.91,419.25,196.91,419.25Z" style="fill:#415BB2"></path><path d="M196.91,419.25s15.35-7.88,20-8.08,11,3.28,12.57,3.62,13.06-.74,15.43-1.49,10.28,1.34,12.66,1,9.43-5.13,11.83-5.9,20.81,9.19,23,9.75,7.51,1.22,7.51,1.22-18,1.11-20.57,1.11-5.52,2.77-15.92,2.18-14.94.56-19.88.08-6.13-1.86-11.67-1.86-12.86,1.78-16.62.2S196.91,419.25,196.91,419.25Z" style="fill:#fff;opacity:0.2;isolation:isolate"></path><path d="M242,389.14c.29.12.5.45.82.51.12,0,.26,0,.39,0a.7.7,0,0,1,.49.44,1.34,1.34,0,0,1,0,.69c.4-.09.71,0,.93-.35s.26-.65.71-.71a1.71,1.71,0,0,1,.45,0,1.9,1.9,0,0,1,1.27.59,3.35,3.35,0,0,0,.39.59c.36.3.91.07,1.38.13a1.5,1.5,0,0,1,1,.72,2.81,2.81,0,0,1,.44,1.08v.83a2.55,2.55,0,0,1-.14,1c-.12.28-.31.87.2.92.17,0,.36-.05.47.07s.06.21.1.31.21.22.31.33a.92.92,0,0,1,.2.31,3.52,3.52,0,0,1,.1,2.29,7.82,7.82,0,0,0-.46,1.5v2.23a24.68,24.68,0,0,0,0,3.33,2.1,2.1,0,0,1,0,.79.69.69,0,0,1-.33.43c-.13.09-.31,0-.33.26a1.65,1.65,0,0,0,.06.43c.05.31-.08.77-.32.36a2,2,0,0,1-.08-.8c0-.58,0-1.16,0-1.74s-.11-1.07-.18-1.59a.91.91,0,0,0-.18-.49c-.45-.47-1.06.59-1.05,1a6.43,6.43,0,0,1,0,1.24,13.71,13.71,0,0,0-.13,4.65c0,.21.07.46-.1.59a.51.51,0,0,1-.28.07.62.62,0,0,1-.53-.11.64.64,0,0,1-.12-.41,10.81,10.81,0,0,0,0-2,.68.68,0,0,0-.08-.24c-.05-.06-.13-.1-.19-.16a.88.88,0,0,1-.15-.72,17.46,17.46,0,0,0-.18-2.89,1.61,1.61,0,0,0-.15-.62.58.58,0,0,0-.49-.35c-.49,0-.36.55-.34.85a1.6,1.6,0,0,1,0,.49.45.45,0,0,1-.33.32.23.23,0,0,1-.16,0,.35.35,0,0,1-.1-.3l0-.36a.32.32,0,0,0,0-.14c-.08-.14-.3-.09-.45-.15s-.28-.92-.34-1.16c-.12-.48-.2-1-.28-1.46a11.68,11.68,0,0,0-.49-2.49c-.25-.6-.38-1.24-.68-1.81a2.07,2.07,0,0,1-.2-.46,5.85,5.85,0,0,0,0-.6c-.06-.23-.23-.41-.26-.63a1.41,1.41,0,0,1,.27-.77,1.68,1.68,0,0,0-.33-1.87c-.23-.23-.53-.31-.76-.54a4.44,4.44,0,0,0-.74-.76c-.4-.27-1-.27-1.21-.72.08.14.28,0,.32-.16s.1-.35.25-.34l.13.05a.83.83,0,0,0,.6.05.73.73,0,0,1-.21-.69,1.29,1.29,0,0,1,.37-.65.82.82,0,0,1,.66-.3Z" style="fill:#415BB2"></path><path d="M242,389.14c.29.12.5.45.82.51.12,0,.26,0,.39,0a.7.7,0,0,1,.49.44,1.34,1.34,0,0,1,0,.69c.4-.09.71,0,.93-.35s.26-.65.71-.71a1.71,1.71,0,0,1,.45,0,1.9,1.9,0,0,1,1.27.59,3.35,3.35,0,0,0,.39.59c.36.3.91.07,1.38.13a1.5,1.5,0,0,1,1,.72,2.81,2.81,0,0,1,.44,1.08v.83a2.55,2.55,0,0,1-.14,1c-.12.28-.31.87.2.92.17,0,.36-.05.47.07s.06.21.1.31.21.22.31.33a.92.92,0,0,1,.2.31,3.52,3.52,0,0,1,.1,2.29,7.82,7.82,0,0,0-.46,1.5v2.23a24.68,24.68,0,0,0,0,3.33,2.1,2.1,0,0,1,0,.79.69.69,0,0,1-.33.43c-.13.09-.31,0-.33.26a1.65,1.65,0,0,0,.06.43c.05.31-.08.77-.32.36a2,2,0,0,1-.08-.8c0-.58,0-1.16,0-1.74s-.11-1.07-.18-1.59a.91.91,0,0,0-.18-.49c-.45-.47-1.06.59-1.05,1a6.43,6.43,0,0,1,0,1.24,13.71,13.71,0,0,0-.13,4.65c0,.21.07.46-.1.59a.51.51,0,0,1-.28.07.62.62,0,0,1-.53-.11.64.64,0,0,1-.12-.41,10.81,10.81,0,0,0,0-2,.68.68,0,0,0-.08-.24c-.05-.06-.13-.1-.19-.16a.88.88,0,0,1-.15-.72,17.46,17.46,0,0,0-.18-2.89,1.61,1.61,0,0,0-.15-.62.58.58,0,0,0-.49-.35c-.49,0-.36.55-.34.85a1.6,1.6,0,0,1,0,.49.45.45,0,0,1-.33.32.23.23,0,0,1-.16,0,.35.35,0,0,1-.1-.3l0-.36a.32.32,0,0,0,0-.14c-.08-.14-.3-.09-.45-.15s-.28-.92-.34-1.16c-.12-.48-.2-1-.28-1.46a11.68,11.68,0,0,0-.49-2.49c-.25-.6-.38-1.24-.68-1.81a2.07,2.07,0,0,1-.2-.46,5.85,5.85,0,0,0,0-.6c-.06-.23-.23-.41-.26-.63a1.41,1.41,0,0,1,.27-.77,1.68,1.68,0,0,0-.33-1.87c-.23-.23-.53-.31-.76-.54a4.44,4.44,0,0,0-.74-.76c-.4-.27-1-.27-1.21-.72.08.14.28,0,.32-.16s.1-.35.25-.34l.13.05a.83.83,0,0,0,.6.05.73.73,0,0,1-.21-.69,1.29,1.29,0,0,1,.37-.65.82.82,0,0,1,.66-.3Z" style="fill:#fff;opacity:0.2;isolation:isolate"></path><path d="M342.47,320.25A181.89,181.89,0,0,0,332,302.37l8.05-20.95S344.8,301.33,342.47,320.25Z" style="opacity:0.2;isolation:isolate"></path><path d="M338.08,298.08s.47,21.19-2.24,26.86-39.33,35.79-39.33,35.79-.93,6.77-2.45,7.9-10.49,3.12-11.42,3.12S281,359.09,281.86,358s8.82-3.69,10.14-3.69c0,0,32.7-32.83,32.7-35.53s.79-24.09.79-24.09Z" style="fill:#e4897b"></path><path d="M323.72,302.4s-2.48-32.52-.71-38.72,13.54.58,17.15,11.34-1,32.2-1,32.2Z" style="fill:#415BB2"></path><path d="M323.72,302.4s-2.48-32.52-.71-38.72,13.54.58,17.15,11.34-1,32.2-1,32.2Z" style="fill:#fff;opacity:0.4;isolation:isolate"></path><polygon points="322.3 299.93 323.05 304.36 340.19 309.64 341.7 304.33 322.3 299.93" style="fill:#415BB2"></polygon><polygon points="322.3 299.93 323.05 304.36 340.19 309.64 341.7 304.33 322.3 299.93" style="fill:#fff;opacity:0.6000000000000001;isolation:isolate"></polygon></g></g><g id="freepik--character-1--inject-163"><path d="M211.41,362.64c-2.37.2-6.5-2.07-7.28-2.61s-1.78-4.08-1.78-4.08-21-15-24-19.35l-.35-.52c-4.23-6.63-9-24.43-9.93-28-.1-.4-.16-.62-.16-.62s.35-12.55,5.88-12.17c5.24.36,7.79,27.35,13.22,35.62,1.74,2.65,20.74,21.33,21.88,22.57s9.22,2.23,10,3.41S213.77,362.45,211.41,362.64Z" style="fill:#b97964"></path><path d="M178,336.08c-4.23-6.63-9-24.43-9.93-28l6.56-11.29S180.57,320.44,178,336.08Z" style="opacity:0.2;isolation:isolate"></path><path d="M138,289c-.82,0-1.61-.1-2.41-.2-8.24-1.05.85-18.64,19.83-31.16,15.9-10.48,30.13-11.62,35.75-6.62a7.35,7.35,0,0,1,2.26,3.56C195.79,263,163.78,290.37,138,289Z" style="fill:#415BB2"></path><path d="M158.28,264.48c5.05-3.6,13.43-9.69,23.29-8.47s-4,15.94-18.6,23.39-18.69,6.6-19.38,4.5C142.43,280.32,151,269.71,158.28,264.48Z" style="opacity:0.2;isolation:isolate"></path><path d="M149.8,275s-2.17,4.12,0,10.33c0,0-7.48,1.68-8.76,9s9.84,7.09,13.77,5.81-1-13.88-1-13.88,6.74-4.33,8.07-8.36S149.8,275,149.8,275Z" style="fill:#263238"></path><path d="M162.79,361.26c-4.73,9.94-40.36,12.54-43.11,5.48s16.14-32.45,16.93-44.06,33.53-20.27,33.53-20.27S176,333.51,162.79,361.26Z" style="fill:#415BB2"></path><path d="M162.79,361.26c-4.73,9.94-40.36,12.54-43.11,5.48s16.14-32.45,16.93-44.06,33.53-20.27,33.53-20.27S176,333.51,162.79,361.26Z" style="fill:#fff;opacity:0.4;isolation:isolate"></path><polygon points="122.67 402.06 138.3 401.87 137.55 410.3 117.83 407.53 122.67 402.06" style="fill:#b97964"></polygon><polygon points="122.67 402.06 138.3 401.87 137.55 410.3 117.83 407.53 122.67 402.06" style="opacity:0.2;isolation:isolate"></polygon><path d="M126.5,401.48c.53.49-5.75,6.83-5.75,6.83s-7.8.47-12.24,3.66-4.9-1.15-1-5.64l9.67-11.09C120,392.05,121,396.41,126.5,401.48Z" style="fill:#263238"></path><path d="M126.5,401.48c.53.49-5.75,6.83-5.75,6.83s-7.8.47-12.24,3.66-4.9-1.15-1-5.64l9.67-11.09C120,392.05,121,396.41,126.5,401.48Z" style="opacity:0.2;isolation:isolate"></path><path d="M153.74,348.17l1.4,9s39,30.31,41.5,47.24S183.46,421,133.46,417l-1.58-16.14,18.76-2.59s-31-12.21-26.43-33.45C128.42,345.24,153.74,348.17,153.74,348.17Z" style="fill:#415BB2"></path><path d="M153.74,348.17l1.4,9s39,30.31,41.5,47.24S183.46,421,133.46,417l-1.58-16.14,18.76-2.59s-31-12.21-26.43-33.45C128.42,345.24,153.74,348.17,153.74,348.17Z" style="opacity:0.2;isolation:isolate"></path><polygon points="109.7 407.76 125.33 407.57 124.58 416 104.86 413.24 109.7 407.76" style="fill:#b97964"></polygon><path d="M113.53,407.19c.53.49-5.75,6.83-5.75,6.83s-7.8.47-12.24,3.66-4.9-1.15-1-5.64L104.22,401C107,397.76,108,402.12,113.53,407.19Z" style="fill:#263238"></path><path d="M153.74,348.17l-30.44-5c.93.15,6.85-12.95,8.19-17.61,1.87-6.44,3.32-18.76,2-26.73v-.06a5.92,5.92,0,0,1,5.36-6.82c2.43-.19,4.86-.28,7.31-.29a102.89,102.89,0,0,1,14.46.85c6.16,1,13.13,2.84,13.13,2.84s1,.41.52,7C173.87,308.6,171.53,328.9,153.74,348.17Z" style="fill:#263238"></path><path d="M165.13,286.37s-3.92,2.53-4.59,4.21a2,2,0,0,0-.1.32,23.15,23.15,0,0,0-.4,2.89c1.14,3.35-3.15,5.27-3.15,5.27-7.64-2.29-9.43-6-9.43-6,6.29-2.46,7.49-14.52,7.49-14.52l3.05,2.35Z" style="fill:#b97964"></path><path d="M165.13,286.37s-3.92,2.53-4.59,4.21a2,2,0,0,0-.1.32,12.79,12.79,0,0,1-5-10.89l2.55.86Z" style="opacity:0.2;isolation:isolate"></path><path d="M169.49,258.1s7.92-2.22,11.76,4.18.77,11.25-1.89,13.56" style="fill:none;stroke:#263238;stroke-linecap:round;stroke-linejoin:round;stroke-width:0.488465px"></path><path d="M172.65,257.75s6.46.2,8.24,5.66.46,11.59-9.13,18.19c-4.69,3.23-16.34-3.08-16.34-3.08l-.93,2.82a23.68,23.68,0,0,1-4.21-3.91c-3.77-4.42-2.8-19.06,7.66-21.93C168.87,252.51,172.65,257.75,172.65,257.75Z" style="fill:#263238"></path><path d="M166.48,259.58c8.22,1.12,10.26,5.87,9.71,14.42-.69,10.67-4.06,17.87-14,14.21C148.65,283.24,152.85,257.72,166.48,259.58Z" style="fill:#b97964"></path><path d="M170.94,272.81a17.6,17.6,0,0,0,1.93,3.73,2.27,2.27,0,0,1-2.29.64Z" style="fill:#a24e3f"></path><path d="M166,271.46c-.08.67-.51,1.18-1,1.13s-.75-.64-.68-1.32.51-1.18,1-1.13S166.08,270.78,166,271.46Z" style="fill:#263238"></path><path d="M165.14,270.15l1.53-.41S165.8,270.9,165.14,270.15Z" style="fill:#263238"></path><path d="M174.44,272.26c-.08.68-.51,1.19-1,1.14s-.75-.64-.68-1.32.51-1.19,1-1.13S174.51,271.59,174.44,272.26Z" style="fill:#263238"></path><path d="M173.57,271l1.53-.41S174.23,271.7,173.57,271Z" style="fill:#263238"></path><path d="M166.7,265.78a4.3,4.3,0,0,0-3.73.75" style="fill:none;stroke:#263238;stroke-linecap:round;stroke-linejoin:round;stroke-width:0.707962px"></path><path d="M172.71,266.24a3.86,3.86,0,0,1,3.18,1.12" style="fill:none;stroke:#263238;stroke-linecap:round;stroke-linejoin:round;stroke-width:0.707962px"></path><path d="M155.62,272.19s4.76-6.22,4.89-11.51c0,0,17.18-4.43,15.73,12.2,0,0,3.59-14.45-10.48-16.7s-17.32,17.13-10.86,24.28C154.9,280.46,152.67,276.09,155.62,272.19Z" style="fill:#263238"></path><path d="M156.73,274.11a3.64,3.64,0,0,0-3.43-3.82c-2.58-.07-4.51,5,1.65,7.11C155.84,277.7,156.47,276.88,156.73,274.11Z" style="fill:#b97964"></path><path d="M170.14,279.63a20.79,20.79,0,0,0-.83,3l-.55,0c-2.48-.12-3.59-1-4.07-1.92a3.27,3.27,0,0,1-.33-1.48,3.24,3.24,0,0,1,.11-.86,11.82,11.82,0,0,0,4.82,1.23C169.81,279.63,170.14,279.63,170.14,279.63Z" style="fill:#263238"></path><path d="M169.29,279.58l-.27.88c-2.33-.12-4-.51-4.66-1.25a3.24,3.24,0,0,1,.11-.86A11.82,11.82,0,0,0,169.29,279.58Z" style="fill:#fff"></path><path d="M168.76,282.61c-2.48-.12-3.59-1-4.07-1.92a8,8,0,0,1,2.73.67A2.93,2.93,0,0,1,168.76,282.61Z" style="fill:#de5753"></path><path d="M123.3,343.15c-14,19.88-11.1,40.56,27.11,57.4l-30.14,4.89.79,10.93s29.79,3,54,3c10.52,0,15.67-17.93,1.87-33.39S145.57,360,145.57,360c4.89-3.49,8.17-11.86,8.17-11.86Z" style="fill:#415BB2"></path><path d="M146.2,291.11a106.72,106.72,0,0,1-4.48,48.45c-8.66,25.11-28.16,49.2-28.16,49.2s-5.69-28,8.87-46.14c0,0,10.61-19.88,9.85-42.32C131.88,288.69,146.2,291.11,146.2,291.11Z" style="fill:#415BB2"></path><path d="M141.73,339.56c-8.67,25.11-28.17,49.21-28.17,49.21s-5.7-28,8.87-46.15a98,98,0,0,0,9.06-28.91,76.16,76.16,0,0,0,.79-13.41,10.79,10.79,0,0,1,.4-3.47c2.31-7.62,13.52-5.72,13.52-5.72A106.8,106.8,0,0,1,141.73,339.56Z" style="fill:#fff;opacity:0.6000000000000001;isolation:isolate"></path><path d="M163.57,292.82s6.83,13.91,5.19,36.16-6,32.28-6,32.28,18.11-24.4,11.63-65.75Z" style="fill:#415BB2"></path><path d="M163.57,292.82s6.83,13.91,5.19,36.16-6,32.28-6,32.28,18.11-24.4,11.63-65.75Z" style="fill:#fff;opacity:0.6000000000000001;isolation:isolate"></path><path d="M167.91,254.58s-11.55-6.5-17.06-5.45-3.39,4.72-3.39,4.72a3,3,0,0,0-3.18,3.08c-.13,3.22,2.93,11.67,2.93,11.67Z" style="fill:#415BB2"></path><path d="M167.91,254.58s-11.55-6.5-17.06-5.45-3.39,4.72-3.39,4.72a3,3,0,0,0-3.18,3.08c-.13,3.22,2.93,11.67,2.93,11.67Z" style="fill:#fff;opacity:0.2;isolation:isolate"></path><path d="M191.17,251l-1.74,3.56s-15.49-.86-29.27,8.56a63.51,63.51,0,0,0-19.94,22.31L138,289c-.82,0-1.61-.1-2.41-.2-8.24-1.05.85-18.64,19.83-31.16C171.32,247.16,185.55,246,191.17,251Z" style="fill:#415BB2"></path><path d="M201.25,323.07a4.76,4.76,0,0,0-.57-4.57c-1.62-2.51-6-3.55-6-3.55s-.4,5.61,1.32,7.68S201.25,323.07,201.25,323.07Z" style="fill:#415BB2"></path><path d="M208.76,323.91s-.9-5.56,8.16-5.22C216.92,318.69,215.67,326.23,208.76,323.91Z" style="fill:#415BB2"></path><path d="M201.25,323.07a4.76,4.76,0,0,0-.57-4.57c-1.62-2.51-6-3.55-6-3.55s-.4,5.61,1.32,7.68S201.25,323.07,201.25,323.07Z" style="fill:#fff;opacity:0.1;isolation:isolate"></path><path d="M208.76,323.91s-.9-5.56,8.16-5.22C216.92,318.69,215.67,326.23,208.76,323.91Z" style="fill:#fff;opacity:0.1;isolation:isolate"></path><path d="M210.81,322a.5.5,0,0,0-.7-.07,13.36,13.36,0,0,0-2,2,12.32,12.32,0,0,0-1.58,2.34,13.91,13.91,0,0,0-1,2.5q-.39-.87-.84-1.71a19.6,19.6,0,0,0-4.74-6,.51.51,0,0,0-.68.05.48.48,0,0,0,0,.7h0a18.53,18.53,0,0,1,4.09,5.86,26,26,0,0,1,2.09,6.86,24.92,24.92,0,0,1,.07,7.11,23.7,23.7,0,0,1-.75,3.44,16.58,16.58,0,0,1-1.25,3.14l0,.08a.16.16,0,0,0,0,.07,1.39,1.39,0,0,0,2.52,1.19,18.91,18.91,0,0,0,1.29-3.82,25.55,25.55,0,0,0,.59-3.86,26.77,26.77,0,0,0-.54-7.69,25.41,25.41,0,0,0-.77-2.75,11.26,11.26,0,0,1,.29-2.21,12.23,12.23,0,0,1,.83-2.43,11.24,11.24,0,0,1,1.32-2.21,12.56,12.56,0,0,1,1.76-1.89l0,0A.5.5,0,0,0,210.81,322Z" style="fill:#415BB2"></path><path d="M210.81,322a.5.5,0,0,0-.7-.07,13.36,13.36,0,0,0-2,2,12.32,12.32,0,0,0-1.58,2.34,13.91,13.91,0,0,0-1,2.5q-.39-.87-.84-1.71a19.6,19.6,0,0,0-4.74-6,.51.51,0,0,0-.68.05.48.48,0,0,0,0,.7h0a18.53,18.53,0,0,1,4.09,5.86,26,26,0,0,1,2.09,6.86,24.92,24.92,0,0,1,.07,7.11,23.7,23.7,0,0,1-.75,3.44,16.58,16.58,0,0,1-1.25,3.14l0,.08a.16.16,0,0,0,0,.07,1.39,1.39,0,0,0,2.52,1.19,18.91,18.91,0,0,0,1.29-3.82,25.55,25.55,0,0,0,.59-3.86,26.77,26.77,0,0,0-.54-7.69,25.41,25.41,0,0,0-.77-2.75,11.26,11.26,0,0,1,.29-2.21,12.23,12.23,0,0,1,.83-2.43,11.24,11.24,0,0,1,1.32-2.21,12.56,12.56,0,0,1,1.76-1.89l0,0A.5.5,0,0,0,210.81,322Z" style="fill:#fff;opacity:0.30000000000000004;isolation:isolate"></path><path d="M190.61,357a28,28,0,0,1,2.23-3,21.85,21.85,0,0,1,5.47-4.62l1.81-1.12.63-.39a18.3,18.3,0,0,0,2.71-1.9c.8-.7,1.61-1.59,2.67-1.59,1.84,0,2.72,1.47,3.82,2.75a16.29,16.29,0,0,0,3.62,3.56c2,1.15,5.41,5.42,5.32,6.2S210,364,202.68,362.65A26.24,26.24,0,0,1,190.61,357Z" style="fill:#415BB2"></path><path d="M140,317a14,14,0,0,1-8.47-3.26,76.16,76.16,0,0,0,.79-13.41,10.79,10.79,0,0,1,.4-3.47C136.29,301.77,147,317.2,140,317Z" style="opacity:0.2;isolation:isolate"></path><path d="M137.08,292.83c5.15-.45,15.64,33.07,19.58,36.74s37.27,26,37.27,26a26.18,26.18,0,0,1,4.72,0c1.84.27,10.24,2.64,10.24,2.64s-3.15,5.57-6.3,6.72S191,362.64,190,359.75c0,0-33.07-16.75-40.29-21.5s-14.9-27.3-16.83-33.87S134,293.09,137.08,292.83Z" style="fill:#b97964"></path></g></svg>