<svg xmlns="http://www.w3.org/2000/svg" xmlns:xlink="http://www.w3.org/1999/xlink" width="184.629" height="200" viewBox="0 0 184.629 200"><defs><style>.a{fill:url(#a);}.b{fill:url(#b);}.c{fill:url(#c);}.d{fill:url(#d);}.e{fill:#fff;}</style><linearGradient id="a" x1="0.096" y1="-0.82" x2="0.899" y2="-0.106" gradientUnits="objectBoundingBox"><stop offset="0" stop-color="#fcee39"/><stop offset="1" stop-color="#f37b3d"/></linearGradient><linearGradient id="b" x1="0.087" y1="1.686" x2="0.998" y2="0.828" gradientUnits="objectBoundingBox"><stop offset="0" stop-color="#ef5a6b"/><stop offset="0.57" stop-color="#f26f4e"/><stop offset="1" stop-color="#f37b3d"/></linearGradient><linearGradient id="c" x1="0.901" y1="0.973" x2="0.179" y2="1.622" gradientUnits="objectBoundingBox"><stop offset="0" stop-color="#7c59a4"/><stop offset="0.385" stop-color="#af4c92"/><stop offset="0.765" stop-color="#dc4183"/><stop offset="0.957" stop-color="#ed3d7d"/></linearGradient><linearGradient id="d" x1="0.911" y1="2.591" x2="0.186" y2="1.889" gradientUnits="objectBoundingBox"><stop offset="0" stop-color="#ef5a6b"/><stop offset="0.364" stop-color="#ee4e72"/><stop offset="1" stop-color="#ed3d7d"/></linearGradient></defs><g transform="translate(-18.016 -19.5)"><path class="a" d="M168.3,75.415a7.154,7.154,0,0,0,2.2-4.4,6.52,6.52,0,0,0-10.8-5.2h0l-117.4,64a14.152,14.152,0,0,0-1.6,25.2,14.432,14.432,0,0,0,15-.2h0a4.373,4.373,0,0,1,1-.6l109.2-76.8c.6-.6,2.2-1.6,2.4-2Z" transform="translate(32.118 62.482)"/><path class="b" d="M155.3,110.7h0L65.9,23.1a10.766,10.766,0,0,0-18.8,7.2h0a10.777,10.777,0,0,0,3,7.4h0c.6.6,1.2,1,1.6,1.4l94.4,80.8h0a7.962,7.962,0,0,0,4.2,1.8,6.492,6.492,0,0,0,6.8-6.2A6.042,6.042,0,0,0,155.3,110.7Z" transform="translate(45.514)"/><path class="c" d="M97.984,84.285c-.2,0-55.2-43.4-56.2-44h0c-.8-.4-1.6-.8-2.6-1.2a15.685,15.685,0,0,0-13.8,28h0a8.47,8.47,0,0,0,2.8,1.2c.6.2,63.6,26.4,63.6,26.4h0a6.117,6.117,0,0,0,7.2-1.6C100.984,90.085,100.584,86.285,97.984,84.285Z" transform="translate(0 23.912)"/><path class="d" d="M86.885,19.5a11.558,11.558,0,0,0-6.4,2l-55.6,37.6-.2.2h-.2a14.136,14.136,0,0,0-5.4,7.2,15.78,15.78,0,0,0,9.2,20.2,15.248,15.248,0,0,0,14.6-2h0a13.771,13.771,0,0,0,2.6-2.2l48.4-43.6h0a10.614,10.614,0,0,0,4.2-8.6h0A11.377,11.377,0,0,0,86.885,19.5Z" transform="translate(0.099)"/><g transform="translate(74.594 80.317)"><rect width="71.4" height="71.4"/><rect class="e" width="26.8" height="4.4" transform="translate(6.2 58)"/><g transform="translate(6 9)"><path class="e" d="M45.2,60l2-2A2.419,2.419,0,0,0,49,59.2c.8,0,1.2-.6,1.2-1.6V50.2h3.2v7.4a3.937,3.937,0,0,1-1.2,3.2A4.718,4.718,0,0,1,49,62,4.782,4.782,0,0,1,45.2,60Z" transform="translate(-45.2 -50.2)"/><path class="e" d="M49.7,50.2h9.4v2.6H52.9v1.8h5.6v2.6H52.9V59h6.4v2.8H49.9Z" transform="translate(-40.7 -50.2)"/><path class="e" d="M58.3,53H54.7V50.2H64.9V53H61.3v8.8H58.1V53Z" transform="translate(-35.7 -50.2)"/><path class="e" d="M45.3,57.3h6a4.7,4.7,0,0,1,3.2,1,3.055,3.055,0,0,1,.8,2h0c0,1.4-.8,2-1.8,2.6a2.639,2.639,0,0,1,2.2,2.8h0c0,2-1.6,3.2-4.4,3.2h-6V57.3Zm6.8,3.6c0-.6-.6-1-1.4-1h-2v2h2c.8,0,1.4-.2,1.4-1Zm-1.2,3.4H48.3v2h2.6c1,0,1.6-.4,1.6-1.2h0C52.5,64.7,51.9,64.3,50.9,64.3Z" transform="translate(-45.1 -43.1)"/><path class="e" d="M50.8,57.3h5.4A5.092,5.092,0,0,1,60,58.5a3.071,3.071,0,0,1,1,2.6h0a3.748,3.748,0,0,1-2.4,3.6l2.8,4H57.8l-2.4-3.6H54v3.6H50.8ZM56,62.9c1.2,0,1.6-.6,1.6-1.4h0c0-1-.6-1.4-1.6-1.4H54v2.8Z" transform="translate(-39.6 -43.1)"/><path class="e" d="M60.3,57.3h3l5,11.8H64.7l-.8-2.2H59.5l-.8,2.2H55.3Zm2.8,7-1.2-3.2-1.2,3.2Z" transform="translate(-35.1 -43.1)"/><path class="e" d="M62,57.3h3.2V68.9H62Z" transform="translate(-28.4 -43.1)"/><path class="e" d="M64,57.3h3l4.8,6.2V57.3H75V68.9H72.2l-5-6.2v6.4H64Z" transform="translate(-26.4 -43.1)"/><path class="e" d="M69.6,67.3l1.8-2a5.611,5.611,0,0,0,3.8,1.4c.8,0,1.4-.2,1.4-.8h0c0-.6-.4-.6-2-1.2-2.6-.6-4.4-1.2-4.4-3.6h0c0-2,1.6-3.8,4.4-3.8a7.3,7.3,0,0,1,4.8,1.6l-1.6,2.2a7.953,7.953,0,0,0-3.2-1.2q-1.2,0-1.2.6h0c0,.6.4.8,2,1.2,2.6.6,4.4,1.4,4.4,3.6h0c0,2.4-1.8,3.8-4.8,3.8A7.4,7.4,0,0,1,69.6,67.3Z" transform="translate(-20.8 -43.1)"/></g></g></g></svg>