<svg xmlns="http://www.w3.org/2000/svg" width="450" height="62.121" viewBox="0 0 450 62.121"><defs><style>.a,.b{fill:#4e2817;}.b{fill-rule:evenodd;}.c{fill:#f26922;}</style></defs><g transform="translate(-74.051 -80.3)"><path class="a" d="M174.122,140.384c-6.326,0-12.125-.7-17.222-5.8l6.59-6.59c3.339,3.339,7.644,3.778,10.807,3.778,3.515,0,7.117-1.142,7.117-4.218,0-2.021-1.054-3.427-4.305-3.69l-6.326-.615c-7.293-.7-11.774-3.866-11.774-11.335,0-8.347,7.381-12.916,15.64-12.916,6.326,0,11.6,1.054,15.464,4.745l-6.238,6.326c-2.372-2.109-5.887-2.724-9.4-2.724-4.042,0-5.711,1.845-5.711,3.866,0,1.494.615,3.163,4.218,3.515l6.326.615c8,.791,12.038,5.008,12.038,11.862C191.343,136.167,183.7,140.384,174.122,140.384Z" transform="translate(-10.054 -2.269)"/><path class="a" d="M213.891,138.525c-8.259,0-11.686-5.8-11.686-11.6V106.894H197.9V99.25h4.305V87.3h10.1V99.25h7.117v7.644H212.31v19.418c0,2.285,1.054,3.69,3.515,3.69h3.69v8.523h-5.623Z" transform="translate(-15.029 -0.849)"/><path class="a" d="M227.5,90.559V82.3h10.368v8.259Zm.176,47.359V97.5h10.1v40.418Z" transform="translate(-18.621 -0.243)"/><path class="a" d="M262.6,140.384c-8.084,0-18.1-4.305-18.1-20.736C244.5,103.305,254.517,99,262.6,99c5.623,0,9.753,1.669,13.355,5.448L269.1,111.3c-2.109-2.284-3.866-3.163-6.5-3.163a6.966,6.966,0,0,0-5.711,2.636c-1.582,1.933-2.284,4.657-2.284,8.962s.7,7.029,2.284,9.05a7.084,7.084,0,0,0,5.711,2.636c2.636,0,4.393-.967,6.5-3.163l6.853,6.766A17.61,17.61,0,0,1,262.6,140.384Z" transform="translate(-20.684 -2.269)"/><path class="a" d="M308.639,137.967,298.71,121.1,294.4,125.93v12.038H284.3V82.7h10.1v31.368l13.443-16.519h12.213l-14.41,16.343L321.2,138.055H308.639Z" transform="translate(-25.514 -0.291)"/><path class="a" d="M334.429,122.8c0,5.184,3.163,8.962,8.874,8.962a11.2,11.2,0,0,0,9.138-3.778l6.151,5.975c-4.13,4.13-8.084,6.326-15.376,6.326-9.577,0-18.715-4.305-18.715-20.736,0-13.18,7.117-20.648,17.661-20.648,11.247,0,17.661,8.259,17.661,19.33v4.481H334.429Zm14.5-11.247a7.068,7.068,0,0,0-6.766-4.218,6.942,6.942,0,0,0-6.766,4.218,11.444,11.444,0,0,0-.967,4.305h15.376A11.4,11.4,0,0,0,348.927,111.553Z" transform="translate(-30.392 -2.257)"/><path class="a" d="M392.066,110.522a6.691,6.691,0,0,0-5.36-2.372c-3.075,0-6.5,2.372-6.5,7.469v24.339H370.1V99.539h9.841v3.866c1.933-2.372,5.8-4.305,10.192-4.305a12.212,12.212,0,0,1,9.577,3.778Z" transform="translate(-35.925 -2.281)"/><path class="b" d="M115.742,142.157a8.364,8.364,0,0,1-2.2.264,3.96,3.96,0,0,1-2.109-.351c-.264-.176-.264-.615-.264-.879s.088-.7.088-.967a1.694,1.694,0,0,0,0-1.142c-.176-.264-.791-.176-1.142-.351s-.439-.7-.527-1.23c0-.176-.176-.351-.176-.439a9.665,9.665,0,0,1,.351-2.724c.176-.879.439-1.669.615-2.548a14.772,14.772,0,0,0,.176-3.954,5.858,5.858,0,0,1,0-1.757c.088-.527.351-.967.439-1.494v-.527c0-.176.088-.264.088-.439,0-.351-.088-.791-.088-1.23a26.488,26.488,0,0,1,.088-3.778c0-.351.176-.7-.088-.879a21.552,21.552,0,0,0-3.427.351,32.948,32.948,0,0,1-9.753-.176,2.433,2.433,0,0,0-.791-.088,13.591,13.591,0,0,1-5.448-2.548,4.829,4.829,0,0,1-.791-.615c-.264-.176-.527-.439-.791-.615a2.9,2.9,0,0,0-3.251.879,11.767,11.767,0,0,0-.527,1.054,5.375,5.375,0,0,0-.439,1.054c-.791,1.757-1.669,3.515-2.46,5.272-.439,1.054-.967,2.2-1.318,3.339-.7,2.46-.088,5.711.527,8.084a6.052,6.052,0,0,1,.264.7,3.982,3.982,0,0,0,.967,1.669c.264.176.615.351.879.527a3.744,3.744,0,0,1,.791,1.318,5.218,5.218,0,0,1,.351.7c.264.527.439.967-.176,1.318a5.2,5.2,0,0,1-1.757.351c-.264.088-.176.439-.351.615a5.216,5.216,0,0,1-.7.351,5.087,5.087,0,0,1-2.812,0,1.164,1.164,0,0,1-.791-.615c-.176-.527.264-1.142-.088-1.494-.176-.176-.527-.176-.791-.264a2.442,2.442,0,0,1-1.054-1.054c-.439-1.23-.176-3.075-.264-4.569,0-.439-.088-.879-.088-1.406,0-.879-.264-1.757-.351-2.636-.088-.439-.176-.791-.264-1.142-.176-.615-.264-1.318-.439-1.933a3.594,3.594,0,0,1,0-1.933c.088-.176.264-.351.351-.527a2.229,2.229,0,0,0,.176-1.054c-.088-.176-.527,0-.615-.176-.264-1.933-.527-3.778-.7-5.8a15.555,15.555,0,0,1-.088-2.021c-.088-1.318,0-2.724-.176-4.042l-.264-1.845a18.284,18.284,0,0,1-.351-5.8A7.085,7.085,0,0,1,75.5,99.982c.439-.615.967-1.142,1.494-1.757a14.339,14.339,0,0,1,1.757-1.494c.439-.264.879-.615,1.318-.879a10.787,10.787,0,0,1,3.69-.967,17.511,17.511,0,0,1,4.305.176c1.318.264,2.636.439,3.954.7,1.23.264,2.46.615,3.69.879.176,0,.264.176.439.176a7.8,7.8,0,0,1,1.23.264,18.144,18.144,0,0,0,3.954.439,14.753,14.753,0,0,0,4.042-.351,1.249,1.249,0,0,1,.527-.176,1.5,1.5,0,0,1,.615-.088c.088,0,.264-.176.351-.264A13.985,13.985,0,0,0,108.8,95.5a6.745,6.745,0,0,1,1.582-.879c.264-.088.615-.264.879-.351a5.262,5.262,0,0,0,1.757-.7,9.21,9.21,0,0,0,1.933-1.757c.615-.527,1.318-1.142,2.021-1.669,1.406-1.142,2.812-2.109,4.13-3.163a19.291,19.291,0,0,1,2.2-1.494,11.84,11.84,0,0,1,5.272-2.021,13.212,13.212,0,0,1,2.636,0c.264,0,.527.176.791.088s.439-.439.527-.7c.351-.615.527-.967.879-1.669.176-.439.088-.879.527-.879s.351,1.142.351,1.582a9.439,9.439,0,0,0,0,1.582.973.973,0,0,0,.791.615.889.889,0,0,0,.615-.351c.264-.176.439-.176.615-.351a12.482,12.482,0,0,0,1.142-1.054c.264-.264.791-1.054,1.23-.967.879.088,0,1.406-.176,1.757a25.045,25.045,0,0,1-1.406,2.636c-.176.351-.7.879-.7,1.318,0,.264.264.439.351.791.088.176.088.264.176.439.264.7.527,1.669.791,2.46a13.579,13.579,0,0,0,.615,2.021c.264.615.615,1.23.879,1.933.088.176.088.351.176.527a45.763,45.763,0,0,0,1.757,4.393,4.567,4.567,0,0,1,.615,2.021,3.511,3.511,0,0,1-.879,2.021c-.176.351-.527.879-.879.967a2.389,2.389,0,0,1-.791,0,4.734,4.734,0,0,1-.879.264,1.754,1.754,0,0,1-1.757-1.142c-.088-.176,0-.439-.088-.7a4.12,4.12,0,0,0-1.318-2.109,4.633,4.633,0,0,0-1.318-.967c-.791-.439-1.582-.615-2.46-1.054a1.36,1.36,0,0,0-.967-.264c-.439.088-.879.791-1.23,1.23-2.109,2.812-4.042,5.711-6.063,8.435a50.837,50.837,0,0,0-3.954,5.711c-.264.527-.439,1.142-.7,1.757-.176.615-.351,1.23-.527,1.933-.791,2.284-1.054,5.1-1.757,7.469-.088.264-.088.527-.176.791-.351,1.23-.7,2.636-1.054,3.954a20.183,20.183,0,0,0-.439,3.515c0,1.23-.088,2.9.351,3.6.264.439,1.054.527,1.318.967.176.264.351.879.615,1.23.176.264.615.791.527,1.23a.754.754,0,0,1-.527.615c-.264.088-.615.088-.879.176C115.918,141.63,116.006,141.981,115.742,142.157Z" transform="translate(0 0)"/><path class="c" d="M449.49,99a15.689,15.689,0,0,0-12.125,5.1c-2.548-3.515-6.238-5.1-10.72-5.1a14.234,14.234,0,0,0-10.1,4.218v-3.69H406.7v40.418h10.1V115.519c0-5.535,3.6-7.381,6.766-7.381s6.678,1.845,6.678,7.381v24.427h10.1v-24.69c0-5.272,3.69-7.117,6.766-7.117,3.163,0,6.678,1.845,6.678,7.381v24.427h10.1V114.113c0-4.393-1.142-8.259-4.393-11.51A14.382,14.382,0,0,0,449.49,99Z" transform="translate(-40.367 -2.269)"/><path class="c" d="M502.048,124.014c0,5.535-3.6,7.381-6.766,7.381s-6.678-1.845-6.678-7.381V99.5H478.5v25.92c0,4.393.879,8.259,4.13,11.51a13.132,13.132,0,0,0,9.577,3.6,13.879,13.879,0,0,0,10.1-4.218v3.69h9.841V99.588h-10.1Z" transform="translate(-49.08 -2.33)"/><path class="c" d="M534.2,125.754V82.7H524.1v43.669c0,5.711,3.515,11.6,11.774,11.6h5.711v-8.523h-3.866C535.171,129.444,534.2,128.214,534.2,125.754Z" transform="translate(-54.613 -0.291)"/><path class="c" d="M581.322,118.33C581.322,107.259,575,99,563.661,99,553.205,99,546,106.469,546,119.648c0,16.343,9.138,20.736,18.715,20.736,7.293,0,11.247-2.284,15.376-6.326l-6.151-5.975a11.2,11.2,0,0,1-9.138,3.778c-5.711,0-8.874-3.778-8.874-8.962h25.305V118.33Zm-25.305-2.372a11.07,11.07,0,0,1,.967-4.305,7.535,7.535,0,0,1,13.531,0,11.445,11.445,0,0,1,.966,4.305Z" transform="translate(-57.271 -2.269)"/></g></svg>