<svg xmlns="http://www.w3.org/2000/svg" viewBox="0 0 500 500"><g id="freepik--background-complete--inject-99"><path d="M95.6,337.52c0-1.92-.11-3.82-.13-5.7l.28.28c-4.54,0-9.09.16-13.63.17l-13.63.06.51-.51,0,11.52-.46-.46c2.24,0,4.48,0,6.74.05l6.77.12,13.75.29Zm-13.36,6.1-6.86.12c-2.29.05-4.59,0-6.89.06H68v-.46L68,331.82v-.52h.52l13.63.07c4.54,0,9.09.11,13.63.17H96v.28c0,1.95-.09,3.9-.13,5.82l-.15,5.7Z" style="fill:#ebebeb"></path><path d="M80.4,352c-.05-1.92-.12-3.81-.14-5.7l.28.28c-4.54.06-9.08.17-13.63.17l-13.63.07.52-.52-.06,11.52-.46-.46c2.25,0,4.49,0,6.74.06l6.77.11,13.75.29ZM67,358.15l-6.86.11c-2.29.05-4.59,0-6.89.06h-.46v-.46l0-11.52v-.51h.52l13.63.06c4.55,0,9.09.12,13.63.17h.29v.28c0,2-.09,3.9-.13,5.82l-.15,5.7Z" style="fill:#ebebeb"></path><path d="M110.81,352c0-1.92-.12-3.81-.14-5.7l.29.28c-4.55.06-9.09.17-13.63.17l-13.63.07.51-.52-.06,11.52-.45-.46c2.24,0,4.48,0,6.73.06l6.78.11,13.75.29Zm-13.37,6.11-6.85.11c-2.29.05-4.6,0-6.89.06h-.46v-.46l-.06-11.52v-.51h.52l13.63.06c4.54,0,9.08.12,13.63.17h.28v.28c0,2-.09,3.9-.14,5.82l-.14,5.7Z" style="fill:#ebebeb"></path><path d="M431.6,352c-.05-1.92-.12-3.81-.14-5.7l.28.28c-4.54.06-9.08.17-13.63.17l-13.63.07.52-.52-.06,11.52-.46-.46c2.25,0,4.49,0,6.74.06l6.78.11,13.74.29Zm-13.37,6.11-6.85.11c-2.3.05-4.6,0-6.9.06H404v-.46L404,346.34v-.51h.51l13.63.06c4.55,0,9.09.12,13.63.17H432v.28c0,2-.09,3.9-.14,5.82l-.15,5.7Z" style="fill:#ebebeb"></path><path d="M431.6,68.05c-.05-1.92-.12-3.82-.14-5.7l.28.28c-4.54,0-9.08.16-13.63.17l-13.63.06.52-.51-.06,11.52-.46-.46c2.25,0,4.49,0,6.74.06l6.78.11,13.74.29Zm-13.37,6.1-6.85.12c-2.3,0-4.6,0-6.9.06H404v-.46L404,62.35v-.52h.51l13.63.07c4.55,0,9.09.12,13.63.17H432v.28c0,1.95-.09,3.9-.14,5.82l-.15,5.7Z" style="fill:#ebebeb"></path><path d="M446.81,82.57c-.05-1.91-.12-3.81-.14-5.7l.28.29c-4.54,0-9.09.16-13.63.16l-13.63.07.51-.52-.05,11.52-.46-.46c2.25,0,4.49,0,6.74.06l6.77.12,13.75.28Zm-13.37,6.11-6.86.12c-2.29,0-4.59,0-6.89,0h-.46v-.47l-.05-11.52v-.51h.52l13.63.06c4.54,0,9.09.12,13.63.17h.29v.27c0,2-.09,3.9-.13,5.82l-.15,5.7Z" style="fill:#ebebeb"></path><path d="M80.4,68.06c-.05-1.92-.12-3.81-.14-5.7l.28.28c-4.54,0-9.08.17-13.63.17l-13.63.07.52-.52-.06,11.52-.46-.46c2.25,0,4.49,0,6.74.06l6.77.11,13.75.29ZM67,74.17l-6.86.11c-2.29,0-4.59,0-6.89.06h-.46v-.46l0-11.52v-.52h.52l13.63.06c4.55,0,9.09.12,13.63.17h.29v.28c0,2-.09,3.9-.13,5.82l-.15,5.7Z" style="fill:#ebebeb"></path><path d="M219,188.35c.05,1.92.12,3.82.14,5.7l-.28-.28c4.54-.05,9.08-.16,13.63-.17l13.63-.06-.52.51.06-11.52.46.46c-2.25,0-4.49,0-6.74-.05l-6.78-.12-13.74-.29Zm13.37-6.1,6.85-.12c2.3,0,4.6,0,6.9-.06h.45v.46l.06,11.52v.52h-.51l-13.63-.07c-4.55,0-9.09-.11-13.63-.17h-.29v-.28c0-2,.09-3.9.14-5.82l.15-5.7Z" style="fill:#ebebeb"></path><path d="M234.16,173.83c0,1.92.11,3.81.13,5.7l-.28-.28c4.55-.06,9.09-.17,13.63-.17l13.63-.07-.51.52.05-11.52.46.46c-2.24,0-4.48,0-6.74-.06l-6.77-.12L234,168Zm13.36-6.11,6.86-.11c2.29-.05,4.6,0,6.89-.06h.46V168l.06,11.52V180h-.52L247.64,180c-4.54,0-9.08-.12-13.63-.17h-.28v-.27c0-2,.09-3.9.14-5.82L234,168Z" style="fill:#ebebeb"></path><path d="M87,139.46a18.53,18.53,0,0,1-5.5,2.23,19,19,0,1,1,5.5-2.23Z" style="fill:#ebebeb"></path><path d="M83.05,121.09a5.78,5.78,0,1,1-5.71-5.85A5.77,5.77,0,0,1,83.05,121.09Z" style="fill:#fff"></path><path d="M87.07,137.08l0,2.38a18.53,18.53,0,0,1-5.5,2.23,18.9,18.9,0,0,1-14.47-2.47l0-2.38a10,10,0,1,1,20,.24Z" style="fill:#fff"></path><path d="M431.87,271.81l6.06-9.78-3-1.85a2.73,2.73,0,0,1-1.27-2.57,16.48,16.48,0,0,0,.06-1.72,2.72,2.72,0,0,1,1.42-2.49l3.11-1.66-5.44-10.14-3.11,1.66a2.71,2.71,0,0,1-2.85-.18,17.1,17.1,0,0,0-1.47-.91,2.75,2.75,0,0,1-1.44-2.48l.11-3.52-11.49-.36-.11,3.54a2.76,2.76,0,0,1-1.6,2.38c-.26.12-.51.24-.76.38s-.5.27-.74.42a2.73,2.73,0,0,1-2.85,0l-3-1.87-6.06,9.78,3,1.86a2.72,2.72,0,0,1,1.26,2.57,14.06,14.06,0,0,0-.05,1.72,2.74,2.74,0,0,1-1.43,2.48l-3.1,1.66,5.43,10.14,3.11-1.66a2.71,2.71,0,0,1,2.85.18,14.69,14.69,0,0,0,1.46.9,2.75,2.75,0,0,1,1.45,2.48l-.11,3.53,11.5.36.11-3.53a2.71,2.71,0,0,1,1.59-2.37l.77-.39c.25-.13.49-.27.73-.42a2.77,2.77,0,0,1,2.87,0Zm-9.74-7.26A9.42,9.42,0,1,1,426,251.79,9.41,9.41,0,0,1,422.13,264.55Z" style="fill:#ebebeb"></path><path d="M198.62,57.41l7-4-1.24-2.14a1.94,1.94,0,0,1,.07-2,11.81,11.81,0,0,0,.61-1,1.91,1.91,0,0,1,1.7-1.06h2.47V39.07h-2.47A1.91,1.91,0,0,1,205,38a11.81,11.81,0,0,0-.61-1,1.94,1.94,0,0,1-.07-2l1.24-2.14-7-4-1.24,2.15a1.93,1.93,0,0,1-1.78.94l-.59,0-.59,0a1.92,1.92,0,0,1-1.77-.94l-1.25-2.15-7,4L185.66,35a1.92,1.92,0,0,1-.07,2,10.77,10.77,0,0,0-.6,1,1.93,1.93,0,0,1-1.71,1.06h-2.46v8.06h2.46A1.93,1.93,0,0,1,185,48.19a10.77,10.77,0,0,0,.6,1,1.92,1.92,0,0,1,.07,2l-1.24,2.14,7,4,1.24-2.15a1.91,1.91,0,0,1,1.77-.93h1.19a1.91,1.91,0,0,1,1.78.94ZM195,49.7a6.6,6.6,0,1,1,6.61-6.6A6.6,6.6,0,0,1,195,49.7Z" style="fill:#ebebeb"></path><path d="M396.36,278.88l-4-7-2.14,1.24a1.92,1.92,0,0,1-2-.07,9.69,9.69,0,0,0-1-.6,1.93,1.93,0,0,1-1.06-1.71V268.3H378v2.46a1.93,1.93,0,0,1-1.06,1.71,10.93,10.93,0,0,0-1,.6,1.9,1.9,0,0,1-2,.07l-2.14-1.24-4,7,2.15,1.24a1.93,1.93,0,0,1,.94,1.78c0,.19,0,.39,0,.59s0,.4,0,.59a1.91,1.91,0,0,1-.94,1.77l-2.15,1.25,4,7,2.14-1.24a1.94,1.94,0,0,1,2,.07c.34.22.68.42,1,.61a1.91,1.91,0,0,1,1.06,1.7v2.47h8.06v-2.47a1.9,1.9,0,0,1,1.06-1.7c.36-.19.7-.39,1-.61a1.94,1.94,0,0,1,2-.07l2.14,1.24,4-7-2.15-1.24a1.91,1.91,0,0,1-.93-1.77c0-.2,0-.4,0-.6s0-.4,0-.59a1.91,1.91,0,0,1,.94-1.78Zm-7.71,3.61a6.6,6.6,0,1,1-6.6-6.6A6.59,6.59,0,0,1,388.65,282.49Z" style="fill:#ebebeb"></path><polygon points="308.67 150.73 312.36 158.21 320.61 159.41 314.63 165.23 316.05 173.44 308.67 169.56 301.28 173.44 302.69 165.23 296.72 159.41 304.98 158.21 308.67 150.73" style="fill:#ebebeb"></polygon><g id="freepik--aiZGp2--inject-99"><path d="M403,105.93a33,33,0,0,0-2.24,10.22h-9v-.25c0-.23.05-.46.07-.7a23.84,23.84,0,0,1,.6-3.56,27.15,27.15,0,0,1,2-5.58.21.21,0,0,1,.22-.13H403Z" style="fill:#ebebeb"></path><path d="M402.71,128.75h-8.32a.2.2,0,0,1-.2-.13,25.48,25.48,0,0,1-2.06-6.29,26.09,26.09,0,0,1-.41-3.18s0-.07,0-.11v-.25h8.89c.16,0,.15,0,.16.16.06.73.11,1.46.18,2.18a27.69,27.69,0,0,0,.55,3.42,31.61,31.61,0,0,0,1.18,4.07S402.69,128.7,402.71,128.75Z" style="fill:#ebebeb"></path><path d="M437.67,131.39a.62.62,0,0,1-.08.12,24.85,24.85,0,0,1-2.35,3.06,23.62,23.62,0,0,1-3.45,3.18,24.56,24.56,0,0,1-3.94,2.43,23.8,23.8,0,0,1-4.15,1.62,25.67,25.67,0,0,1-3.46.74l-.34.06h-.21l-.19-.13.22-.15a26.78,26.78,0,0,0,6.56-6.36,30.91,30.91,0,0,0,2.68-4.45.18.18,0,0,1,.2-.12h8.51Z" style="fill:#ebebeb"></path><path d="M429.35,116.14H417.67v-10.2h9.12a.16.16,0,0,1,.18.12,28.58,28.58,0,0,1,1.86,6,29.35,29.35,0,0,1,.45,3.24C429.3,115.56,429.33,115.84,429.35,116.14Z" style="fill:#ebebeb"></path><path d="M429.28,118.87c0,.24,0,.48,0,.72-.06.56-.1,1.13-.18,1.7-.11.78-.22,1.56-.38,2.34a28.88,28.88,0,0,1-1.51,5,.21.21,0,0,1-.22.15H417.6v-9.88Z" style="fill:#ebebeb"></path><path d="M415,106v10.22h-11.4c0-.26,0-.51.05-.77.06-.57.1-1.14.19-1.71.14-.86.29-1.73.48-2.59a27.13,27.13,0,0,1,1.64-5,.2.2,0,0,1,.2-.12H415Z" style="fill:#ebebeb"></path><path d="M415.05,119v9.75h-9.11a.19.19,0,0,1-.2-.14,25.68,25.68,0,0,1-1.55-5.15c-.17-.9-.3-1.82-.42-2.74-.08-.59-.09-1.2-.13-1.8v-.07h11.27C415,118.85,415.05,118.89,415.05,119Z" style="fill:#ebebeb"></path><path d="M441.73,116.22h-9.57a32.93,32.93,0,0,0-2.23-10.29h8.92a.2.2,0,0,1,.21.13,25.34,25.34,0,0,1,2.21,6.39,29.13,29.13,0,0,1,.46,3.59Z" style="fill:#ebebeb"></path><path d="M441.74,118.79l0,.67c-.07.86-.17,1.72-.32,2.58a24.74,24.74,0,0,1-1.76,5.74c-.13.3-.27.59-.4.89a.14.14,0,0,1-.14.09H430.2c.11-.31.21-.61.32-.9a32.79,32.79,0,0,0,1.18-4.66,31.26,31.26,0,0,0,.41-3.47c0-.28,0-.55.05-.83,0-.07,0-.11.1-.1h9.48Z" style="fill:#ebebeb"></path><path d="M437.4,103.33v0H428.9a.2.2,0,0,1-.21-.12,28.39,28.39,0,0,0-4.15-6.15,22.75,22.75,0,0,0-3.19-2.94c-.57-.44-1.16-.85-1.74-1.27l-.1-.08.11-.08s0-.1-.05-.18A24.75,24.75,0,0,1,428,95.09,24.35,24.35,0,0,1,437.4,103.33Z" style="fill:#ebebeb"></path><path d="M413.42,142.48a.85.85,0,0,1-.24,0,23.08,23.08,0,0,1-2.73-.53,24.9,24.9,0,0,1-4.86-1.8,24.59,24.59,0,0,1-4.95-3.25,23.81,23.81,0,0,1-3-3,23.42,23.42,0,0,1-1.86-2.58l0-.08h7.93a.2.2,0,0,1,.2.13,29.81,29.81,0,0,0,2.86,4.67,30.26,30.26,0,0,0,3.36,3.71,26.07,26.07,0,0,0,3.23,2.6Z" style="fill:#ebebeb"></path><path d="M413.32,92.8c-.36.26-.78.56-1.18.87a28.59,28.59,0,0,0-3.78,3.51,26.61,26.61,0,0,0-4,5.65c-.07.13-.13.27-.2.39a.23.23,0,0,1-.12.08c-.15,0-.29,0-.43,0H396a24.91,24.91,0,0,1,17.2-10.69l-.05.09Z" style="fill:#ebebeb"></path><path d="M425.87,131.4a27.47,27.47,0,0,1-3.86,5.21,24.32,24.32,0,0,1-4.41,3.74V131.4Z" style="fill:#ebebeb"></path><path d="M415,131.4v8.78a25.39,25.39,0,0,1-7.93-8.78Z" style="fill:#ebebeb"></path><path d="M425.61,103.29h-7.94V94.93a23.76,23.76,0,0,1,4.45,3.72A28.31,28.31,0,0,1,425.61,103.29Z" style="fill:#ebebeb"></path><path d="M415,95.19v8.17h-7.61A24.1,24.1,0,0,1,415,95.19Z" style="fill:#ebebeb"></path></g><path d="M189.28,318.94a21.65,21.65,0,1,1-21.41-24.82v21.65Z" style="fill:#dbdbdb"></path><path d="M193.92,311.36a20.66,20.66,0,0,1-.24,3.17l-21.41-3.17V289.71a21.63,21.63,0,0,1,21.65,21.65Z" style="fill:#ebebeb"></path><rect x="178.85" y="327.25" width="23.02" height="1" style="fill:#c7c7c7"></rect><path d="M203.48,329.87a2.12,2.12,0,1,1,2.11-2.12A2.11,2.11,0,0,1,203.48,329.87Zm0-3.23a1.12,1.12,0,1,0,1.11,1.11A1.11,1.11,0,0,0,203.48,326.64Z" style="fill:#c7c7c7"></path><rect x="209.33" y="326.54" width="17.88" height="0.81" style="fill:#c7c7c7"></rect><rect x="209.33" y="328.16" width="10.12" height="0.81" style="fill:#c7c7c7"></rect><rect x="77.97" y="240.8" width="4.57" height="32.54" style="fill:#ebebeb"></rect><rect x="85.83" y="248.67" width="4.57" height="24.67" style="fill:#ebebeb"></rect><rect x="93.69" y="261" width="4.57" height="12.33" style="fill:#ebebeb"></rect><rect x="101.55" y="253.96" width="4.57" height="19.38" style="fill:#ebebeb"></rect><rect x="109.41" y="246.56" width="4.57" height="26.77" style="fill:#ebebeb"></rect><rect x="117.27" y="242.21" width="4.57" height="31.12" style="fill:#ebebeb"></rect><path d="M75.32,236.66l.05,9.17,0,9.17,0,18.34-.11-.12c4.2,0,8.4,0,12.61,0l12.61,0,12.6,0,12.61.07-12.61.07-12.6,0-12.61,0q-6.32,0-12.61,0H75.2v-.11l0-18.34,0-9.17Z" style="fill:#ebebeb"></path><path d="M74.31,238.5a3.19,3.19,0,0,1,1-.13,3.23,3.23,0,0,1,1,.13,3.94,3.94,0,0,1-1,.13A3.89,3.89,0,0,1,74.31,238.5Z" style="fill:#ebebeb"></path><path d="M74.31,241.28a3.89,3.89,0,0,1,1-.13,3.94,3.94,0,0,1,1,.13,3.23,3.23,0,0,1-1,.13A3.19,3.19,0,0,1,74.31,241.28Z" style="fill:#ebebeb"></path><path d="M74.31,244.07a3.89,3.89,0,0,1,1-.13,3.94,3.94,0,0,1,1,.13,3.55,3.55,0,0,1-1,.13A3.5,3.5,0,0,1,74.31,244.07Z" style="fill:#ebebeb"></path><path d="M74.31,246.86a3.5,3.5,0,0,1,1-.13,3.55,3.55,0,0,1,1,.13,3.94,3.94,0,0,1-1,.13A3.89,3.89,0,0,1,74.31,246.86Z" style="fill:#ebebeb"></path><path d="M74.31,249.65a3.19,3.19,0,0,1,1-.13,3.23,3.23,0,0,1,1,.13,3.94,3.94,0,0,1-1,.13A3.89,3.89,0,0,1,74.31,249.65Z" style="fill:#ebebeb"></path><path d="M74.31,252.43a3.49,3.49,0,0,1,1-.12,3.53,3.53,0,0,1,1,.12,3.23,3.23,0,0,1-1,.13A3.19,3.19,0,0,1,74.31,252.43Z" style="fill:#ebebeb"></path><path d="M74.31,255.22a3.89,3.89,0,0,1,1-.13,3.94,3.94,0,0,1,1,.13,3.55,3.55,0,0,1-1,.13A3.5,3.5,0,0,1,74.31,255.22Z" style="fill:#ebebeb"></path><path d="M74.31,258a3.5,3.5,0,0,1,1-.13,3.55,3.55,0,0,1,1,.13,3.55,3.55,0,0,1-1,.13A3.5,3.5,0,0,1,74.31,258Z" style="fill:#ebebeb"></path><path d="M74.31,260.8a3.5,3.5,0,0,1,1-.13,3.55,3.55,0,0,1,1,.13,3.94,3.94,0,0,1-1,.13A3.89,3.89,0,0,1,74.31,260.8Z" style="fill:#ebebeb"></path><path d="M74.31,263.59a3.19,3.19,0,0,1,1-.13,3.23,3.23,0,0,1,1,.13,3.94,3.94,0,0,1-1,.13A3.89,3.89,0,0,1,74.31,263.59Z" style="fill:#ebebeb"></path><path d="M74.31,266.37a3.89,3.89,0,0,1,1-.13,3.94,3.94,0,0,1,1,.13,3.23,3.23,0,0,1-1,.13A3.19,3.19,0,0,1,74.31,266.37Z" style="fill:#ebebeb"></path><path d="M74.31,269.16a3.89,3.89,0,0,1,1-.13,3.94,3.94,0,0,1,1,.13,3.55,3.55,0,0,1-1,.13A3.5,3.5,0,0,1,74.31,269.16Z" style="fill:#ebebeb"></path></g><g id="freepik--Shadow--inject-99"><ellipse cx="250" cy="435.74" rx="128.14" ry="30.72" style="fill:#ebebeb"></ellipse></g><g id="freepik--Book--inject-99"><polygon points="217.59 420 334.07 404.42 383.01 439.1 268.11 462.05 217.59 420" style="fill:#415BB2"></polygon><path d="M224.65,420.37,270.89,459l107.67-21.43-47.35-33.28s-31.44.2-32.94.47S282.42,409,282.42,409s-19.55.94-20.91,1.21S224.65,420.37,224.65,420.37Z" style="fill:#fff"></path><polygon points="282.42 408.96 288.06 413.71 293.66 418.51 304.79 428.18 315.83 437.96 321.31 442.89 326.75 447.86 321.11 443.12 315.51 438.32 304.38 428.65 293.35 418.87 287.87 413.94 282.42 408.96" style="fill:#dbdbdb"></polygon><path d="M289.08,433.72c1.36-.26,2.72-.46,4.09-.64s2.75-.34,4.13-.48,2.76-.26,4.14-.34,2.77-.16,4.16-.17c-1.37.27-2.74.46-4.11.65s-2.74.33-4.11.47-2.76.26-4.14.34S290.48,433.71,289.08,433.72Z" style="fill:#dbdbdb"></path><path d="M264.33,444.29c3.61-1.19,7.24-2.32,10.87-3.44s7.28-2.18,10.93-3.25c1.82-.54,3.65-1,5.5-1.52a9.21,9.21,0,0,1,1.44-.24l1.43-.15,2.83-.26c3.79-.32,7.58-.61,11.38-.82-3.77.49-7.55.9-11.33,1.33l-2.83.3a22,22,0,0,0-2.77.41c-1.83.48-3.65,1-5.48,1.53l-11,3.11C271.67,442.31,268,443.33,264.33,444.29Z" style="fill:#dbdbdb"></path><path d="M267.56,447.05c3.5-1.2,7-2.33,10.54-3.44s7.06-2.19,10.6-3.26c1.77-.54,3.54-1.05,5.33-1.54.45-.12.89-.24,1.37-.34s.93-.12,1.39-.18l2.76-.27c3.69-.31,7.37-.59,11.06-.79-3.66.49-7.33.89-11,1.32l-2.75.3c-.46.06-.92.1-1.36.19s-.87.22-1.31.34l-5.32,1.55c-3.55,1-7.08,2.1-10.64,3.11S271.13,446.08,267.56,447.05Z" style="fill:#dbdbdb"></path><path d="M270.82,449.39q5.32-1.58,10.68-3c3.57-1,7.16-1.91,10.74-2.85,1.8-.46,3.56-.93,5.42-1.3l5.49-.82c3.67-.51,7.34-1,11-1.45-3.64.71-7.29,1.34-10.94,2l-5.48.89c-1.76.36-3.57.87-5.36,1.3-3.6.88-7.18,1.83-10.77,2.69S274.43,448.57,270.82,449.39Z" style="fill:#dbdbdb"></path><path d="M323.55,439q5-1.69,10.05-3.06c.85-.23,1.69-.46,2.55-.66.43-.1.85-.2,1.31-.27l1.3-.18,5.2-.71c3.47-.48,6.94-.91,10.41-1.36s6.95-.87,10.42-1.27c-3.45.56-6.91,1.11-10.37,1.63s-6.92,1.06-10.38,1.54l-5.2.75-1.3.18c-.4.08-.83.18-1.25.29l-2.54.62C330.36,437.37,327,438.23,323.55,439Z" style="fill:#dbdbdb"></path><path d="M320.49,435.91q4.89-1.38,9.86-2.47c1.66-.37,3.3-.76,5-1l5-.72c3.35-.49,6.71-.93,10.07-1.39s6.71-.88,10.08-1.29c-3.34.57-6.68,1.13-10,1.66s-6.69,1.07-10,1.56l-5,.76c-.83.11-1.64.3-2.47.47l-2.49.5Q325.51,435.05,320.49,435.91Z" style="fill:#dbdbdb"></path><path d="M317.5,433.13c3.25-.89,6.51-1.71,9.8-2.42,1.65-.36,3.28-.75,5-1l5-.58c3.34-.39,6.69-.74,10-1.09s6.7-.68,10.05-1c-3.33.48-6.67.94-10,1.36s-6.67.87-10,1.27c-1.66.2-3.35.39-5,.61l-4.93,1Q322.49,432.29,317.5,433.13Z" style="fill:#dbdbdb"></path><path d="M314.92,431c3.16-1.23,6.38-2.25,9.65-3.17.41-.12.82-.22,1.24-.31a9.56,9.56,0,0,1,1.29-.19l2.53-.23,5.05-.43c6.74-.55,13.49-1.06,20.24-1.49-6.73.73-13.46,1.38-20.19,2l-5.05.47-2.52.25a13.8,13.8,0,0,0-2.43.5C321.46,429.3,318.22,430.27,314.92,431Z" style="fill:#dbdbdb"></path><path d="M312.11,428.51c3.16-1.23,6.39-2.25,9.65-3.17.41-.12.82-.22,1.24-.31a10,10,0,0,1,1.29-.19l2.53-.23,5.05-.43c6.75-.55,13.49-1.06,20.24-1.49-6.72.73-13.46,1.38-20.19,2l-5.05.47-2.52.25a13.8,13.8,0,0,0-2.43.5C318.66,426.78,315.41,427.74,312.11,428.51Z" style="fill:#dbdbdb"></path><path d="M309.3,426c3.17-1.22,6.39-2.24,9.65-3.16.41-.12.82-.22,1.25-.31a9.56,9.56,0,0,1,1.29-.19l2.52-.23,5.06-.43c6.74-.55,13.48-1.06,20.23-1.49-6.72.73-13.45,1.38-20.19,2l-5,.47-2.53.25a13.12,13.12,0,0,0-2.43.5C315.85,424.26,312.61,425.22,309.3,426Z" style="fill:#dbdbdb"></path><path d="M306.5,423.46c3.16-1.22,6.38-2.25,9.65-3.17.41-.11.82-.21,1.24-.3a8.2,8.2,0,0,1,1.29-.19l2.53-.23,5.05-.44c6.74-.54,13.49-1.06,20.24-1.48-6.73.73-13.46,1.37-20.19,2l-5.05.47-2.52.24a14.13,14.13,0,0,0-2.44.51C313,421.74,309.8,422.7,306.5,423.46Z" style="fill:#dbdbdb"></path><path d="M302.75,421.25c3.16-1.23,6.38-2.25,9.65-3.17.41-.11.82-.22,1.24-.31a8.17,8.17,0,0,1,1.29-.18l2.53-.23,5.05-.44c6.74-.54,13.49-1.06,20.24-1.49-6.73.73-13.46,1.38-20.19,2l-5.05.46-2.52.25a14.1,14.1,0,0,0-2.44.5C309.29,419.53,306.05,420.49,302.75,421.25Z" style="fill:#dbdbdb"></path><path d="M299.1,419.07c3.16-1.23,6.39-2.25,9.65-3.17.41-.12.82-.22,1.24-.31a10,10,0,0,1,1.29-.19l2.53-.23,5.06-.43c6.74-.55,13.48-1.06,20.23-1.49-6.72.73-13.46,1.38-20.19,2l-5.05.47-2.52.25a13.8,13.8,0,0,0-2.43.5C305.65,417.34,302.4,418.31,299.1,419.07Z" style="fill:#dbdbdb"></path><path d="M296.3,416.55c3.15-1.23,6.37-2.25,9.63-3.17.41-.11.82-.22,1.24-.3a7.18,7.18,0,0,1,1.29-.19l2.53-.19,5.05-.35c6.74-.42,13.48-.81,20.23-1.11-6.73.6-13.46,1.12-20.19,1.65l-5.05.38-2.52.21a13,13,0,0,0-2.42.49C302.83,414.83,299.59,415.79,296.3,416.55Z" style="fill:#dbdbdb"></path><path d="M293.49,414c3.15-1.22,6.36-2.24,9.62-3.15.41-.12.81-.22,1.23-.31a6.36,6.36,0,0,1,1.3-.18l2.53-.15,5.05-.25q10.09-.44,20.21-.69c-6.73.46-13.46.84-20.19,1.23l-5,.28-2.52.16a12.41,12.41,0,0,0-2.42.5C300,412.31,296.78,413.26,293.49,414Z" style="fill:#dbdbdb"></path><path d="M290.68,411.5c3.15-1.22,6.35-2.24,9.6-3.15.41-.12.82-.22,1.24-.31a5.56,5.56,0,0,1,1.29-.17l2.53-.08,5.05-.08c3.36,0,6.73,0,10.09-.06s6.73,0,10.1.06c-6.73.22-13.46.37-20.18.53l-5,.12-2.52.09a12.33,12.33,0,0,0-2.4.49C297.19,409.79,294,410.74,290.68,411.5Z" style="fill:#dbdbdb"></path><path d="M274,452.81c3.62-1,7.25-1.87,10.88-2.76s7.28-1.73,10.92-2.59c1.83-.42,3.64-.82,5.51-1.19l5.53-.94c3.69-.59,7.38-1.18,11.09-1.69-3.66.79-7.33,1.49-11,2.2l-5.52,1c-1.8.37-3.64.83-5.46,1.22L285,450.5C281.34,451.3,277.68,452.08,274,452.81Z" style="fill:#dbdbdb"></path><path d="M325.76,441.92c3.64-.89,7.31-1.72,11-2.54s7.34-1.57,11-2.35c1.84-.39,3.67-.75,5.55-1.08l5.56-.82c3.72-.52,7.44-1,11.17-1.47-3.69.71-7.39,1.34-11.09,2l-5.56.89c-1.82.33-3.67.75-5.51,1.1l-11,2.21C333.14,440.55,329.45,441.26,325.76,441.92Z" style="fill:#dbdbdb"></path></g><g id="freepik--Plant--inject-99"><path d="M380.13,302.19c16,15.66,18.68,39.89,15.31,61.11-.09.48-.83.35-.83-.1,0-4.83.15-9.62.13-14.39-.09-.22-.16-.43-.25-.64-4.17-3-8-6.47-10.39-11.17-2.67-5.25-3.72-11.18-5.76-16.67-.19-.52.37-.37.74-.1,9.72,7.18,12.83,14.9,15.62,25.22a85.26,85.26,0,0,0-1.7-16.07c-2.1-9.79-6.26-19.49-13.29-26.76C379.45,302.34,379.86,301.92,380.13,302.19Z" style="fill:#263238"></path><path d="M377.13,304c-2.75.09-4.48,4.49-6.62,5.77a2.06,2.06,0,0,1-3-.47c-2.13-3,.79-6.63,3.53-8.67-2,.8-3.59,2.22-5.7,2.62a2,2,0,0,1-2.57-1.54c-.94-4.05,4.14-5.84,7.62-5.93-1.69-1.17-6.53-4.36-4-5.93s8.28,3,10.13,4.49c2.72,2.21,6,5.5,6.09,9C382.77,307.34,379.24,304.86,377.13,304Z" style="fill:#415BB2"></path><path d="M377.13,304c-2.75.09-4.48,4.49-6.62,5.77a2.06,2.06,0,0,1-3-.47c-2.13-3,.79-6.63,3.53-8.67-2,.8-3.59,2.22-5.7,2.62a2,2,0,0,1-2.57-1.54c-.94-4.05,4.14-5.84,7.62-5.93-1.69-1.17-6.53-4.36-4-5.93s8.28,3,10.13,4.49c2.72,2.21,6,5.5,6.09,9C382.77,307.34,379.24,304.86,377.13,304Z" style="opacity:0.1"></path><path d="M377.92,304.7c-3.51-1.6-10.27.7-10.85-.63-1.16-2.71,4.24-4.57,7.15-4.93-2.68-.73-7.83-1.89-7.67-4.48.19-3.16,7.89-.44,11.79,2.55,4.91,3.76,4.87,7.39,4.06,8.12C381.29,306.33,378.5,305,377.92,304.7Z" style="fill:#415BB2"></path><path d="M416.56,300.64c-16.58,15-20.18,39.15-17.62,60.48.07.49.82.38.83-.07.19-4.82.22-9.61.42-14.38.1-.22.18-.42.27-.63,4.29-2.88,8.25-6.16,10.81-10.77,2.87-5.14,4.14-11,6.39-16.43.21-.52-.35-.39-.73-.13-10,6.8-13.39,14.4-16.57,24.61a86.81,86.81,0,0,1,2.3-16c2.48-9.7,7-19.24,14.31-26.24A.3.3,0,0,0,416.56,300.64Z" style="fill:#263238"></path><path d="M419.5,302.58c2.74.2,4.3,4.66,6.39,6a2.05,2.05,0,0,0,3.05-.36c2.24-2.88-.53-6.65-3.2-8.8,1.93.88,3.5,2.36,5.6,2.84a2,2,0,0,0,2.63-1.44c1.09-4-3.91-6-7.39-6.21,1.73-1.11,6.69-4.11,4.18-5.78s-8.39,2.67-10.29,4.1c-2.8,2.1-6.17,5.28-6.42,8.72C413.73,305.69,417.35,303.35,419.5,302.58Z" style="fill:#415BB2"></path><path d="M419.5,302.58c2.74.2,4.3,4.66,6.39,6a2.05,2.05,0,0,0,3.05-.36c2.24-2.88-.53-6.65-3.2-8.8,1.93.88,3.5,2.36,5.6,2.84a2,2,0,0,0,2.63-1.44c1.09-4-3.91-6-7.39-6.21,1.73-1.11,6.69-4.11,4.18-5.78s-8.39,2.67-10.29,4.1c-2.8,2.1-6.17,5.28-6.42,8.72C413.73,305.69,417.35,303.35,419.5,302.58Z" style="opacity:0.1"></path><path d="M418.67,303.23c3.58-1.46,10.25,1.09,10.87-.22,1.27-2.66-4.06-4.72-7-5.19,2.71-.63,7.9-1.59,7.84-4.18-.07-3.17-7.87-.75-11.88,2.09-5,3.58-5.15,7.2-4.37,8C415.25,304.73,418.08,303.47,418.67,303.23Z" style="fill:#415BB2"></path><path d="M399.61,340.36a163,163,0,0,1-5.15,23.78.59.59,0,0,1-1.16-.23c1.09-7.33,3.07-14.52,4.16-21.85a110.06,110.06,0,0,0,1.28-22.43c-.7-12.35-4.05-25.48-12.11-35.15-.18-.23.2-.55.38-.34C403.14,303,400.57,326,400.56,328.08c2.28-7.78,4.64-16.71,13.28-24.64.37-.34.66-.18.6.4-1.55,14.45-5.56,22-13.94,29.71C400.27,335.84,400,338.12,399.61,340.36Z" style="fill:#263238"></path><path d="M386.48,286.65c-2.9-1.29-6.9,2.4-9.77,2.66-1.53.13-2.65-.47-2.92-2-.71-4.15,4.16-6.47,8-7.22-2.44-.15-4.84.5-7.23-.14a2.31,2.31,0,0,1-1.9-2.9c1.07-4.66,7.24-4,10.89-2.31-1.16-2.07-4.57-7.81-1.11-8.15s7.08,7.27,8.25,9.76c1.71,3.66,3.41,8.71,1.8,12.35C390.66,292.94,388.25,288.59,386.48,286.65Z" style="fill:#415BB2"></path><path d="M386.48,286.65c-2.9-1.29-6.9,2.4-9.77,2.66-1.53.13-2.65-.47-2.92-2-.71-4.15,4.16-6.47,8-7.22-2.44-.15-4.84.5-7.23-.14a2.31,2.31,0,0,1-1.9-2.9c1.07-4.66,7.24-4,10.89-2.31-1.16-2.07-4.57-7.81-1.11-8.15s7.08,7.27,8.25,9.76c1.71,3.66,3.41,8.71,1.8,12.35C390.66,292.94,388.25,288.59,386.48,286.65Z" style="opacity:0.1"></path><path d="M387,287.75c-2.85-3.43-11-4.44-11-6.11.16-3.4,6.7-2.61,9.9-1.52-2.41-2.1-7.17-5.9-5.7-8.5,1.79-3.19,8.41,3.51,10.95,8.57,3.19,6.38,1.33,10.13.13,10.47C389.64,291.14,387.44,288.32,387,287.75Z" style="fill:#415BB2"></path><path d="M410.22,344.71l7.12,54.36H374c.89-4.81,8.95-54.42,8.95-54.42Z" style="fill:#415BB2"></path></g><g id="freepik--Desk--inject-99"><polygon points="45.75 399.07 96.82 398.83 147.88 398.74 250 398.58 352.12 398.74 403.19 398.83 454.25 399.07 403.19 399.32 352.12 399.41 250 399.57 147.88 399.41 96.82 399.32 45.75 399.07" style="fill:#263238"></polygon></g><g id="freepik--mind-map--inject-99"><circle cx="340.89" cy="217.52" r="37.54" style="fill:#415BB2"></circle><circle cx="340.89" cy="217.52" r="37.54" style="fill:#fff;opacity:0.30000000000000004"></circle><path d="M340.89,262a44.44,44.44,0,1,1,44.43-44.43A44.48,44.48,0,0,1,340.89,262Zm0-87.87a43.44,43.44,0,1,0,43.43,43.44A43.49,43.49,0,0,0,340.89,174.08Z" style="fill:#415BB2"></path><circle cx="160.59" cy="85.43" r="37.54" transform="translate(-19.35 58.83) rotate(-19.6)" style="fill:#415BB2"></circle><circle cx="160.59" cy="85.43" r="37.54" transform="translate(-19.35 58.83) rotate(-19.6)" style="fill:#fff;opacity:0.30000000000000004"></circle><path d="M160.59,128.26a42.83,42.83,0,1,1,42.83-42.83A42.87,42.87,0,0,1,160.59,128.26Zm0-84.66a41.83,41.83,0,1,0,41.83,41.83A41.88,41.88,0,0,0,160.59,43.6Z" style="fill:#415BB2"></path><circle cx="418.24" cy="162.09" r="19.51" transform="translate(190.87 548.74) rotate(-80.73)" style="fill:#415BB2"></circle><circle cx="418.24" cy="162.09" r="19.51" transform="translate(190.87 548.74) rotate(-80.73)" style="fill:#fff;opacity:0.30000000000000004"></circle><path d="M418.24,187.91a25.82,25.82,0,1,1,25.82-25.82A25.86,25.86,0,0,1,418.24,187.91Zm0-50.64a24.82,24.82,0,1,0,24.82,24.82A24.85,24.85,0,0,0,418.24,137.27Z" style="fill:#415BB2"></path><circle cx="160.59" cy="245.59" r="19.51" transform="translate(-126.63 185.49) rotate(-45)" style="fill:#415BB2"></circle><circle cx="160.59" cy="245.59" r="19.51" transform="translate(-126.63 185.49) rotate(-45)" style="fill:#fff;opacity:0.30000000000000004"></circle><path d="M160.59,270.68a25.09,25.09,0,1,1,25.09-25.09A25.11,25.11,0,0,1,160.59,270.68Zm0-49.18a24.09,24.09,0,1,0,24.09,24.09A24.12,24.12,0,0,0,160.59,221.5Z" style="fill:#415BB2"></path><circle cx="250" cy="65.93" r="19.51" style="fill:#415BB2"></circle><circle cx="250" cy="65.93" r="19.51" style="fill:#fff;opacity:0.30000000000000004"></circle><path d="M250,91.53a25.6,25.6,0,1,1,25.6-25.6A25.63,25.63,0,0,1,250,91.53Zm0-50.2a24.6,24.6,0,1,0,24.6,24.6A24.63,24.63,0,0,0,250,41.33Z" style="fill:#415BB2"></path><circle cx="106.87" cy="175.66" r="46.08" transform="translate(-83.37 253.66) rotate(-80.98)" style="fill:#415BB2"></circle><circle cx="106.87" cy="175.66" r="46.08" transform="translate(-83.37 253.66) rotate(-80.98)" style="fill:#fff;opacity:0.30000000000000004"></circle><path d="M106.87,227.64a52,52,0,1,1,52-52A52,52,0,0,1,106.87,227.64Zm0-103a51,51,0,1,0,51,51A51,51,0,0,0,106.87,124.67Z" style="fill:#415BB2"></path><circle cx="350.02" cy="98.84" r="46.08" style="fill:#415BB2"></circle><circle cx="350.02" cy="98.84" r="46.08" style="fill:#fff;opacity:0.30000000000000004"></circle><path d="M350,151.77a52.93,52.93,0,1,1,52.92-52.93A53,53,0,0,1,350,151.77Zm0-104.85a51.93,51.93,0,1,0,51.92,51.92A52,52,0,0,0,350,46.92Z" style="fill:#415BB2"></path><path d="M158.35,175.66c4.47-.13,8.94-.24,13.41-.3s9-.14,13.42-.14l-.24.07,11.83-7.74,11.9-7.63c4-2.56,8-5,12-7.56s8-5,12-7.44q-5.84,4-11.71,7.93c-3.93,2.6-7.83,5.24-11.79,7.81l-11.83,7.73L185.42,176l-.11.07h-.13c-4.47,0-8.94-.1-13.42-.15S162.82,175.78,158.35,175.66Z" style="fill:#415BB2"></path><path d="M173,223.76q5.16-6.4,10.4-12.75c3.5-4.23,7-8.46,10.52-12.65l10.6-12.59,10.68-12.51.13-.16h.19l14.19.16,7.1.12,7.1.15-7.1.16-7.1.12-14.19.15.33-.15-10.58,12.6-10.67,12.52c-3.55,4.19-7.15,8.32-10.74,12.47S176.59,219.66,173,223.76Z" style="fill:#415BB2"></path><path d="M191.71,114.58c2.77,2.51,5.48,5.07,8.16,7.66s5.33,5.21,8,7.82l-.34-.14c2.29,0,4.58,0,6.87,0l6.88.06c4.58.09,9.16.18,13.74.41-4.58.23-9.16.32-13.74.41l-6.88.06c-2.29,0-4.58,0-6.87,0h-.21l-.13-.14c-2.61-2.67-5.26-5.29-7.82-8S194.22,117.35,191.71,114.58Z" style="fill:#415BB2"></path><path d="M250,91c.21,2.76.3,5.52.38,8.28s.11,5.53.12,8.29,0,5.52-.12,8.29l-.13,4.14c-.09,1.38-.14,2.76-.25,4.14-.11-1.38-.16-2.76-.25-4.14l-.13-4.14c-.1-2.77-.11-5.53-.12-8.29s0-5.53.12-8.29S249.79,93.79,250,91Z" style="fill:#415BB2"></path><path d="M263.45,164.67c10.79-.2,21.58-.3,32.37-.38l32.37-.12,32.37.12,16.18.14,16.18.24-16.18.25-16.18.14-32.37.11-32.37-.11C285,165,274.24,164.88,263.45,164.67Z" style="fill:#415BB2"></path><path d="M299.9,201.69c-4.54.2-9.09.3-13.63.38h-.16l-.12-.13c-2.41-2.59-4.75-5.26-7.12-7.89s-4.7-5.3-7-8l-3.5-4-3.44-4c-2.31-2.69-4.57-5.42-6.81-8.17q3.69,3.82,7.28,7.75l3.61,3.9,3.55,4c2.36,2.64,4.74,5.26,7.06,7.94s4.69,5.32,7,8l-.28-.13C290.81,201.4,295.36,201.5,299.9,201.69Z" style="fill:#415BB2"></path><path d="M298.19,106.75c-3,.15-6.09.26-9.13.32s-6.08.13-9.12.14l.32-.13c-1.67,1.61-3.31,3.25-5,4.82l-5.06,4.76c-3.4,3.14-6.82,6.27-10.33,9.3,3.17-3.38,6.45-6.65,9.74-9.92l5-4.84c1.65-1.62,3.36-3.19,5-4.79l.13-.12h.19c3,0,6.08,0,9.12.13S295.15,106.59,298.19,106.75Z" style="fill:#415BB2"></path><path d="M167.74,67a11.13,11.13,0,0,0-11.82,18.62,11.65,11.65,0,0,0,2.56,1.64h0a11.11,11.11,0,0,0,4.63,1c.34,0,.68,0,1,0A11.13,11.13,0,0,0,167.74,67Zm5,14.55a10.61,10.61,0,0,1-14.08,5.25,11.06,11.06,0,0,1-2.46-1.56,10.64,10.64,0,0,1,3.17-18.08,10.54,10.54,0,0,1,8.12.29A10.67,10.67,0,0,1,172.78,81.59Zm-5-14.55a11.13,11.13,0,0,0-11.82,18.62,11.65,11.65,0,0,0,2.56,1.64h0a11.11,11.11,0,0,0,4.63,1c.34,0,.68,0,1,0A11.13,11.13,0,0,0,167.74,67Zm5,14.55a10.61,10.61,0,0,1-14.08,5.25,11.06,11.06,0,0,1-2.46-1.56,10.64,10.64,0,0,1,3.17-18.08,10.54,10.54,0,0,1,8.12.29A10.67,10.67,0,0,1,172.78,81.59Zm4.69-9.77a15.21,15.21,0,0,0-3.14-5.09,15.32,15.32,0,0,0-16.57-3.91,15.32,15.32,0,0,0-3.4,26.93l-2,4.33-.21.45,6.75,3.13.21-.45,2.23-4.82a15.32,15.32,0,0,0,16.15-20.57Zm-.88,11.51a14.75,14.75,0,0,1-15.38,8.54l-.19,0L158.64,97l-5.84-2.71L155,89.58l-.17-.12a14.83,14.83,0,1,1,21.77-6.13Z" style="fill:#455a64"></path><path d="M177,72a14.82,14.82,0,1,0-22.18,17.47l.17.12-2.19,4.71L158.64,97,161,91.85l.19,0A14.83,14.83,0,0,0,177,72Zm-3.77,9.81a11.15,11.15,0,0,1-9.09,6.45c-.34,0-.68,0-1,0a11.11,11.11,0,0,1-4.63-1h0a11.65,11.65,0,0,1-2.56-1.64,11.13,11.13,0,1,1,17.31-3.86Z" style="fill:#455a64"></path><path d="M159.09,97.21l-.45-.21-5.84-2.71-.46-.21L151,93.47l-7.26,15.65,9.31,4.23,7.24-15.58Zm-6.26,15.48-8.41-3.81,6.84-14.75.87.4,6.75,3.13.76.35Z" style="fill:#455a64"></path><path d="M353.94,195.06a7.55,7.55,0,1,0-12.8,8,6.92,6.92,0,0,0,.63.8l.06.07,7.58,2.13h0l.07,0a8,8,0,0,0,1-.36,7.55,7.55,0,0,0,3.47-10.59Zm.06,5.57a6.86,6.86,0,0,1-4.59,4.73l-7.22-2a6.9,6.9,0,1,1,12.07-4.59A6.79,6.79,0,0,1,354,200.63Z" style="fill:#455a64"></path><path d="M354.26,198.74a6.79,6.79,0,0,1-.26,1.89,6.86,6.86,0,0,1-4.59,4.73l-7.22-2a6.9,6.9,0,1,1,12.07-4.59Z" style="fill:#455a64"></path><path d="M350.47,205.65l-1.06-.29-7.22-2-1.05-.29-3-.85-.77,2.76,1.35.38.63.17,11.41,3.2.63.18,1.36.38.77-2.76Zm1.8,2.8-.73-.2-12.67-3.55-.73-.21.42-1.5,3.27.92,7.6,2.12,3.26.92Z" style="fill:#455a64"></path><path d="M349.94,237.1l-.86-.25-23-6.44h0l-.86-.25-2.9-.81-.77,2.76,1.11.31.63.18L351,240.35l1.12.31.77-2.75Zm1.68,2.76-.49-.14-28.28-7.92-.49-.14.42-1.5,1.65.46,26,7.28,1.65.46Z" style="fill:#455a64"></path><path d="M350.06,243.56l-.63-.18-27-7.57-.63-.18-1.11-.31-.77,2.75,30.51,8.56.77-2.76Zm-.11,2.26-29.26-8.2.42-1.5.48.13h0l28.29,7.93.48.13Z" style="fill:#455a64"></path><path d="M322.85,231.79h0l-.18.62-.9,3.21-.18.62h0l28.29,7.93.18-.63.89-3.21.18-.63Zm27.48,8.39-.9,3.2-27-7.57.9-3.21Z" style="fill:#455a64"></path><polygon points="350.33 240.18 349.43 243.38 322.4 235.81 323.3 232.6 350.33 240.18" style="fill:#455a64"></polygon><path d="M350.76,211l-12.66-3.55.77-2.75,12.67,3.55Zm-11.86-4,11.41,3.2.42-1.5-11.41-3.2Z" style="fill:#455a64"></path><path d="M350,237.21l-.06-.11c-.5-.93-3.84-7.48-3.19-13.83.52-5.11,1.74-11.32,2.05-12.82,0-.21.07-.33.07-.34l.06-.29-8.66-2.43-.1.29-.11.32c-.51,1.43-2.7,7.37-4.91,12-2.74,5.75-9,9.6-9.92,10.15l-.12.07-.68.39,26,7.28Zm-23.9-6.8c1.86-1.18,7.1-4.82,9.64-10.11,2.24-4.71,4.45-10.74,4.94-12.12l7.49,2.1c-.3,1.43-1.55,7.74-2.07,12.92-.6,5.85,2,11.7,3,13.65Z" style="fill:#455a64"></path><path d="M349.08,236.85l-23-6.44c1.86-1.18,7.1-4.82,9.64-10.11,2.24-4.71,4.45-10.74,4.94-12.12l7.49,2.1c-.3,1.43-1.55,7.74-2.07,12.92C345.5,229.05,348.1,234.9,349.08,236.85Z" style="fill:#455a64"></path><path d="M97.87,144.2a9.53,9.53,0,0,0-4.36-4.74,6.24,6.24,0,0,0-5.18.19,6.07,6.07,0,0,0-3.57,3.68c-.78,2.41.14,5,.74,6.34a4.78,4.78,0,0,0,.22.45h0l.44-.19-.07-.15-.14-.3c-.57-1.24-1.45-3.75-.74-6a5.62,5.62,0,0,1,3.3-3.38,6.65,6.65,0,0,1,2.72-.62,5.07,5.07,0,0,1,2.06.43,9.06,9.06,0,0,1,4.1,4.48c0,.11.1.21.13.3a1,1,0,0,1,.07.15l.43-.19h0Z" style="fill:#455a64"></path><polygon points="98.04 144.66 97.61 144.85 86.18 149.92 85.74 150.11 85.67 149.96 86.11 149.77 97.54 144.7 97.97 144.51 98.04 144.66" style="fill:#455a64"></polygon><polygon points="87.33 152.35 86.87 152.55 86.76 152.32 86.66 152.1 86.55 151.87 87.01 151.67 87.12 151.9 87.22 152.12 87.33 152.35" style="fill:#455a64"></polygon><polygon points="111.91 205.63 111.69 205.74 111.46 205.84 87.89 154.77 87.68 154.32 88.14 154.11 88.35 154.57 111.8 205.38 111.91 205.63" style="fill:#455a64"></polygon><polygon points="99.17 147.11 98.72 147.31 98.62 147.08 98.4 146.62 98.85 146.42 98.96 146.65 99.06 146.88 99.17 147.11" style="fill:#455a64"></polygon><polygon points="123.76 200.39 123.53 200.49 123.3 200.6 123.18 200.33 99.74 149.52 99.53 149.07 99.98 148.87 100.19 149.32 123.76 200.39" style="fill:#455a64"></polygon><path d="M97.54,144.7l-11.43,5.07.07.15,11.43-5.07A1,1,0,0,0,97.54,144.7Zm0,0-11.43,5.07.07.15,11.43-5.07A1,1,0,0,0,97.54,144.7Zm0,0-11.43,5.07.07.15,11.43-5.07A1,1,0,0,0,97.54,144.7Zm2.42,1.51-1.13-2.44-1,.43-.46.2L86,149.47l-.47.2-1,.43,1.13,2.44.1.22,1-.44.46-.2,11.4-5,.44-.2,1-.44Zm-14.75,4.14.51-.23h0l.44-.19,11.43-5.07.43-.19h0l.51-.23.81,1.76-.54.24-.45.2-11.39,5-.46.2-.53.24Zm12.33-5.65-11.43,5.07.07.15,11.43-5.07A1,1,0,0,0,97.54,144.7Zm0,0-11.43,5.07.07.15,11.43-5.07A1,1,0,0,0,97.54,144.7Z" style="fill:#455a64"></path><path d="M98.62,147.08l-.11-.23L87.12,151.9l.1.22.11.23,11.39-5Zm0,0-.11-.23L87.12,151.9l.1.22.11.23,11.39-5Zm1.44-.64-.1-.23-1,.44-.45.2L87.12,151.9l-.46.2-1,.44.1.22,1.13,2.45,1-.44.46-.2,11.39-5,.45-.2,1-.44Zm-.08,2.43-.45.2-11.39,5-.46.21-.53.23-.82-1.76.54-.24.46-.2,11.39-5,.45-.2.54-.24.81,1.76Zm-1.36-1.79-.11-.23L87.12,151.9l.1.22.11.23,11.39-5Zm0,0-.11-.23L87.12,151.9l.1.22.11.23,11.39-5Z" style="fill:#455a64"></path><path d="M123.53,200.49l-.35-.16-1.72-.8-.08.28s-.3,1.05-.44,1.56l-1.77-.83-.52,1.84-1.75-.83-.54,1.85-1.75-.84-.54,1.85-1.75-.83-.08.28-.44,1.52c0,.16-.08.27-.09.31l0,.05-.08.13,7.56,4.85,2.75,1.78,1.75-11.94Zm-1.38,7-.25,1.73-.36,2.45L118,209.35l-5.72-3.68c.06-.2.18-.59.4-1.39l1.76.84.54-1.85,1.75.83.54-1.85,1.75.84.52-1.84,1.77.82.08-.28s.3-1,.44-1.56l1.34.62Z" style="fill:#455a64"></path><path d="M122.15,207.48l-4.2,1.87-.38.17,4.12,2.66.72-4.81Zm-.37.72-.47,3.14-2.7-1.74Z" style="fill:#455a64"></path><path d="M99.74,149.52l-11.39,5,23.45,50.81.44-1.52.08-.28,1.75.83.54-1.85,1.75.84.54-1.85,1.75.83.52-1.84,1.77.83c.14-.51.43-1.54.44-1.56l.08-.28,1.72.8Zm7.84,40.08c-1.87-3.78-3.63-7.62-5.45-11.43s-3.5-7.69-5.16-11.56-3.32-7.77-4.82-11.73c2,3.71,3.92,7.49,5.79,11.28s3.63,7.62,5.45,11.43,3.49,7.68,5.15,11.56,3.32,7.77,4.83,11.72C111.34,197.16,109.45,193.39,107.58,189.6Zm5.29-2.43c-1.87-3.79-3.63-7.62-5.45-11.43s-3.49-7.69-5.16-11.57-3.32-7.76-4.82-11.72c2,3.71,3.92,7.49,5.79,11.28s3.63,7.62,5.45,11.43,3.49,7.68,5.16,11.56,3.31,7.77,4.82,11.72C116.63,194.73,114.74,191,112.87,187.17Z" style="fill:#455a64"></path><path d="M248.75,61a4.47,4.47,0,1,1-4.47-4.47A4.47,4.47,0,0,1,248.75,61Z" style="fill:#455a64"></path><path d="M252,73.32V75H236.55V73.32a7.73,7.73,0,0,1,15.45,0Z" style="fill:#455a64"></path><path d="M260.2,58.31a4.47,4.47,0,1,1-4.47-4.47A4.47,4.47,0,0,1,260.2,58.31Z" style="fill:#455a64"></path><path d="M263.45,70.63v1.63H248V70.63a7.73,7.73,0,0,1,15.45,0Z" style="fill:#455a64"></path><path d="M151.18,246a1.14,1.14,0,0,1,1.18,0l.31.18.31.15a1.13,1.13,0,0,1,.66,1l.05,1.46,4.74-.15,0-1.45a1.15,1.15,0,0,1,.59-1,5.51,5.51,0,0,0,.61-.37,1.12,1.12,0,0,1,1.18-.07l1.28.68,2.24-4.18-1.28-.69a1.12,1.12,0,0,1-.59-1,5.56,5.56,0,0,0,0-.71,1.11,1.11,0,0,1,.52-1.06l1.24-.77-2.5-4-1.25.77a1.12,1.12,0,0,1-1.18,0l-.3-.18-.31-.16a1.14,1.14,0,0,1-.67-1l0-1.46-4.75.15.05,1.45a1.15,1.15,0,0,1-.59,1c-.21.11-.41.24-.61.37a1.12,1.12,0,0,1-1.18.08l-1.28-.69-2.24,4.19,1.28.68a1.15,1.15,0,0,1,.59,1,5.61,5.61,0,0,0,0,.71,1.12,1.12,0,0,1-.52,1.06l-1.24.77,2.5,4Zm1.19-7.49A3.89,3.89,0,1,1,154,243.8,3.89,3.89,0,0,1,152.37,238.54Z" style="fill:#455a64"></path><path d="M162.73,251.69a.79.79,0,0,1,.38.73v.49a.79.79,0,0,1-.38.73l-.89.51L163.5,257l.89-.51a.8.8,0,0,1,.83,0,3.7,3.7,0,0,0,.43.25.81.81,0,0,1,.43.7v1h3.33v-1a.8.8,0,0,1,.44-.7,3.7,3.7,0,0,0,.43-.25.8.8,0,0,1,.83,0l.88.51,1.66-2.88-.89-.51a.79.79,0,0,1-.38-.73c0-.08,0-.16,0-.25s0-.16,0-.24a.78.78,0,0,1,.39-.73l.88-.51L172,248.29l-.88.51a.8.8,0,0,1-.83,0,3.7,3.7,0,0,0-.43-.25.8.8,0,0,1-.44-.71v-1h-3.33v1a.81.81,0,0,1-.43.71,3,3,0,0,0-.43.25.8.8,0,0,1-.83,0l-.89-.51-1.66,2.89Zm5-1.75a2.73,2.73,0,1,1-2.73,2.72A2.72,2.72,0,0,1,167.75,249.94Z" style="fill:#455a64"></path><path d="M426.78,157.34c-.43-4.26-3.37-8.51-8.54-8.51s-8.1,4.25-8.53,8.51c-.65,6.59,3.79,12.56,8.53,18C423,169.9,427.43,163.93,426.78,157.34Zm-8.54,4.74a4.67,4.67,0,1,1,4.68-4.67A4.67,4.67,0,0,1,418.24,162.08Z" style="fill:#455a64"></path><path d="M357.36,74.65H344.11V66.71h13.25Zm-12.25-1h11.25V67.71H345.11Z" style="fill:#455a64"></path><rect x="342.88" y="64.87" width="15.71" height="4.54" style="fill:#455a64"></rect><path d="M331.41,83.37l-6-6,4-4.05,6,6Zm-4.57-6L331.41,82,334,79.33l-4.57-4.56Z" style="fill:#455a64"></path><rect x="324.01" y="73.24" width="7.5" height="4.87" transform="translate(42.49 253.93) rotate(-45)" style="fill:#455a64"></rect><path d="M370.06,83.37l-4.05-4,6-6,4,4.05Zm-2.63-4L370.06,82l4.56-4.56L372,74.77Z" style="fill:#455a64"></path><rect x="369.96" y="73.24" width="7.5" height="4.87" transform="translate(584.44 393.45) rotate(-135)" style="fill:#455a64"></rect><rect x="327.46" y="102.67" width="3.81" height="0.49" style="fill:#455a64"></rect><polygon points="333.75 112.44 333.99 112.85 330.7 114.76 330.45 114.34 333.75 112.44" style="fill:#455a64"></polygon><polygon points="330.7 91.08 333.99 92.97 333.75 93.39 330.45 91.49 330.7 91.08" style="fill:#455a64"></polygon><polygon points="340.79 119.66 341.2 119.89 339.31 123.19 338.89 122.94 340.79 119.66" style="fill:#455a64"></polygon><polygon points="339.31 82.64 341.2 85.93 340.79 86.18 338.89 82.89 339.31 82.64" style="fill:#455a64"></polygon><rect x="350.49" y="79.65" width="0.48" height="3.81" style="fill:#455a64"></rect><rect x="350.49" y="122.38" width="0.48" height="3.81" style="fill:#455a64"></rect><polygon points="350.9 84.77 352.02 104.41 349.5 104.37 350.22 84.75 350.9 84.77" style="fill:#455a64"></polygon><polygon points="360.68 119.66 362.58 122.94 362.16 123.19 360.26 119.89 360.68 119.66" style="fill:#455a64"></polygon><polygon points="362.16 82.64 362.58 82.89 360.68 86.18 360.26 85.93 362.16 82.64" style="fill:#455a64"></polygon><polygon points="367.71 112.44 371 114.34 370.77 114.76 367.47 112.85 367.71 112.44" style="fill:#455a64"></polygon><polygon points="367.71 93.39 367.47 92.97 370.77 91.08 371 91.49 367.71 93.39" style="fill:#455a64"></polygon><path d="M371.24,81.48a27.86,27.86,0,0,0-3.68-3,29.76,29.76,0,0,0-33.66,0,30.48,30.48,0,0,0-3.68,3,29.78,29.78,0,1,0,41,0ZM350.73,128a25.1,25.1,0,1,1,25.09-25.09A25.09,25.09,0,0,1,350.73,128Z" style="fill:#455a64"></path><rect x="370.19" y="102.67" width="3.81" height="0.49" style="fill:#455a64"></rect><rect x="327.46" y="102.67" width="3.81" height="0.49" style="fill:#455a64"></rect><polygon points="333.75 112.44 333.99 112.85 330.7 114.76 330.45 114.34 333.75 112.44" style="fill:#455a64"></polygon><polygon points="330.7 91.08 333.99 92.97 333.75 93.39 330.45 91.49 330.7 91.08" style="fill:#455a64"></polygon><polygon points="340.79 119.66 341.2 119.89 339.31 123.19 338.89 122.94 340.79 119.66" style="fill:#455a64"></polygon><polygon points="339.31 82.64 341.2 85.93 340.79 86.18 338.89 82.89 339.31 82.64" style="fill:#455a64"></polygon><rect x="350.49" y="79.65" width="0.48" height="3.81" style="fill:#455a64"></rect><rect x="350.49" y="122.38" width="0.48" height="3.81" style="fill:#455a64"></rect><polygon points="350.9 84.77 352.02 104.41 349.5 104.37 350.22 84.75 350.9 84.77" style="fill:#455a64"></polygon><polygon points="360.68 119.66 362.58 122.94 362.16 123.19 360.26 119.89 360.68 119.66" style="fill:#455a64"></polygon><polygon points="362.16 82.64 362.58 82.89 360.68 86.18 360.26 85.93 362.16 82.64" style="fill:#455a64"></polygon><polygon points="367.71 112.44 371 114.34 370.77 114.76 367.47 112.85 367.71 112.44" style="fill:#455a64"></polygon><polygon points="367.71 93.39 367.47 92.97 370.77 91.08 371 91.49 367.71 93.39" style="fill:#455a64"></polygon><path d="M370.35,82.37a26.79,26.79,0,0,0-3.62-3h0A28.44,28.44,0,0,0,334.44,79a30.68,30.68,0,0,0-3.69,3,28.42,28.42,0,1,0,39.6.36ZM350.73,128a25.1,25.1,0,1,1,25.09-25.09A25.09,25.09,0,0,1,350.73,128Z" style="fill:#455a64"></path><rect x="370.19" y="102.67" width="3.81" height="0.49" style="fill:#455a64"></rect><rect x="327.46" y="102.67" width="3.81" height="0.49" style="fill:#455a64"></rect><polygon points="333.75 112.44 333.99 112.85 330.7 114.76 330.45 114.34 333.75 112.44" style="fill:#455a64"></polygon><polygon points="330.7 91.08 333.99 92.97 333.75 93.39 330.45 91.49 330.7 91.08" style="fill:#455a64"></polygon><polygon points="340.79 119.66 341.2 119.89 339.31 123.19 338.89 122.94 340.79 119.66" style="fill:#455a64"></polygon><polygon points="339.31 82.64 341.2 85.93 340.79 86.18 338.89 82.89 339.31 82.64" style="fill:#455a64"></polygon><rect x="350.49" y="79.65" width="0.48" height="3.81" style="fill:#455a64"></rect><rect x="350.49" y="122.38" width="0.48" height="3.81" style="fill:#455a64"></rect><polygon points="350.9 84.77 352.02 104.41 349.5 104.37 350.22 84.75 350.9 84.77" style="fill:#455a64"></polygon><polygon points="360.68 119.66 362.58 122.94 362.16 123.19 360.26 119.89 360.68 119.66" style="fill:#455a64"></polygon><polygon points="362.16 82.64 362.58 82.89 360.68 86.18 360.26 85.93 362.16 82.64" style="fill:#455a64"></polygon><polygon points="367.71 112.44 371 114.34 370.77 114.76 367.47 112.85 367.71 112.44" style="fill:#455a64"></polygon><polygon points="367.71 93.39 367.47 92.97 370.77 91.08 371 91.49 367.71 93.39" style="fill:#455a64"></polygon><rect x="370.19" y="102.67" width="3.81" height="0.49" style="fill:#455a64"></rect><rect x="350.49" y="79.65" width="0.48" height="3.81" style="fill:#455a64"></rect><polygon points="341.2 85.93 340.79 86.18 338.89 82.89 339.31 82.64 341.2 85.93" style="fill:#455a64"></polygon><polygon points="333.99 92.97 333.75 93.39 330.45 91.49 330.7 91.08 333.99 92.97" style="fill:#455a64"></polygon><rect x="327.46" y="102.67" width="3.81" height="0.49" style="fill:#455a64"></rect><polygon points="333.99 112.85 330.7 114.76 330.45 114.34 333.75 112.44 333.99 112.85" style="fill:#455a64"></polygon><polygon points="341.2 119.89 339.31 123.19 338.89 122.94 340.79 119.66 341.2 119.89" style="fill:#455a64"></polygon><rect x="350.49" y="122.38" width="0.48" height="3.81" style="fill:#455a64"></rect><polygon points="362.58 122.94 362.16 123.19 360.26 119.89 360.68 119.66 362.58 122.94" style="fill:#455a64"></polygon><polygon points="371 114.34 370.77 114.76 367.47 112.85 367.71 112.44 371 114.34" style="fill:#455a64"></polygon><rect x="370.19" y="102.67" width="3.81" height="0.49" style="fill:#455a64"></rect><polygon points="371 91.49 367.71 93.39 367.47 92.97 370.77 91.08 371 91.49" style="fill:#455a64"></polygon><polygon points="362.58 82.89 360.68 86.18 360.26 85.93 362.16 82.64 362.58 82.89" style="fill:#455a64"></polygon><polygon points="352.02 104.41 349.5 104.37 350.22 84.75 350.9 84.77 352.02 104.41" style="fill:#455a64"></polygon><path d="M351.59,102.91a.86.86,0,1,1-.86-.86A.86.86,0,0,1,351.59,102.91Z" style="fill:#455a64"></path></g><g id="freepik--light-bulb--inject-99"><path d="M272.89,147.6c-1.74,14.91-11.32,17.65-12.92,21.63a68.21,68.21,0,0,0-2,7.62H242.4a66.68,66.68,0,0,0-2-7.63c-1.59-4-11.18-6.71-12.92-21.62-1.15-9.8,6.22-25.27,22.7-25.27S274,137.8,272.89,147.6Z" style="fill:#415BB2"></path><rect x="243.55" y="152.88" width="1" height="25.21" transform="translate(-26.23 47.6) rotate(-10.58)" style="fill:#fff"></rect><rect x="243.73" y="164.98" width="25.21" height="1" transform="translate(46.58 387.05) rotate(-79.41)" style="fill:#fff"></rect><path d="M250.19,161.38c-1.24,0-2.49-1-3.52-2.75,0-.06-.07-.12-.1-.19a1.87,1.87,0,0,1-1.33.7c-2.37,0-3.32-4.85-3.36-5l.5-.1c.24,1.3,1.23,4.65,2.86,4.65a1.56,1.56,0,0,0,1.08-.67c-1-2-1.55-4.65-.83-5.9a1.25,1.25,0,0,1,1.13-.66,1.47,1.47,0,0,1,1.33.75c.73,1.28.19,3.79-.73,5.39a4.25,4.25,0,0,1-.31.47l.2.36c.54.93,1.66,2.5,3.08,2.5h0c.95,0,1.9-.75,2.69-2.12l.18-.32a6.54,6.54,0,0,1-1.42-4.18c0-1.76.67-2.85,1.75-2.85a1.14,1.14,0,0,1,1,.63c.69,1.2.32,4.06-.76,6.32a2.2,2.2,0,0,0,1.5.6c1.4,0,2.64-3.38,3-4.68l.49.13c-.15.52-1.46,5.05-3.49,5.05a2.68,2.68,0,0,1-1.73-.66l-.12.21c-.89,1.55-2,2.37-3.12,2.37Zm3.2-9.47c-.92,0-1.25,1.27-1.25,2.35a6.4,6.4,0,0,0,1.15,3.7c.93-2.05,1.28-4.66.7-5.67A.67.67,0,0,0,253.39,151.91Zm-6.77,0a.73.73,0,0,0-.69.41c-.54.93-.19,3.19.73,5.19l.12-.21c.84-1.45,1.35-3.82.73-4.89A.94.94,0,0,0,246.62,151.91Z" style="fill:#fff"></path><rect x="240.58" y="176.19" width="19.22" height="3.76" style="fill:#263238"></rect><rect x="240.58" y="180.55" width="19.22" height="3.76" style="fill:#263238"></rect><rect x="240.58" y="184.92" width="19.22" height="3.76" style="fill:#263238"></rect><path d="M249.89,116.35a8.86,8.86,0,0,1-.55-3.1,8.62,8.62,0,0,1,.44-3.11,8.84,8.84,0,0,1,.55,3.09A8.64,8.64,0,0,1,249.89,116.35Z" style="fill:#263238"></path><path d="M235.71,120.3a8.89,8.89,0,0,1-2-2.4,8.73,8.73,0,0,1-1.17-2.92,9.08,9.08,0,0,1,2,2.41A8.68,8.68,0,0,1,235.71,120.3Z" style="fill:#263238"></path><path d="M225.41,130.82a9,9,0,0,1-3-1.07,8.62,8.62,0,0,1-2.47-1.94,9,9,0,0,1,3,1.07A8.62,8.62,0,0,1,225.41,130.82Z" style="fill:#263238"></path><path d="M221.75,145.08a8.86,8.86,0,0,1-3.1.55,8.62,8.62,0,0,1-3.11-.44,9.8,9.8,0,0,1,6.21-.11Z" style="fill:#263238"></path><path d="M225.71,159.25a10,10,0,0,1-5.32,3.21,8.54,8.54,0,0,1,2.4-2A9,9,0,0,1,225.71,159.25Z" style="fill:#263238"></path><path d="M275,158.75a9,9,0,0,1,3,1.06,8.79,8.79,0,0,1,2.47,1.94,8.8,8.8,0,0,1-3-1.06A9.13,9.13,0,0,1,275,158.75Z" style="fill:#263238"></path><path d="M278.62,144.49a9.11,9.11,0,0,1,3.1-.56,8.85,8.85,0,0,1,3.11.45,10,10,0,0,1-6.21.11Z" style="fill:#263238"></path><path d="M274.67,130.31a8.89,8.89,0,0,1,2.4-2,8.65,8.65,0,0,1,2.92-1.17,9.08,9.08,0,0,1-2.41,2A8.68,8.68,0,0,1,274.67,130.31Z" style="fill:#263238"></path><path d="M264.15,120a9,9,0,0,1,1.07-3,8.62,8.62,0,0,1,1.94-2.47,10,10,0,0,1-3,5.43Z" style="fill:#263238"></path></g><g id="freepik--Character--inject-99"><path d="M288.1,276.53a.88.88,0,0,1-.56,1l-3.35.58c-4-8.12-8.11-14.47-6.94-11.95a46.76,46.76,0,0,1,3.64,12.5c-1.47.24-4.91.77-6.63,1-4.41-14.56-9.1-25.21-8.48-21.83,2.49,13.59,2.26,18.07,1.94,22.86-16,2.45-37,5.41-52.3,7.2-2.75-8-5.36-16.73-5.56-16.08-1.52,4.84-1.28,11.62-.7,16.8-4.87.53-8.76.86-11.15.94,0,0-2-6.78-2.41-9a50.6,50.6,0,0,1-.37-17.44c.93-5.91,3.11-11.27,5.14-16.75a.43.43,0,0,1,0-.12s0,0,0,0a50.33,50.33,0,0,0,2.77-11.11.2.2,0,0,0,0-.09,49.42,49.42,0,0,0,.27-8.34c-.51-10.19,3.77-19.5,12.36-23.08,14.79-18.65,32.5-13.26,39.15-.8.64,1.21,1.29,2.61,1.94,4.15l0,0c2.43,5.67,4.89,13.1,7,18.83a0,0,0,0,0,0,0s0,0,0,.06v0a59.65,59.65,0,0,0,2.82,6.57C272.37,242.62,282.8,247.62,288.1,276.53Z" style="fill:#263238"></path><path d="M212.31,206.76c-5.45,3.86-8.46,9-8.48,16.46,0,4.37.23,8.6-.83,12.82s-3.21,8.06-5.39,11.77c-3.48,5.88-5.7,11.61-5.47,18.93s1.61,16.09,4.76,22.72c0,0,.08,0,.06,0-2.73-6.78-3.94-16.42-3.65-23.84.31-8.14,3.95-13.62,7.56-20.16a34.37,34.37,0,0,0,4.42-17c0-3.7-.51-7.49.45-11.07,1.15-4.28,4.11-7.23,7.08-9.88C213.22,207.11,212.73,206.47,212.31,206.76Z" style="fill:#263238"></path><path d="M278,242.81c-4.82-5.32-9.7-9.77-13-16.64-3-6.26-5.06-13-8.08-19.24a.08.08,0,1,0-.15.06c4.84,11.16,6.91,22.7,15,31.67,4.42,4.87,8.78,9.35,12,15.4a60.92,60.92,0,0,1,6.42,20.41c0,.26.34.21.33,0A49.87,49.87,0,0,0,278,242.81Z" style="fill:#263238"></path><path d="M266.34,284c31.61,33.13,70.91,102.37,63.14,116.14-8.66,15.34-54.24-31.82-52.81-34.08,1.22-1.91-14.53-43.6-26-74.09S258.53,275.76,266.34,284Z" style="fill:#f7a9a0"></path><path d="M305.07,323.67l-45.38,8.18s-11.33-32.16-13.58-50c-1.26-10,4.62-10.42,12-5.1C284,295.34,305.07,323.67,305.07,323.67Z" style="fill:#415BB2"></path><path d="M251.7,292.28a.85.85,0,1,1-.85-.85A.85.85,0,0,1,251.7,292.28Zm13.32-.85a.85.85,0,1,0,.85.85A.85.85,0,0,0,265,291.43Zm-7.08-11a.85.85,0,1,0,.85.85A.85.85,0,0,0,257.94,280.47ZM265,313.53a.85.85,0,1,0,.85.85A.85.85,0,0,0,265,313.53Zm14.17,0a.85.85,0,1,0,.85.85A.85.85,0,0,0,279.19,313.53Zm14.17,0a.85.85,0,1,0,.85.85A.85.85,0,0,0,293.36,313.53Zm-35.42-11a.85.85,0,1,0,.85.85A.86.86,0,0,0,257.94,302.57Zm14.16,0a.85.85,0,1,0,.85.85A.86.86,0,0,0,272.1,302.57Zm14.17,0a.85.85,0,1,0,.85.85A.86.86,0,0,0,286.27,302.57Zm-28.33,22.11a.86.86,0,0,0-.6.24c.16.51.33,1,.48,1.45h.12a.84.84,0,0,0,.84-.85A.83.83,0,0,0,257.94,324.68Zm14.16,0a.86.86,0,1,0,.85.86A.86.86,0,0,0,272.1,324.67Zm14.17,0a.86.86,0,1,0,.85.86A.86.86,0,0,0,286.27,324.67Z" style="fill:#fff"></path><path d="M260,324.41c6.88-1.83,25.68-6.27,38.28-7.56.08,0,.14.28.06.3-10.31,2.65-31.23,6.45-38.24,7.69C260,324.86,259.85,324.45,260,324.41Z" style="fill:#263238"></path><path d="M299,324.77l-39.31,7.07s-11.32-32.16-13.57-50c-.81-6.4,1.32-8.87,4.89-8.43Z" style="opacity:0.1"></path><path d="M284.78,398.73h-115s10.47-80.24,47.52-122.44c10-11.38,28.13-8,36.7-.31a80.58,80.58,0,0,1,8.35,9.48c7.79,10,20.51,34.05,21.7,40.55,2,10.75-7.54,22.36-7.54,22.36Z" style="fill:#415BB2"></path><path d="M237.53,270.18a.85.85,0,1,1-.85-.85A.85.85,0,0,1,237.53,270.18Zm-29.18,21.25a.85.85,0,1,0,.85.85A.85.85,0,0,0,208.35,291.43Zm14.17,0a.85.85,0,1,0,.85.85A.85.85,0,0,0,222.52,291.43Zm14.16,0a.85.85,0,1,0,.85.85A.85.85,0,0,0,236.68,291.43Zm14.17,0a.85.85,0,1,0,.85.85A.85.85,0,0,0,250.85,291.43Zm14.17,0a.85.85,0,1,0,.85.85A.85.85,0,0,0,265,291.43Zm-49.59-11a.85.85,0,1,0,.85.85A.85.85,0,0,0,215.43,280.47Zm14.17,0a.85.85,0,1,0,.85.85A.85.85,0,0,0,229.6,280.47Zm14.17,0a.85.85,0,1,0,.85.85A.85.85,0,0,0,243.77,280.47Zm15,.55-.35-.43h0a.85.85,0,1,0,.42.74A.65.65,0,0,0,258.72,281Zm-64.54,32.51h-.12c-.19.44-.39.88-.58,1.31h0a.85.85,0,1,0,.7-1.33Zm14.17,0a.85.85,0,1,0,.85.85A.85.85,0,0,0,208.35,313.53Zm14.17,0a.85.85,0,1,0,.85.85A.85.85,0,0,0,222.52,313.53Zm14.16,0a.85.85,0,1,0,.85.85A.85.85,0,0,0,236.68,313.53Zm14.17,0a.85.85,0,1,0,.85.85A.85.85,0,0,0,250.85,313.53Zm14.17,0a.85.85,0,1,0,.85.85A.85.85,0,0,0,265,313.53Zm14,0a.83.83,0,0,0-.64.81.86.86,0,0,0,.85.86.81.81,0,0,0,.51-.18C279.47,314.56,279.23,314.07,279,313.57Zm-77.72-11a.85.85,0,1,0,.85.85A.86.86,0,0,0,201.26,302.57Zm14.17,0a.85.85,0,1,0,.85.85A.86.86,0,0,0,215.43,302.57Zm14.17,0a.85.85,0,1,0,.85.85A.86.86,0,0,0,229.6,302.57Zm14.17,0a.85.85,0,1,0,.85.85A.86.86,0,0,0,243.77,302.57Zm14.17,0a.85.85,0,1,0,.85.85A.86.86,0,0,0,257.94,302.57Zm14.16,0a.85.85,0,1,0,.85.85A.86.86,0,0,0,272.1,302.57Zm-77.92,33.06a.85.85,0,1,0,.85.85A.85.85,0,0,0,194.18,335.63Zm14.17,0a.85.85,0,1,0,.85.85A.85.85,0,0,0,208.35,335.63Zm14.17,0a.85.85,0,1,0,.85.85A.85.85,0,0,0,222.52,335.63Zm14.16,0a.85.85,0,1,0,.85.85A.85.85,0,0,0,236.68,335.63Zm14.17,0a.85.85,0,1,0,.85.85A.85.85,0,0,0,250.85,335.63Zm14.17,0a.85.85,0,1,0,.85.85A.85.85,0,0,0,265,335.63Zm14.17,0a.85.85,0,1,0,.85.85A.85.85,0,0,0,279.19,335.63Zm-77.93-11a.86.86,0,1,0,.85.86A.86.86,0,0,0,201.26,324.67Zm14.17,0a.86.86,0,1,0,.85.86A.86.86,0,0,0,215.43,324.67Zm14.17,0a.86.86,0,1,0,.85.86A.86.86,0,0,0,229.6,324.67Zm14.17,0a.86.86,0,1,0,.85.86A.86.86,0,0,0,243.77,324.67Zm14.17,0a.86.86,0,1,0,.85.86A.86.86,0,0,0,257.94,324.67Zm14.16,0a.86.86,0,1,0,.85.86A.86.86,0,0,0,272.1,324.67ZM180,357.73a.85.85,0,1,0,.85.85A.85.85,0,0,0,180,357.73Zm14.17,0a.85.85,0,1,0,.85.85A.85.85,0,0,0,194.18,357.73Zm14.17,0a.85.85,0,1,0,.85.85A.85.85,0,0,0,208.35,357.73Zm14.17,0a.85.85,0,1,0,.85.85A.85.85,0,0,0,222.52,357.73Zm14.16,0a.85.85,0,1,0,.85.85A.85.85,0,0,0,236.68,357.73Zm14.17,0a.85.85,0,1,0,.85.85A.85.85,0,0,0,250.85,357.73Zm14.17,0a.85.85,0,1,0,.85.85A.85.85,0,0,0,265,357.73Zm-77.92-11a.85.85,0,1,0,.85.85A.86.86,0,0,0,187.1,346.78Zm14.16,0a.85.85,0,1,0,.85.85A.85.85,0,0,0,201.26,346.78Zm14.17,0a.85.85,0,1,0,.85.85A.85.85,0,0,0,215.43,346.78Zm14.17,0a.85.85,0,1,0,.85.85A.85.85,0,0,0,229.6,346.78Zm14.17,0a.85.85,0,1,0,.85.85A.85.85,0,0,0,243.77,346.78Zm14.17,0a.85.85,0,1,0,.85.85A.85.85,0,0,0,257.94,346.78Zm14.16,0a.85.85,0,1,0,.85.85A.85.85,0,0,0,272.1,346.78ZM180,379.83a.85.85,0,1,0,.85.85A.85.85,0,0,0,180,379.83Zm14.17,0a.85.85,0,1,0,.85.85A.85.85,0,0,0,194.18,379.83Zm14.17,0a.85.85,0,1,0,.85.85A.85.85,0,0,0,208.35,379.83Zm14.17,0a.85.85,0,1,0,.85.85A.85.85,0,0,0,222.52,379.83Zm14.16,0a.85.85,0,1,0,.85.85A.85.85,0,0,0,236.68,379.83Zm14.17,0a.85.85,0,1,0,.85.85A.85.85,0,0,0,250.85,379.83Zm14.17,0a.85.85,0,1,0,.85.85A.85.85,0,0,0,265,379.83Zm14.17,0a.85.85,0,1,0,.85.85A.85.85,0,0,0,279.19,379.83ZM187.1,368.88a.85.85,0,1,0,.85.85A.86.86,0,0,0,187.1,368.88Zm14.16,0a.85.85,0,1,0,.85.85A.85.85,0,0,0,201.26,368.88Zm14.17,0a.85.85,0,1,0,.85.85A.85.85,0,0,0,215.43,368.88Zm14.17,0a.85.85,0,1,0,.85.85A.85.85,0,0,0,229.6,368.88Zm14.17,0a.85.85,0,1,0,.85.85A.85.85,0,0,0,243.77,368.88Zm14.17,0a.85.85,0,1,0,.85.85A.85.85,0,0,0,257.94,368.88Zm14.16,0a.85.85,0,1,0,.85.85A.85.85,0,0,0,272.1,368.88ZM172.93,391a.85.85,0,1,0,.85.85A.85.85,0,0,0,172.93,391Zm14.17,0a.85.85,0,1,0,.85.85A.86.86,0,0,0,187.1,391Zm14.16,0a.85.85,0,1,0,.85.85A.85.85,0,0,0,201.26,391Zm14.17,0a.85.85,0,1,0,.85.85A.85.85,0,0,0,215.43,391Zm14.17,0a.85.85,0,1,0,.85.85A.85.85,0,0,0,229.6,391Zm14.17,0a.85.85,0,1,0,.85.85A.85.85,0,0,0,243.77,391Zm14.17,0a.85.85,0,1,0,.85.85A.85.85,0,0,0,257.94,391Zm14.16,0a.85.85,0,1,0,.85.85A.85.85,0,0,0,272.1,391Z" style="fill:#fff"></path><path d="M285.19,325.43C284.13,321,281.67,317,279.5,313c-2.29-4.18-4.69-8.3-7.15-12.38l-.27-.44c-.41-1.3-1-2.58-1.49-3.84-.64-1.62-1.32-3.22-1.95-4.85,0-.05-.11,0-.09,0,.51,1.69,1,3.38,1.64,5,.16.42.32.86.48,1.3-.83-1.37-1.67-2.72-2.53-4.07-1.46-2.29-3-4.52-4.47-6.81,0,0-.13,0-.09.06,2.35,4,4.6,8.08,6.95,12.09s4.63,8.06,6.82,12.16q1.63,3,3.16,6.15a50.65,50.65,0,0,1,2.64,6,19.45,19.45,0,0,1,.09,12.32c-1.42,4.53-3.94,8.65-6.34,12.71-.1.17.15.36.27.2C282.21,342,287.28,334.12,285.19,325.43Z" style="fill:#263238"></path><path d="M329.48,400.09C322.07,410.32,302.34,412,253,420.77c-6.83,1.22-28.38-44.61-21.16-46.29,9.1-2.11,44.84-8.33,47.51-8.45C301.91,365,334.51,393.15,329.48,400.09Z" style="fill:#f7a9a0"></path><path d="M241.75,372.4s-20.87,2.8-31.38,7.67C196.3,386.58,186.83,398,183.15,403c-7.68,10.49-19,41.16-10.74,46,7.48,4.34,17.47-27.59,17.47-27.59s-15.55,30.88-5.58,34.45,19.45-34.15,19.45-34.15-15.27,32.09-4.41,34.15c8.21,1.56,18.73-32.13,18.73-32.13s-12.94,27.67-4.56,29.63c9.25,2.18,20.91-28.31,20.91-28.31,22.12,1.42,33.24-7,40.44-13.86C276.6,409.5,241.75,372.4,241.75,372.4Z" style="fill:#f7a9a0"></path><path d="M194.57,410.37c-1.95,3.56-4,7.15-5.59,10.87s-3.15,7.51-4.43,11.36c-3.14,9.47-3.63,15.89-3.55,15.49,1.73-9.29,7.38-22.71,9-26.44s3.08-7.51,4.71-11.23C194.76,410.33,194.62,410.28,194.57,410.37Z" style="fill:#263238"></path><path d="M208.12,416c-2.3,4.65-4.76,9.19-6.86,14s-3.65,9.41-5.41,14.27c-.13.38.11.33.26,0,1.95-4.8,4.13-9.08,6.13-13.84s3.83-9.62,6-14.3C208.27,416,208.16,416,208.12,416Z" style="fill:#263238"></path><path d="M220.63,418.79c-3.89,6.94-6.49,14.58-8.86,22.14-.12.37.19.27.33-.11,2.81-7.41,5-13.24,8.77-21.89C220.93,418.79,220.71,418.65,220.63,418.79Z" style="fill:#263238"></path><path d="M301.14,371.55c-3.28-2.07-12.56-6.95-21.69-5.6a.08.08,0,0,0,0,.16c7.52,0,18.26,3.82,21.61,5.57C301.15,371.73,301.22,371.6,301.14,371.55Z" style="fill:#263238"></path><path d="M230.16,269.29c-3.75,1.93-3.84,7.11.47,12.88C237.53,291.43,257,299,257,299s1.09-18-4.87-26.29C248.13,267.2,234.66,267,230.16,269.29Z" style="fill:#f7a9a0"></path><path d="M231,273.3c.66,1.84,11.17,13.08,19.79,11.65,2.8-.47.92-15.9.92-15.9l.12-1.17,1.68-16.39-20.18-9.82-2.9-1.28s-.16,4.52-.31,10.14c0,.26,0,.52,0,.8s0,.62,0,.92c0,.84-.06,1.7-.08,2.55,0,.65,0,1.28,0,2s0,1.35,0,2A105.83,105.83,0,0,0,231,273.3Z" style="fill:#f7a9a0"></path><path d="M230.16,250.53a33.08,33.08,0,0,0,21.71,17.35l1.68-16.39-20.18-9.82-2.9-1.28S230.31,244.91,230.16,250.53Z" style="fill:#263238"></path><path d="M272.73,223.91c7.54,27.92-8.33,35.58-14.35,37.2-5.47,1.47-24.27,5.78-34.65-21.21s.21-39.32,12.54-43.34S265.19,196,272.73,223.91Z" style="fill:#f7a9a0"></path><path d="M265.57,218.86c-.68.06-1.32,0-2,0a3.26,3.26,0,0,1-2-.38,1,1,0,0,1-.26-1.23,2.53,2.53,0,0,1,2.33-1.11,3.7,3.7,0,0,1,2.58.8A1.1,1.1,0,0,1,265.57,218.86Z" style="fill:#263238"></path><path d="M247.67,222.87c.65-.23,1.21-.54,1.82-.82a3.15,3.15,0,0,0,1.7-1.19,1,1,0,0,0-.26-1.22,2.55,2.55,0,0,0-2.59-.06,3.83,3.83,0,0,0-2,1.8A1.1,1.1,0,0,0,247.67,222.87Z" style="fill:#263238"></path><path d="M253,229.18c0-.07-.13.13-.11.21.52,1.9.8,4.16-.78,5.21-.05,0,0,.13,0,.11C254.17,233.9,253.77,230.9,253,229.18Z" style="fill:#263238"></path><path d="M250.79,227.6c-3.14.5-1.9,6.74,1,6.27S253.41,227.17,250.79,227.6Z" style="fill:#263238"></path><path d="M249.63,228.17c-.48.46-.89,1.19-1.53,1.39s-1.45-.32-2.07-.84c-.06-.06-.11,0-.09.09.22,1.2.92,2.33,2.24,2.25s1.83-1.29,1.89-2.55C250.08,228.27,249.82,228,249.63,228.17Z" style="fill:#263238"></path><path d="M263.67,226.19c0-.08.17.06.18.14.31,1.95,1,4.12,2.86,4.43.06,0,.07.11,0,.11C264.52,231,263.65,228.08,263.67,226.19Z" style="fill:#263238"></path><path d="M265,223.84c3.06-.83,4.5,5.36,1.66,6.13S262.44,224.54,265,223.84Z" style="fill:#263238"></path><path d="M266.39,224c.57.21,1.19.69,1.78.6s1-.9,1.32-1.64c0-.08.09,0,.11,0,.31,1.18.21,2.5-.88,3s-2-.39-2.54-1.5C266.08,224.23,266.17,223.86,266.39,224Z" style="fill:#263238"></path><path d="M255.21,244.8c.53.39,1.09.94,1.81.89a5.06,5.06,0,0,0,2-.81s.13,0,.1.09a2.65,2.65,0,0,1-2.31,1.44,2.11,2.11,0,0,1-1.8-1.49C255,244.81,255.13,244.75,255.21,244.8Z" style="fill:#263238"></path><path d="M262.6,235.63s1,2.81,1.3,4.17a7.5,7.5,0,0,1-7.61-.69c-.13-.1,0-.29.16-.23a10,10,0,0,0,6.28.44c0-.4-1.89-4.75-1.68-4.81a11.89,11.89,0,0,1,3.25.05c-1.94-5.91-4.81-11.46-6.66-17.37-.06-.21.24-.34.34-.16,3.42,5.6,5.8,12.35,8,18.4C266.22,236.18,263.19,235.75,262.6,235.63Z" style="fill:#263238"></path><path d="M262,240.05a7.28,7.28,0,0,1-2.41,2.74,3.25,3.25,0,0,1-1.91.49c-1.47-.09-1.75-1.37-1.7-2.52a7.61,7.61,0,0,1,.3-1.8A9.31,9.31,0,0,0,262,240.05Z" style="fill:#263238"></path><path d="M259.6,242.79a3.25,3.25,0,0,1-1.91.49c-1.47-.09-1.75-1.37-1.7-2.52C257.51,240.63,259.19,241.36,259.6,242.79Z" style="fill:#ff9abb"></path><path d="M223.38,239.42s-10.12-8.21-10-22.09,15.34-25.74,32.68-24c0,0-22.78,5.69-25.79,18.34S223.38,239.42,223.38,239.42Z" style="fill:#415BB2"></path><path d="M228.76,241.47c5.25-1,2.78-13,2.78-13s20.29-10.64,16.41-28.73c0,0,7.32,10,20.21,11.33,0,0-7-18.94-23.42-17.7,0,0-21.1-.72-26.83,17.71S225.24,242.15,228.76,241.47Z" style="fill:#263238"></path><path d="M247.6,198.44a20.08,20.08,0,0,1,1.65,8.3,21,21,0,0,1-1.75,8.39,17.33,17.33,0,0,1-1,1.92L246,218c-.2.3-.41.59-.62.88-.43.58-.84,1.17-1.29,1.73s-1,1-1.48,1.55c-.25.25-.49.52-.75.76l-.82.68-1.66,1.34c-1.18.78-2.39,1.5-3.61,2.2,1.06-.94,2.19-1.76,3.22-2.69l1.5-1.45.74-.72c.23-.25.44-.53.67-.79.43-.54.87-1.07,1.32-1.58s.76-1.14,1.15-1.7l.57-.85.47-.91a15.52,15.52,0,0,0,.9-1.83,23.93,23.93,0,0,0,2-7.92,24.77,24.77,0,0,0,0-4.13A24.3,24.3,0,0,0,247.6,198.44Z" style="fill:#263238"></path><path d="M228.64,239.89s-7.8-7.78-11.43-4.84,3.34,15,8.39,15.89a4.88,4.88,0,0,0,6-3.74Z" style="fill:#f7a9a0"></path><path d="M219.29,238.45a.07.07,0,0,0,0,.13c3.56.75,5.86,3.52,7.65,6.49-1.21-1-2.67-1.48-4.1,0-.08.08,0,.2.12.17a3,3,0,0,1,3.44.45,14.22,14.22,0,0,1,2,2.35c.21.27.72,0,.54-.3a.3.3,0,0,0,0-.08C228.26,243.4,223.91,238.06,219.29,238.45Z" style="fill:#263238"></path><path d="M228.14,249.18a1.18,1.18,0,1,1-2.34.24,1.18,1.18,0,0,1,2.34-.24Z" style="fill:#fff"></path><path d="M225.07,247.57a.83.83,0,0,1-.75.92.84.84,0,1,1,.75-.92Z" style="fill:#fff"></path><path d="M217.46,238.33l-1.74,0a.61.61,0,0,1-.63-.6h0a.61.61,0,0,1,.61-.63l1.74,0a.62.62,0,0,1,.63.61h0A.62.62,0,0,1,217.46,238.33Z" style="fill:#415BB2"></path><path d="M217.71,240.11l-1.7.4a.62.62,0,0,1-.74-.46h0a.61.61,0,0,1,.46-.74l1.7-.4a.61.61,0,0,1,.74.46h0A.61.61,0,0,1,217.71,240.11Z" style="fill:#415BB2"></path><path d="M282,255s-3.62-10.08-10.3-7-1.47,12.39-1.47,12.39Z" style="fill:#ff9abb"></path><rect x="285.03" y="253.93" width="12.93" height="75.35" transform="translate(677.46 436.63) rotate(155.58)" style="fill:#415BB2"></rect><rect x="268.83" y="256.79" width="15.09" height="3" transform="translate(634.8 379.24) rotate(155.58)" style="fill:#37474f"></rect><rect x="270.2" y="259.81" width="15.09" height="3" transform="translate(638.66 384.43) rotate(155.58)" style="fill:#37474f"></rect><path d="M301.18,328.58l8.27,6.46,2.72,2.14.21-3.47.58-10.48-2-1.17s-.37,2.2-.39,2.24l-2-1.17s-.38,2.2-.39,2.24l-1.94-1.18s-.4,2.21-.42,2.25L304,325.26s-.4,2.21-.42,2.25l-1.94-1.18S301.19,328.54,301.18,328.58Z" style="fill:#ebebeb"></path><polygon points="309.45 335.04 312.17 337.18 312.38 333.71 309.45 335.04" style="fill:#37474f"></polygon><path d="M205.58,290.5c-15,24.53-40.13,76.88-30.48,96.13,9.29,18.54,83.14-8.27,98.12-13.78,6.16-2.26-1.3-53.13-8.12-51.53-15,3.49-46.8,18.65-47.51,18.18S221.41,317,225,295.13C230.25,263.32,216.35,272.86,205.58,290.5Z" style="fill:#f7a9a0"></path><path d="M310.09,297.1c4.07,4.67-.82,8.8-.82,8.8a11.62,11.62,0,0,1,7,3.59c3.09,3.64-1.27,10.08-1.27,10.08a14.28,14.28,0,0,1,6.8,5c2.6,3.78-.87,10.9-.87,10.9a12.52,12.52,0,0,1,3.22,8.13c-.15,8-10.65,14.42-17.35,18.42-9.95,6-29.36,9.42-33.59,10.87l-26.54-42.51s24.89-26.28,33.16-30.47C288.29,295.59,306.09,292.5,310.09,297.1Z" style="fill:#f7a9a0"></path><path d="M308.55,305.4c-8.41,1.48-15.93,5.35-23.66,8.8a.15.15,0,0,0,.12.27c7.65-3.52,15.89-5.47,23.66-8.68A.21.21,0,0,0,308.55,305.4Z" style="fill:#263238"></path><path d="M314.53,319.09a22.58,22.58,0,0,0-5.36,2.28q-2.76,1.39-5.47,2.89c-3.62,2-7.2,4.06-10.71,6.23-.16.1-.05.36.12.27,3.61-2,7.25-3.9,10.95-5.72,1.84-.91,3.7-1.81,5.56-2.69a26.38,26.38,0,0,0,5.14-2.74A.3.3,0,0,0,314.53,319.09Z" style="fill:#263238"></path><path d="M320.79,335.51c-1.66.27-3.28,1.47-4.72,2.3q-2.44,1.41-4.91,2.79c-3.28,1.85-6.56,3.69-9.91,5.42-.16.09,0,.35.12.27,3.41-1.74,6.84-3.44,10.23-5.21q2.5-1.29,5-2.63c1.41-.75,3.26-1.54,4.31-2.78A.1.1,0,0,0,320.79,335.51Z" style="fill:#263238"></path><path d="M217.61,339.19a50.15,50.15,0,0,0-6.89,6.66,87.54,87.54,0,0,0-5.69,7.26c0,.06.11.11.16.06,2-2.37,4.26-4.62,6.39-6.93s4.53-4.47,6.5-6.83C218.21,339.25,217.78,339.06,217.61,339.19Z" style="fill:#263238"></path><path d="M191.84,393.07a160.78,160.78,0,0,0,20.74-3.19l5.13-1.13,5.1-1.21c1.7-.41,3.39-.87,5.09-1.3s3.38-.88,5.06-1.36c6.75-1.83,13.43-3.91,20.1-6.05L263,375.5,272.9,372l.06,0h0c3.77-.89,7.54-1.86,11.3-2.82s7.5-2,11.21-3.09a60.72,60.72,0,0,0,10.8-4.12,70,70,0,0,0,9.86-6.15,60.4,60.4,0,0,1-9.52,6.78,47.7,47.7,0,0,1-5.25,2.64c-1.82.76-3.66,1.42-5.5,2.05-3.7,1.26-7.44,2.37-11.18,3.45s-7.5,2.08-11.27,3.06l.1,0-9.9,3.63c-3.32,1.12-6.64,2.3-10,3.37-6.7,2.11-13.43,4.18-20.25,5.87s-13.68,3.28-20.62,4.43q-2.6.44-5.21.81c-1.75.21-3.49.46-5.24.63A85.91,85.91,0,0,1,191.84,393.07Z" style="fill:#263238"></path><path d="M175.44,330.43,221.53,332s6.61-33.45,6.27-51.45c-.18-10.08-6.06-9.65-12.62-3.32C192.21,299.38,175.44,330.43,175.44,330.43Z" style="fill:#415BB2"></path><path d="M209.2,292.28a.85.85,0,1,1-.85-.85A.85.85,0,0,1,209.2,292.28Zm13.32-.85a.85.85,0,1,0,.85.85A.85.85,0,0,0,222.52,291.43Zm-7.09-11a.85.85,0,1,0,.85.85A.85.85,0,0,0,215.43,280.47Zm-21.25,33.06a.85.85,0,1,0,.85.85A.85.85,0,0,0,194.18,313.53Zm14.17,0a.85.85,0,1,0,.85.85A.85.85,0,0,0,208.35,313.53Zm14.17,0a.85.85,0,1,0,.85.85A.85.85,0,0,0,222.52,313.53Zm-21.26-11a.85.85,0,1,0,.85.85A.86.86,0,0,0,201.26,302.57Zm14.17,0a.85.85,0,1,0,.85.85A.86.86,0,0,0,215.43,302.57Zm-28.33,22.1a.86.86,0,1,0,.85.86A.87.87,0,0,0,187.1,324.67Zm14.16,0a.86.86,0,1,0,.85.86A.86.86,0,0,0,201.26,324.67Zm14.17,0a.86.86,0,1,0,.85.86A.86.86,0,0,0,215.43,324.67Z" style="fill:#fff"></path><path d="M220.17,324.7c-7.07-.83-26.31-2.53-39-2-.08,0-.1.3,0,.3,10.59,1.15,31.84,1.92,39,2.13C220.27,325.14,220.3,324.72,220.17,324.7Z" style="fill:#263238"></path><path d="M227.77,297.74c-.53,2-1,4-1.51,6l.09-.73c.28-2.8.56-5.6.76-8.41,0-.07-.11-.08-.12,0-1.37,9.79-5.24,34.54-5.46,37.25-.22,0-2.32.06-2.81,0-.11,0-.1.15,0,.16.25,0,3.41.41,3.43.34,1.37-4.77,3.46-22.81,3.9-26.8q1.08-3.87,1.77-7.81A0,0,0,1,0,227.77,297.74Z" style="fill:#263238"></path></g></svg>